<?xml version="1.0" standalone="no"?>
<!DOCTYPE svg PUBLIC "-//W3C//DTD SVG 1.1//EN" "http://www.w3.org/Graphics/SVG/1.1/DTD/svg11.dtd" >
<svg>
<metadata>
Created by FontForge 20090622 at Tue Jun 14 10:07:10 2016
 By deploy user
Copyright (c) 2015 by Tom Chalky. All rights reserved.
</metadata>
<defs>
<font id="BrixtonTC-Regular" horiz-adv-x="768" >
  <font-face 
    font-family="Brixton TC"
    font-weight="400"
    font-stretch="normal"
    units-per-em="1000"
    panose-1="0 0 0 0 0 0 0 0 0 0"
    ascent="800"
    descent="-200"
    x-height="499"
    cap-height="698"
    bbox="-7.4 -404 4270 917"
    underline-thickness="50"
    underline-position="-50"
    unicode-range="U+0020-U+FB02"
  />
<missing-glyph horiz-adv-x="150" 
 />
    <glyph glyph-name=".notdef" horiz-adv-x="150" 
 />
    <glyph glyph-name=".null" horiz-adv-x="0" 
 />
    <glyph glyph-name="nonmarkingreturn" horiz-adv-x="333" 
 />
    <glyph glyph-name="space" unicode=" " horiz-adv-x="150" 
 />
    <glyph glyph-name="exclam" unicode="!" horiz-adv-x="219" 
d="M198 569q0 -35 -11 -71l-8 -28l-8 -28q-8 -33 -9 -38q0 -2 -6 -28q-2 -7 -5.5 -23.5t-6.5 -25.5q-1 -1 -1 -3q-1 -9 -4.5 -29t-4.5 -31q0 -21 -8 -65q0 -9 -12 -11q-1 0 -3.5 -0.5t-3.5 -0.5h-4q-14 2 -18 16q0 4 -1 7q0 4 -0.5 10.5t-0.5 10.5q0 23 -5 50l-3 18
q-2 7 -5.5 25t-6.5 27l-2 9q-2 8 -4 12q-7 22 -8 27q-8 39 -8 43q-2 12 -3 17q-3 12 -3 22q-1 5 -2 14.5t-2 17l-2 14.5l-3 21q-2 27 -4 33q-3 12 0 25q1 7 2.5 21t2.5 21q0 7 6 21q7 18 27 21q17 5 32 1q6 -2 17.5 -4l17.5 -3l24 -6q11 -3 18 -12q1 -1 2 -2.5l2 -3t2 -3.5
q15 -24 18 -46q0 -2 0.5 -4t0.5 -3q4 -8 4 -32v-3zM54 57v7q2 11 6 18q2 2 4 6t4 6q14 16 33 21q7 3 15 1q5 -1 15 -5q11 -3 19 -14q8 -12 11 -18q2 -4 4 -12v-15q0 -15 -8 -29q-3 -5 -8 -9q-6 -5 -13 -8q-10 -7 -26 -10h-6q-16 3 -23 8q-6 3 -12 9q-4 6 -8 13q-7 10 -7 23
v8z" />
    <glyph glyph-name="quotedbl" unicode="&#x22;" horiz-adv-x="330" 
d="M250 499h-5q-17 0 -32 9q-5 2 -7 6q-2 2 -4 6t-4 6q-6 8 -10 26q-2 6 -2 9q0 22 3 33q5 23 21 54q10 17 28 29q11 7 21 11q3 2 9 0q6 -6 7 -10v-3q-1 -4 -6 -10t-6 -8q-5 -8 -5 -17q-2 -5 5 -10q2 0 3 -1q2 0 3 -1q23 -10 34 -33q3 -5 5 -15q2 -18 1 -27q-2 -14 -8 -23
q-7 -15 -23 -24q-10 -6 -17 -6q-8 0 -11 -1zM82 500h-4q-5 -1 -5 0q-7 0 -15 3q-1 0 -2 1l-6 3q-3 1 -7 5q-9 10 -16 26q-9 24 -5 42q2 14 4 21q0 3 2 9l11 26q3 8 8 16q9 14 24 24q9 6 24 12q5 2 9 -1q3 -3 5 -7q1 -1 1 -6q0 -1 -5 -8q-3 -2 -10 -15q-3 -6 -3 -12
q2 -6 5 -8q2 -1 8 -3q17 -7 28 -23q9 -14 10 -26q2 -18 1 -27q-3 -20 -16 -33l-6 -6q-15 -13 -30 -13h-10z" />
    <glyph glyph-name="numbersign" unicode="#" horiz-adv-x="508" 
d="M152 193q-1 -8 -5 -26t-5 -27q-2 -8 -4.5 -23.5t-3.5 -20.5q-2 -7 -4 -22t-5 -22q-2 -12 -2 -17q-1 -16 -8 -34q-2 -7 -10 -7q-7 -1 -38 -1q-13 2 -17 15q-1 2 -1 4q1 2 2 6.5t1 6.5q2 16 8 48q7 28 11 47q2 6 2 10q4 22 7 33q1 3 2 14t3 17v3q-2 2 -3 2q-3 2 -10 2
q-8 0 -41 7q-1 0 -5 4q-4 3 -4 9q-1 8 -1 24q0 6 5 11t10 5q7 1 22 1t23 1q1 0 5 0.5t5 0.5q5 0 8 6l1 2v2q1 9 4.5 27t4.5 27q3 22 9 40q2 8 4.5 22.5t3.5 18.5q-1 2 -5 4q-3 1 -10 1h-38q-21 0 -41 6q-3 1 -6.5 5t-3.5 8q-2 18 0 27q0 1 1 3.5t2 3.5q7 7 11 7q8 0 25 1
t26 1h38h4q12 0 12 10q1 4 5 22t5 29q2 10 6 37t7 41q2 6 4 18.5t4 18.5q5 19 13 31q2 3 5 5q8 5 16 6q13 3 28 0q3 0 9 -4q4 -6 4 -9q0 -10 -2 -14q-5 -11 -9.5 -31.5t-6.5 -27.5q-2 -5 -2 -14q-2 -28 -5 -41q0 -1 -3 -17q0 -21 -5 -44q-2 -10 7 -10q78 -2 118 -2q7 0 10 8
q1 7 4.5 23t4.5 25q2 11 6 38.5t7 42.5q1 6 3.5 18t4.5 19q6 18 11 26q4 6 12 11q12 4 17 4h20q3 -1 7 -3q10 -2 8 -14q0 -2 -1 -5t-1 -5q-4 -10 -9 -30.5l-7 -28.5t-2 -11q-2 -32 -6 -47q-1 -4 -1 -11q-2 -28 -7 -51v-3q0 -2 2.5 -5t3.5 -3q5 -1 31 -1q4 0 14 -2
q7 -2 10 -8q5 -8 6 -16q1 -12 0 -24q0 -5 -4.5 -9t-9.5 -4h-17q-6 0 -19 0.5t-19 0.5q-10 0 -12 -9q-14 -62 -20 -80q-2 -12 -8 -34q-1 -5 -1 -17q0 -2 2.5 -4.5t3.5 -2.5q10 -2 14 -2h59q9 0 16 -4q8 -3 10 -9q5 -8 5 -16v-24q0 -3 -4 -7t-8 -5h-7q-29 0 -44 3q-28 3 -52 2
q-10 0 -12 -9q-2 -6 -2 -7q0 -3 -1 -7t-1 -7q-3 -14 -7 -37q-1 -3 -3.5 -16t-3.5 -21q-2 -8 -4.5 -22t-3.5 -22q-4 -16 -4 -24q0 -6 -8 -33q-2 -6 -11 -8h-34q-10 0 -18 10q-4 8 -3 13q2 6 3 10q2 20 4 30l6 27q3 10 7 30q4 16 5 24l3 15l3 15q1 13 6 27q1 3 -2 6.5t-7 2.5
q-19 -3 -58 -3h-62q-8 0 -12 -7zM236 268v1q17 -1 51 -1h11q9 0 9 8q1 9 4.5 26t4.5 25q0 3 1.5 8t1.5 6q6 24 8 36l3 15.5l3 15.5v3q0 3 -4 5q-2 2 -8.5 0.5t-8.5 -1.5q-32 0 -96 -2q-7 0 -10 -1q-2 0 -6 -4l-3.5 -13.5t-3.5 -15.5q-3 -19 -13 -50q-7 -29 -8 -37
q-3 -8 -1 -17q0 -4 4 -5q4 -2 6 -2h55z" />
    <glyph glyph-name="dollar" unicode="$" horiz-adv-x="489" 
d="M257 697q6 -6 7 -6h7q23 0 35 -1q5 0 15 -2t16 -2q28 0 62 -18q9 -4 15 -8q7 -5 7 -11q1 -2 1 -5.5t1 -5.5q0 -4 0.5 -11t1 -12.5t1.5 -10.5q3 -31 1 -69q0 -11 -6 -31q-1 0 -2.5 -2t-2.5 -2q-4 -2 -6 3q-2 0 -2 2q-6 15 -7 20t-3.5 15t-3.5 15q-2 6 -6 16l-21 36
q-8 14 -24 25q-1 0 -11 8q-14 8 -22 10l-20 6q-12 3 -27 1q-7 -2 -7 -8v-13v-27.5t-1 -28.5q-1 -5 -1 -17q3 -49 0 -97q0 -11 1 -17q2 -7 5 -9l11 -8l61 -39q40 -27 72 -55q3 -3 8.5 -8t8.5 -8q9 -9 17 -22q16 -27 23 -54q8 -25 7 -48q0 -25 -11 -50q-8 -18 -10 -22
q-7 -17 -23 -38q-13 -18 -34 -39q-10 -11 -28 -20q-16 -8 -26 -9q-6 -2 -17.5 -4.5t-16.5 -3.5q-22 -4 -34 -6q-7 0 -7 -10q-1 -7 -1 -21v-17q0 -5 -4 -13q-1 -5 -7 -8q-2 0 -6 -1.5t-7 -2.5q-9 -1 -16 3q-5 5 -5 9q-1 6 -1 38v14q0 8 -9 8q-4 1 -13 1h-32q-18 0 -27 1
q-9 0 -27 4q-9 3 -17 3q-8 2 -14 4l-28 12q-3 2 -8 7q-4 8 -4 13q-1 11 -4 39t-4 44q-1 3 -1 10q0 5 -2 17q-5 17 -3 34q0 6 5 9q2 3 6 -1q3 -3 4 -5q1 -3 2.5 -8.5t2.5 -8.5q11 -43 42 -74l12 -12q17 -19 42 -31q13 -7 26 -8q4 -1 10 -2t10 -2q11 -3 24 -1q5 3 7 8
q0 6 1 10q1 30 -1 90q-1 24 -1 72v35q0 8 -9 14q-6 3 -28 16.5t-34 19.5q-15 9 -34 24q-28 20 -44 49q-1 2 -5 8l-6 9q-10 17 -17 42q-1 1 -1 3l-6 48q0 23 3 34q0 3 9 44q4 14 8 19q13 25 30 43l19 19q12 11 27 15q14 4 21 5t24 5.5t26 5.5h1q1 1 2 1q9 2 9 10q1 3 1.5 8.5
t0.5 8.5q3 9 12 12q12 2 23 -3q8 -5 9 -11q1 -5 3 -17zM255 160q0 -17 0.5 -47.5t1.5 -45.5v-7q1 -3 4 -6t6 -2q6 2 10 2q11 3 18 9q5 4 13 12q10 15 11 17l4 10.5l4.5 12t3.5 10.5q0 1 0.5 3t0.5 4v12t-1 12q-3 29 -24 52q-8 9 -17 17q-12 12 -27 21q-2 1 -5 -0.5t-3 -3.5
t-0.5 -5t-0.5 -5q0 -62 1 -72zM212 536v2q0 49 -3 62q-1 3 -1 10v28q0 4 -1 7q0 2 -3 3.5t-5 0.5q-21 -10 -30 -32q-10 -19 -15 -50q-2 -7 0 -13q4 -23 13 -36q15 -18 28 -30l9 -6q1 -1 3.5 -1.5t3.5 -0.5q0 1 1 3t1 3q2 26 -1 50z" />
    <glyph glyph-name="percent" unicode="%" horiz-adv-x="898" 
d="M198 337q-23 -2 -36 2q-12 2 -17 2q-11 0 -33 8q-10 3 -18 9q-17 12 -29 24q-11 10 -18 24q-6 11 -14 23q-4 6 -7 16q-6 21 -6 43v17q0 4 0.5 16t1.5 18l6 30q1 11 10 25q12 23 31 39q5 4 13 12q13 14 40 25q10 4 16 4q20 2 30 6q3 1 10 1h37q2 -1 5 -2t5 -1q1 0 5 -1
t5 -1q17 -3 32 -12q22 -8 37 -33q2 -4 18 -32q2 -5 5 -16t5 -16q2 -4 2 -10v-45q0 -30 -6 -50q-3 -15 -7 -26l-6 -12q-1 -4 -14 -27q-13 -22 -42 -39l-12 -6q-6 -1 -16 -5t-16 -5q-9 -4 -17 -5zM219 542h-1v37q0 19 -7 43q-1 4 -8 15l-6 3q-19 5 -37 0q-3 -1 -8 -6
q-7 -7 -8 -15q-2 -16 -2 -23q0 -14 -1 -21q-3 -11 -3 -23v-61q0 -7 1 -10l2 -12.5t2 -15t2 -12.5q2 -5 4 -15t2 -11q5 -19 23 -23q12 -5 20 8l3 6q15 33 16 58q0 8 2 20q2 10 2 14q1 7 1.5 22t0.5 22zM800 -3q-26 -8 -38 -13q-12 -4 -27 -4q-23 -1 -51 2q-25 5 -41 14
q-20 11 -37 30q-5 4 -13 16l-21 34q-3 9 -4 11q0 4 -1.5 14t-2.5 15q-1 4 -1 13q0 28 1 41q0 19 10 53l3 6q2 4 20 32l7 7l12 12q3 3 8.5 8t7.5 6.5t7.5 5t12 6.5t16.5 7q31 6 35 7q12 2 17 2h31q16 0 26 -5q6 -2 10 -2q8 -1 16 -6l11 -5.5t10 -5.5q19 -16 29 -37
q1 -2 3.5 -5.5t3.5 -5.5q7 -14 12 -32q0 -3 2 -8.5t2 -8.5q1 -5 1 -33v-31q0 -5 -2 -13q-3 -12 -3 -13q0 -4 -8 -33q-7 -16 -13 -28q-5 -10 -19 -28q-3 -3 -5 -4zM684 249q-3 -37 -3 -100q0 -32 5 -47v-5t1 -5q0 -5 2 -13q4 -20 7 -30t14 -13q5 -2 14 -2q8 1 13 9q4 6 5 9
q1 2 9 29q3 7 5 23q2 34 5 50q0 2 0.5 7t0.5 7q0 34 -1 51q0 5 -5 33q0 3 -2 11q-2 4 -8 14q-1 2 -5 4q-14 7 -26 3q-7 -1 -16 -5q-7 -2 -9 -9q-4 -12 -6 -21zM219 -32q-12 0 -19 1q-11 2 -9 12q0 5 3 10q4 5 71 100q3 4 9 14q10 21 33 51q7 10 8 11q6 11 21 34t21 36l8 11
l25 32q0 1 2 3q10 18 28 42q8 10 27 40q18 26 25 40q2 4 9 14q5 9 15.5 26.5t15.5 26.5l33 55q4 7 14 19q15 17 33 48q19 31 26 40q20 25 40 41q5 5 15 7q5 0 14 0.5t13 0.5q6 0 10 -3q5 -2 5 -7q2 -8 -2 -13q-10 -16 -15 -23l-123 -187l-214 -323l-82 -125l-15 -23
q-6 -6 -10 -8q-4 -3 -10 -3h-25z" />
    <glyph glyph-name="ampersand" unicode="&#x26;" horiz-adv-x="794" 
d="M212 392q-1 3 -3 7q-6 18 -9 26q0 2 -1 5t-1 4q-4 17 -4 40v39q0 28 8 48q6 19 13 35q2 2 4 6q14 18 22 26q3 1 4 4q2 3 21 19q8 6 16 9q8 4 11 7q10 6 15 8q1 1 5 3q1 1 11 6q4 0 8 2q16 6 23 7q5 0 11 3l9 3q6 3 12 3q22 4 48 -4l18 -6q3 -1 25 -12q2 -2 7 -5.5t8 -4.5
l8.5 -6.5l10 -8t8.5 -6.5l3 -3q8 -10 15 -23q1 -7 5 -14q4 -8 4 -19v-17q0 -12 -5 -25q-8 -20 -12 -29q0 -2 -1 -3q-12 -20 -22 -29l-10 -10l-3 -3q-3 -2 -9.5 -6t-9.5 -6q-2 -2 -6 -4.5t-5 -2.5q-1 -1 -14 -9q-2 -1 -5.5 -2.5t-5.5 -1.5q-3 -2 -9 -4q-6 -3 -16.5 -7
t-14.5 -6q-8 -2 -14 -4q-3 -1 -11 -3q-1 0 -3 -2l4 -6l4.5 -6.5t3.5 -5.5q12 -14 26 -39q4 -7 23 -33q1 -1 10 -13q2 -4 23 -35q1 -2 3.5 -5.5t3.5 -5.5l25 -42q1 -2 4 -5.5t3 -4.5q4 -7 14 -10l1 -1h2q2 1 5 4.5t5 4.5q4 3 12 11l3 3q4 6 16 18q6 6 8 10q7 9 21 29
q3 5 7 14t5 11q3 5 3 11v10q0 11 -5 23l-2 2q-10 14 -17 19q-6 5 -12 7q-1 1 -4 2t-4 1q-6 6 -4 14q0 6 6 6q4 1 13 1q17 -1 52 -1h5q6 2 18 2q26 0 39 -1h9q14 -2 22 -1h6q9 -2 26 0q3 0 5 1q1 -1 6.5 -2.5t7.5 -4.5q3 -9 -6 -14q-2 -1 -5.5 -3t-5.5 -3q-4 -1 -8 -3
t-8.5 -5t-7.5 -4q-7 -3 -10 -10l-1 -1q-1 -1 -1 -2q-3 -4 -8.5 -12t-6.5 -10q-4 -8 -7 -12l-23 -37q-1 -1 -2 -3t-2 -3q-5 -8 -10 -13q-1 -1 -10 -13q-1 -2 -6 -10.5t-8 -12.5l-5 -5q-4 -3 -16 -21q-4 -9 -13 -16q-3 -2 -7 -8q-2 -2 -3 -4l-24 -24q-7 -7 -7 -15q2 -4 3 -5
q8 -12 13 -17l5 -5q2 -3 23 -24q2 -1 5.5 -4t5.5 -5q3 -3 6 -3q4 0 11.5 -0.5t11.5 -0.5q6 0 12 3q3 1 7.5 3t6.5 3t14 8l18 12q8 5 17 2q3 -1 5 -7q-1 -1 -1.5 -4t-0.5 -4q-2 -4 -2 -6q-2 -8 -7 -12l-1 -1v-1q-3 -5 -11 -14t-10 -12l-3 -3q-3 -2 -8.5 -7.5l-8.5 -8.5
q-8 -9 -19 -13q-5 -3 -15 -7q-3 -2 -9 -2q-24 0 -36 -1h-12q-9 -1 -27 -1q-6 2 -26 2q-9 0 -14 2q-1 1 -4.5 1t-5.5 1q-6 2 -8 3q-14 6 -19 11q-2 2 -6 4q-8 5 -12 10l-24 23l-2 2q-12 -3 -20 -10q-1 -1 -5 -3t-11.5 -5l-13.5 -5.5l-11 -4.5q-39 -15 -49 -17l-1 -1
q-6 -3 -33 -8q-2 0 -8 -1t-8 -2h-2q-18 -2 -27 -2h-20h-4l-42 6q-13 3 -41 9l-9 3q-22 10 -33 14q-4 2 -12 8q-4 3 -12 11q-5 3 -8 8q-1 1 -7 8.5t-10 11.5q-5 7 -8 14q-8 18 -11 26l-3 9q0 3 -2 11q-3 14 -3 28v5q0 2 0.5 6.5t0.5 6.5q0 14 5 29q3 16 7 25q3 9 7 17
q2 2 4.5 7l3.5 7q0 1 2 3q7 10 23 30q1 2 3.5 5t4.5 5q1 1 2.5 3t2.5 3q21 19 28 22q4 2 5 3q3 4 11 9t10 7q29 17 37 20q9 3 20 8q8 3 10 4q1 1 2.5 2t2.5 1zM228 349q-12 -8 -17 -13q-11 -10 -22 -28q-8 -13 -13 -30q-3 -10 -3 -21q0 -4 0.5 -15.5t1.5 -18.5q0 -7 3 -15
q8 -24 12 -35q4 -12 7 -18q2 -5 9 -17l1 -1q1 -2 2 -3q3 -3 6 -6.5t7.5 -7.5t6.5 -6q1 -2 4 -4.5t5 -3.5q2 -3 5 -5q4 -2 5 -3q4 -3 35 -13h1q14 -2 23 1q12 2 20 4q1 1 5 1q1 0 3 0.5t4 0.5q8 1 19 5q8 2 14 6q10 6 13 17q0 1 -3 7t-27 40q-14 20 -21 31l-15 21
q-2 3 -6.5 9t-6.5 10q0 1 -2 2.5t-2 2.5q-1 1 -2 3q-3 4 -4 6q-3 5 -10.5 14.5l-11.5 14.5q-6 6 -9 13q0 2 -2 4q-2 4 -6.5 10t-6.5 10q-1 2 -7 11t-9 14zM349 448h3q16 6 34 14q16 8 30 21q2 1 5 4l4 4t3.5 4t3.5 5q10 19 12 41q0 19 -6 37q-4 14 -14 27q-3 6 -8 11
q-1 1 -3 4t-3 4q-7 11 -19 17q-3 1 -7 2.5t-6 1.5q-5 2 -22 2l-1 -1h-2q-16 -7 -20 -20l-2 -4t-1 -4q-9 -26 -8 -45q0 -15 -1 -23q0 -5 0.5 -10t1.5 -11.5t1 -10.5q4 -21 14 -48q5 -14 11 -22z" />
    <glyph glyph-name="quotesingle" unicode="'" horiz-adv-x="163" 
d="M90 654q3 -7 8 -8q17 -4 32 -22q10 -12 12 -28q1 -8 1 -24q-1 -21 -15 -36q-2 -2 -6 -5.5t-6 -5.5q-9 -7 -22 -9h-15q-14 -1 -32 8q-2 1 -5 4l-15 23q-7 12 -7 23v16q0 17 7 38q4 11 14 31q12 25 38 39q2 2 13 7q7 2 12 -3l1 -2q1 -2 2 -2q3 -5 1 -9q-1 -1 -2.5 -3.5
t-2.5 -3.5q-10 -11 -13 -28z" />
    <glyph glyph-name="parenleft" unicode="(" horiz-adv-x="284" 
d="M251 737q2 1 6 -1q4 -4 7 -10q0 -2 -2 -6q-1 -2 -4.5 -4.5t-4.5 -3.5q-13 -9 -21 -22q-1 -1 -3 -3.5t-3 -3.5q-13 -16 -23 -39q-2 -5 -8.5 -19.5t-11.5 -22.5q-1 -1 -3 -5q-17 -42 -26 -76q0 -2 -3 -14t-4 -18q-5 -11 -5 -27v-34q-1 -18 -1 -52q0 -7 -1 -10l-3 -48
q-1 -19 0 -37q0 -5 2 -15l3 -25q2 -30 5 -45q3 -26 10 -48l6 -21q9 -30 19 -48q7 -14 8 -17q2 -6 20 -45q6 -10 11 -15l4 -4t4 -5q10 -12 25 -26q6 -4 1 -11q-5 -3 -9 -2q-1 1 -2 1q-2 1 -3 1q-4 2 -5 3q-4 4 -12.5 10t-10.5 7q-9 7 -29 21q-43 30 -77 75q-4 4 -7 10l-36 60
q-17 36 -22 51q-4 13 -5 18l-3 11.5l-3 11.5l-6 24q-2 16 -4 24q-1 5 -1 15v96v6q5 35 7 42q5 24 16 62q14 43 15 47q10 24 21 44q4 11 13 24q23 34 41 50q8 7 24 19q28 20 43 29q4 2 6 2q14 7 42 19h3z" />
    <glyph glyph-name="parenright" unicode=")" horiz-adv-x="283" 
d="M263 353v-40q0 -14 -2 -40q-2 -16 -4 -24q-1 -6 -4 -17t-4 -16q-6 -25 -20 -55q0 -1 -2 -5q-34 -60 -35 -61q-2 -3 -5 -8.5t-4 -7.5l-21 -27q-3 -4 -10 -11q-31 -31 -54 -46q-21 -13 -47 -34q-8 -6 -13 -7q-4 -1 -7.5 1t-3.5 6l1 3q2 3 6 7q13 12 33 36q14 23 25 49
q1 2 6 13.5t8 17.5q12 28 15 43l6 21q3 6 5.5 18t4.5 17q0 6 2 22q0 12 3 24l3 30q0 4 0.5 16t1.5 18q1 3 1 9q-3 11 -3 34q0 16 -1 50t-1 51q0 16 -2 24l-6 36q-9 38 -21 71q-8 23 -16 36l-15 33q-17 38 -45 66q-2 2 -7.5 6.5t-8.5 7.5v1q-1 1 -1 2q-1 4 2 9t7 5h6
q32 -14 47 -22q8 -3 16 -9q2 -1 5.5 -3.5t5.5 -3.5q36 -22 66 -58q14 -17 25 -39q26 -49 36 -87q2 -6 5.5 -17.5t4.5 -14.5l2.5 -7.5t2.5 -8.5t1 -8l6 -24q1 -3 1 -9q3 -26 3 -52v-21z" />
    <glyph glyph-name="asterisk" unicode="*" horiz-adv-x="325" 
d="M133 568q1 2 5 6q1 10 1 58q0 23 5 51q2 3 5 5q3 0 7 2h17q8 -4 10 -12v-11l-3 -73q0 -3 0.5 -9t0.5 -9t3.5 -6t7.5 -2q16 4 25 6q14 2 21 2q16 7 35 13h11q3 0 7 -2q9 -7 13 -21q1 -5 -2 -10.5t-8 -7.5q-28 -11 -76 -26q-3 0 -7 -2q-6 -4 -7 -7q1 -6 9 -16
q9 -10 26 -30.5t26 -30.5q7 -8 4 -20t-15 -16q-8 -3 -18 2q-9 5 -13 12q-6 6 -16 20l-40 48q-5 5 -9 0q-3 -2 -7 -8l-23 -33q-9 -15 -29 -43q-4 -7 -13 -7.5t-16 4.5q-2 1 -9 11q-1 3 -1 7q1 2 2 5.5t2 5.5q6 10 10 15q2 3 13 22q4 9 14 25.5t13 22.5q2 2 0 6.5t-5 5.5l-1 1
q-2 0 -2 1q-10 2 -28 8q-32 10 -54 23q-6 3 -3 9q1 4 3.5 11t4.5 10q5 9 16 7q11 -3 14 -4l21 -6q15 -2 38 -12q10 -2 15 -1z" />
    <glyph glyph-name="plus" unicode="+" horiz-adv-x="387" 
d="M290 361h49h10q11 -2 13 -11q5 -15 5 -27q-1 -2 -1 -6q0 -5 -4 -8.5t-8 -3.5q-37 0 -55 4q-26 5 -49 -1l-21 -3q-1 0 -3.5 -2.5t-2.5 -3.5t-0.5 -3t-0.5 -3q0 -61 -1 -92q0 -14 -1 -21q0 -4 -3 -9t-9 -7q-21 -2 -31 1q-2 0 -5 3q-2 3 -4 11q-2 24 -2 34q0 13 -2 80
q0 4 -1 6l-4 4q-3 1 -9 1q-14 0 -41.5 0.5t-41.5 1.5h-25q-2 0 -5 1t-4 1q-12 4 -12 16q-1 10 0 21q1 1 1 3t1 3q5 8 13 8q10 1 30 1q43 0 64 2h13t12 1q9 2 9 11v1q1 1 1 2q0 11 0.5 35t0.5 35v12.5v15v12.5q0 15 17 19q4 1 12 1q9 1 18 0q8 -3 8 -8v-3q0 -35 -2 -53
q0 -4 -2 -12q-1 -12 0 -24q1 -6 4 -36q0 -8 8 -8q10 0 30.5 -0.5t30.5 -1.5z" />
    <glyph glyph-name="comma" unicode="," horiz-adv-x="158" 
d="M82 4q-6 0 -9 1q-13 0 -23 6q-7 4 -14 12q-4 4 -7 10q-15 25 -3 53q6 15 20 26q11 10 25 11h6q24 0 39 -15q8 -8 12 -13q6 -6 7 -14q3 -12 3 -24l-3 -33q0 -2 -0.5 -5t-0.5 -4q-1 -5 -4 -13.5t-5 -15.5t-3 -13q0 -3 -1 -5.5l-2.5 -6t-2.5 -5.5q-6 -13 -16 -22
q-5 -5 -11 -3q-9 1 -12 9q-3 5 -2 9q1 5 4.5 14.5t4.5 11.5q3 11 3 21q0 3 -5 8z" />
    <glyph glyph-name="hyphen" unicode="-" horiz-adv-x="384" 
d="M331 305q-22 2 -33 4q-26 5 -49 -1q-8 -2 -12 -2q-10 0 -41 -1t-48 0q-64 0 -95 1h-13q-3 1 -14 5q-4 3 -6 10v3v22q0 4 3.5 8t7.5 5q5 0 15.5 0.5t15.5 0.5q14 0 40 1t40 1q6 0 9 1q10 2 46 2h6q10 -3 39 -3q7 0 19 -0.5t18 -0.5h62q6 0 9 -1q4 0 7.5 -4t4.5 -8
q3 -14 1 -34q0 -9 -10 -9h-22z" />
    <glyph glyph-name="period" unicode="." horiz-adv-x="151" 
d="M20 67q0 1 0.5 3.5t0.5 4.5q0 9 5 17q2 2 4 6.5t4 6.5q12 14 33 21q7 2 15 0q3 0 8 -1.5t7 -2.5q9 -2 19 -14q6 -7 11 -19q2 -3 4 -11v-16q0 -15 -8 -29q-2 -3 -8 -9q-2 -1 -6.5 -4t-6.5 -4q-8 -5 -26 -9q-3 -1 -6 0q-9 2 -23 7q-8 6 -11 10l-9 12q-7 10 -7 24v7z" />
    <glyph glyph-name="slash" unicode="/" horiz-adv-x="333" 
d="M56 -9q-14 0 -19 1q-9 1 -14 9q-4 4 -2 7l8.5 29t8.5 28q2 5 9 24t10 29l12 36q2 9 8 27q1 4 6 16.5t7 19.5q3 13 11 37q2 6 5.5 18.5t5.5 18.5l6.5 23t7.5 24q11 30 25 73q3 8 6 17.5l6.5 21.5t5.5 18q7 18 19 56l22 74q9 32 21 63q4 10 14 28q5 11 19 14q16 3 35 1
q3 0 4 -1l6 -3q4 -6 3 -10q-7 -15 -13 -32l-15 -40q-3 -9 -3 -10q-1 -8 -6 -23.5t-6 -23.5q-9 -33 -11 -44q-5 -20 -16 -50q-1 -3 -5.5 -18t-6.5 -23q-26 -77 -31 -89q-12 -26 -22 -62l-9 -27q-22 -64 -32 -97q-1 -5 -15 -46q-1 -5 -5 -17.5t-6 -19.5q-3 -7 -6.5 -20
t-4.5 -17q-4 -10 -10 -30q-3 -8 -10 -8q-9 -2 -23 -2z" />
    <glyph glyph-name="zero" unicode="0" horiz-adv-x="548" 
d="M527 363q0 -12 -7 -82q-12 -51 -18 -64q-1 -3 -2.5 -7t-2.5 -7q-8 -25 -28 -52l-35 -50l-33 -45q-6 -9 -30 -31l-2 -1l-3 -3l-20 -9q-26 -13 -65 -13q-8 0 -24 2q-17 1 -38 10q-18 8 -52 30q-17 13 -30 30q-31 34 -53 66q-20 26 -33 55q-2 4 -2 6l-14 44q-2 5 -4 14
t-3 13q-2 3 -2 11q-2 38 -5 45q-2 29 1 43t3 28q0 11 1 17q0 8 1 11q2 6 7 49l6 34q3 12 11 34q10 25 25 47q20 26 22 28q14 18 32 32q30 24 46 34q27 17 59 21l18 3q7 3 17 1q12 -2 17 -3q1 0 9.5 -1t12.5 -2l27 -6q4 -1 11.5 -4t11.5 -4q14 -5 22 -12q4 -4 9 -8t11.5 -8.5
t9.5 -7.5q13 -11 16 -15q28 -35 39 -50q5 -7 10 -15l11 -18l9 -15l3 -6q3 -7 13 -41q1 -2 1.5 -7t0.5 -7q2 -16 5 -24q2 -6 2 -10q7 -52 6 -70v-10zM278 25q4 1 10 3q10 3 18 11q7 7 9 11q9 14 15 28q0 2 2 7t2 7q19 47 29 90q2 8 4 27t5 29q0 7 1 11v7v18q2 35 5 45
q1 6 1 18q3 78 0 156q0 9 -2 14q-2 6 -3.5 17.5t-2.5 16.5q-2 6 -5 19t-6 19q-4 20 -20 56q-1 2 -9 16q-3 5 -9 10q-15 10 -32 16q-9 3 -28 3q-9 -2 -16 -7q-8 -8 -11 -13q-11 -18 -18 -39q-5 -15 -13 -47q-5 -18 -8 -31q-8 -52 -7 -63q0 -7 -1 -11q-3 -56 -4 -63v-4.5v-5.5
v-4q0 -38 -2 -114v-10q0 -17 3 -25q2 -8 2 -14q2 -31 7 -41q2 -4 2 -7q0 -11 9 -42q0 -4 2 -11.5t3 -12.5q0 -7 1 -10l9 -27q6 -19 20 -37q5 -9 14 -10z" />
    <glyph glyph-name="one" unicode="1" horiz-adv-x="414" 
d="M287 345q0 -41 0.5 -122.5t0.5 -122.5q0 -19 1 -28q0 -6 5 -13q3 -3 11 -9q9 -5 33 -12q3 -1 11 -1q10 -1 31 -1q7 -1 10.5 -6t2.5 -12q-2 -9 -10 -9q-4 0 -12 -0.5t-13 -0.5q-38 0 -46 -1q-6 -1 -20 -1t-22 -2q-8 -1 -25 -1q-33 0 -49 -1q-42 0 -128 -2q-15 -2 -32 0
q-13 0 -16 16q0 2 2 6q4 4 9 6q3 0 9 0.5t9 0.5q19 1 38 7q20 6 38 19q6 6 7 12q2 14 2 21q0 28 2 42q2 12 2 36v49q0 28 2 82q1 9 1 28v57q0 11 -0.5 32t-0.5 31q0 15 -1 44.5t-1 44.5q0 2 -0.5 7t-0.5 7q-3 8 -8 5q-11 -4 -25 -14q-18 -16 -22 -18q-6 -4 -13 -3
q-4 0 -7.5 4t-1.5 8q1 1 1 4q7 6 11 14q13 17 19 30l19 37q1 2 3.5 6t4.5 6q4 6 7 8q34 20 37 21q5 2 17 7.5l19 8.5q30 10 57 27q5 3 17 3q5 -2 8 -7v-1l1 -2q0 -3 0.5 -7.5t0.5 -6.5q0 -38 3 -57q2 -44 2 -67v-209z" />
    <glyph glyph-name="two" unicode="2" horiz-adv-x="485" 
d="M82 152l29.5 23.5l29.5 23.5q4 2 10 10l27 37q10 17 21 29q8 8 13 21q21 46 30 75q3 9 7 27q1 13 7 35q5 14 6 28v3q4 16 5 24v10.5v12v9.5v22q0 30 -6 59q0 3 -2 7q-6 22 -26 32q-16 6 -24 6h-14q-22 1 -48 -11l-34 -18l-15 -9q-29 -19 -43 -51q-1 -1 -2 -4t-2 -5
l-2.5 -13t-1.5 -12q-1 -6 -7 -12q-6 -7 -13 0q-5 8 -6 16q0 15 2 21q5 21 17 47l6 9q16 20 25 30q24 26 54 45q2 1 6 3.5t6 3.5q33 11 37 12q8 3 28 5q35 2 56 -5q22 -3 41 -9l10 -4l11 -4.5t9 -3.5l12 -4t14 -6l29 -21l5 -5q20 -14 31 -38q2 -4 10 -22q1 -6 4.5 -17.5
t4.5 -17.5l3 -21q3 -15 0 -31q-1 -5 -2.5 -14.5t-1.5 -13.5q0 -7 -8 -39q0 -3 -4 -9q-2 -6 -7 -17t-7 -16q-14 -32 -42 -60q-2 -2 -4 -4.5t-5 -5t-4 -3.5q-28 -28 -40 -45q-11 -14 -23 -26l-66 -65q-16 -14 -25 -20q-5 -3 -14.5 -10l-13.5 -10q-4 -2 -2 -6q1 -4 5 -5
q4 -2 6 -2q52 -4 78 -4q57 1 114 0q19 0 35 4q10 4 15 9q0 1 2 3t2 3q8 20 8 30q0 3 0.5 9t0.5 9q1 8 8 15q3 3 7 2q3 0 5 -4t2 -7q0 -4 0.5 -12t0.5 -12v-39q0 -22 2 -32q2 -9 0 -18q-2 -11 -2 -49q0 -3 -0.5 -9t-0.5 -9q-2 -9 -10 -9q-23 -3 -53 -1h-56q-46 -2 -71 -5
q-22 -3 -67 -1q-4 0 -14 2q-6 1 -32 1h-3q-10 -3 -22.5 -3.5t-22.5 0t-22 -0.5q-5 0 -7 1q-7 2 -14.5 3t-17 1.5t-14.5 1.5q-7 0 -8 6q0 1 -2 6t-2 7q-3 53 -1 64q1 17 9 34l3 6q6 8 11 10q19 10 37 17z" />
    <glyph glyph-name="three" unicode="3" horiz-adv-x="482" 
d="M298 91q1 9 5 32q3 23 0 46q-2 8 -4 28q0 8 -7 38q0 1 -1.5 4.5t-2.5 5.5q-2 3 -5.5 11t-5.5 11q-3 8 -9 16q-12 15 -13 16q-2 3 -5 5q-22 14 -34 17q-18 5 -32 5q-12 0 -18 1q-5 0 -9 4.5t-4 9.5q-1 4 -1 14q2 15 15 19q5 2 16 5t17 5q2 0 7 2t7 2q24 11 37 32
q8 12 11 18q8 18 9 23q10 36 7 67v17q0 5 -8 60q-5 13 -7 16q-12 18 -19 25q-1 2 -3 3.5t-4 3.5l-3 3q-3 3 -10 7.5t-11 6.5q-8 4 -13 5q-5 0 -14 1.5t-14 2.5h-7q-16 -1 -31 -6q-3 -1 -7 -3q-16 -7 -35 -23t-31 -39q-2 -4 -2 -7q-9 -36 -9 -37q0 -10 -13 -10q-8 2 -11 8
q-2 6 -1 10q4 31 20 61q2 5 6 8q4 5 12 13q41 29 56 37q26 12 40 13q12 4 28 4q13 -2 25 0q24 1 60 -6q10 -2 30 -8q2 0 23 -11q23 -13 41 -27q15 -12 26 -24l5 -5q24 -38 34 -70q2 -8 2 -14v-53q0 -8 -5 -20q-10 -21 -26 -42q-8 -11 -26 -24l-7 -5q-7 -5 -11 -7t-22 -10
q-3 -2 -9.5 -4t-9.5 -5q-3 -1 -3 -6q0 -1 1 -1t2 -1q1 0 3 -1q30 -4 60 -29q22 -19 44 -46q16 -18 28 -48q0 -2 1 -5.5t2 -5.5q1 -1 1 -5t1 -5q7 -28 2 -60q-1 -5 -2.5 -14.5t-2.5 -13.5q-2 -6 -23 -43q-1 -1 -2.5 -3t-2.5 -3q-27 -30 -55 -49q-16 -8 -19 -9q-23 -9 -51 -16
q-1 -1 -5 -1t-5 -1q-36 -10 -77 -7q-8 0 -23 0.5t-23 1.5q-16 0 -28 4q-4 2 -13.5 4l-14.5 3q-22 8 -32 13q-12 8 -17 14l-20 24q-4 5 -10 15q-11 21 -12 44v28q0 1 3 7q2 4 9 4q9 -2 10 -9q2 -3 4 -9t2 -7q0 -2 0.5 -7t1.5 -7q10 -37 37 -76q4 -6 11 -9q11 -7 23 -8
q12 -2 18 -4q14 -5 34 -5q36 0 71 9q16 5 27 16q10 12 14 20q4 9 12 25z" />
    <glyph glyph-name="four" unicode="4" horiz-adv-x="542" 
d="M238 15q6 2 16.5 4.5l14.5 3.5q3 1 9 5q4 3 6 8q5 18 5 32q0 12 0.5 26.5t1.5 31.5t1 27v35q0 24 3 35q1 5 1 32v1q-1 2 -1 3q0 4 -3.5 7.5t-7.5 3.5h-29h-131h-63q-6 0 -16.5 0.5t-15.5 0.5q-6 0 -8 7q-3 13 4 23q17 28 33 46l44 60q15 20 20 25l5 5q4 6 9 12.5
l11.5 14.5t9.5 12q14 17 28 37q18 24 42 52l63 72l23.5 28l22.5 26q2 3 7 8q8 8 19 8q7 1 14 0q15 -4 46 -4q1 0 6 -0.5t8 -1.5q2 0 4.5 -2.5t2.5 -4.5q2 -4 2 -7q0 -74 -2 -95q-1 -7 -1 -21q-1 -70 -1 -209q0 -29 5 -49q2 -6 8 -6q11 -1 32 -1h21q12 -2 15 -13v-4
q-3 -12 -14 -13l-53 -6q-3 0 -6 -3t-3 -6q0 -2 -0.5 -5.5t-0.5 -5.5v-21q1 -25 1.5 -74.5t0.5 -74.5v-21q0 -12 8 -23q3 -4 8 -7q20 -6 31 -6q4 0 10 -2q2 0 4.5 -4t1.5 -7q0 -3 -1 -4q-1 0 -3 -2t-3 -2q-2 0 -8 -0.5t-9 -0.5h-138q-6 0 -19 -0.5t-20 -0.5q-34 -3 -67 0
q-6 0 -8 6q-2 4 2 6l1 1q1 1 1 2zM298 431v85v21q0 1 -0.5 3.5t-0.5 3.5l-3 6q-5 0 -6 -1q-13 -7 -24 -21q-31 -42 -54 -66q-2 -2 -6 -7.5t-5 -6.5q-2 -2 -5.5 -6.5t-5.5 -6.5l-52 -63l-42 -52q-4 -6 -7 -8q-2 -4 0 -7q2 -4 5 -4q41 -3 92 -1q4 0 14 2q14 3 42 3q6 0 19 0.5
t20 0.5q1 0 5 0.5t5 0.5q2 0 4.5 2.5t2.5 4.5q1 5 1 14q1 35 1 103z" />
    <glyph glyph-name="five" unicode="5" horiz-adv-x="486" 
d="M320 446l10.5 -5.5t8.5 -4.5q17 -7 36 -22q27 -21 49 -46q23 -28 30 -56q4 -8 7 -23t4 -18t1 -10v-22q0 -14 -2 -21q0 -2 -1 -6.5t-1.5 -8t-0.5 -6.5q-2 -13 -12 -37q-11 -28 -24 -43q-20 -26 -22 -28q-1 -1 -4 -4.5t-5 -5.5q-22 -22 -47 -32q-14 -5 -28 -15
q-14 -9 -35 -16q-30 -8 -35 -8q-4 -1 -14 -3q-12 -3 -24 -3q-15 -1 -46 -1q-23 0 -45 7q-1 0 -3.5 1t-3.5 1q-31 15 -49 29l-3 3t-4 3.5t-3 3.5q-18 20 -28 36q-2 2 -4 6t-2 14q2 8 9 10q12 2 20 -5q7 -7 19 -21q19 -19 42 -26l7.5 -2.5t8.5 -2.5t8 -1h3q4 0 13.5 -2.5
t14.5 -2.5q14 -1 42 -1q12 0 21 3q2 1 7 2t7 2q13 5 21 13q9 8 17 17q5 5 11 15q16 27 26 65q1 3 2.5 10t2.5 11q3 10 1 31q0 5 -1 7q-1 3 -2.5 8.5t-2.5 8.5q-10 30 -36 56q-23 21 -48 36q-23 15 -48 21q-19 6 -39 6q-2 0 -5 0.5t-5 0.5q-15 -1 -60 6q-16 3 -19 20
q-1 4 -1 14v78q-1 24 -1 74q-1 22 1 67q0 5 1 7q3 17 7 49q1 8 8 16q4 5 12 7h3q113 2 135 2q11 0 45.5 -0.5t53.5 -1.5h32h74q2 0 5.5 -0.5t5.5 -0.5q4 -2 7 -8v-3q1 -45 1 -135q0 -9 -2 -14t-6 -8q-8 -5 -13 3q-3 5 -7 14t-5 11q-2 5 -6 13q-5 7 -11 9q-8 4 -13 4
q-39 0 -50 -2q-5 -2 -17 -2q-38 0 -114 -2q-42 0 -63 -3q-8 -2 -25 -2q-2 0 -9 -5q-5 -22 -5 -39q0 -6 -1 -26t0 -30q0 -1 2 -3t2 -3q1 -1 3 -1q5 -1 14 -1q7 0 21.5 -0.5t21.5 -0.5q9 0 14 -1q13 -3 60 -5l9 -1q8 -1 12 -2q6 -2 10 -2q10 -1 52 -10z" />
    <glyph glyph-name="six" unicode="6" horiz-adv-x="502" 
d="M400 417q20 -12 35 -26l11 -14q3 -4 21 -41q9 -38 9 -52q0 -3 1 -7.5t1 -6.5q4 -17 4 -39q0 -19 -4 -35q-1 -4 -2 -10t-1 -7q-5 -27 -14 -44q-17 -36 -36 -61q-15 -19 -41 -38q-18 -12 -28 -15q-21 -8 -23 -9t-35 -9q-3 -1 -10 -1q-34 0 -67 -3q-6 -1 -32 2q-4 1 -10 3
q-9 3 -20 8q-14 5 -22 12q-13 9 -22 17q-16 11 -31 29q-2 2 -6 6.5l-7 8t-5 6.5l-8.5 14.5t-8.5 13.5q-5 8 -6 16q-7 30 -9 34l-3.5 14.5t-4.5 16.5q-5 23 -5 42q0 66 2 85q1 9 3 25q3 9 3 17q0 15 8 31q3 6 7 17t6 16q5 15 16 35q12 23 23 36q10 10 15 19q12 19 32 38
l46 45q8 7 23 18.5t21 16.5q6 4 9 5q42 22 65 30q10 3 28 13q9 6 22 12q5 1 17 4q3 0 11 -2q6 -4 4 -9q-6 -9 -10 -10q-4 -3 -12 -7q-23 -9 -49 -28q-22 -14 -36 -34l-14 -20.5l-14 -20.5q-16 -25 -36 -69q-11 -22 -20 -56q-5 -17 -5 -21q0 -7 6 -7q0 1 2 1h2q5 2 14 4t13 3
q13 4 39 6q40 0 77 -3q18 0 45 -9q2 -1 7 -2.5t9 -3.5zM169 256q0 -9 2 -67q1 -10 3.5 -28.5t3.5 -23.5q2 -6 5 -17.5t5 -16.5q4 -13 16 -35q10 -16 24 -20q3 -2 13 -4q10 -1 29 -1q14 2 23 7q14 6 20 19l6 12l9 27q4 8 4 13q1 4 3.5 16t3.5 19q4 52 4 78q0 32 -7 59
q-2 12 -3 17q-1 10 -10 38q-7 14 -16 23q-14 12 -24 13q-8 1 -17 5q-4 1 -11 1h-10.5h-13h-11.5t-14 -2q-14 -4 -20 -6q-5 -1 -8 -7q-4 -16 -6 -34q-3 -40 -3 -85z" />
    <glyph glyph-name="seven" unicode="7" horiz-adv-x="503" 
d="M219 7q-1 -1 -2.5 -3t-2.5 -3q-28 -3 -57 0q-10 2 -10 12q0 7 0.5 20t0.5 19q2 14 4 21q0 2 1 7t2 7q1 9 8 41q6 27 15 55q1 3 2.5 7t1.5 6l8.5 19.5t9.5 23t6 20.5l8 16.5l9 18.5q4 8 12 22q12 18 34 54l15 24q3 4 9.5 11l9.5 10l5 5q53 64 56 68q12 15 19 26
q27 44 31 56q3 6 -4 8q-3 0 -7 2h-25h-149q-68 0 -102 2q-22 2 -43 0q-14 0 -22 -15q-2 -3 -5 -9.5t-4 -9.5t-3.5 -8.5t-3.5 -7.5q-3 -4 -9 -6q-4 -1 -9 4q-5 6 -6 13q-2 40 -1 60q1 15 1 46v29q0 7 1 10q0 6 7 8q3 1 10 1h88q13 0 25 3q7 2 21 2q26 1 78 1q6 0 23 0.5
t27 1.5h14q12 -1 71 -1h70q3 0 7.5 -0.5t6.5 -0.5q8 0 10 -9q2 -6 2 -18q-2 -28 -4 -42q-2 -15 -4 -49q-1 -18 -12 -41q-9 -21 -24 -39q-33 -47 -37 -52q-12 -16 -36 -44q-2 -3 -7 -8t-7 -8q-11 -12 -31 -38q-23 -33 -39 -75l-34 -86q-8 -20 -14 -54q-1 -3 -1 -7
q-1 -3 -3 -13l-3 -15q0 -5 -0.5 -14.5t-0.5 -13.5q-1 -20 -5 -60q0 -2 -0.5 -5t-1.5 -5z" />
    <glyph glyph-name="eight" unicode="8" horiz-adv-x="529" 
d="M78 406l-15 25q-6 9 -14 36q-1 1 -1 4.5t-1 5.5q-3 27 0 53l3 12t2 12q3 14 17 43l6 9q12 14 19 21q24 24 49 33l26 12q19 10 43 16q38 12 76 18q3 1 10 1q21 2 52 -7q24 -9 35 -17l6 -4l6.5 -4.5t5.5 -3.5q29 -17 51 -53q11 -16 21 -41q5 -15 6 -31v-7q1 -28 -1.5 -38
t-16.5 -36q-5 -10 -15 -20q-5 -5 -17 -13q-11 -7 -33 -19q-13 -6 -27 -17q-2 -1 -2.5 -4.5t1.5 -4.5q5 -4 14.5 -9.5t12.5 -7.5q16 -10 24 -16q12 -8 21 -19q12 -14 19 -20q21 -18 37 -56q2 -4 2 -6q1 -4 4 -13.5t4 -14.5q2 -27 -1 -49q-2 -9 -10 -30q-3 -6 -20 -38
q-8 -14 -14 -20q-6 -8 -18 -22q-9 -10 -21 -18q-36 -21 -50 -27q-1 0 -4.5 -1.5t-5.5 -2.5q-6 -1 -19.5 -4.5t-21.5 -4.5q-6 0 -18 -2q-19 -5 -45 -5q-28 -1 -57 0q-14 0 -21 2q-29 6 -31 6q-1 0 -3.5 0.5t-3.5 1.5q-4 1 -11 3.5l-12.5 4.5t-9.5 4q-5 2 -29 14q-12 7 -34 25
q-1 1 -2.5 3t-2.5 3q-1 2 -3 4.5t-3.5 5t-2.5 5.5q-6 11 -9 23q-4 22 -4 26.5t3 29.5q1 7 8 34q3 10 8 23q5 15 12 26q5 5 7 8q14 24 45 44q26 17 56 30l9 6q2 2 2.5 4.5t-1.5 3.5l-9 6l-30 18q-14 7 -26 19q-5 5 -27 22zM319 61q3 3 7 9q22 28 29 60q1 3 2 8.5t1 8.5
q0 23 -5 39q-1 1 -1 3q-3 15 -14 28q-13 17 -45 45q-1 1 -3 2.5t-3 1.5q-18 10 -41 28l-26 18q-4 3 -10 1q-20 -11 -34 -26l-22 -28q-4 -6 -5 -9q-10 -20 -11 -33q0 -4 -2 -10q-9 -27 -5 -67q0 -2 3 -17q8 -23 13 -30q1 -2 2.5 -4.5t3.5 -5.5t3 -5q22 -24 36 -34q7 -7 15 -8
q12 -5 13 -5q3 -1 7 -1q21 -3 43 0q5 0 13 4l15 9q12 9 21 18zM387 562q2 29 -7 56q-2 7 -8 19q-4 9 -15 19l-18 12q-10 7 -23 7q-28 2 -42 0l-18 -3q-16 -6 -20 -7q-6 -1 -12 -6q-5 -1 -9 -6q-17 -23 -24 -39q-14 -34 -11 -62v-10q1 -11 7 -21q4 -8 16 -22q16 -17 48 -36
l61 -35l4 -2q7 -4 13 2l11.5 11.5t11.5 10.5q15 15 21 36l12 41q2 6 2 10v25z" />
    <glyph glyph-name="nine" unicode="9" horiz-adv-x="503" 
d="M290 707q2 -1 8 -2t8 -1q29 -3 62 -25q4 -2 11.5 -7.5l11.5 -8.5q18 -12 28 -27q2 -4 9 -11q11 -11 28 -45q3 -9 3 -10q2 -9 8 -27q8 -31 9 -34q3 -7 5 -32q3 -31 1 -70q-1 -5 -1 -14l-3 -36q0 -5 -2 -15.5l-3 -15.5q0 -6 -3 -10q-15 -45 -32 -79q-6 -12 -11 -18l-40 -54
q-1 -2 -12 -13q-19 -21 -40 -40q-20 -20 -43 -37q-27 -21 -80 -44q-6 -2 -39 -17l-19 -10q-7 -4 -17 -4q-3 -1 -10 1q-9 1 -5 11q4 6 8 7q4 3 12 7q16 7 52 30q14 9 24 21q20 26 29 40q22 32 50 93q4 11 5 14q2 7 7.5 24t7.5 27q1 3 -2 6q-2 2 -3 2q-14 -3 -34 -8
q-15 -5 -35 -5q-40 0 -60 1q-14 0 -28 3q-9 3 -18 3q-5 0 -10 1.5t-11 4t-9 3.5q-4 2 -7 4q-30 18 -45 43q-10 18 -12 22q-7 12 -9 27q-7 40 -8 49q0 2 -0.5 5t-1.5 6.5t-1 5.5q-5 26 1 49l3 21q3 28 14 47q1 1 2 3.5t1 3.5q4 10 22 40q13 23 42 48q0 2 2 2q24 16 37 21
q15 6 37 13q24 6 49 7h14q14 0 21 1q14 2 22 3zM161 484v-10q0 -41 6 -60q1 -2 1.5 -5.5t0.5 -5.5q0 -9 6 -31q6 -19 20 -37q12 -14 27 -15q12 -2 17 -4q6 -3 18 -3h14q10 0 28 4q5 2 17 4q5 1 8 7q4 9 6 20q0 10 2 30t2 30q0 19 2 28q2 14 0 43q-5 18 -5 56q-1 3 -1 7t-1 7
q-3 20 -12 48q-8 23 -23 48q-5 5 -8 7q-14 6 -16 6q-23 6 -46 1q-15 -1 -25 -13q-12 -12 -16 -26q0 -1 -1 -2v-2q-13 -31 -14 -54q0 -2 -0.5 -4t-0.5 -3q-3 -8 -5 -35q0 -5 -0.5 -17t-0.5 -19z" />
    <glyph glyph-name="colon" unicode=":" horiz-adv-x="182" 
d="M28 316q-1 2 -2.5 7.5t-2.5 7.5q-3 14 -1 24q6 22 11 32q4 9 11 18q8 9 18 13q2 1 8 3q8 2 12 2q25 2 45 -7q4 -2 10 -6l5 -5q7 -8 10 -15q9 -16 9 -29q1 -4 1 -12q0 -23 -16 -42l-4 -4q-15 -12 -34 -15q-13 -4 -30 -2q-12 0 -26 7q-8 4 -15 11zM27 92q2 3 4.5 8.5
t3.5 8.5q15 26 44 35h6q10 -2 15 -4q2 0 5.5 -2t5.5 -2q3 -2 15 -11q11 -8 16 -25q4 -12 5 -18q1 -9 0 -18q-2 -14 -4 -21q-5 -17 -16 -25q-12 -10 -26 -16q-10 -3 -18 -2q-14 4 -20 6q-2 0 -6 2q-13 7 -17 17q-8 14 -11 22q-3 5 -3 11v16q0 3 0.5 9t0.5 9z" />
    <glyph glyph-name="semicolon" unicode=";" horiz-adv-x="174" 
d="M144 55q-1 -3 -1.5 -10t-0.5 -11t-1 -6q-13 -38 -25 -56q-6 -8 -10 -11q-22 -16 -34 -21q-7 -2 -11 4l-4 4q-1 4 0 9q2 4 8 10q6 10 8 16t1 9q0 4 -3 5q-14 5 -24 13q-10 7 -19 23q-2 4 -2 6q0 1 -1 4t-1 5q-7 17 0 39q8 23 28 35q8 6 17 6q7 1 21 1q15 0 29 -8
q2 -1 5 -4q10 -15 17 -29q0 -1 0.5 -3t0.5 -3q2 -8 2 -27zM83 292q-4 1 -14 1q-15 1 -33 14q-3 3 -4 5q-7 12 -11 32q-1 4 0 9q1 9 5 27q5 15 14 24q12 13 29 21q5 2 15 4q21 0 30 -4l9 -3q4 -2 5 -3q16 -10 23 -25q3 -6 3 -14q0 -5 -2 -13q-2 -14 -4 -21q-3 -14 -10 -25
q-4 -7 -11 -14q-15 -14 -33 -15h-11z" />
    <glyph glyph-name="less" unicode="&#x3c;" horiz-adv-x="364" 
d="M344 433v-15v-6q-2 -9 -8 -13l-19 -10q-70 -32 -134 -52q-19 -7 -31 -14q-5 -3 -5 -7q2 -5 5 -7l6 -3q4 -2 14 -6l20 -6q8 -2 38 -14q4 -2 15.5 -6.5t18.5 -6.5q28 -11 52 -25q7 -3 14 -7q6 -6 6 -10q3 -19 1 -43l-2 -2q-3 -3 -6 -2q-19 3 -40 14q-20 10 -31 13
q-7 2 -22 8t-24 9q-20 6 -68 27q-45 21 -47 22q-17 7 -31 11q-17 5 -38 14q-5 3 -7 9q-1 16 0 31q0 7 7 9q20 10 31 14q9 3 29 9q24 6 35 11q44 17 55 20q1 0 4 1.5t4 1.5q10 4 32 12q8 2 22.5 8l19.5 8q15 7 32 13q6 2 19 7.5t20 7.5q6 2 9 -1l3 -6q0 -4 0.5 -10t0.5 -8z
" />
    <glyph glyph-name="equal" unicode="=" horiz-adv-x="385" 
d="M234 433h105q6 0 9 -1q8 -2 12 -9q4 -8 4 -14q1 -12 0 -25q0 -5 -8 -8q-5 -3 -12 -1q-9 2 -52 4q-20 1 -39 0q-11 -1 -31 -1q-14 0 -21 -2q-6 -2 -19 -2q-66 0 -79 1q-34 2 -49 2q-13 0 -25 3q-7 2 -7 9q-3 15 0 30q0 7 7 9q4 0 6 1q18 1 53 1q12 0 18 1q15 3 30 3h86h12
v-1zM203 300q82 -2 125 -2h18q11 -2 14 -11q5 -10 5 -20q0 -11 -1 -16q0 -8 -7 -8q-1 0 -5 -0.5t-5 -0.5q-8 0 -24 1t-24 1q-25 1 -49 0q-5 0 -15.5 -0.5t-15.5 -0.5q-16 0 -24 -2q-14 -2 -22 -2h-42q-2 1 -6.5 1h-6.5q-7 2 -30 2q-13 1 -40 1q-12 0 -18 2t-8 8v1l-1 2
q-1 15 0 28q2 8 11 10q8 0 24 2q4 1 12 1q19 0 55 2q27 1 80 1z" />
    <glyph glyph-name="greater" unicode="&#x3e;" horiz-adv-x="364" 
d="M28 200v16q0 12 10 18q37 22 69 32l18.5 7.5t21.5 8.5q28 11 55 18q9 3 15 9t0 8l-2 2l-1 1q-2 0 -2 1q-27 13 -33 14q-58 19 -131 52q-11 5 -19 10q-7 5 -8 13q-1 12 1 36q0 2 2 6q2 6 7 4h3q7 -2 20 -8t20 -8q17 -6 37 -14q19 -9 37 -15q11 -3 20 -7q8 -4 26 -10
l40 -14q16 -8 38 -13q26 -7 66 -25q6 -2 6 -9v-28q0 -7 -8 -12l-1 -1h-2q-16 -7 -29 -11q-12 -2 -34 -12q-7 -3 -23 -10.5l-24 -11.5q-16 -7 -20 -8q-32 -14 -48 -20q-9 -2 -25.5 -8.5t-20.5 -7.5q-22 -8 -32 -13q-16 -8 -25 -11q-8 -3 -18 -3q-1 0 -3.5 2.5t-2.5 3.5
q0 3 -0.5 9t-0.5 9h1z" />
    <glyph glyph-name="question" unicode="?" horiz-adv-x="446" 
d="M178 259q1 9 1 17q0 15 8 47q3 13 11 30q3 6 9 17l11 20t10 17q3 6 10 17.5l10 16.5q8 14 16 44q1 4 1 11q2 21 -1 40q-3 35 -25 63q-10 15 -25 25q-6 4 -10 5q-19 2 -28 5q-8 2 -15 0q-16 -2 -25 -4q-20 -3 -36 -16q-23 -20 -35 -36q-13 -14 -17 -31q-1 -7 -5 -14
q-4 -9 -12 -4q-12 6 -10 18q5 33 28 70q3 5 11 15q13 15 31 25q28 17 48 25q10 5 21 5q6 1 19 2.5t20 2.5q15 2 36 -1q6 -1 18 -2t18 -2q12 -2 18 -4q12 -3 44 -16q4 -2 31 -18q11 -8 19 -17q27 -34 35 -66q5 -18 5 -32q1 -4 1 -12.5t1 -13.5q1 -38 -24 -70q-25 -35 -65 -62
q-2 -1 -5.5 -4t-6.5 -5t-6 -3l-21 -15q-15 -13 -29 -21q-19 -12 -36 -35q-11 -16 -18 -31q-9 -20 -9 -39q0 -17 -1 -21q0 -2 -3 -4.5t-5 -2.5q-6 -2 -12 2.5t-6 10.5q-1 3 -1 11q0 4 0.5 16.5t0.5 23.5zM136 67q0 1 0.5 3.5t0.5 4.5q0 9 5 17q1 2 3.5 6.5t4.5 6.5
q12 14 33 21q7 2 15 0q2 0 7 -1.5t8 -2.5q9 -2 19 -14q6 -7 11 -19q2 -3 4 -11v-16q0 -15 -8 -29q-2 -3 -8 -9q-2 -1 -6.5 -3.5t-6.5 -4.5q-8 -5 -26 -9q-3 -1 -6 0q-9 2 -23 7q-8 6 -11 10l-9 12q-7 10 -7 24v7z" />
    <glyph glyph-name="at" unicode="@" horiz-adv-x="833" 
d="M212 232l12 26q12 25 34 43q3 2 9 8q31 26 73 38q32 8 48 9q6 0 22 2q12 0 18 -1q5 -1 15 -1q5 -2 7 5q6 18 7 29q0 7 1 10q7 26 5 70v9q-2 15 -14 26q-4 4 -12 10q-9 6 -20 6h-19q-26 0 -51 -17q-12 -6 -22 -16q-12 -12 -17 -19q-11 -16 -13 -20q-1 -1 -2 -2.5t-2 -2.5
q-6 -6 -14 -2q-3 2 -5 8q0 6 3 12q8 12 26 34q7 9 18 16q24 18 52 27q5 1 20.5 6t23.5 7q6 3 18 6t14 3h13l12 -3l24 -3q4 -1 11.5 -4.5t10.5 -4.5q23 -7 44 -32l12 -15q8 -11 13 -27q0 -3 2 -9q2 -10 1 -15q-1 -6 -4 -40v-3q-1 -2 -1 -6q-2 -8 -4.5 -22.5t-3.5 -19.5
q-12 -52 -17 -78q-4 -18 -5 -27q-1 -3 -2 -9t-2 -9q-3 -17 -2 -30q1 -5 4 -9q5 -7 13 -7h9q16 0 31 12q24 18 53 46q28 26 52 68l13 27q6 11 11 29q2 7 10 42q0 2 0.5 5.5t1 6.5t1.5 6q2 5 4 33q0 7 0.5 20t0.5 20q0 10 -2 34q-1 4 -5 17q-9 31 -31 56q-2 3 -6 7.5t-6 6.5
q-20 26 -52 42q-15 9 -37 14q-24 6 -36 6q-2 0 -6 0.5t-6 1.5q-11 3 -34 3h-34q-10 0 -15 -1q-8 -2 -43 -4l-21 -3q-8 -2 -12 -2q-2 -1 -6 -1t-6 -1q-6 -2 -16.5 -4.5t-13.5 -3.5q-17 -5 -20 -7l-23 -9q-32 -11 -69 -38l-34 -27l-11 -11q-29 -31 -40 -50q-12 -16 -18 -25
l-24 -39q-6 -9 -11 -25q-9 -23 -14 -41q-7 -21 -7 -29l-3 -12q-4 -18 -7 -27q-1 -4 -2.5 -13t-3.5 -14q-2 -10 -2 -15q-2 -24 -1 -37v-21q2 -21 5 -27q2 -8 2 -12l6 -21q1 -5 7 -20l9 -23q5 -11 11 -22q0 -1 3 -4.5t4 -5.5q8 -14 30 -38q6 -6 9 -8q25 -18 37 -31
q26 -13 46 -21q7 -4 17 -6l24 -6q14 -2 21 -4q3 -1 9 -1q45 -3 77 -1q4 0 6 1l15 3q3 0 9 1t9 1l15 3q4 1 13 3t14 3q9 3 32 10t35 12q24 10 44 21q2 1 6.5 4t8 5t6.5 3q30 15 56 38q1 1 10 8.5t13 11.5q17 15 27 29l18 21q1 1 10 7q14 9 26 -2q2 -2 4 -8q1 -7 -2 -15
q-3 -6 -7 -10q-24 -36 -51 -61l-26 -27q-13 -13 -26 -21q-4 -2 -10 -6q-27 -20 -87 -46q-24 -9 -72 -25l-30 -6q-14 -2 -21 -5q-1 0 -3 -0.5t-3 -0.5q-7 -1 -33 -4t-40 -3q-15 1 -28 0q-28 -1 -61 7q-46 10 -66 22q-14 7 -17 8q-16 8 -29 18q-23 18 -41 36q-20 22 -38 44
q-16 24 -23 37q-6 12 -9 19q-2 7 -8 22t-9 24q-1 2 -1 5t-1 4q0 8 -1 12q-5 18 -5 43q-2 34 1 61q0 8 1 12q4 15 4 34q1 9 5 27q0 4 6 26l21 55l17.5 35.5t20.5 38.5q1 3 14 23q2 4 8 11.5t8 11.5q28 45 75 84q31 25 67 43q12 5 36 17q12 6 54 22q9 3 50 13q5 1 16 1
q5 1 16 2t17 2q8 2 12 2q58 3 108 -1q2 0 6 -0.5t6 -0.5l18 -3q6 0 36 -8q5 0 8 -3q18 -7 36 -18q4 -3 11 -7.5l13 -8.5l12 -8q20 -12 32 -32l16 -22q15 -20 23 -43q4 -14 7 -21l9 -39q1 -6 1 -21q1 -15 1 -46q0 -20 -4 -36q-1 -4 -3 -14.5t-4 -15.5q-2 -13 -18 -52
q-3 -7 -9.5 -20l-9.5 -19q-12 -24 -37 -56q-33 -37 -64 -62q-35 -28 -70 -43q-3 -1 -8.5 -4t-8.5 -4q-18 -9 -38 -12q-2 -1 -6 -1t-6 -1q-24 -5 -45 1q-2 1 -5.5 2t-6.5 2l-6 2q-19 4 -35 27q-5 10 -6 11h-3q-1 0 -2.5 -0.5t-2.5 -1.5l-38 -20q-22 -11 -44 -15q-1 0 -3 -0.5
t-3 -0.5q-18 -8 -57 -4q-4 0 -12 2t-12 4q-20 6 -30 24l-1 1q-1 1 -1 2q-8 26 -8 39q0 4 2 12l2.5 10.5t1.5 9.5zM348 204q9 1 24.5 2.5t22.5 1.5q14 1 29 11q6 4 7 9q0 4 2 12q0 13 1 19q1 5 3.5 19.5t4.5 22.5q0 6 1 9q0 4 -5 7h-3q-25 3 -55 1q-6 0 -16 -2
q-4 -1 -12.5 -4t-13.5 -4q-9 -4 -16 -14q-14 -21 -13 -43q0 -10 1 -15q1 -9 8.5 -18.5t18.5 -11.5q5 0 11 -2z" />
    <glyph glyph-name="A" unicode="A" 
d="M84 31q8 5 12 10q7 7 8 12q2 5 10 29l47 142q3 11 7 20q2 6 2 9q2 9 11 38l12 40q1 4 3.5 10.5t4 12t1.5 10.5q0 1 0.5 3t0.5 3q10 29 26 87q5 18 17 52q9 29 11 38l6 27q2 5 4.5 14.5t3.5 11.5q2 5 4 14.5t4 14.5q0 3 1 7.5t1.5 8.5t0.5 8v10q-2 10 -12 12h-27
q-13 0 -19 1q-1 0 -4 3q-4 4 1 9q3 3 4 3q1 1 4 1t5 1q13 0 37 2q10 0 15 2q7 2 21 2q9 0 27.5 -0.5t27.5 -0.5q10 0 15 -1q2 0 43 -3h9q15 -3 24 -18q2 -3 5 -11.5t6 -12.5q3 -6 7.5 -16.5t6.5 -14.5q8 -18 11 -28q4 -13 13 -37l12 -32q4 -7 5 -14q5 -14 17 -42
q13 -28 31 -86l12 -41q1 -1 1 -3q11 -25 12 -28q2 -6 6.5 -16.5t5.5 -14.5q8 -18 13 -27q10 -21 28 -65q1 -4 5 -14q8 -16 12 -31q9 -31 30 -83q2 -6 3 -8q7 -13 18 -17q17 -6 20 -6q2 0 23 -6q4 -1 6 -5t0 -7q-4 -11 -13 -11h-9q-50 -1 -150 -1l-54 -3q-22 -3 -49 -1
q-8 4 -10 7q-3 3 -1.5 8.5t6.5 6.5q1 0 3 0.5t3 0.5l18 3l18 3q4 1 16 8q1 1 6 8q2 4 1 8q-3 7 -7.5 21t-6.5 19q-6 17 -9 33q-2 8 -3 11q-4 12 -12 32.5t-11 30.5t-11 22q-4 6 -13 6h-6q-9 -2 -28 -2q-1 0 -121 -3q-13 0 -19 -2q-22 -3 -45 -3q-26 0 -40 -2q-3 0 -8 -3
q-3 -1 -4 -4q-2 -4 -3 -11.5t-2 -9.5q-4 -7 -8 -23l-3.5 -10l-3.5 -10q-1 -4 -3.5 -13t-3.5 -13q-2 -11 -8 -33q-3 -7 -3 -21q0 -13 13 -23q1 0 2 -1l6 -3q4 -2 12 -4t11 -3q2 -1 4.5 -1.5t5.5 -1t5 -0.5h24h6t6 -1q8 -2 24 -3.5t19 -1.5q4 0 7 -5q2 -2 0.5 -5.5t-4.5 -4.5
q-1 0 -2.5 -0.5t-2.5 -0.5q-3 0 -11 -0.5t-11 -0.5h-243h-25q-1 0 -3 0.5t-3 0.5q-3 1 -4 4q-2 3 2 5q5 5 13 7q2 0 8.5 0.5t9.5 1.5q41 10 50 13zM317 247q11 0 24.5 0.5t30.5 1.5t27 1q8 0 12 1q19 3 39 3h18q6 2 4 7q-1 2 -3 5.5t-3 5.5q-15 35 -21 56q-4 12 -6 17
q-2 4 -8 17.5t-9 21.5q-19 41 -22 50q-1 3 -3.5 7t-3.5 7t-4.5 10.5l-5.5 11.5q-12 24 -17 36q-7 19 -11 34q-1 5 -4 14t-4 13q-2 8 -8 22q0 1 -1 2.5l-2 3t-1 2.5q-3 4 -5 2q-4 -2 -4 -4q-2 -5 -3.5 -10.5t-3 -12l-2.5 -10.5q-3 -14 -8 -23q-4 -7 -5 -14q-2 -6 -6 -20
q-1 -4 -4 -15t-6 -17t-27 -77q-11 -36 -17 -62q-13 -50 -23 -72q-1 -2 -1 -9q-1 -2 3 -4q3 -2 9 -2h85z" />
    <glyph glyph-name="B" unicode="B" horiz-adv-x="611" 
d="M561 564v-23q0 -30 -4 -45q-1 -4 -1 -12l-3 -12l-20 -35q-1 -3 -6 -6q-12 -12 -34 -25q-24 -12 -35 -18q-3 -1 -29 -12q-2 -1 -6.5 -3t-6.5 -3l-2 -2q0 -3 4 -3q11 -4 33 -14q20 -10 31 -14q5 -2 40 -21q21 -13 37 -31q8 -10 11 -15q10 -19 14 -37q7 -26 7 -45
q-1 -3 -1 -9v-10q0 -8 -1 -12q0 -3 -1 -8t-1 -7q-2 -17 -14 -49q-5 -12 -11 -19q-6 -8 -8 -12q-9 -16 -33 -31q-16 -10 -42 -19q-18 -8 -29 -8l-12 -3q-10 -2 -15 -2q-16 0 -24 -1h-27q-46 -1 -92 0q-56 0 -67 -1h-21q-54 0 -158 2q-2 0 -4.5 0.5t-4.5 0.5t-3.5 2.5
t-0.5 4.5q3 5 9 8q4 2 15 2q10 0 38 7q3 1 6.5 4.5t3.5 6.5v12q0 31 1 46q0 12 1 18q2 14 2 21v22q0 8 -2 24q-3 24 -1 55q0 81 1 121v16q2 15 2 45q0 8 0.5 24.5t0.5 24.5q1 7 1.5 21.5t0.5 21.5q0 44 3 66q1 7 -1 22l-3 21l-6 48q-2 6 -6 7l-8 4q-20 4 -30 5q-1 0 -3 1
t-3 1q-3 2 -3 5t3 5q6 4 20 6h6h73q8 0 12 -1q18 -2 79 -2h13q12 3 36 3h33q23 0 34 -2q6 -2 18 -2h36q16 0 27 -4q3 -1 9 -2.5t9 -2.5q9 -3 25 -11q3 -2 7 -6q8 -5 34 -26q3 -2 9 -8q8 -10 12 -14q6 -8 16 -26q4 -7 5 -14q1 -3 2.5 -8.5t2.5 -7.5zM377 30q20 13 33 32
t20 38q10 23 10 44q1 14 1 43q0 5 -0.5 15t-0.5 15q0 11 -3 21q-15 46 -45 82q-19 24 -43 28h-3q-11 4 -24 4h-42q-5 0 -13 -0.5t-12 -0.5q-1 0 -3 -0.5t-3 -0.5q-9 -2 -9 -11v-67q0 -7 2 -15q3 -15 1 -31q-2 -10 -4 -58q0 -34 -1 -51v-83q0 -6 7 -9q1 -1 5 -1h95q9 0 18 3
q10 2 14 3zM255 675q-4 -6 -4 -8q0 -3 -0.5 -9.5t-0.5 -9.5v-100q0 -18 -2 -27q0 -2 -1 -7t-1 -8q0 -17 -1 -25q-3 -35 -4 -42q-1 -4 -1 -12q0 -25 1 -37q0 -4 1 -6q0 -7 8 -7q37 -1 73 0q1 0 4 0.5t5 0.5l15 3q25 6 45 19q15 8 22 28q2 5 7 22q1 12 1 71q0 15 -5 33
q-4 25 -17 52q-5 14 -18 31l-21 27q-3 3 -5 3q-16 8 -26 8l-6 1q-6 1 -9 2q-19 4 -39 0z" />
    <glyph glyph-name="C" unicode="C" horiz-adv-x="614" 
d="M235 5q-10 5 -28 13q-49 22 -89 69q-4 6 -7 10q-14 22 -23 32q-5 7 -11 18l-21 37q-6 9 -9 19q-14 36 -14 37q-1 4 -3.5 12t-3.5 12q-4 26 -4 39q-3 25 -1 58q0 18 2 27l3 18q0 13 6 39q1 3 3.5 12t3.5 14q1 2 2 6t2 6q10 23 13 28q12 26 23 39q4 4 10.5 13t10.5 13
q23 23 35 34q2 4 9 8q29 19 34 21l25.5 14t24.5 14q3 2 11 5.5t11 5.5q1 0 3.5 1t4.5 1.5t4 0.5l12 3t12 2q10 1 23 6q5 1 14 2t13 2q16 4 49 2h3q8 -3 30 -3q14 -1 43 -1q16 0 24 -1q12 0 24 -3q2 -1 4.5 -1.5t5.5 -1t5 -0.5q27 -7 41 -19q7 -4 12 -13q3 -7 3 -15
q1 -7 1 -21q2 -28 4 -34q2 -8 2 -15l3 -18q4 -19 4 -42q0 -7 -6 -10q-6 -4 -11 3q0 1 -1 2.5t-1 2.5q-1 4 -3.5 11t-3.5 9q-5 20 -14 37q-7 13 -21 37q-10 14 -21 23l-30 21q-8 6 -22 9q-4 1 -11.5 4t-11.5 4q-19 5 -36 7q-6 1 -39 1q-21 -2 -47 -13q-21 -9 -43 -28
q-2 -1 -4 -2.5l-4.5 -3.5t-3.5 -3q-18 -12 -36 -37l-17 -23q-9 -16 -27 -63q-8 -24 -8 -36q-1 -1 -1 -3q-4 -12 -6 -48q0 -28 -3 -43q-2 -10 -2 -30v-52q0 -17 5 -39q6 -22 7 -32q1 -6 4 -17t3 -16q0 -7 6 -21q8 -18 14 -27q17 -26 25 -45q7 -13 21 -26q4 -4 7 -5
q25 -17 57 -28q3 -1 9 -1q8 -1 22 -2.5t21 -1.5q22 -3 52 -1h6q20 4 29 6q14 4 21 7q12 5 29 16q17 13 27 25q8 10 14 20q6 11 17 42q1 5 3.5 13t3.5 10q3 8 8 17q3 8 9 12q7 2 9 1q5 -2 5 -7q0 -10 -2 -15q-4 -11 -4 -27v-73v-12q-2 -6 -5 -8l-2 -1l-3 -3q-42 -27 -82 -39
q-9 -3 -11 -3q-6 -1 -22.5 -4t-25.5 -4q-20 -4 -30 -5q-62 -5 -110 4q-14 2 -21 2q-22 2 -33 5q-6 2 -8 2z" />
    <glyph glyph-name="D" unicode="D" horiz-adv-x="701" 
d="M96 324v46q0 53 1 79q1 21 1 125q0 5 -0.5 15t-0.5 16q0 5 -2 15q-1 6 -2.5 17t-2.5 16q-1 9 -12 16q-6 3 -14 5q-17 0 -25 1q-1 0 -4 0.5t-5 0.5q-8 3 -4 10q0 2 3 5q5 3 11 4h22h185h22q6 0 18 2q47 5 88 2q16 0 24 -3l48 -9q7 -3 23.5 -6t23.5 -5q25 -8 43 -23l45 -36
l21 -18q3 -3 7 -9q10 -16 15 -23q10 -14 18 -32q2 -7 9 -25.5t10 -29.5q1 -5 4 -15.5t4 -16.5q0 -3 2 -9q3 -6 4.5 -19.5t3.5 -19.5q1 -2 1 -9v-45q0 -16 -2 -24t-2 -12q-1 -23 -6 -46q-1 -3 -1 -10t-1 -11l-4.5 -18.5t-6.5 -22.5q-2 -5 -5 -14.5t-5 -14.5q-2 -3 -9 -16.5
t-12 -20.5q-3 -7 -8 -13q-1 -1 -3.5 -4t-3.5 -5q-46 -48 -95 -71q-4 -2 -13.5 -5.5t-14.5 -5.5t-14 -6.5t-14 -6.5q-1 -1 -14 -6q-16 -4 -23 -6q-4 -2 -11 -2.5t-10 -1.5q-10 -3 -28.5 -5t-22.5 -3q-24 -2 -37 -2q-29 0 -86.5 0.5t-86.5 0.5q-18 0 -28 1q-14 2 -21 2
q-10 0 -30 0.5t-31 0.5q-3 0 -9 2q-2 0 -2 2.5t1 4.5q3 5 9 7q1 0 3 1t3 1q2 0 6 0.5t6 0.5q15 0 36 7q4 0 6 6q2 3 4 11v9q0 17 0.5 50.5t0.5 50.5v100v73zM535 348v39q0 15 -2 21q-1 6 -4 40q-2 28 -12 53q-1 2 -3 7t-3 7q-13 33 -29 70q-1 3 -8 17q-1 1 -3 5
q-22 29 -31 37q-15 14 -37 20l-39 6q-5 0 -15 2q-15 3 -43 1q-9 -2 -24.5 -3t-20.5 -2q-2 0 -6 -2q-5 -3 -6 -7v-6q-1 -5 -1 -15v-98q0 -20 -1 -24q-3 -16 -3 -33l-3 -36q-2 -18 -2 -25v-112v-92q-2 -110 -2 -167v-12v-6q0 -8 8 -8q18 -1 54 -1q33 0 49 3q5 1 15 1q6 1 18 1
q3 0 9 2q6 1 18 5q19 7 30 19l5 5q25 25 35 49q8 18 18 32q1 2 3 8q8 16 9 19q3 8 7 24q1 2 2.5 8t3.5 9l3 12l3 15q0 2 1 5.5t1.5 6.5t0.5 6q0 18 2 27q1 4 1.5 9t1 11.5t0.5 9.5v37z" />
    <glyph glyph-name="E" unicode="E" horiz-adv-x="600" 
d="M284 -1h-3q-17 -2 -79 -2q-28 0 -83 0.5t-82 0.5q-8 0 -12 2q-5 2 -5 7t3 8q10 7 20 8q16 2 23 5q10 4 14 7q10 4 12 17q2 20 2 30v43q0 29 3 39q1 6 1 18q1 13 1 40q3 48 4 58q2 26 1 39q-1 26 -1 79q0 21 -2 31q-1 6 -1 18q-1 10 -1.5 29t-0.5 29v128q0 12 -1 18
q0 7 -5 10q-7 7 -13 8q-4 1 -15.5 3.5t-17.5 3.5q-6 0 -13 7q-2 4 -2 6q0 8 7 8q25 2 45 -1q36 -5 61 0q14 2 21 2q27 0 40 1q7 1 21 1q50 0 149.5 -1t149.5 -1q10 0 15 -1q8 -3 8 -8q0 -2 3 -28v-45q0 -11 2 -31q2 -15 2 -45q0 -1 -0.5 -3t-0.5 -3q0 -2 -3 -4t-4 -1
q-3 0 -5 2q-3 1 -3 5q-2 6 -2 9t-8 26q0 2 -2 6q-10 18 -15 26q-20 32 -43 52q-1 1 -5 3q-2 2 -8 4q-3 1 -12.5 2t-14.5 3q-4 1 -12 1h-37h-115q-8 0 -12 -1q-8 -2 -8 -9v-9q0 -10 0.5 -30.5t0.5 -30.5q0 -6 1 -9q2 -11 2 -49v-64q0 -20 -2 -30v-24v-28q0 -6 8 -8h3h101
q3 0 8 0.5t7 0.5q17 0 34 11q10 7 13 16q7 20 8 26q1 14 6 27q0 1 5 8q1 1 4 2t4 0l4 -4q1 -2 1 -6v-22q-1 -6 -2 -26t-3 -31q-1 -3 -1.5 -9.5t-0.5 -8.5q-1 -24 0 -46q0 -12 3 -24t3 -24v-9q-2 -8 -8 -8q-5 0 -8 4q-2 4 -3 5q-3 7 -7 21q-5 20 -12 37q-1 6 -8 9l-2 2
q-1 1 -4 2.5t-4 2.5q-16 9 -35 9q-65 0 -97 1q-6 0 -12 -2q-2 0 -4 -2t-2 -4q-1 -3 -1 -9q-1 -7 -1 -21.5t-1 -21.5q0 -10 -1 -15q-3 -20 -3 -61v-128q0 -6 0.5 -18t0.5 -18q0 -2 2 -6q0 -2 7 -6h9h112q11 0 16 1q14 3 42 3q16 1 48 9q10 3 19 9q5 2 13 8q7 6 13 13
q8 12 11 18q2 5 5.5 12.5t4.5 9.5q6 10 9 23q1 1 6 23q0 3 2 9q3 7 9 7q4 1 7.5 -1t3.5 -6q2 -30 -3 -49l-3 -39q0 -12 -3 -24q0 -2 -1 -7t-1 -8q0 -4 -1 -12t-1 -12q-2 -7 -6 -11q-10 -6 -17 -6q-8 -1 -25 -1h-204h-30z" />
    <glyph glyph-name="F" unicode="F" horiz-adv-x="574" 
d="M240 191v-100q0 -23 2 -34q0 -4 1 -6q1 -1 3 -5q14 -14 24 -18l23 -9q4 -2 7 -5q3 -4 3 -8q-1 -3 -3 -5q-4 -2 -21 -7q-2 -1 -9 -1q-10 0 -30 0.5t-31 0.5q-8 0 -12 1q-11 2 -33 2h-119q-10 0 -15 1q-6 2 -9 7q-1 3 0 6q3 7 11 10q2 1 5 1t4 1q5 1 13 3.5t13 2.5
q6 3 16 9q4 1 6 7q6 12 6 26v10q-1 21 2 121q0 9 1 12q3 12 3 37q0 28 2 42v19q0 47 -2 143q0 28 -3 42q-1 6 -1 18v119q0 12 -1 18q0 4 -4 8q-5 7 -12 8q-12 4 -18 5q-3 1 -9 2t-9 2q-8 2 -11 9q-2 3 -0.5 7t5.5 5q1 0 3 0.5t3 0.5q22 0 33 -2q12 -3 37 -3q18 -2 36 3
q12 2 18 2h12h338q18 0 22 -1q4 -2 6 -6q3 -5 5 -17v-12q1 -17 1 -49q0 -17 2 -49v-27q0 -2 -2 -6t-5 -2q-3 0 -5 2q-6 14 -7 20l-3 12q-10 26 -33 58q-3 4 -9 11t-7 8q-16 16 -36 22q-6 1 -11 4q-8 2 -12 2t-12 0.5t-13 0.5q-46 -1 -140 -1h-3q-12 -2 -12 -11q-2 -17 0 -34
q1 -5 1.5 -10.5t1 -12t0.5 -10.5q3 -62 1 -140q-1 -15 -1 -46q0 -1 0.5 -4t0.5 -5t2 -4t4 -2q10 -1 30 -1h104h12q4 0 6 1q7 1 12 8q4 8 5 11q8 24 8 36q1 9 8 19l2 2q5 4 9 0q3 -3 3 -4q3 -33 -2 -58q-1 -2 -1 -6t-1 -6q-4 -55 -1 -94q2 -20 4 -27q1 -3 1 -9q0 -4 -3 -9
q-7 -9 -13 -1q-3 4 -5 8q-3 7 -7 23q-2 9 -14 43q-3 11 -15 18l-9 3q-2 0 -6 0.5t-6 0.5h-43q-6 0 -17 0.5t-16 0.5q-23 3 -46 0q-1 0 -2.5 -1.5t-2.5 -1.5v-1q-1 -1 -1 -2q0 -3 -1 -9.5t-1.5 -11.5t-0.5 -9l-3 -88q-1 -11 -1 -34z" />
    <glyph glyph-name="G" unicode="G" horiz-adv-x="747" 
d="M288 -1q-4 3 -7 3q-28 9 -58 26l-24 15q-2 1 -7 4.5l-8 5.5q-14 8 -38 30l-25 23q-7 7 -19 23q-10 14 -17 21q-18 21 -27 41q-3 6 -8.5 19l-8.5 20q-1 2 -2 6t-2 6t-9 32q-2 4 -4 12.5t-2 10.5q-2 8 -2 12v52q0 15 6 45q6 28 11 42q7 21 11 37q4 12 12 25q2 3 5 8t5 7
q14 17 29 43q6 10 19 24q24 27 55 47q32 21 60 31q4 2 37 14q1 0 5 1.5t6 1.5l9 3q10 3 29.5 7.5t26.5 6.5q4 1 12 1h37q10 0 15 -1q15 -4 33 -4q3 0 9 -0.5t10 -0.5q9 0 18 -3q4 -2 8 -2q10 -1 38 -10q3 -1 8.5 -4t8.5 -4q12 -4 17 -6q16 -6 30 -15q6 -4 8 -12q0 -2 0.5 -6
t0.5 -6q2 -33 4 -40q1 -5 1 -15l3 -21q5 -18 3 -36q0 -2 -2 -6q-3 -4 -8.5 -3.5t-7.5 4.5q0 1 -1 2.5t-2 2.5q-1 2 -3 5.5t-3 5.5q-10 21 -22 36q-5 5 -13 17q-4 6 -14 16l-29 27q-3 4 -10 11q-18 15 -39 24q-12 4 -17 6q-1 1 -4 1t-5 1q-9 0 -27 4q-4 2 -12 2q-15 1 -46 1
q-16 -2 -24 -5q-17 -6 -27 -13l-21 -12q-8 -4 -18 -16q-6 -7 -16 -23q-15 -23 -18 -51q-2 -16 -4 -24q-2 -10 -2 -15l-3 -18q-3 -9 -3 -18q-1 -2 -1 -6t-1 -6q-3 -11 -5 -33v-3q0 -5 -2 -14t-2 -13l-3 -27v-3q-4 -15 -6 -61v-27q-1 -11 2 -64q0 -3 2 -9q8 -31 9 -32
q1 -3 3.5 -12.5t3.5 -14.5q1 -6 8 -26q8 -24 22 -43q3 -5 11 -15q16 -11 25 -21q10 -10 27 -15q6 -3 20 -5q8 -2 12 -2q24 -2 33 -4q16 -4 34 -1q17 2 33 6q4 1 11.5 3.5t8.5 2.5q11 5 31 19l1 1q0 2 1 2q7 10 8 19v12v61q0 16 -6 33q0 2 -2 6q-5 14 -16 21q-10 7 -20 8
q-4 0 -12 0.5t-12 0.5q-16 0 -36 5q-10 3 -11 13q-2 10 7 12q32 4 48 4h256h12q13 0 21 -11q4 -4 2 -8q-1 -6 -8 -9l-1 -1h-2q-3 -1 -10 -2.5t-11 -1.5q-11 -2 -31 -10q-13 -4 -15 -18q-1 -3 -1 -9q-1 -3 -1 -8v-8q-3 -17 -3 -51v-92v-12q-1 -4 -4.5 -8t-7.5 -4h-3h-122
q-9 0 -11 8q0 2 -2 6q-4 2 -6 2h-6q-14 -5 -17 -6q-7 -3 -21.5 -6t-16.5 -3l-21 -3q-20 -3 -22 -3q-14 -2 -21 -2q-34 0 -51 4q-14 2 -23 2z" />
    <glyph glyph-name="H" unicode="H" horiz-adv-x="794" 
d="M148 -7q-66 0 -108 -1q-10 0 -15 2q-2 0 -4 4q-1 2 1 5q3 5 7 6q17 6 23 7q20 7 26 8q10 3 18 12q6 6 6 13l3 46q0 48 1 73q0 18 1 27q1 6 1 18q0 13 0.5 40t0.5 40v225q0 45 -1 67q0 22 -1 34q-2 12 -2 36q-1 7 -8 12l-1 1q-2 0 -2 1q-1 0 -8.5 2.5t-11.5 3.5
q-5 0 -15 2q-8 2 -12 4q-3 1 -3.5 4t1.5 5q1 0 1 1t1 2q7 4 14 5h12h226q8 0 12 -1q6 -2 9 -7q2 -1 1 -4t-3 -4q-18 -6 -29 -7q-3 -1 -14 -6q-9 -4 -16 -14q-2 -4 -2 -6q-1 -4 -1 -12q0 -4 -0.5 -12t-1 -14.5t-1.5 -12.5t-1 -18q-2 -102 0 -205q0 -7 3 -11q2 -4 4 -4
q1 0 3 -0.5t3 -0.5q22 -1 64 1h6q6 1 55 4q19 0 56.5 0.5t56.5 0.5q5 0 14 0.5t13 0.5q2 0 6 2q5 2 5 7q1 2 1 6q0 12 0.5 36.5t0.5 36.5v22v26v22q1 15 -2 85q0 8 -2 21.5t-2 18.5q0 2 -4 8q-6 9 -17 12q-18 6 -29 7q-7 2 -10 6q-6 7 2 10q1 1 3 1q3 1 9 1h241h9
q7 -2 10 -6q2 -2 1.5 -5.5t-3.5 -4.5q-4 -2 -8 -2q-12 -1 -36 -7l-6 -3t-5 -3q-4 -4 -5 -7v-10v-42q0 -14 -1 -22q-2 -58 0 -176q0 -130 1 -195v-119q0 -14 3 -27q1 -3 1.5 -6.5t1 -8t0.5 -6.5q1 -8 8 -13q2 -1 6.5 -3.5t7.5 -3.5q19 -6 23 -6q12 -2 29 -10q2 -1 4 -5
q1 -3 -0.5 -6t-4.5 -3q-2 0 -5 -0.5t-4 -0.5h-97q-12 0 -24 3q-5 1 -15 1h-95q-26 0 -39 1q-6 0 -9 2q-3 1 -4 4t1 5q2 4 4 4q1 0 3 1q4 2 6 2q17 2 45 16q8 3 8 12q2 61 1 92q-2 116 -2 173v10q0 8 -7 8q-2 0 -6 0.5t-6 0.5q-59 0 -89 1q-28 0 -82 -2q-2 -1 -6 -1t-6 -1
l-36 -3q-8 0 -22 -0.5t-21 -0.5q-9 -2 -9 -11q0 -1 -0.5 -3t-0.5 -3q0 -14 1 -21v-52q-2 -70 -2 -104q0 -54 1 -82q0 -10 9 -14q25 -12 43 -16l12 -3q5 -2 6 -6q2 -5 -4 -7q-2 -2 -3 -2q-8 -2 -12 -2q-4 -1 -12 -1q-19 0 -64.5 -0.5t-77.5 -0.5z" />
    <glyph glyph-name="I" unicode="I" horiz-adv-x="343" 
d="M252 302q1 -40 -1 -142v-106v-6q1 -6 6 -11q10 -9 27 -14q18 -6 29 -7h1l2 -1q4 -3 5 -8q3 -3 -5 -7h-1q-1 -1 -2 -1t-4 -0.5t-5 -0.5h-27h-104q-16 0 -24 -2q-6 -2 -18 -2h-95q-2 0 -5 0.5t-4 0.5q-7 2 -7 8q0 3 3 5q23 11 46 15q11 3 22 10q6 4 7 10q5 18 7 54
q1 48 1 129.5v129.5v49q0 10 1 15q1 6 1 40q2 28 0 57q0 29 -1 43q-1 6 -1 40v48q0 1 -0.5 3t-0.5 3q0 10 -10 14q-19 7 -33 8q-4 0 -12 2q-4 1 -8 4q-3 1 -1 5q5 9 17 11h9h226q10 0 15 -1q5 0 11 -4l1 -1q0 -2 1 -2q3 -5 -2 -7q-15 -5 -26 -8q-8 -2 -11 -3q-12 -3 -20 -14
q-5 -5 -5 -11q-1 -9 -1 -27l-3 -27q-2 -9 -2 -28q0 -104 1 -125v-27v-111z" />
    <glyph glyph-name="J" unicode="J" horiz-adv-x="336" 
d="M250 645q-3 -41 -3 -79q0 -175 1 -262q0 -83 -1 -125q-1 -4 -1 -12t-1 -12q-1 -6 -1 -18v-46q0 -31 -1 -46v-42v-34q0 -22 -8 -66q0 -3 -1 -6.5t-2.5 -8t-2.5 -6.5q0 -1 -2 -5q-1 -2 -3 -5.5t-3 -5.5q-12 -20 -18 -24q-27 -21 -44 -27q-1 0 -3 -0.5t-3 -0.5
q-26 -10 -41 -11q-2 0 -6 -2q-13 -4 -30 -4q-24 -1 -48 0q-11 1 -29 9q-4 1 -6 7q-2 9 6 9q6 1 18 1q4 0 9 1t11.5 2.5t9.5 2.5q22 10 30 19q11 11 12 21q0 1 2.5 9.5t3.5 13.5q1 9 1 28q1 22 1.5 65.5t0.5 65.5q0 20 1 30q1 8 1 24v122q0 7 0.5 21.5t0.5 21.5q0 5 0.5 15
t0.5 15v165v140v42q0 6 -1 9q0 7 -6 10q-10 7 -19 8q-4 1 -16.5 3.5t-19.5 3.5q0 1 -2 2.5t-2 2.5q-1 2 2 5q5 7 12 7q4 1 13 1h231q8 0 12 -1q9 0 9 -9q1 -3 -2 -6q-1 0 -3 -1q-5 -1 -13 -3.5t-13 -3.5q-8 0 -20 -8q-8 -4 -9 -11q-1 -2 -2.5 -5.5t-2.5 -5.5z" />
    <glyph glyph-name="K" unicode="K" horiz-adv-x="784" 
d="M268 667l-8 -8q-8 -8 -8 -19q0 -13 -2 -52t-2 -61q0 -10 0.5 -42t1.5 -49v-46q0 -2 0.5 -5t0.5 -4q0 -2 2.5 -3.5t4.5 0.5q15 10 43 34q34 33 54 49q1 1 3.5 4t5 5t4.5 4l30 30l79 76q24 24 46 49q13 15 19 27q2 6 1 9q-2 7 -7 10q-13 5 -26 5q-12 1 -37 1q-4 0 -8 4
q0 2 -1 3q0 4 3 5q1 0 3 1q1 1 6 1h195q6 0 8 -2q4 -2 4 -4q2 -3 -2 -5l-2 -2q-7 -4 -17 -6q-17 0 -25 -1q-7 0 -11 -4q-10 -11 -13 -12q-11 -7 -31 -29q-22 -27 -23 -29q-13 -17 -27 -29q-11 -9 -23 -24q-20 -23 -38 -40q-21 -21 -34 -39q-1 -2 -3.5 -5t-3.5 -4
q-5 -8 -1 -15q2 -3 5.5 -9t4.5 -9q6 -10 10 -15q5 -7 15 -19q5 -6 13 -18l45 -72q24 -38 37 -56l60 -92q4 -6 10 -18q7 -14 17 -29q5 -7 15 -23l18 -28l13 -17q5 -6 16 -10q23 -7 32 -7q10 -2 17 -6q6 -3 6 -10q2 -7 -7 -9q-1 0 -3 -0.5t-3 -0.5h-27q-12 0 -18 -1
q-10 -2 -31 -2h-173h-9q-4 2 -8 5q-3 4 -1.5 8.5t6.5 6.5q1 0 3 0.5t3 0.5l21 3q7 0 17 6q6 3 3 8q-3 4 -4 8q-11 16 -22 37q-3 6 -16 26l-54 81q-6 10 -9 16q-6 11 -20 33l-17 26q-2 4 -11 18q-22 30 -32 48q-5 9 -13 21q-4 6 -11 4q-12 -5 -20 -13q-8 -7 -22 -21
q-5 -4 -8 -9l-11.5 -14l-11.5 -14q-3 -3 -3 -9q-2 -64 -2 -97q-1 -60 0 -119v-6q2 -6 7 -10q21 -12 39 -16q6 0 12 -3q3 0 5 -2q2 -1 4 -5t-5 -7q-1 0 -3 -0.5t-3 -0.5q-7 -1 -21 -1h-107q-14 0 -21 -2q-6 -2 -18 -2h-110l-1 1h-2q-2 0 -3.5 3.5t-0.5 5.5q3 5 7 6q5 2 43 13
q11 5 19 10t8 12q0 2 1 7t1 8q4 15 4 45q0 153 1 229q1 62 1 186v18q-1 36 -1 107q0 1 -0.5 3t-0.5 3q-2 6 -4 7q-7 5 -8 5q-21 8 -39 8q-3 0 -9 2q-2 1 -3 4.5t1 5.5q4 6 10 6q4 1 12 1h64h164q11 0 16 -1q2 0 8 -4q1 -1 0.5 -4t-1.5 -4q-4 -3 -8 -4q-4 -2 -6 -2
q-13 0 -33 -9z" />
    <glyph glyph-name="L" unicode="L" horiz-adv-x="594" 
d="M106 317v37q0 16 1 24q1 7 1 21q0 92 1 138q0 14 -2 21q-2 10 -2 30v64q0 6 -1 9q-2 4 -3 5q-8 6 -16 9q-4 1 -11 2t-10 2l-18 3q-6 2 -6 7q0 1 1 2.5t2 2.5q5 5 11 5q3 1 9 1h234q2 0 6.5 -0.5t6.5 -0.5q4 -1 6 -5q1 -2 0 -6t-3 -5q-33 -8 -35 -9q-10 -3 -18 -12
q-1 -1 -3 -5q-6 -20 -6 -30q0 -9 -0.5 -28.5t-0.5 -29.5v-164v-101q1 -47 -1 -143v-103q0 -5 1 -7q0 -5 4 -7q13 -9 22 -9q15 -1 46 -1q5 0 15 -1t15 -1q16 -2 49 -2q5 0 15 2q4 2 9 0q10 -2 15 0t14.5 4.5t14.5 3.5q18 6 28 22q17 28 27 55q18 41 20 48q4 8 8 12q7 7 14 4
q2 0 7 -5q0 -2 0.5 -5t0.5 -4v-25q0 -16 -0.5 -47t-0.5 -47q0 -12 -6 -24q-3 -9 -13 -16q-1 -1 -5 -3h-9q-12 -1 -34 -1l-33 -3q-4 -1 -12 -1q-10 0 -29.5 -0.5t-28.5 -0.5q-121 -1 -363 1q-8 0 -12 1q-4 2 -5 3q-3 2 -2.5 5t2.5 5q4 4 10 6q16 6 29 9q6 1 23 8q1 0 8 5
q3 4 5 8q6 32 6 48q0 41 1 61v158h1z" />
    <glyph glyph-name="M" unicode="M" horiz-adv-x="851" 
d="M156 544q-2 -2 -2 -5q0 -4 -0.5 -12t-0.5 -13q0 -93 2 -140v-27v-134q0 -96 -2 -143v-28q0 -6 6 -10q14 -8 22 -10q26 -6 39 -6q10 0 15 -1q6 -1 11 -6q7 -7 -2 -13q-4 -2 -5 -2q-3 0 -11 -0.5t-11 -0.5q-26 0 -39 4q-4 0 -11 0.5t-10 0.5h-67l-6 -1q-6 -1 -9 -2
q-2 -1 -6 -1t-6 -1q-31 0 -37 1q-1 0 -4 3q-2 2 0 6q3 5 7 6q6 2 9 2q8 0 36 7l9 3t8 3q8 4 9 12q5 42 5 51v49q1 62 -1 186q0 12 -1 18q-2 14 -2 43l-3 73q0 6 -1 9q-1 8 -4 67q-2 32 -4 39v18v61v9q0 2 -3 5.5t-5 3.5q-6 2 -9 2q-12 1 -36 1q-5 0 -11 4q-5 5 0 8q0 2 2 2
q2 1 5.5 2.5t5.5 2.5q8 3 15 3q3 1 9 1t9 1q9 0 27 2q11 3 34 3h76q5 0 15 -0.5t15 -0.5q3 0 9 -2q9 -2 12 -8q1 -1 1.5 -2.5t1.5 -3t1 -2.5q4 -9 12 -25l31 -70q8 -18 10 -22l34 -68q8 -13 17 -36q8 -18 13 -27q14 -30 22 -44q6 -11 6 -13q3 -8 10 -21t9 -18q7 -16 17 -35
q1 -2 2.5 -6t2.5 -6q1 -3 4 -3q3 -2 5 3q2 3 4 9.5t4 9.5q3 8 33 82q14 32 30 73q2 3 7 20q12 38 30 80q8 18 16 43q11 32 24 59q1 2 9 16q1 2 6 7q4 1 8 4h3q32 5 64 5h116q8 0 12 -1q6 -2 6 -9q0 -4 -3 -5q-16 -7 -32 -8q-5 -1 -13 -7q-11 -7 -12 -17q-5 -18 -5 -33
q-1 -14 -1 -43v-86v-102v-86q0 -81 -1 -122v-79q0 -24 -3 -37q-1 -7 3 -17q3 -6 7 -10q1 -1 5 -3l6 -3q20 -12 40 -13q1 0 3 -1t3 -1q4 -4 4 -8q0 -5 -5 -7q-1 0 -3 -0.5t-3 -0.5q-7 -1 -21 -1q-26 -1 -76 -1q-13 0 -19 -1q-17 -2 -51 -2q-69 0 -104 -1q-3 0 -9 2q-1 0 -3 3
t-2 4q2 4 3 5q1 2 5 4q6 3 18 6.5t16 4.5q14 1 28 12l2 2q3 4 5 8q0 3 2 9t2 9q2 26 2 39q0 19 0.5 58t0.5 58q0 9 2 27q0 3 0.5 10.5t0.5 11.5v265q0 27 -1 33q-2 4 -4 4q-1 2 -3 0q-2 0 -2 -2q-2 -2 -4.5 -8t-3.5 -8q-23 -53 -34 -91l-21 -64q0 -5 -3 -9
q-5 -10 -11.5 -29.5t-8.5 -24.5l-6.5 -20l-6.5 -20t-5.5 -17.5t-4.5 -14.5q-5 -19 -12 -35q-10 -20 -14 -30q-14 -36 -22 -54q-7 -15 -14 -40l-5.5 -17t-5.5 -15q-2 -7 -7.5 -21t-8.5 -21q-1 -2 -3 -5.5t-3 -5.5q-3 -3 -7.5 -3t-5.5 4l-2 2q-2 6 -4 8q-11 27 -24 50
q-5 10 -8 19q-2 7 -7.5 19t-7.5 18q-10 17 -21 51q-3 9 -10.5 28t-10.5 29q-1 4 -4 8q-8 15 -26 68q-12 32 -21 47q-16 29 -27 58l-4 8l-55 109q-2 5 -7 5z" />
    <glyph glyph-name="N" unicode="N" horiz-adv-x="695" 
d="M147 313q-1 -89 -1 -219q0 -9 0.5 -27.5t0.5 -27.5q2 -16 17 -19q8 -2 12 -2q6 0 39 -8q6 -1 9 -8q2 -7 -3 -7q-4 -2 -6 -2h-25h-152q-2 0 -6 0.5t-6 0.5l-4 4q-2 2 0 6q1 4 6 7q12 6 20 7q6 0 23 5q13 5 15 18q1 6 1 18v296q0 48 -1 73q-2 96 -1 143q1 15 -2 33l-3 21
q-3 16 -13 24q-10 11 -21 17q-3 1 -8 6q-4 4 0 11l4 4q10 7 20 7q2 1 6 1q64 1 128 0q4 0 6 -1q5 0 11 -4q6 -6 9 -8q3 -4 7 -7.5t8.5 -8l6.5 -6.5q14 -14 21 -22q3 -3 8.5 -10l8.5 -11l27 -33q7 -8 21 -22q2 -2 5.5 -6t4.5 -6q4 -6 11.5 -15.5t8.5 -10.5t8.5 -10t11.5 -13
l17 -20l17 -20l18 -24q21 -31 42 -56q14 -18 28 -40q9 -13 29 -39q4 -5 11 -4q4 0 4 3q2 2 2 3v21q1 78 1 232v73q0 14 -1 21q0 8 -5 18q-4 10 -16 13q-6 1 -18 1h-24q-1 0 -4 0.5t-5 0.5q-1 0 -3.5 2.5t-2.5 4.5q-2 6 6 9h6q61 1 183 1q4 0 6 -1q4 0 4 -3t-1 -3
q-3 -5 -7 -5q-25 -7 -42 -7q-14 0 -24 -12q-8 -8 -9 -19v-6q0 -23 0.5 -71t0.5 -72q0 -10 1 -15q2 -10 2 -46v-39q0 -84 2 -250q1 -43 1 -128q0 -2 -0.5 -5t-0.5 -4q-2 -8 -7 -9q-4 -2 -12 -4q-10 -2 -23 5l-2 2q-19 17 -38 44q-30 48 -63 93q-3 5 -11 15q-11 13 -31 41
q-17 27 -66 95q-9 11 -25 35q-12 18 -20 27q-9 10 -25 34q-15 26 -29 43q-1 1 -5 6.5t-6 7.5q-27 28 -62 72q-8 12 -18 20q-1 0 -3 1t-3 1q-2 -4 -3 -5v-3v-7q0 -160 1 -216z" />
    <glyph glyph-name="O" unicode="O" horiz-adv-x="725" 
d="M377 698h27q16 0 24 -2t25 -2q21 0 41 -11q3 -2 10 -5.5t11 -4.5q19 -11 36 -24l34 -30q24 -22 33 -35q28 -37 34 -47q29 -43 41 -91q6 -20 6 -30q1 -2 1 -6t1 -6q3 -9 3 -27v-17v-20.5v-17.5q0 -12 -2 -18q-3 -9 -3 -18l-1 -8q0 -9 -2 -13q-8 -37 -9 -38l-9 -24.5
l-9 -24.5q-8 -16 -10 -19q-15 -25 -38 -51q-23 -28 -48 -46l-17 -13q-18 -15 -36 -23q-6 -2 -16 -8q-5 -3 -26 -10q-1 0 -17 -4t-24 -5q-20 -2 -30 -4q-6 -1 -19 -1q-13 -1 -39 -1q-28 3 -33 4q-8 2 -12 2q-5 1 -18 5l-48 20q-4 1 -8 4q-29 16 -52 31q-18 14 -26 21
q-11 12 -30 26q-4 2 -9.5 7t-6.5 6l-21 22q-13 13 -21 30q-17 33 -19 42q-1 2 -2 4.5t-2 3.5q-7 13 -8 26q-10 47 -11 63q-2 12 -2 18q0 36 3 70q1 13 7 39q2 4 2 6q7 34 26 67q7 14 8 17l18 35q4 6 12.5 17.5t12.5 17.5q5 7 17 21q21 19 46 35q4 3 8 5q6 2 17 8t16 8
q20 10 46 15q1 0 4 0.5t5 0.5q4 2 24 4q18 0 36 3q5 1 15 1h34zM181 313v-37q0 -4 2 -12t4 -24q0 -9 3 -18l3 -9q0 -6 3 -18t3 -15q0 -5 3 -11l11.5 -26.5l11.5 -26.5q5 -10 10 -15q27 -28 52 -47q6 -4 13 -8l23 -9q1 0 11 -3t15 -3q33 -3 55 -1q4 0 12 2l29 9q19 7 31 24
q8 10 14 20q11 17 22 40q15 26 22 62l9 36q9 37 10 63q0 22 2 33q1 7 1 61v6l-6 33q-1 4 -2.5 13t-2.5 14l-3 15t-4 15q0 2 -2 11.5t-4 14.5q-11 37 -20 58q-7 16 -11 21q-6 11 -20 31q-10 15 -32 27q-15 9 -30 15q-15 7 -32 9l-27 3q-6 2 -9 2q-12 2 -21 -1q-2 -1 -5 -1
t-4 -1q-17 -5 -30 -15q-7 -7 -11 -10q-18 -12 -30 -30q-1 -2 -4 -5q-9 -9 -16 -25q-17 -39 -21 -57q-9 -25 -12 -47q-1 -5 -2.5 -16.5t-3.5 -16.5q-1 -5 -4 -30q-2 -43 -5 -55v-12q-1 -11 -1 -33z" />
    <glyph glyph-name="P" unicode="P" horiz-adv-x="616" 
d="M233 699h134h27q15 0 21 -2q2 -1 5 -1t4 -1q15 0 22 -2q2 -1 9 -3.5t11 -3.5q1 -1 2 -1l9 -3l9 -3l11 -8t9 -6q4 -2 10.5 -7t9.5 -7q7 -4 16 -14l33 -39q1 -2 2.5 -4t2.5 -4q8 -18 11 -35l3 -18q2 -10 2 -15v-15q0 -16 -1 -24q0 -4 -2 -11.5t-2 -9.5q-1 -7 -5 -14
q-10 -24 -21 -44q-7 -12 -18 -25q-19 -20 -52 -42q-22 -14 -61 -25q-2 0 -5 -1t-4 -1q-3 0 -8 -1t-7 -1q-9 -4 -21 -4l-18 -3q-2 -1 -4.5 -1.5t-5.5 -1t-5 -0.5q-22 -2 -33 -4q-6 -2 -18 -2q-20 0 -31 -1q-5 0 -15 -2q-9 -2 -9 -10q0 -3 -0.5 -8t-0.5 -7v-64
q0 -4 -0.5 -10.5t-1 -12t-1.5 -10.5q-1 -45 0 -89q1 -4 1.5 -9t1 -11.5t0.5 -9.5q2 -6 4 -8q6 -6 12 -9q15 -6 20 -7t13.5 -3.5t13.5 -3.5q0 -1 1.5 -2.5t1.5 -2.5q3 -3 -1 -5l-2 -2q-10 -5 -18 -5h-9q-38 0 -114 -1t-114 -1h-28q-1 0 -5 2q-2 1 -4 5q0 3 3 5q8 6 10 6
q5 1 14.5 4t14.5 4q8 1 18 6q5 1 12 8q4 4 6 11q5 28 5 51q0 6 0.5 19.5t0.5 20.5q0 44 0.5 133.5t0.5 134.5v170v22v26v22q0 2 -0.5 5t-0.5 4q0 2 -2 6q-11 11 -20 13q-2 0 -6.5 0.5t-6.5 0.5q-1 0 -4 0.5t-4 1.5t-4 2t-5 2q-4 2 -2 8q3 5 10 7q3 1 9 1q5 0 15 0.5t15 0.5
h134v-1zM249 480q0 -97 1 -146v-6v-3q0 -3 2.5 -5.5t5.5 -1.5l21 3h21q25 1 55 17q2 1 5 3t5 3q24 13 40 37q17 23 35 61q13 32 12 47q0 3 2 9q3 19 -1 36q-1 2 -1 6q0 10 -11 41l-12 24q-12 18 -27 33q-1 1 -5 3l-6 3q-19 8 -37 12q-2 0 -5 1t-4 1q-33 2 -67 0
q-2 0 -5 -0.5t-4 -0.5q-15 -1 -17 -18q-1 -2 -1 -6q-2 -60 -2 -89v-64z" />
    <glyph glyph-name="Q" unicode="Q" horiz-adv-x="724" 
d="M462 2q0 -4 5 -6h1l2 -1q8 -1 26 -4.5t28 -4.5q13 -4 39 -6q2 0 3 -1q11 -3 49 -5q3 0 9.5 -0.5t11.5 -1t9 -1.5q5 -1 15 -1h15q17 0 34 3q3 1 12.5 1.5t14.5 2.5q7 3 36 5h1q1 -1 2 -1q7 0 7 -8q0 -14 -4 -21q-3 -8 -8 -16q-4 -9 -12 -17l-15 -15q-13 -12 -41 -32
q-11 -8 -24 -13q-22 -9 -37 -13q-22 -6 -33 -6q-43 -2 -76 1q-6 0 -12 2t-16.5 3t-13.5 2l-36 6q-6 0 -18 3t-18 3q-8 3 -23.5 5.5l-21.5 3.5q-6 2 -18 2q-3 1 -8 1t-7 1q-21 6 -64 4q-3 0 -9 -2q-23 -7 -31 -11q-12 -5 -18 -11q-14 -12 -23 -16t-11 6v3q-1 1 -1 3
q2 12 4 18q9 30 23 53q14 22 22 33q23 29 49 40q4 2 3 4l-2 2q-1 1 -3 1q-17 10 -38 18q-13 5 -27 14l-34 21q-5 3 -17 12l-7 7q-16 16 -30 25q-7 5 -21 17l-11 11q-10 12 -14 16q-9 10 -16 26q-4 7 -11 21.5t-9 19.5q-5 11 -11 35q-1 4 -2.5 11.5t-2.5 11.5q-2 6 -2 19
l-3 18q-3 9 -3 21q0 34 3 51l3 30q0 1 0.5 4.5t1.5 4.5q9 31 11 41l3 9q7 16 13 28q4 7 11 21.5t9 19.5q7 13 23 39q13 18 34 39q3 3 9.5 8t9.5 8q19 15 33 21q11 6 13 7q9 5 48 20l29 9q28 10 44 11q3 0 9 2q15 4 33 4q16 0 24 -1q9 0 13 -1q3 -1 8.5 -2t8.5 -2l18 -3
q2 -1 7 -2.5t8 -1.5q12 -4 17 -6q2 0 5 -1t4 -1q40 -18 64 -35l10 -7q1 -1 22 -20t31 -30q15 -15 24 -28q20 -28 34 -50q11 -16 17 -33q1 -3 4 -11t4 -12l3.5 -13.5t3.5 -15.5l3 -12q1 -2 1.5 -4.5t1 -5.5t0.5 -5q2 -36 2 -55v-18q0 -32 -6 -54q-2 -8 -2 -12q0 -13 -8 -39
q-3 -6 -10 -28q-1 -4 -15 -34q-6 -10 -10 -15q-4 -6 -13 -18.5t-14 -18.5q-8 -10 -14 -16q-30 -28 -47 -38q-2 -1 -5.5 -3t-5.5 -3q-22 -14 -34 -21q-8 -3 -22 -10t-19 -9q-9 -2 -11 -4zM229 102l42 -41q15 -13 33 -21q17 -8 29 -10q13 -2 39 0q3 0 9 2q3 0 9 2t9 2
q14 4 21 5q3 1 8.5 3t8.5 3q33 17 51 38q5 4 11 14q7 14 19 42q10 25 14 46q2 12 8 36q4 14 5 21q0 5 2 15q2 14 2 21q2 32 2 49q1 12 1 36q-2 35 -6 45q-1 4 -3.5 15.5t-3.5 17.5q-1 4 -3.5 15.5t-3.5 17.5q-1 7 -4.5 20t-4.5 15q-2 5 -5.5 14.5t-4.5 14.5q0 1 -0.5 2.5
t-1.5 2.5q-16 32 -22 40q-5 6 -13 18q-3 5 -13 13q-8 6 -12 8q-47 23 -56 26q-14 2 -23 2q-8 1 -49 1q-9 0 -20 -7q-4 -2 -10 -6l-27 -21l-6 -6q-5 -7 -15 -19q-3 -4 -7 -10q-28 -53 -42 -121q0 -2 -1 -6t-1 -6q-4 -11 -4 -27q0 -2 -1 -7t-1 -8q-2 -7 -4 -42q0 -17 -4 -30
q-4 -36 1 -58q2 -8 2 -12q0 -3 0.5 -9t0.5 -9q1 -11 5 -33q8 -30 8 -36q2 -16 9 -29q4 -8 11.5 -24.5t11.5 -24.5z" />
    <glyph glyph-name="R" unicode="R" horiz-adv-x="719" 
d="M226 699h134q37 0 49 -3h7t8 -1q22 0 36 -6q19 -3 47 -20l12 -9q3 -2 8.5 -6.5t8.5 -6.5q10 -7 26 -25q1 -2 3 -4.5t3 -3.5l16 -25q4 -7 7 -14q7 -16 7 -29q0 -8 0.5 -23.5t0.5 -22.5q-1 -18 -7 -36q-1 -3 -3 -7t-3 -7q-3 -6 -23 -36q-2 -3 -8 -9q-7 -7 -23 -19l-38 -26
q-8 -5 -16 -8q-22 -14 -30 -20q-3 -3 -2 -6q0 -2 2 -6l16 -25l39 -59q5 -7 10.5 -15.5l12 -19l10.5 -16.5q8 -12 12 -17q10 -16 14 -24q2 -4 18 -31l7 -10t7 -11l8.5 -14l8.5 -14q8 -10 11 -15q9 -11 23 -14l24 -6q7 -1 23 -7q2 -1 6 -7v-5q-4 -9 -12 -9q-1 0 -3 -0.5
t-3 -0.5q-99 0 -149 -1q-11 0 -35 -0.5t-35 -0.5h-33q-4 0 -9 3q-7 5 -3 13l1 1q1 1 1 2q15 5 30 6q2 1 5 1t4 1q1 0 4 1.5t4 1.5q6 5 3 11t-11 18q-18 34 -22 40t-12.5 17.5t-12.5 17.5l-18 27.5l-20 30.5l-3 6q-5 10 -35 57q-10 17 -25 38q-1 2 -6 7q-2 2 -8 4
q-21 2 -39 -4q-5 -2 -5 -7q0 -2 -0.5 -6t-0.5 -6q0 -19 -0.5 -56.5t-0.5 -56.5q-2 -53 0 -106q0 -9 1 -13q3 -5 5 -7q3 -3 5 -4q12 -6 19 -9q3 -2 11 -4q12 -1 24 -6q1 0 3 -5q0 -3 -2 -5q-7 -6 -17 -6q-3 -1 -9 -1q-40 0 -118 -0.5t-117 -0.5h-27q-5 2 -7 5q0 7 4 8
q0 2 2 2q1 1 3 1q2 1 12.5 4.5t16.5 4.5q4 1 11.5 3.5t11.5 3.5q7 3 12 9q3 2 5 8q2 9 4 27q2 8 2 24q0 13 0.5 38.5t0.5 37.5v241q0 30 3 45q1 5 1 16q0 34 -2 51q-1 6 -1 18q-1 29 -1 86q0 4 -0.5 12t-0.5 12q0 8 -8 12q-15 6 -32 9q-12 0 -21 5q-2 1 -3 3.5t1 3.5
q7 10 18 10h24h143zM257 335h17q9 0 18 3q4 1 12 1q3 1 9.5 1.5t9.5 0.5q14 0 25 8q27 15 47 38q10 11 22 33q1 2 9 23q2 4 4 14l3 12q2 32 5 49q2 10 -1 18l-3 30q-1 17 -8 39q-2 7 -6 13q-5 8 -17 22q0 2 -2 2q-28 21 -49 23q-9 4 -27 4h-15q-22 0 -45 -6q-6 -2 -8 -8
q-1 -2 -2.5 -7t-2.5 -7q0 -19 -2 -55q0 -6 -0.5 -20t-0.5 -20q1 -64 1 -192q0 -8 1 -12q0 -3 6 -7z" />
    <glyph glyph-name="S" unicode="S" horiz-adv-x="496" 
d="M156 549q5 -12 5 -13q3 -8 11 -18q15 -18 28 -28q1 -1 5 -4.5t6 -5.5q3 -2 10 -8t11 -9t18.5 -12.5l22.5 -14.5q10 -6 29.5 -19t29.5 -19q17 -11 66 -49q15 -11 33 -31q11 -10 18 -24q15 -30 24 -63l3 -12v-18q0 -20 -4 -39l-3 -9q-10 -26 -17 -39q-6 -11 -14 -23l-9 -12
q-9 -13 -24 -28l-4 -4q-25 -28 -66 -36l-11.5 -3l-11.5 -3q-5 0 -13 -2t-11 -2q-10 -2 -15 -2q-19 0 -58 -0.5t-58 -0.5q-10 0 -30 2q-7 0 -39 8q-11 2 -43 16q-5 2 -6 6q-4 7 -6 17q0 3 -0.5 8t-0.5 7q0 11 -1 16q-3 13 -5 60q0 2 -1 7t-1 8q-2 7 -4 37q0 4 1 5t2 2.5
t2 2.5q5 3 8 -3q4 -4 4 -8q1 -6 8 -26q3 -11 11 -25q12 -22 30 -42q4 -3 11 -10q13 -13 27 -20q2 -1 5.5 -3t4.5 -3q9 -6 20 -9q6 -2 18.5 -4.5t16.5 -3.5h10h48q13 0 39 6q12 7 13 8q18 12 27 32q2 4 5.5 15l5.5 17v3q2 17 -1 30l-3 12q-3 19 -17 35q-28 30 -53 46
q-16 11 -31 18q-39 18 -80 45q-1 1 -4.5 3t-5.5 3q-11 5 -23 15q-1 1 -3.5 3t-3.5 3q-26 16 -46 48q-10 16 -14 23q-10 16 -17 43q-2 4 -2 9q-3 25 -4 30q-2 24 2 42q2 14 8 42q1 5 3.5 12.5l3.5 10.5q0 1 5 8q6 10 20 30q2 3 6 7.5t6 6.5l13 13q4 4 18 12q10 6 17 7
q6 1 17 3.5t15 3.5q6 0 9 2q4 1 9 2t11.5 2t9.5 2q22 2 33 2h55q20 0 30 -2q4 -1 11 -1.5t11 -0.5q9 0 23 -4q20 -6 29 -9q9 -4 25 -12q1 -1 2.5 -2t2.5 -2q4 -3 5 -8q1 -4 1 -12l3 -36q3 -31 1 -70q0 -5 -5 -30q0 -5 -7 -5q-6 2 -7 4q-2 2 -2 3q-1 5 -4.5 16.5t-4.5 18.5
q-6 24 -12 35q-4 6 -10 18q-21 37 -60 55q-2 1 -29 9q-4 1 -12 1h-43q-11 1 -35 -7l-1 -1q-2 0 -2 -1q-20 -12 -30 -33q-1 -2 -2.5 -7t-2.5 -8q-9 -27 -9 -58z" />
    <glyph glyph-name="T" unicode="T" horiz-adv-x="560" 
d="M122 662q-3 -1 -8 -2.5t-7 -1.5q-12 -3 -24 -13q-3 -2 -7.5 -6t-6.5 -6q-7 -7 -13 -16l-12 -21q-13 -25 -15 -43q0 -9 -7 -20q0 -2 -2 -2q-13 -7 -18 6q-2 8 -1 12q4 12 4 39q1 6 1 17t1 16q0 12 1 18t1.5 12t1 13.5t0.5 11.5q0 6 1 9q0 6 6 10q4 2 12 4h27q48 1 143 1
q183 0 274 1q33 0 49 -1q8 0 12 -1q5 -2 7 -5q2 -4 4 -12q0 -12 1 -18q0 -19 2 -55q0 -9 2 -27q4 -28 3 -43q0 -10 -12 -10q-2 0 -3 1q-3 0 -5 3q-2 0 -2 2q-6 19 -7 26q-5 21 -13 34l-8 16q-10 18 -27 30q-1 0 -2 1l-6 3q-11 6 -22 9q-2 0 -5 1t-5.5 1.5t-4.5 0.5
q-8 0 -26 0.5t-26 0.5h-9q-1 0 -3 -0.5t-3 -0.5q-11 -4 -12 -12q-5 -24 -5 -49q-1 -14 -1 -42v-244q1 -80 -2 -180q0 -13 0.5 -39t0.5 -40q0 -6 7 -13q1 -1 4 -2.5t4 -2.5q25 -10 31 -11t18 -5q1 0 3 -3t1 -4q-2 -4 -3 -5l-1 -1q-2 0 -2 -1l-12 -3h-9q-42 0 -126 -1t-126 -1
q-3 0 -9 2q-3 0 -4.5 3.5t0.5 5.5q3 5 7 6q4 2 11.5 4t11.5 4q5 1 13 3.5t10 3.5q6 1 11 5q9 6 13 20q1 3 1 9l3 88q0 18 1 28q1 6 1 18q0 53 0.5 158.5t0.5 157.5v46q-1 14 -1 43v33q0 19 -19 25q-2 1 -6 1h-58z" />
    <glyph glyph-name="U" unicode="U" horiz-adv-x="739" 
d="M245 148q8 -11 20 -29q27 -39 73 -64q2 -1 6.5 -3t6.5 -3q16 -6 40 -6q5 0 16 -0.5t17 -0.5q28 0 42 4q2 0 6 0.5t7 0.5q14 1 34 12q10 6 32 23q6 6 8 9l17 20q11 26 19 53q1 6 1.5 17.5t0.5 15.5q0 1 1 15.5t2 21.5q2 8 2 24q0 13 -0.5 39.5t-0.5 39.5v9q0 1 -3 43
q0 10 -0.5 30t-0.5 31q-2 124 -2 185v13q0 9 -9 14q-3 2 -9 4q-3 2 -11 4q-3 0 -8.5 0.5t-10 1t-8.5 1.5t-12 1q-9 1 -25 1q-1 0 -3 0.5t-3 0.5q-7 2 -5 10q0 4 6 6q1 1 5 1q19 3 40 1q22 -1 46 0q19 1 57 1q47 3 49 3q12 2 21 -1q2 0 6 -2q1 -1 3 -5t-5 -7q-1 0 -3 -0.5
t-3 -0.5q-26 -2 -33 -5q-4 -1 -12 -1q-9 -1 -23 -9q-6 -4 -7 -9q-3 -9 -3 -18q0 -42 2 -55q1 -5 1 -18q0 -6 1 -18t1 -18q0 -13 1 -18q3 -13 3 -37v-33v-204v-22q1 -16 -6 -63q-9 -37 -16 -49l-5.5 -11l-5.5 -11q-9 -17 -24 -27l-24 -18q-8 -5 -24 -13q-4 -1 -11 -3.5
t-9 -3.5q-27 -7 -33 -7q-2 0 -3 -1l-42 -6q-8 0 -12 -1q-6 -1 -33 -4q-31 0 -46 -1q-36 0 -61 5q-5 1 -14 1t-13 1q-14 2 -21 4t-19.5 8t-19.5 8q-3 1 -11 6q-24 18 -35 29l-8 8t-7 8q-11 11 -21 29q0 1 -1 2.5t-2 2.5q-17 31 -21 57q-6 17 -6 42q0 11 0.5 35t0.5 35v70
q0 63 1 95q0 85 -1 128v73q0 2 -0.5 6t-0.5 6q-2 4 -3 5q-8 6 -13 8q-24 6 -36 7q-1 0 -3 0.5t-3 0.5q-6 3 -6 7q1 1 3 5q2 2 8 4q4 1 12 1h76h155q2 0 7 -0.5t8 -0.5t6 -3q1 -1 0.5 -4t-1.5 -4q-10 -6 -17 -6q-16 -4 -24 -7q-11 -4 -17 -15q-5 -8 -5 -15q0 -6 -0.5 -18
t-0.5 -18q0 -8 -2 -28q-1 -6 -1 -18v-48v-186q0 -31 2 -40q1 -5 1 -15v-36q0 -29 8 -61l3.5 -11t3.5 -13z" />
    <glyph glyph-name="V" unicode="V" horiz-adv-x="709" 
d="M190 693h122q8 0 12 -1q3 -1 4 -4q4 -5 -2 -10q-3 -3 -8 -3q-7 -1 -20 -3.5t-19 -3.5q-15 -4 -18 -19q-3 -11 1 -21q4 -11 11 -32.5t9 -28.5q10 -25 13 -31q2 -3 7 -16l8.5 -20.5t8.5 -19.5q5 -13 17 -39q12 -25 21 -54q2 -6 7 -18t7 -18l1 -1q0 -2 1 -2l18.5 -35
t21.5 -40q1 -1 2 -2.5t1 -2.5q2 -2 6 -2t5 2l2 2q1 2 3 5.5t3 5.5q2 8 20 54q5 12 13 34q1 4 5 11.5t5 11.5q2 7 6 23q24 74 41 118q2 6 6 17l7.5 20t7.5 17q1 6 5 17t5 15q9 27 14 37q0 1 1 3t1 3q1 3 -1.5 6.5t-6.5 4.5h-3q-11 1 -33 5q-3 1 -10 1.5t-11 2.5
q-1 0 -2.5 1.5t-2.5 1.5q-1 1 -1 3q0 3 3 3q4 1 12 1h40q41 0 61 3q4 1 12 1h27q19 1 43 -4q1 0 4 -3q1 -1 1 -2t-1 -1q-2 -4 -3 -5q-18 -6 -27 -6q-17 -1 -31 -12l-2 -2q-3 -3 -4 -5q-1 -1 -3 -5q-21 -51 -24 -56q-1 -1 -1 -3t-1 -3q-10 -27 -13 -34q-7 -17 -11 -31l-3 -9
q-21 -52 -55 -152q-9 -30 -21 -60q-4 -11 -5 -14q-1 -8 -3.5 -16t-6 -18l-5.5 -16q-12 -34 -17 -52l-15 -46l-5.5 -17t-5.5 -15q-11 -28 -12 -31q-7 -17 -11 -31q-5 -16 -21 -44q-5 -5 -11 -6h-6l-8 3q-8 6 -17 18q-1 1 -3 5l-27 61q-2 3 -3.5 8t-2.5 6q-24 59 -29 74
q-1 3 -3 7.5t-3 6.5q-13 26 -19 45q-7 20 -10 25q-6 12 -16 35l-15 35q-11 23 -21 50q-2 7 -9 24.5t-10 27.5q-4 15 -18 45l-15 33q-12 29 -34 71l-27 52q-2 2 -4 8q-12 20 -34 23q-33 7 -42 7q-2 0 -6 2q-3 1 -3 5q-2 3 2 5q8 5 23 8q39 6 78 6h86z" />
    <glyph glyph-name="W" unicode="W" horiz-adv-x="1139" 
d="M570 382q-4 -2 -6 -6q-1 -2 -2.5 -7t-2.5 -7q-15 -48 -36 -107l-12 -37q-8 -24 -12 -35q-8 -17 -13 -37q-17 -54 -21 -64q-2 -10 -4 -15q-3 -6 -5.5 -13t-5 -15.5t-4.5 -13.5q-4 -10 -6 -14q-6 -11 -20 -13q-1 0 -3 -0.5t-3 -0.5h-15q-44 2 -67 2q-6 0 -9 1q-6 2 -8 4
q-12 9 -16 22q-12 30 -17 45q-8 23 -18 42q-19 36 -40 86q-10 21 -23 60q-6 20 -20 60q-3 11 -11 31q-11 25 -19 55q0 1 -1 3q-2 4 -2 6q-1 10 -16 52q-11 27 -18 52q-3 16 -10 28t-13 31q-8 24 -25 52q-11 17 -25 27q-14 8 -22 9q-3 0 -9 2q-4 2 -5 3q-5 4 -4 11q0 7 8 7
q36 4 55 4l134 3h46q7 0 21 0.5t21 0.5q8 0 12 -1q3 -1 6 -4.5t2 -7.5q-2 -5 -3 -5t-3 -1t-3 -1q-4 -1 -19 -8q-2 -1 -5 -4q-10 -11 -11 -25v-18q-1 -17 5 -36q5 -12 11 -38q14 -43 28 -74q4 -9 12.5 -26t12.5 -26q2 -4 4 -12q5 -20 17 -45q12 -26 16 -40q1 -2 2.5 -8
t3.5 -9q4 -7 9.5 -22.5t8.5 -22.5q3 -4 4 -8q3 -9 10 -26t9 -25q3 -11 9 -16l2 -2q6 -6 11 1q1 3 9 23q4 14 13 42t13 42l15 48t16 48q1 3 12 44q8 27 10 44l3 12q2 5 2 15q0 8 -2 12q-2 3 -5 9.5t-4 9.5q-12 22 -20 41q-3 6 -11 18q-5 7 -10 16q-10 18 -24 31q-4 4 -7 6
q-5 5 -15 10q-4 1 -10.5 3.5t-9.5 3.5q-5 2 -13 8l-4 4q-4 7 0 12q3 5 10 6h9q24 0 36 1h232q8 0 12 -1q7 0 10 -6q4 -5 0 -11q-3 -5 -10 -7q-2 0 -5 -1t-4 -1q-7 -1 -13 -6q-5 -3 -7 -10q0 -1 -0.5 -2.5l-1 -3t-0.5 -3.5v-21q2 -22 9 -35q8 -14 10 -22q1 -3 8 -17l12 -24
q4 -8 11 -23.5t11 -23.5q12 -32 19 -48q4 -12 6 -17q1 -1 1 -3t1 -3q10 -23 11 -25q3 -9 11 -25q3 -5 7 -15.5t5 -12.5q1 -5 4.5 -13t4.5 -10q0 -1 1.5 -3.5t1.5 -4.5l11 -32q6 -12 9 -26q7 -22 22 -56q2 -4 4 -5q5 0 7 5v1l1 2q23 66 26 78q5 20 14 46q3 10 14 44
q10 28 26 84q8 35 8 39q4 16 7 23q1 4 2.5 12t3 14.5t3.5 12.5q2 16 4 24q4 15 5 20q1 4 2.5 11.5t2.5 13.5t1 11q1 2 2.5 6t1.5 6q2 8 -3.5 16t-12.5 10q-14 5 -27 6q-20 0 -36 4q-4 1 -12 1q-1 0 -46 3q-5 0 -10 6q-3 4 -0.5 10t7.5 7q2 0 5 0.5t4 0.5h64q103 -3 125 -2
q24 0 36 1h43q6 0 14 -6q4 -4 7 -10q6 -9 -3 -16q-6 -4 -8 -4q-25 -5 -46 -5q-3 -1 -10 -1t-11 -1q-7 0 -14 -5q-3 -3 -4 -5q0 -2 -1 -4l-2 -4t-2.5 -7t-2.5 -8q-7 -18 -12 -40q-2 -6 -5.5 -19l-5.5 -20l-10.5 -40t-12.5 -45q-3 -10 -9 -32q-10 -29 -27 -96q-16 -61 -18 -65
q-4 -11 -10 -35q-5 -18 -10 -32q-1 -6 -4.5 -17.5t-5.5 -17.5l-5.5 -16t-4.5 -16t-4.5 -18t-4.5 -14q-11 -33 -25 -82q0 -1 -1 -2l-3 -6q-3 -5 -7 -5l-12 -3q-18 0 -28 1q-17 1 -51 1h-15q-7 0 -14 7t-9 12q-2 4 -6.5 12t-6.5 12q-3 6 -7 20q-1 2 -4.5 12.5t-4.5 16.5
q-3 12 -13 34l-29 64q-19 37 -33 82q-16 51 -31 92q-5 14 -9 19z" />
    <glyph glyph-name="X" unicode="X" horiz-adv-x="702" 
d="M95 31q21 13 37 34q29 38 47 67q5 7 13 21q22 36 28 47q1 2 3 5.5t3 5.5q6 8 16 26q3 4 8.5 12.5t8.5 12.5l30 46l2 4l2 4q1 4 0 9q0 2 -2 6q-7 9 -23 39q-5 11 -10 19q-4 6 -12 20.5t-13 21.5q-5 12 -25 41q-7 10 -18.5 30l-14.5 25q-37 66 -67 109q-4 8 -13 17
q-13 13 -32 17q-23 5 -29 5q-4 0 -8 4q-8 10 3 16q5 3 9 3h1q1 1 2 1q20 -1 61 1q7 0 22.5 -0.5t23.5 -0.5q5 0 15 -2q17 -3 30 -2q81 0 97 1h37q1 0 4 -1t5 -1q4 -1 4.5 -5.5t-2.5 -7.5q-2 -2 -8 -4q-4 -1 -12 -1t-20 -6q-4 -2 -5 -4q-10 -8 -13 -24q0 -6 1 -9
q10 -29 22 -50q5 -8 15 -26q15 -25 17 -29q9 -19 35 -60q10 -14 14 -21q6 -6 11 1q14 17 40 53q8 11 25 36.5t27 38.5q3 6 9 14t8 11q16 24 19 32q5 11 -2 20q-6 9 -16 15q-6 1 -20 5q-12 3 -24 3q-10 1 -30 5q-1 0 -3 1q-5 2 -5 7q2 5 5 7q4 2 6 2q3 1 9 1h42q13 0 25 -3
q16 -2 24 -2h94h22q3 0 9 -2q2 0 3.5 -3.5t-0.5 -5.5q-2 -4 -3 -5t-4 -2t-5 -2q-3 -2 -9.5 -4t-9.5 -3q-4 -3 -12 -7t-12 -7q-13 -8 -18 -16l-40 -50q-9 -11 -23.5 -32.5t-20.5 -29.5q-1 -3 -4 -8t-5 -8l-15 -27q-3 -5 -13 -24q-8 -16 -15 -23l-2 -2q-3 -3 -5 -7
q-3 -7 -11.5 -20t-12.5 -20q-2 -6 1 -11q7 -16 14 -27q11 -18 19 -35q16 -34 33 -62q6 -10 9 -16l9 -15q7 -10 18.5 -30l14.5 -25l36 -67q10 -18 25 -42q6 -10 19 -19q2 -1 6.5 -4t6.5 -4q8 -4 12 -4l21 -3q10 -2 14 -5q2 -2 1 -5q-1 -4 -6 -6q-3 0 -8 -0.5t-7 -0.5
q-16 0 -49 -0.5t-49 -0.5q-24 0 -36 -2q-2 -1 -6 -1q-90 -2 -107 -2q-1 0 -3 0.5t-3 0.5q-2 0 -4.5 3.5t-2.5 5.5q0 4 6 7q2 0 6 1t6 1q13 0 29 7q2 1 2.5 3.5t-0.5 4.5q0 2 -2 6l-19 34q-1 1 -2.5 4t-2.5 4q-8 14 -13 21q-2 6 -6.5 16.5t-6.5 14.5q-7 15 -10 18
q-14 18 -28 44q-10 18 -14 27q-5 15 -13 28q-4 7 -10 1q-24 -34 -26 -38q-6 -10 -10 -15q-16 -26 -23 -40q-8 -16 -23 -36l-27 -36q-14 -18 -22 -43q-3 -8 5 -14q9 -5 11 -5q3 -1 13.5 -3.5t16.5 -3.5q10 -1 18 -11v-3q0 -3 -3 -3q-1 -1 -3 -1h-6q-57 3 -113 0h-55
q-28 0 -42 -1q-2 0 -9 2q-7 4 -2 11l4 4q16 8 29 8q1 0 3 1q13 0 30 5q1 1 3.5 1.5t3.5 0.5z" />
    <glyph glyph-name="Y" unicode="Y" horiz-adv-x="669" 
d="M262 337q-31 59 -33 62q-3 4 -8.5 14.5t-8.5 14.5l-2 2q-3 7 -25 42q-8 12 -22 36q-18 33 -41 71l-36 57q-12 17 -26 26q-7 6 -19 9q-11 3 -33 5q-5 2 -6 5q-3 6 1 12q4 4 11 6q2 0 5 0.5t4 0.5q83 0 100 -1q10 0 28 -2q15 -4 36 -2q41 0 61 1h58q5 0 8 -3q8 -4 2 -10
q-2 -3 -7 -5q-2 0 -6 -1t-6 -1q-8 0 -18 -5q-10 -3 -15 -13q-3 -4 -4 -8q-4 -8 -1 -18q1 -3 5.5 -14t6.5 -17l3 -6q4 -6 12 -21t14 -23q2 -3 5 -9t4 -7q19 -37 35 -61q3 -5 9.5 -14l9.5 -13q4 -5 8 -1q1 0 2.5 2t2.5 2l36 49q37 52 41 60q2 3 11 15q26 38 32 48q0 1 2 3.5
t2 4.5q8 15 -4 29q-7 7 -12 9q-2 1 -8 3q-20 5 -36 5q-11 1 -33 7q-2 0 -3.5 3t-0.5 4q4 6 6 7q6 2 9 2q7 0 21 0.5t22 0.5q18 0 27 -2q3 -1 6.5 -1.5t8 -1t6.5 -0.5q46 -2 91 0q28 1 55 0q2 0 6 -2q3 -2 1 -5q-1 -1 -3 -5q-10 -6 -17 -7q-25 -3 -53 -20q-8 -6 -12 -10
q-11 -11 -20 -23l-31 -38q-20 -27 -24 -35q-2 -4 -5 -7q-2 -4 -7 -10.5t-7 -9.5t-23 -40l-5.5 -11t-5.5 -10q-10 -19 -20 -31q-6 -8 -8 -13q-1 -1 -3 -5t-3 -5q-9 -15 -9.5 -18t-0.5 -23v-54q-1 -5 -1 -14.5v-13.5q-3 -34 -1 -76q0 -23 0.5 -70t0.5 -70q0 -2 0.5 -6t0.5 -6
q0 -12 11 -18q21 -13 42 -17q2 0 5 -3q6 -6 1 -14q-2 -5 -7 -5h-6q-71 -1 -213 -1q-16 0 -24 1h-1q-1 1 -2 1t-3 5q-2 12 11 17l24 6q6 2 8 3q12 5 17 17q2 2 2 5v19q-1 37 -1 112q0 16 -0.5 47.5t-0.5 47.5v6q-2 9 -3.5 26t-2.5 25z" />
    <glyph glyph-name="Z" unicode="Z" horiz-adv-x="557" 
d="M198 50q4 -3 8 -3q30 1 88 1q14 0 43 0.5t43 0.5q8 0 12 1q11 3 51 5q7 0 14 5t8 5q6 6 8 9q6 8 11 22q20 61 21 67q1 4 5 14q6 8 14 4q8 -3 8 -12q1 -7 1 -21q0 -15 0.5 -44.5t0.5 -43.5q0 -1 3 -25q0 -8 -3 -14q-4 -8 -8 -10q-12 -6 -17 -9q-9 -2 -23 -2h-240
q-39 0 -58 -1q-10 0 -15 1q-15 1 -43 -1q-6 0 -19.5 -0.5t-20.5 -0.5q-24 0 -48 -3q-2 0 -3 1q-10 2 -12 8q-3 7 -5 18q0 16 1 24q0 11 5 17q9 13 28 51l24 46q12 25 25 45q1 1 11 18.5t17 25.5q4 6 6 10l36 74q6 12 9 19q2 10 14 33q25 47 26 49l21 40l37 67l17 32t15 27
q14 22 20 34q3 3 9 16q2 5 -4 7q-1 0 -4 0.5t-5 0.5h-104q-5 0 -16 -0.5t-17 -0.5q-14 0 -42 -6q-14 -2 -40 -14q-2 -1 -5.5 -4t-4.5 -3q-2 -3 -7.5 -8t-8.5 -7q-6 -5 -9 -12q-7 -13 -23 -39q-2 -5 -7 -14t-7 -13q-1 -2 -4 -5q-4 -4 -8 0q-3 2 -5 7q-1 3 -1 9q-1 26 2 61
q1 8 4 48q0 12 5 27q2 9 10 9q10 1 28 1q21 1 64 1q4 0 12 0.5t14.5 1t12.5 1.5q5 1 15 1q28 1 83 1q31 0 92.5 -1t92.5 -1h31q1 0 3 -0.5t3 -0.5q7 0 9 -7q0 -5 1.5 -15t2.5 -15v-6q-4 -10 -6 -14q-3 -5 -13 -23t-16 -27l-37 -67l-44 -93q-1 -6 -5 -11q-5 -7 -13.5 -22.5
t-13.5 -22.5q-2 -3 -7 -16q-6 -18 -17 -39q-6 -11 -16 -33q-17 -38 -34 -65l-15 -30q-22 -41 -39 -79q-18 -36 -29 -53q-3 -5 -3 -9z" />
    <glyph glyph-name="bracketleft" unicode="[" horiz-adv-x="239" 
d="M22 363q0 28 1 42q0 33 -1 49q0 5 -0.5 13.5t-0.5 12.5v190q0 14 2 42q0 14 6 29q0 5 7 5q3 1 10 1l117 3q16 0 46 -2q12 -2 6 -12q-2 -6 -6 -7q-19 -7 -32 -7q-9 -1 -21 -9q-6 -4 -11 -12q-5 -12 -5 -22q-1 -17 -1 -52q-1 -12 -1 -36q0 -7 -1 -10l-3 -29q-2 -36 0 -72
q0 -3 2 -13q0 -2 0.5 -6t0.5 -6q1 -20 1 -59v-186q0 -76 -1 -115l3 -84q0 -12 7 -22l4 -4q21 -7 35 -7q11 0 17 -1q6 0 11 -5t4 -13q-1 -5 -4.5 -9t-7.5 -4t-10 -0.5t-10 -0.5q-12 0 -36 -0.5t-36 -0.5q-32 0 -49 1h-26q-2 0 -6 2q-5 3 -5 8q-1 7 -1 20q0 1 -1 11t-2 15
t-1 16q-1 11 -1 32.5t-1 32.5q-2 62 0 124q1 26 1 78.5t1 78.5h-1z" />
    <glyph glyph-name="backslash" unicode="\" horiz-adv-x="324" 
d="M270 -1q-12 0 -18 1q-8 0 -13 9q-2 3 -4 9q-1 4 -5 15.5t-5 17.5l-29 91q-5 18 -11.5 38l-15 44.5t-12.5 37.5q-5 17 -6 20l-3 9q-4 10 -11.5 30.5t-11.5 30.5q-10 23 -29 88q0 2 -5 16q-16 50 -22 75q-3 11 -8.5 33t-8.5 33q-4 14 -6 20l-8.5 23t-8.5 22q-6 12 -8 19
q-2 9 7 14q3 0 7 2q16 0 24 -1q9 0 19 -7q2 -1 5 -4q11 -17 13 -24l20 -54q2 -8 6.5 -22t5.5 -21q3 -11 23 -75q5 -14 14 -42.5t14 -42.5q14 -43 19 -55q2 -5 4 -11.5l4.5 -15t3.5 -12.5t5.5 -16.5t5.5 -19.5q25 -81 28 -88q1 -3 2.5 -8.5t2.5 -7.5q10 -34 21 -61l12 -36
q4 -10 10 -32l3 -11.5l3 -11.5q1 -5 -3.5 -11t-9.5 -7h-4q-5 -1 -16 -1z" />
    <glyph glyph-name="bracketright" unicode="]" horiz-adv-x="238" 
d="M217 574v-92q0 -32 -3 -48q-3 -15 0 -30q2 -11 2 -32v-62q0 -20 1 -60.5t1 -60.5q0 -83 -2 -124q0 -7 -0.5 -21t-0.5 -21v-13q-1 -6 -4 -52v-7q-3 -10 -12 -10q-10 0 -37 -1.5t-41 -0.5q-25 1 -75 1q-11 0 -16 2q-8 2 -10 12q0 4 1 6q2 10 10 12q11 2 17 1q11 0 35 6
q5 1 8 5q7 12 7 22q2 42 2 65q2 47 0 94v17v215q0 39 1 59q0 4 0.5 12.5t0.5 13.5q2 8 2.5 16.5t0.5 19v16.5q0 1 -0.5 3t-0.5 3q-4 38 -4 78q-1 18 -1 53q-1 13 -8 28q-1 2 -6 7q-10 9 -21 10q-6 1 -17 3.5t-14 3.5q-9 2 -11 11q-2 5 4 8q22 4 32 5q13 0 20 -1q6 -2 19 -2
q9 0 26.5 -0.5t25.5 -0.5q16 -1 46 -1q4 0 10 -2q4 0 4 -4q7 -21 7 -35q0 -5 0.5 -16t0.5 -17v-94z" />
    <glyph glyph-name="asciicircum" unicode="^" horiz-adv-x="391" 
d="M297 406q-10 2 -14 8q-5 10 -15 28t-12 22q-5 10 -17 28q-4 6 -10 17.5t-8 14.5t-7.5 13t-9.5 15q-3 3 -7 1q-2 -1 -4 -3l-22 -39q-11 -19 -35 -55q-17 -22 -27 -41q-1 -2 -9 -13t-21 -10q-11 0 -16 1l-33 6q-11 2 -9 16q0 2 2 8q4 11 12 26l47 81q29 50 41 66q1 1 3 4.5
t3 5.5q3 6 26 42l19 31t25 12q7 -1 28 -5q9 -2 13 -9q15 -17 29 -44q3 -5 7 -15q2 -4 10.5 -19.5t13.5 -23.5q10 -18 28 -54q24 -52 38 -77q3 -3 3 -7q4 -7 -2 -15l-6 -6q-1 0 -8.5 -2.5t-11.5 -3.5q-12 -2 -40 -4h-4z" />
    <glyph glyph-name="underscore" unicode="_" horiz-adv-x="385" 
d="M202 45q38 -2 113 -2h28q14 -1 20 -17q0 -4 1 -6v-24q-2 -7 -8 -9h-6q-18 0 -52 2q-5 0 -15 2h-12q-9 -1 -58 -4q-50 -2 -74 -1q-29 1 -88 1q-3 0 -8 0.5t-7 0.5t-6 2q-9 4 -9 11q-1 13 0 28q0 8 7 8q25 5 46 5q15 -1 46 1q13 1 41 1t41 1z" />
    <glyph glyph-name="grave" unicode="`" horiz-adv-x="230" 
d="M191 548q-10 0 -15 2q-14 5 -49.5 16.5t-54.5 18.5q-22 9 -37 13q-2 0 -6 2q-7 4 -9 12q0 6 1 9q2 12 4 18q2 15 13 34q0 1 1 2.5t2 2.5q7 6 14 5q4 0 6 -1q38 -20 55 -33q7 -7 14 -11q6 -5 18 -13q2 -1 53 -41q10 -8 8 -22q-2 -11 -11 -13q-1 0 -3 -0.5t-4 -0.5z" />
    <glyph glyph-name="a" unicode="a" horiz-adv-x="465" 
d="M50 190l6.5 6.5l8 8l6.5 6.5q5 5 17 13q30 20 55 27q20 6 30 7l9 3q12 2 18 2q30 2 61 0q8 0 8 8q4 32 3 49q0 12 -1 19q-2 12 -2 18q0 3 -0.5 7.5t-1 8.5t-1.5 8q0 3 -2 10t-3 11q-1 2 -2 6t-2 6q-4 11 -15 19q-15 13 -31 19q-3 2 -9 2h-25q-13 0 -24 -4q-19 -5 -33 -16
q-24 -15 -40 -46l-11 -22l-2 -2q-9 -6 -17 0q-3 2 -5 8q0 12 4 18l12 21q8 15 25 31q10 10 16 14q26 16 42 19q12 5 55 19q17 5 30 5q11 0 16 -1q4 0 13.5 -0.5t14.5 -0.5q22 -7 31 -11q6 -3 18 -7l8 -4q25 -16 39 -30q1 -1 3.5 -4t5 -5t4.5 -4q15 -17 22 -33q4 -9 7 -20
q5 -23 5 -43v-74q0 -10 -0.5 -29t-0.5 -29q-1 -2 -1 -6.5v-6.5q-2 -9 -2 -43v-77q0 -9 3 -18q8 -14 17 -17q2 -2 8 -4q6 -5 4 -14q-3 -8 -11 -11q-22 -10 -50 -13q-13 0 -19 1q-8 1 -24 5q-12 4 -17 5q-1 1 -4 2t-5 2q-9 6 -23 20q-3 3 -5 8q-2 2 -4.5 6.5t-3.5 6.5h-3
q-10 -8 -15 -11q-28 -16 -32 -18q-7 -4 -21 -9t-16 -6q-6 -1 -16.5 -3.5t-13.5 -3.5q-10 -2 -15 -2h-22q-19 0 -48 9q-24 9 -40 32q-16 28 -16 53v18q0 5 2 15q1 5 3.5 13.5t3.5 13.5q9 21 13 28q1 1 2.5 3t3 4.5t2.5 3.5zM272 158v42v9q-3 9 -8 9q-1 0 -3 0.5t-3 0.5
q-8 1 -25 1q-38 0 -43 -1q-8 -2 -35 -11q-14 -3 -20 -17q-4 -8 -5 -11q0 -1 -1 -3q-2 -4 -2 -6q-2 -29 4 -43q2 -9 13 -24q4 -5 12 -10q16 -8 32 -8q6 0 9 1q9 2 23.5 3t19.5 2l12 3q6 2 16 8q5 3 5 8q1 5 1 30q0 3 -0.5 9t-1.5 8z" />
    <glyph glyph-name="b" unicode="b" horiz-adv-x="559" 
d="M499 433q2 -6 8.5 -22t9.5 -24q2 -6 2 -9q1 -8 3 -16t5 -17.5t4 -14.5q4 -18 5 -27q2 -8 2 -12q2 -36 0 -71q0 -9 -3 -18q-1 -4 -3.5 -17t-4.5 -19q-14 -45 -39 -77q-13 -19 -34 -35q-5 -3 -15 -11q-2 -2 -13 -7q-14 -5 -25 -13q-9 -7 -25 -11l-39 -9q-12 -3 -36 -5
q-9 0 -13 -1q-12 -3 -49 -3q-25 2 -42 9q-7 -5 -20 -5q-24 2 -71 2q-23 0 -34 -1q-18 -2 -37 0q-9 0 -13 7q-4 6 1 11q1 1 2.5 2t2.5 2q19 7 30 15q3 1 7 5q3 2 5 8q1 2 1 6q0 5 0.5 15.5t0.5 15.5q0 10 2 34q1 8 1 24q1 24 1 72.5t1 72.5q0 31 3 46q1 5 1 15q3 70 3 142
q0 94 -1 141q0 13 -1 19q0 10 -11 21l-9 3q-2 0 -6 1t-6 1q-7 1 -21 5q-9 5 -3 13q2 3 8 5q3 1 18 1h123h28q6 0 9 -1q6 -2 7 -5q0 -1 1 -3q2 -4 2 -6q1 -4 1 -12v-117v-83v-12q3 -7 7 -3q5 4 15 9.5t11 6.5q13 7 22 10q3 1 10 4t11 4q9 3 18 3h71q15 0 27 -4q2 0 5 -0.5
t5.5 -1t4.5 -1.5q8 -2 14 -6q11 -6 31 -20l6 -6zM252 428q-20 -14 -22 -16q-3 -2 -7 -6q-5 -5 -6 -10q-3 -8 -3 -15q-1 -10 -1 -28q0 -25 -1 -37q-1 -18 -1 -52q0 -96 -3 -127v-24q0 -6 3 -12q4 -9 12 -25q3 -7 12 -18q4 -5 16 -9q1 0 3 -0.5t3 -0.5q27 -2 55 0q4 0 12 4
q15 8 26 20q10 12 21 31q1 2 4.5 11.5t5.5 14.5q4 8 4 14q1 3 2 8t1 8q1 6 4 19t4 20q1 8 1 21v22v6q0 13 -3.5 37.5t-3.5 29.5q0 3 -2 9l-3 12q-3 24 -24 60q-1 1 -2 2.5t-1 2.5q-12 12 -18 17l-19 11q-22 9 -49 6q-10 -2 -20 -6z" />
    <glyph glyph-name="c" unicode="c" horiz-adv-x="459" 
d="M315 496q22 -8 28 -10q19 -6 35 -19l18 -12q12 -9 23 -20q10 -10 13 -24q0 -8 -3 -12q-1 -3 -4 -4q-10 -6 -17 1l-9 9q-8 10 -20 18q-19 15 -45 24q-8 1 -26 3q-13 1 -40 -1q-18 -3 -36 -9q-14 -7 -18 -11q-12 -12 -17 -18q-10 -11 -17 -29q-2 -4 -12 -35q-6 -22 -6 -33
q0 -10 -4 -24q-3 -6 -3 -19v-21q0 -8 3 -15l3 -9q1 -5 3.5 -14.5t3.5 -12.5q11 -31 29 -54q10 -12 19 -28q6 -7 13 -13l2 -2q24 -21 62 -33q12 -4 28 -4h3q32 -1 63 9q20 6 29 10q5 3 12 1q6 -1 9 -8t1 -12q0 -3 -3 -5q-3 -5 -9 -8q-30 -22 -53 -31q-2 -1 -5.5 -2.5
t-5.5 -2.5q-11 -6 -43 -17q-16 -6 -30 -5h-12q-27 0 -40 2q-15 0 -18 1q-24 5 -56 19q-34 18 -40 22q-2 2 -16 10q-23 14 -40 33q-16 16 -25 34q-1 3 -4 8.5t-5 8.5q-6 16 -7 24q0 6 -1 9q-5 13 -5 33v59q0 15 4 27q2 8 2 12q7 36 24 73q8 14 13 21q2 3 7 9.5t8 9.5l11 11
q18 14 26 22q7 5 16 10q24 12 44 20q7 3 45 13l12 3t12 2q4 1 12 2.5t12 2.5t12 1h35z" />
    <glyph glyph-name="d" unicode="d" horiz-adv-x="566" 
d="M48 105q-15 29 -17 35l-1 2q-1 2 -1 3q-1 7 -4 21t-4 22q0 9 -0.5 28.5t-0.5 29.5q0 4 0.5 13.5t0.5 14.5q0 4 2 12q1 5 4.5 19.5t6.5 21.5q1 2 2 5.5t2 6.5l2 6l15 33q18 28 31 39l20 18q17 14 39 24l29 12q20 9 44 13l24 6q14 3 27 3q18 2 37 0q14 0 27 -6q2 -1 7 -2.5
t7 -2.5q7 -2 7 5v6q2 68 -1 123q0 9 -2 27q-3 21 -1 47q1 5 6 10t11 5q1 0 3 0.5t3 0.5h154q1 0 4 -0.5t5 -0.5q4 -1 8 -5q2 -6 -2 -8q-1 -1 -5 -3q-24 -8 -26 -9q-6 -2 -8 -4q-5 -3 -6 -7q-6 -41 -6 -43q-2 -62 -1 -92q0 -44 2 -136q0 -10 1 -15q3 -16 1 -37q-2 -9 -2 -27
q0 -41 -0.5 -123t-0.5 -124q0 -4 0.5 -12t0.5 -12q0 -2 1 -3q1 -11 12 -17q23 -10 28 -13q5 -1 11 -6q2 -1 1.5 -5.5t-2.5 -5.5q-1 0 -4 -1t-4 -2q-2 -1 -6 -1h-105q-21 0 -31 2q-8 1 -24 1q-8 0 -14 6q-2 4 -4 5q-2 3 -8 3q-4 0 -6 -1q-12 -4 -17 -6q-15 -5 -27 -5
q-35 -2 -68 0l-18 3q-24 7 -60 24q-3 1 -7 3.5t-7 3.5q-24 16 -36 23q-14 8 -30 26q-3 3 -9 11t-10 12zM354 253q-1 19 -1 114q1 17 1 50v12q0 10 -9 12q-11 5 -24 6q-25 2 -46 -1l-33 -3q-1 -1 -3 -1t-3 -1q-14 -5 -22 -11q-12 -10 -23 -25q-16 -24 -18 -36q-2 -4 -3.5 -13
t-3.5 -13q-2 -6 -2 -9t-2.5 -15t-3.5 -19q0 -8 -3 -15q-5 -18 0 -42q5 -20 14 -47q5 -17 17 -37q6 -11 31 -42q2 -3 8 -9q18 -14 27 -20l6 -3q3 -2 10 -4.5l10 -3.5q5 -3 16.5 -6t12.5 -3q1 -1 3 -1h34q10 3 10 11v18v157z" />
    <glyph glyph-name="e" unicode="e" horiz-adv-x="482" 
d="M321 497l35 -14q11 -5 13 -7l28 -19q13 -7 28 -24q6 -5 10 -15l9 -30q8 -30 8 -36q2 -6 4.5 -19t3.5 -17q2 -16 2 -24q0 -7 -4 -21q-4 -13 -16 -13q-7 0 -22.5 -0.5t-23.5 -0.5q-43 0 -64 -1h-71h-53q-12 0 -18 -2l-24 -3q-2 0 -6 -2q-3 -1 -3 -5q6 -25 24 -73
q1 -3 6 -11q3 -3 12 -16.5t15 -20.5q21 -26 46 -41q2 0 4 -2t4 -2q21 -8 38 -12q19 -5 34 -4q5 0 15 2q30 8 32 9q3 1 14.5 4.5t17.5 6.5h3q13 4 18 -8q4 -6 0 -15q-2 -3 -8 -9q-30 -20 -56 -33q-30 -13 -63 -24q-10 -2 -15 -2h-46q-3 0 -13 0.5t-15 1.5q-44 13 -50 16
q-3 2 -9.5 5t-9.5 4q-8 4 -61 36q-42 34 -60 77q-2 6 -7 24q-1 2 -1.5 6t-0.5 6q-5 18 -5 42v43q0 13 3 25q4 11 8 33q3 15 21 58q4 12 14 23q3 5 24 28q1 1 3.5 3t3.5 3q10 8 12 10q16 15 42 25q20 9 34 13q35 10 42 11t19 4t17 4q15 4 34 4q8 -1 24 -1zM166 288
q2 0 5 -0.5t4 -0.5h148q4 0 6 1q4 2 5 3q2 2 4 8q2 7 2 22q1 24 1 73q0 2 -0.5 5t-0.5 4q0 4 -2 6q-8 21 -9 23q-6 9 -16 15q-1 1 -5 3q-12 6 -24 3l-30 -6q-12 -1 -23 -8q-17 -9 -24 -19q-4 -4 -12 -14q-12 -16 -16 -29q-2 -9 -8 -27q-2 -6 -4.5 -18t-3.5 -15
q-2 -16 -1 -24q3 -3 4 -5z" />
    <glyph glyph-name="f" unicode="f" horiz-adv-x="336" 
d="M36 -1q-1 1 -2 1q-3 2 -3 5q0 2 1 3q1 4 10 11q7 8 8 16q0 9 2 13q4 13 4 33q0 6 0.5 18.5t0.5 18.5q1 5 1.5 15.5t0.5 15.5q1 5 0 9q-3 22 0 46q1 4 1 12v58q0 10 -4 15q-2 4 -5 4t-10 0.5t-11 0.5q-6 2 -8 8q-3 14 1 24q2 4 5 4q3 2 9 2q2 0 7 1t8 1q8 2 8 8
q0 2 0.5 6.5t0.5 6.5q-1 36 1 166v15q0 7 2.5 18.5t2.5 15.5q2 18 15 43l4 8q6 16 24 32q19 17 41 27q44 17 49 18q9 4 33 8q15 3 33 1q3 0 9 -2l15 -3q10 -2 15 -5q3 -1 7.5 -3t6.5 -3q12 -4 32 -18q15 -11 19 -27q0 -1 1 -3t1 -3q0 -10 -7 -13q-8 -4 -15 1q-10 10 -16 15
q-2 2 -17 12q-22 10 -35 11q-3 1 -21 4q-10 1 -30 -7q-4 -2 -5 -4q-3 -2 -9 -8q-10 -9 -15 -23q-3 -7 -9 -23q0 -1 -1 -3q0 -6 -3 -20t-3 -22q0 -4 -0.5 -11t-0.5 -11v-74v-111v-15q3 -6 6 -6q11 -1 31 -1q17 0 25 -1q7 -2 10 -6q2 -1 4 -8t-1 -15q-3 -5 -8 -5
q-11 -2 -34 -2q-4 0 -12 -0.5t-12 -0.5q-8 0 -8 -8v-3v-24.5v-28.5v-24v-93q0 -5 -0.5 -16.5t-0.5 -17.5q-1 -9 -1 -27q1 -15 10 -26q1 -2 5.5 -7t5.5 -7q3 -3 1 -6q-2 -5 -6 -6h-3q-2 -1 -7 -1q-20 1 -58 -1h-31q-11 1 -32.5 1.5t-32.5 0.5z" />
    <glyph glyph-name="g" unicode="g" horiz-adv-x="458" 
d="M479 477q-1 -2 -1 -6q-3 -10 -10 -16q-1 -1 -2.5 -2t-2.5 -1q-4 -3 -8 -4h-22q-10 0 -15 -1q-9 -1 -13 -7q-3 -3 -2 -6l4 -8q11 -22 18 -45q2 -10 4 -32q3 -11 1 -24l-3 -25q-1 -19 -11 -38l-15 -27q-1 -2 -4.5 -8.5l-5.5 -10.5q-6 -9 -14 -17l-17 -17q-10 -9 -26 -16
q-2 -1 -7 -2t-8 -3q-16 -7 -42 -9l-27 -3q-31 -3 -59 1q-8 0 -12 1q-3 1 -9 1t-9 1l-9 3t-9 2q-2 1 -6 1q-6 1 -11 -4q-1 -1 -3 -5q-8 -10 -4 -29q2 -7 8 -10q4 -2 14 -6q18 -4 27 -7q9 -1 52 -1q14 0 31 -3l21 -3q10 0 15 -1l27 -6q2 0 7 -2t8 -3q22 -10 33 -17
q14 -8 30 -26q24 -31 32 -56q1 -1 1.5 -3t1.5 -4l2 -4q2 -5 4 -15q0 -5 2 -15t2 -15t-2 -14t-2 -13q-1 -9 -5 -25q-5 -21 -17 -46q-5 -12 -13 -20q-3 -3 -8.5 -9t-8.5 -9q-13 -11 -25 -18q-24 -12 -37 -16l-9 -3q-12 -5 -17 -5q-4 0 -15.5 -3t-18.5 -3q-4 0 -11 -0.5
t-10 -0.5l-18 -3q-18 -3 -34 1q-28 6 -41 12q-23 8 -31 14q-3 2 -11.5 6.5t-12.5 7.5l-21 18q-7 6 -13 13q-1 1 -11 14q-12 16 -18 36l-2 8t-2 8.5t-2 7.5q-2 15 1 27q7 39 29 75q3 6 3 8t-1 3q-2 2 -4.5 5t-5 5.5t-5.5 4.5q-9 9 -12 21q-2 4 -4 12q-2 6 -2 9v31q0 3 2 9
q11 30 13 34q13 27 44 67q1 3 0 6l-4 4q-27 27 -38 67q-2 6 -3 8q-3 9 -3 19q-2 19 0 58q0 7 3 15q9 30 24 57q8 15 19 23q2 2 6 5.5t6 5.5q10 8 22 16q18 13 50 22q25 5 31 5q44 2 67 2q7 -1 19 -1q12 -2 17 -2q7 -2 20 -7t19 -7l27 -14q8 -4 11 -5q2 0 3 1l12 18
q4 6 14 16q4 4 10 7q7 5 14 5h13q1 -1 3 -1t3 -1q8 -3 16 -8q13 -8 16 -21zM173 -27h-20q-25 -1 -50 0h-6q-5 0 -8 -4q-11 -16 -19 -48q-5 -20 0 -46q6 -26 28 -43q35 -27 76 -39q7 -2 14.5 -3.5t16.5 -3t14 -2.5q21 -3 39 4q12 3 37 15q16 9 25 18q23 23 27 47q1 2 2 6t2 6
q2 10 2 15q0 3 -0.5 9t-0.5 9l-3 9q-8 24 -30 34q-20 9 -41 12l-21 3q-3 1 -9 1q-25 1 -75 1zM310 333v11q0 5 -1 15.5t-1 15.5q0 4 -2 11.5t-2 9.5q-1 3 -1 9q-7 33 -20 55q-11 18 -30 24q-1 1 -16 3q-22 2 -37 -11q-14 -12 -18 -21q0 -2 -5 -11q-4 -12 -6 -17
q-4 -12 -4 -18q0 -2 -0.5 -6t-1.5 -6q-4 -15 -4 -34q0 -1 -1 -15.5t-2 -21.5q-3 -12 0 -24q2 -8 2 -25q1 -11 1 -34q1 -2 1 -6t1 -6l6 -24q5 -13 15 -19q2 -1 5.5 -3t4.5 -3q8 -5 15 -5q8 -1 24 -1h16q8 2 11 4q13 8 21 19q7 9 14 27q1 5 4.5 17t4.5 19q0 6 1 9q4 8 4 27
q0 20 1 35z" />
    <glyph glyph-name="h" unicode="h" horiz-adv-x="584" 
d="M380 55q1 34 1 100q0 27 2 40q1 3 1 9q0 13 0.5 39t0.5 38q1 22 -3 43q-2 6 -2 18q-2 17 -5 25q-3 20 -16 43q-6 10 -13 12q-9 6 -20 6q-13 0 -19 -1q-4 -1 -11 -2t-10 -2q-2 -1 -11 -5q-26 -12 -46 -36q-3 -3 -3 -8q-1 -4 -1 -12v-74q1 -79 0 -157q-1 -18 -1 -53
q0 -2 0.5 -7t0.5 -8q0 -9 6 -18q1 -2 3 -5t3 -5q3 -4 7 -7q1 -1 8.5 -5.5t11.5 -7.5q2 -1 7 -6q4 -2 1 -5q-1 -3 -4 -4q-2 -1 -6 -1h-31q-90 -2 -182 0h-18q-5 1 -8 5q-5 6 0 11q1 5 6 6q16 6 23 9q10 5 15 11q4 4 6 7q4 6 4 11v10v34q-1 49 1 147v28v123q0 37 1 56v34
q0 49 -2 151q0 10 -1 15q0 4 -4 12q-4 5 -9 8q-6 2 -18 4q-4 0 -12 2q-5 5 -4 8q0 6 4 7l6 3q6 0 9 1h27q37 -1 111 -1h19q16 -2 18 -18q1 -24 0 -46q-3 -28 -3 -56q-1 -26 0 -74.5t1 -63.5q0 -5 1 -7q0 -1 3 -4h3q9 3 19 11q17 14 53 31q7 4 14 5q10 5 28 11q4 1 14 2.5
t14 2.5q10 2 15 1q6 -1 37 -4q13 0 19 -1q6 -2 8 -3q14 -5 28 -19q16 -16 22 -30q1 -3 5 -11q4 -7 6 -17l3 -12q2 -10 2 -15q1 -11 1 -31q0 -45 0.5 -134t0.5 -134v-16q0 -11 3 -21q3 -21 27 -30q4 -2 12 -4l2 -2q4 -4 2 -9q-1 -1 -2.5 -2t-2.5 -2q-5 -1 -15 -1
q-15 -1 -46 -1q-97 2 -145 1h-1q-1 1 -2 1q-4 0 -6 4t0 7q1 2 4 5q7 4 14 7q8 7 12 14q4 12 7 19z" />
    <glyph glyph-name="i" unicode="i" horiz-adv-x="287" 
d="M214 266q0 -122 1 -183v-22q0 -9 6 -23q5 -9 17 -14l5 -1q5 -1 7 -2q3 -1 14 -5q2 -2 2.5 -5.5t-1.5 -5.5q-6 -5 -13 -6q-3 0 -8.5 -0.5t-7.5 -0.5h-46q-45 0 -135 2q-17 0 -25 2q-6 2 -8 4q-2 1 -2 5q0 11 9 11q1 0 4 1t5 1q11 1 22 9q6 3 9 8q10 12 10 25q0 15 1.5 54
t0.5 60v40q-2 70 -2 105v49q0 10 -1 15q-2 11 -2.5 29.5t-1.5 26.5v3q0 8 -6.5 15t-13.5 9q-2 0 -5 1t-4 1q-10 2 -8 12q2 11 12 11q19 1 56 1q12 0 38 -0.5t39 -0.5q9 0 18 -3q14 -5 14 -18v-1q1 -1 1 -2q0 -88 -1 -132v-75zM214 620q0 -13 1 -20q0 -14 -7 -30
q-6 -13 -16 -17q-8 -4 -12 -5q-16 -4 -24 -5q-6 -1 -12 0q-29 3 -50 21q-14 10 -15 26v24q1 14 15 30l2 2q2 1 3 2q22 15 49 15q16 0 29 -6q14 -7 21 -14q10 -9 16 -23z" />
    <glyph glyph-name="j" unicode="j" horiz-adv-x="235" 
d="M203 -168q-6 -11 -19 -24q-14 -15 -17.5 -17.5t-21.5 -12.5q-20 -11 -43 -14q-4 -1 -10 -1q-16 -5 -49 -5q-9 0 -17 6q-11 8 -2 15q2 1 5 3.5t4 3.5q17 13 23 33q10 34 12 72q0 68 1 102q0 31 4 55v5v6v5v101q0 15 -1 22q-3 25 0 49q0 4 0.5 12t0.5 13q2 117 1 175v9
q0 6 -3 9q-8 15 -22 22q-5 2 -10 5t-5 8q0 7 7 10q2 2 5 2q2 0 5 0.5t4 0.5h102q7 0 25 -2q12 0 18 -1q9 -2 12 -9q0 -1 1 -3.5t1.5 -4.5t0.5 -4v-15v-157q0 -13 -1 -19q-2 -12 -2 -37q0 -122 -2 -370v-12q0 -9 -3 -18q-2 -6 -4 -18zM211 605v-9q0 -12 -7 -26
q-8 -13 -21 -17q-2 -1 -6 -1t-6 -1q-12 -5 -36 -3h-3q-27 7 -41 20q-6 5 -11 15q-4 5 -4 14v13q-1 18 12 33l9 9q18 12 37 13h15q30 1 53 -25q2 -2 6 -8q1 -2 3 -8v-3v-16z" />
    <glyph glyph-name="k" unicode="k" horiz-adv-x="655" 
d="M497 466q-10 -8 -15 -11q-15 -10 -25 -23q-5 -6 -17 -18l-6 -6q-6 -8 -18.5 -22.5t-18.5 -22.5q-5 -7 -6 -11q-3 -4 0 -9q0 -3 2 -5q4 -6 12 -19t13 -20l28 -41q20 -33 39 -59q1 -2 6 -9.5t8 -10.5q11 -19 24 -36l12 -21q13 -24 35 -55l20 -27q6 -8 14 -11q11 -5 24 -7
q5 -2 7 -9q0 -5 -5 -8l-1 -1h-2q-40 -5 -48 -5h-87q-35 0 -52 -1h-55q-2 0 -6 2q-7 2 -3 7q0 3 3 5q12 8 18 11q5 3 6 7q5 10 0 21q-5 9 -10 16l-24 39q-11 19 -35 55q-8 11 -22 33.5l-21 33.5q-3 4 -7 14q-3 7 -15 23q-4 4 -8 4q-16 1 -34 0q-1 0 -3.5 -2t-2.5 -3
q0 -2 -0.5 -4t-0.5 -3q-1 -50 3 -154v-6q2 -7 4 -39q1 -9 8 -17q14 -12 22 -17q12 -7 20 -15q3 -3 2 -8t-6 -6h-3q-1 -1 -3 -1q-18 4 -53 4h-160h-21q-3 0 -9 4q-5 4 -1 10q5 8 14 11q7 1 14 5q14 8 24 24q3 6 3 12v12v49q-1 50 1 148q0 4 0.5 11.5t0.5 10.5q-1 94 0 188
q0 13 0.5 41t0.5 42q0 20 -2 62q0 15 -7 36q-3 8 -12 13q-6 3 -15 5q-3 0 -8 0.5t-7 0.5q-8 3 -4 10q2 4 4 5q4 2 5 2q3 1 10 1q6 1 18 1q45 -1 136 -1h15q5 -3 7 -6q0 -1 0.5 -3t0.5 -3v-28q0 -40 -1 -120t-1 -120q0 -66 -1 -99v-12q0 -6 8 -9h11.5h14h11.5t6 1q28 7 48 20
q13 7 22 21l21.5 27.5t23.5 30.5q10 14 15 20q3 4 7 14q2 6 3 8q2 7 -4 11l-6 3q-3 2 -11 6q-4 2 -14 4h-28q-8 0 -17 7q-5 5 -1 11q3 5 8 6h9q57 1 172 1q21 0 25 -1q3 0 5 -3q2 -4 2 -5q0 -5 -5 -8q0 -1 -2 -1q-22 -6 -34 -7q-2 0 -6 -0.5t-6 -0.5z" />
    <glyph glyph-name="l" unicode="l" horiz-adv-x="295" 
d="M217 416q-1 -18 -1 -54t-1 -54q-1 -38 1 -114v-31q0 -8 2 -24q3 -11 3 -34q1 -12 1 -37q0 -10 7 -20q1 -3 5 -7q10 -8 15 -11l18 -12q3 -2 7 -6q2 -3 0 -6l-1 -1q-1 -1 -2 -1q-5 -1 -15 -1q-24 0 -31 -2q-5 -1 -27 -1h-53q-49 -1 -98 0h-13q-3 0 -11 4q-6 6 -1 11
q3 5 7 6q8 2 11 4q17 5 28 19q0 1 2 3q4 6 4 11q2 7 2 21v43q0 13 1 19q2 14 2 43q1 12 1.5 37t0.5 37q0 8 -0.5 24.5t-0.5 24.5q0 183 -1 274v22q0 12 -1 18q-2 12 -2 19q-1 10 -7 26q-1 6 -9 12q-1 1 -6.5 3.5t-7.5 4.5q-3 5 0 8q2 0 2 2q8 4 12 4q3 1 9 1h126h3
q4 0 12 -4q5 -3 7 -10q1 -6 1 -18v-111q0 -23 -1 -71t-1 -71h1z" />
    <glyph glyph-name="m" unicode="m" horiz-adv-x="870" 
d="M715 497q4 -2 12 -5.5t12 -5.5q15 -8 26 -17t18 -21q14 -24 19 -55q4 -29 5 -46q0 -15 0.5 -43t0.5 -43q0 -5 1 -15.5t1 -15.5q1 -5 1 -15v-43v-13q-1 -9 -4 -80q-1 -8 1 -24q0 -15 13 -23q8 -7 19 -10q5 -2 8 -5q1 -1 1.5 -3t0.5 -3q0 -2 -1 -3q-3 -3 -5 -3q-1 -1 -6 -1
q-6 0 -18 -0.5t-19 -0.5h-92q-18 0 -28 -2q-4 -1 -12 -1h-34q-4 0 -8 4q-6 6 1 10l6 3q8 1 17 6q16 6 20 22q1 2 2.5 7t2.5 7v13v138q0 9 -2 25q-1 8 -1 24v50q0 8 -0.5 24t-0.5 25q-1 20 -8 45q0 3 -4 9q-9 12 -21 21l-6 3h-6q-16 2 -27 -1q-7 -1 -26 -11q-8 -6 -13 -9
l-18 -12l-17 -13q-1 -1 -3 -5q-2 -6 -4 -18v-16v-289v-12q2 -16 11 -25l4 -4q5 -4 7 -7q2 -6 1 -9q-2 -5 -7 -5q-3 -1 -9 -1q-17 -2 -34 0h-68h-64q-6 0 -11 5q-1 4 1 6q1 1 5 3q2 1 11 4q12 6 14 20v24v170v24q1 26 1 77q0 27 -4 40q-1 2 -1 6t-1 6q-3 14 -9 26q-3 6 -8 10
q-8 6 -12 8q-4 1 -7.5 2t-7.5 2t-6 2q-17 3 -31 -1l-12 -3q-13 -3 -28 -11q-23 -16 -28 -20q-3 -1 -4 -4q-6 -6 -7 -14v-12q-1 -44 -1 -132v-6q1 -17 1 -99q0 -7 0.5 -21.5t0.5 -21.5q0 -12 3 -25l3 -24q1 -6 7 -10t14 -6l18 -3q6 -2 8 -5q2 -1 2 -5q0 -2 -1 -3q-3 -3 -5 -3
q-5 -1 -15 -1q-18 0 -53 0.5t-52 0.5q-7 0 -23 0.5t-23 0.5q-1 0 -10.5 1t-14.5 2q-13 2 -24 -1q-10 -2 -15 -2q-8 0 -14 6q-4 6 3 11q14 4 21 5q3 0 8 1t7 1q6 0 11 5q8 6 8 16q1 5 1 15q0 2 0.5 7.5t1.5 7.5q1 5 1.5 10t1 11.5t0.5 9.5v9q0 44 0.5 131t1.5 131q0 39 -1 59
v9q-2 8 -5 11q-1 1 -3.5 3t-3.5 3q-3 3 -11 5q-5 1 -16.5 2.5t-16.5 3.5q-6 2 -7 6q-3 3 -1 6q3 7 9 8q2 0 6 0.5t6 0.5q18 0 53 -1t52 -1h46q8 0 12 -1q7 0 9 -7q1 -7 1 -22q0 -28 1 -33q0 -2 2 -2q1 -1 3 0q1 1 6.5 5t7.5 6q11 10 28 20q12 9 22 11l8 4q12 7 29 10
q44 9 58 10q30 2 52 -2q10 -1 20 -8q3 -2 8.5 -6t8.5 -6q11 -7 23 -21q3 -3 5 -7q6 -12 8 -17q5 -9 13 -4q22 18 33 28q15 12 31 19q5 2 19.5 9t22.5 10q12 4 18 4q59 0 72 -1z" />
    <glyph glyph-name="n" unicode="n" horiz-adv-x="578" 
d="M342 5q-4 2 -5 3q0 6 6 8q1 0 4 1t5 1q8 1 14 6q12 9 12 21v3q2 134 2 200q0 15 0.5 45t0.5 44q0 5 -0.5 14.5t-0.5 13.5q-2 12 -5 18q-7 16 -13 28q-6 9 -15 15q-10 6 -23 9q-2 1 -6 1h-15q-26 1 -51 -11q-27 -14 -41 -31q-5 -7 -5 -12q0 -14 -0.5 -42.5t-0.5 -43.5
q0 -70 1 -105v-33.5t1 -33.5v-34q0 -11 1 -16q2 -7 3 -19.5t2 -16.5q1 -10 11 -13q22 -7 27 -8q5 -2 7 -5q1 -1 1 -3q0 -4 -3 -4q-4 0 -11.5 -0.5t-10.5 -0.5h-132h-62h-12q-9 2 -7 9q2 8 6 10q11 5 21 6q6 2 9 2q6 3 9 9t3 14q1 6 1 16l3 89q0 19 2 28q1 7 1 21q0 70 1 105
v89q0 22 -7 52q-3 11 -13 16q-14 7 -17 8q-2 1 -5 2t-4 2q-2 1 -4 8q0 8 7 8q2 1 6 1h154q1 0 3 -0.5t3 -0.5q6 -2 6 -7q1 -4 1 -12v-37q2 -4 3 -5q3 -1 6 2q3 2 9 8q10 8 17 13q4 3 13 8.5t14 7.5q14 6 34 13q18 6 27 7q48 10 73 8q11 0 21 -3q17 -5 31 -14q8 -6 13 -9
q18 -16 25 -27q13 -20 16 -46q0 -2 0.5 -6t0.5 -6q3 -10 5 -46q2 -68 -1 -123q-2 -40 -1 -59q1 -31 1 -92q0 -12 1 -19q0 -10 7 -20l4 -4q7 -3 14 -7q7 -3 14 -7q6 -6 3 -8l-6 -3h-3q-2 -1 -6 -1h-194q-4 0 -6 1z" />
    <glyph glyph-name="o" unicode="o" horiz-adv-x="513" 
d="M255 -3h-19q-21 -1 -48 9q-36 13 -61 34l-50 41q-1 1 -3.5 4t-4.5 5l-12 15q-18 20 -27 54l-9 51q-1 19 0 37q1 6 2 18t1 13q1 8 5 24q2 6 5.5 17.5t4.5 17.5q15 37 24 50q5 6 8 13q4 9 16 23q21 27 53 46q18 10 27 14q15 8 26 10q11 6 30 6q32 2 58 -1q9 0 15 -3
q9 -3 18 -3q12 -2 19 -4q17 -5 31 -12q21 -11 38 -26q26 -26 44 -51q4 -6 8 -13q20 -42 25 -56q8 -22 9 -33q0 -1 1 -4t1 -5q3 -8 3 -15q0 -18 -1 -28q0 -6 -2 -18l-3 -12q0 -2 -0.5 -6.5t-1 -8t-1.5 -6.5q-11 -35 -12 -38l-9 -23q-7 -22 -25 -42q-8 -10 -26 -30t-48 -38
q-5 -3 -28 -13q-27 -13 -66 -13h-15zM155 228v-24q0 -16 3 -31q2 -8 2 -12q0 -6 4 -18q2 -8 2 -12q2 -10 4 -15q5 -18 12 -28q2 -3 5 -9t4 -7q6 -12 23 -36l9 -9q12 -9 22 -10q6 -1 19 -1q17 3 26 14q12 15 19 32q2 8 14 38q15 44 17 61q0 3 1 3l3 15.5l3 15.5q3 11 5 33
q0 3 2 9q4 12 4 27q0 39 -2 59q0 5 -2 15q-2 11 -8 33q0 6 -7 27q-9 20 -15 26q-4 5 -9.5 10t-12 11.5l-9.5 9.5q-9 7 -21 12q-3 1 -8 2.5t-7 1.5q-6 1 -12 0q-2 -1 -7 -2.5t-8 -2.5q-9 -6 -10 -7q-12 -9 -17 -17q-15 -25 -21 -41q-3 -8 -7.5 -23t-6.5 -21q-2 -14 -3 -22
q0 -4 -1 -6q-3 -6 -5 -33q0 -14 -2 -21q-2 -6 -2 -19v-28z" />
    <glyph glyph-name="p" unicode="p" horiz-adv-x="590" 
d="M138 -240h-80q-6 0 -9 1q-1 1 -3 1t-3 1q0 1 -1.5 2.5t-1.5 2.5t2 6q2 2 7.5 5t7.5 5q6 6 8 10q4 6 4 11q2 14 2 43v105q0 26 1 40q0 28 2 43q2 13 -1 24q-1 7 -1 22v77v49v58v50q0 15 -0.5 31.5t-1.5 37.5t-1 32q0 13 -8 39l-4 8q-6 9 -14 12q-10 4 -14 6q-6 2 -8 9
t6 10q1 0 3 0.5t3 0.5q4 1 12 1h142q3 0 9 -0.5t9 -0.5q2 0 6 -2q8 -2 8 -8q0 -5 1 -13t1.5 -14.5t0.5 -12.5q0 -2 2 -6q0 -1 2.5 -2.5t4.5 -0.5l6 3q13 11 37 20l15 6q4 3 10 5t13 4t11 3q6 2 9 2q12 1 34 3q14 2 25 -1q14 -2 21 -2q21 -1 50 -14q28 -14 47 -44l18 -35
l9 -20q13 -23 22 -64q4 -20 5 -30q2 -22 4 -34q4 -21 1 -46q-1 -6 -3.5 -17.5t-3.5 -15.5l-3 -12q-1 -3 -5 -14q-13 -29 -40 -69q-2 -4 -4 -5q0 -1 -2 -3q-4 -4 -14.5 -15.5t-17.5 -16.5l-43 -30q-7 -4 -23 -10q-4 -1 -13 -3t-13 -4q-16 -4 -25 -5q-3 0 -9 -2q-12 -2 -18 -2
h-18q-9 0 -12 2l-22 3q-6 0 -12 3q-3 1 -17 4l-18 6h-3q-2 1 -5.5 -2t-3.5 -5q0 -13 1 -19q1 -12 1 -36v-108q0 -7 2 -19q2 -8 7 -13q2 -3 7.5 -7.5t8.5 -6.5q1 -1 2 -2.5t2 -2.5q2 -5 -3 -8q-4 -3 -9 -3q-7 -2 -21 -2q-14 1 -80 1zM323 -6q5 2 15 4q9 2 14 7q4 3 11 10
q6 8 9 16q4 14 7 20q3 8 7 24l3 12q8 32 9 48q0 8 1 12q5 25 5 61v47q0 20 -2 30q-1 6 -3.5 17t-3.5 16q0 2 -2 6q-2 6 -11 29q-1 2 -3 7t-3 7q-16 25 -35 43q-8 6 -13 8q-7 4 -17 6q-22 4 -24.5 4t-27.5 -5l-11 -5.5t-10 -5.5q-2 -1 -4 -2.5t-4 -2.5q-5 -3 -6 -7
q-6 -9 -6 -20v-25v-191q0 -28 -1 -43q-1 -17 1 -52q0 -5 3 -9q17 -24 35 -38q21 -18 49 -24q6 -2 18 -4z" />
    <glyph glyph-name="q" unicode="q" horiz-adv-x="593" 
d="M455 -250h-62q-27 2 -46 -2q-7 -1 -14 4q-2 2 -2 4.5t1 3.5l1 1q1 1 1 2q3 2 8 5t8 4q12 6 17 25q1 3 1 9t0.5 18t0.5 19v163q0 8 -2 12q0 5 -4 3q-2 0 -6 -2q-11 -7 -35 -19q-34 -15 -43 -17q-5 -3 -11 -3q-4 -1 -13.5 -1.5t-14.5 -2.5q-26 -2 -46 1q-16 2 -25 2
q-12 2 -17 4q-4 2 -12 4q-11 5 -19 10q-31 21 -46 50q-12 22 -20 41q-12 26 -21 58q-5 14 -6 27q0 7 -2 21q-10 38 -3 86q1 15 6 30l3 9q13 34 44 81q6 8 10 12l21 21q4 4 10 8l33 23q18 14 47 21q4 0 8 1t8.5 2.5l7.5 2.5q12 1 31 5q2 1 6 1q36 0 43 -2q13 -2 59 -14
q5 -2 7 4q1 1 1 3t1 3q2 6 9 8q2 1 8 3h13h154q8 0 12 -1q4 0 7 -6q2 -11 -7 -16q-2 -1 -5.5 -2.5t-5.5 -2.5q-2 0 -6 -1t-6 -1q-11 -4 -16 -10q-2 -2 -4 -8q-1 -5 -2 -16t-2 -17q-1 -3 1 -9v-16q-2 -8 -2 -24q0 -146 -1 -219q0 -23 1 -34v-65v-19v-22.5v-19.5v-44
q0 -10 1 -15q2 -13 2 -40q2 -52 2 -77q0 -11 7 -27q6 -11 14 -16q16 -11 17 -12q3 -1 1 -5q-3 -4 -8 -6q-4 -1 -12 -1h-86zM188 253v-45v-6q-1 -19 9 -55q2 -9 14 -37q7 -19 19 -31q6 -8 10 -12q6 -7 13 -13q7 -7 21 -12q8 -2 24 -4q9 -3 22 1q22 6 42 18q0 2 2 2q8 8 8 16
q1 17 1 49q0 19 -2 28q-2 13 -2 40q0 139 -1 209q0 13 -1.5 16.5t-9.5 13.5q-3 3 -8.5 9t-8.5 9q-11 11 -23 15q-1 0 -6 2.5t-8 3.5q-9 4 -20 7q-13 3 -25 -1q-2 -1 -8 -3q-21 -8 -28 -27l-3 -9q-8 -21 -9 -26q-3 -9 -8 -27t-6 -23q-2 -16 -2 -24q-2 -10 -2 -13
q-2 -12 -2 -18q-3 -31 -2 -53z" />
    <glyph glyph-name="r" unicode="r" horiz-adv-x="450" 
d="M394 508l10.5 -2t12 -2t10.5 -2q7 -2 13 -6q8 -3 12 -9q2 -3 4 -9q2 -15 -4 -23q-5 -9 -10 -16q-10 -6 -15 -10q-9 -5 -17 -8q-3 -2 -11 -4q-3 0 -8.5 -0.5t-7.5 -0.5q-9 0 -18 3q-11 4 -33 16q-26 4 -55 1q-3 0 -9 -2q-36 -14 -57 -36l-2 -2q-4 -6 -4 -11q-1 -5 -1 -16
v-135q0 -14 0.5 -41.5t0.5 -41.5v-3q0 -1 3 -74l3 -37q1 -13 14 -18q4 -1 14 -4t15 -6l2 -2q1 -1 1 -3q2 -4 -3 -4q-2 -1 -6 -1q-9 0 -27.5 -0.5t-27.5 -0.5q-54 1 -161 1q-4 0 -6 1q-7 0 -5 9q0 3 4 7q5 3 11 5q5 2 15 4q5 1 13 9q3 6 3 8q0 4 0.5 11t1 12.5t1.5 10.5
q2 22 2 34q0 13 1 41t1 42q0 38 1 113t1 112q0 14 -1 21q-1 18 -17 27q-14 7 -17 8q-6 1 -11 5q-7 5 -2 11q3 5 9 7q7 1 22 1h43h77q10 0 15 -1q9 0 11 -9q2 -6 2 -9v-28q0 -3 2 -9q0 -4 4 -2q3 0 5 3q14 12 21 17q31 22 72 35q2 1 5 1t4 1q2 1 6 1h6q14 5 43 7q12 2 19 3z
" />
    <glyph glyph-name="s" unicode="s" horiz-adv-x="390" 
d="M263 99q-2 14 -2 21q-1 9 -9 19q-1 2 -4 5q-26 27 -59 44q-42 22 -63 32t-39 24q-20 14 -34 36q-8 12 -11 18q-10 14 -11 29q0 3 -2 9q-2 12 -2 18v22q0 9 3 18l3 12q2 10 5 15q10 22 23 35q12 12 18 17q12 10 24 13q3 0 13.5 3t16.5 3q1 0 3 0.5t3 1.5q14 5 34 5h71
q38 -1 72 -14q5 -2 13 -8q3 -3 5 -8q0 -4 1 -6q1 -28 1 -83q0 -3 -2 -13q0 -2 -3 -3.5t-4 -0.5t-5 3q0 2 -1 3q-1 2 -2 6t-2 6q0 3 -8 26q-6 19 -26 41q-8 8 -20 15q-7 3 -19 9q-31 8 -60 5q-2 0 -8 -1.5t-9 -2.5q-2 -1 -11 -5q-15 -8 -24 -31l-3 -9q-4 -9 -4 -30
q2 -13 9 -23q0 -1 2.5 -3t3.5 -4q21 -22 52 -42l64 -38q31 -19 48 -33q3 -3 10 -8.5t9 -6.5q15 -12 25 -28q13 -25 18 -42q0 -2 2 -6t2 -6v-28q0 -2 -2 -8q-6 -23 -20 -45q-2 -4 -5 -8q-14 -20 -35 -39q-15 -14 -37 -20q-5 -1 -16 -3.5t-18 -3.5q-3 0 -8.5 -1.5t-9.5 -1.5
q-8 -1 -24 -1q-49 0 -74 1q-7 0 -25 2q-5 1 -14.5 2.5t-13.5 2.5q-9 3 -27 11q-7 3 -8 9q-7 23 -7 40q1 8 -1 24q0 12 -3 22q-2 12 -2 18t1 9q0 4 4 4q3 2 5 -2q2 -3 4.5 -10l3.5 -10t4 -9.5t5 -9.5q6 -13 16 -23q13 -13 20 -19q13 -13 31 -19q3 -1 8 -2.5t7 -2.5t6 -1t6 -1
h6q34 -1 68 0q10 2 17 6q15 9 24 28q2 5 7 30z" />
    <glyph glyph-name="t" unicode="t" horiz-adv-x="338" 
d="M67 89q-3 20 -3 22q-3 18 -3 37q0 12 -0.5 36.5t-0.5 37.5q0 15 -3 30q-2 7 -2 22v37q0 26 -1 40v37v52q0 6 -1 9q-2 4 -5 4q-2 1 -9 1h-15t-15 1q-8 0 -8 8q-1 6 0 12q2 10 10 10q5 1 28 1q6 0 9 1q2 1 4 5q1 1 1 6v172v3q0 7 -7 9q-1 0 -5 1.5t-6 3.5q-4 2 -4 4
q-2 9 6 9q6 1 34 1h92h28h6q3 0 6.5 -3.5t3.5 -6.5q2 -14 2 -43v-46q0 -8 0.5 -23.5t0.5 -22.5q0 -9 1 -13q4 -14 0 -36q-1 -3 -1 -10q0 -12 10 -12h16q43 0 64 -1h13q5 -5 6 -7v-12q-2 -10 -11 -10h-22q-45 0 -67 -1q-5 0 -6 -1q-2 -1 -4 -5q-1 -3 -1 -9v-67
q0 -12 -0.5 -36t-0.5 -35q0 -23 -2 -34q-1 -5 -1 -15v-53q0 -8 1 -12q2 -13 2 -40q2 -29 6 -42q0 -1 1 -6t2 -7q3 -11 11 -21q9 -9 25 -11q14 -1 40 1q6 1 19 1q9 -2 9 -11q0 -12 -7 -19q-2 -1 -4.5 -3t-3.5 -3q-16 -10 -38 -19q-9 -3 -27 -7q-3 -1 -9 -1h-25q-12 0 -18 1
q-3 0 -9.5 2t-8.5 2q-12 1 -32 11q-6 3 -17.5 9.5t-17.5 9.5q-9 7 -18 17q-1 2 -3 5.5t-3 4.5q-4 10 -12 28z" />
    <glyph glyph-name="u" unicode="u" horiz-adv-x="574" 
d="M244 -7h-28q-8 0 -12 1q-5 1 -15.5 2.5t-15.5 2.5l-30 6q-1 1 -4 1q-5 4 -17 12q-4 2 -7 5q-31 28 -32 29q-14 14 -16 36q-1 3 -1 9v50q1 14 1.5 43t0.5 43q0 78 1 117q0 37 2 55q1 9 1 28q-2 19 -13 30q-6 6 -10 8q-3 2 -8.5 4t-8.5 3q-4 1 -8 4t-4 8q0 2 2 6q5 7 12 8
h28q17 0 52 -1t53 -1q10 0 20 -5q7 -5 9 -12q1 -3 1 -10q1 -8 1 -24q0 -18 -0.5 -55t-0.5 -56q-1 -117 0 -234q0 -8 1 -12q2 -14 14 -19q4 -2 20 -7q3 -1 10 -1q14 -2 43 0q6 2 9 2q2 1 5.5 2t5.5 2q10 1 20 8q4 2 32 20q6 3 11 10q2 4 2 6q1 3 1 9v65q0 12 1 18q2 13 2 40
t0.5 80t0.5 80q0 16 1 25q0 19 -14 33q-2 1 -5 4q-18 8 -22 10t-5 3q-5 5 -3 9q0 4 5 7q2 0 6 2h6h123q13 0 24 -4q7 -3 8 -9q5 -15 5 -27q0 -84 -1 -126v-12q-2 -9 -2 -37v-56v-18q2 -9 2 -43q0 -66 2 -99v-15q0 -9 6 -27q3 -7 11 -10q6 -2 9 -2q5 -1 15 -5q1 0 5 -2
q3 -3 2 -6q0 -2 -3 -4h-1q-1 -1 -2 -1h-6h-142q-12 0 -18 1q-4 0 -8 4t-4 8q-1 8 -1 25v15v15l-1 2q0 1 -1 1q-3 2 -5 0q-1 0 -1 -1l-2 -1q-3 -4 -34 -32q-7 -6 -35 -25q-11 -7 -28 -12q-12 -5 -17 -6z" />
    <glyph glyph-name="v" unicode="v" horiz-adv-x="611" 
d="M59 474q-30 6 -34 7l-4 4q-2 4 1 5q2 2 2 3q10 4 15 4q40 2 59 2q33 -1 101 1q2 0 6 1t6 1q19 3 37 0q6 0 18.5 -1t18.5 -1q3 0 8 -1t7 -1q4 -2 5 -4q2 -4 2 -6q-1 -4 -6 -6q-6 -2 -9 -2q-10 -1 -30 -7q-6 -1 -9 -8q-5 -13 -2 -24l6 -24q9 -26 13 -34q9 -19 15 -41
q5 -13 19 -58q3 -11 10 -29.5t9 -25.5q2 -5 11 -26q2 -6 6.5 -16t8 -18.5t6.5 -16.5q2 -6 8 -16q1 -2 5 -4q4 -4 8 1q5 9 8 17q1 4 6 17.5t7 20.5l15 46q2 8 7.5 23.5l8.5 23.5t8 25t8 25v3q2 16 6 24q2 6 6 20q1 6 3.5 17t3.5 16q1 4 2.5 12t2.5 12q3 7 1 15q0 8 -6 14
q-14 8 -22 11q-18 5 -33 5q-2 0 -6 2q-5 2 -5 7q0 6 4 8q1 0 3 1h1q1 1 2 1q28 4 55 4q8 0 24.5 0.5t24.5 0.5q11 0 31 0.5t31 0.5q1 0 4 -0.5t5 -0.5q9 -2 9 -11q0 -3 -2 -5q-7 -5 -8 -5l-9 -3q-8 -1 -16 -9q-18 -18 -21 -22q-16 -17 -20 -37q-8 -35 -18 -65
q-5 -20 -32 -103q-12 -36 -22 -61q-4 -9 -7 -20q-2 -4 -4 -12q-12 -28 -16 -43l-15 -44q-3 -9 -9.5 -25.5t-9.5 -23.5q0 -1 -1 -2q-2 -2 -2 -3q-5 -9 -15 -9q-17 0 -25 1q-13 2 -39 2q-7 0 -10 1q-11 2 -14 10q-10 22 -14 34q-1 2 -2.5 5.5t-2.5 5.5q-9 15 -22 43t-18 37
q-17 36 -24 60q-6 19 -22 57q-11 28 -16 46q-8 24 -12 35q-8 18 -12 32q-9 24 -31 70q-1 2 -3 5.5t-3 5.5l-9 9q-8 5 -26 14z" />
    <glyph glyph-name="w" unicode="w" 
d="M132 499q32 3 71 1q22 0 33 -2q8 -3 6 -7t-3 -5q0 -1 -5 -3q-2 -1 -5 -2t-4 -2q-4 -2 -7 -5q-5 -3 -7 -10q-2 -17 2 -27q10 -42 19 -62q9 -23 13 -38q3 -12 10 -35t8 -27l13 -38l12 -34q5 -13 15 -37l12 -29q1 -2 4 -5q4 -4 8 1q4 6 6 14l19 58l18 56q10 29 24 89
q1 3 1 9q2 8 -1 15q-7 19 -25 57q-3 7 -9 15q-8 10 -11 15q-7 13 -22 16q-12 2 -18 4q-3 1 -4 4q-2 3 -0.5 7.5t4.5 5.5q17 5 30 5q29 1 86 1q27 -1 81 -1q12 0 21 -4l4 -4q1 -2 0.5 -4.5t-2.5 -3.5q-1 0 -3 -1t-3 -1q-8 -1 -24 -5q-5 -2 -5 -7q-1 -2 -1 -6l3 -12l11 -34.5
t11 -33.5q0 -3 8 -26q11 -30 31 -90q4 -19 14 -38q2 -5 6.5 -15t7.5 -15q2 -5 10 -29q11 -31 17 -40q2 -3 5 -3q3 -2 5 2q0 1 1 2.5t2 2.5q2 4 4 12l9 27.5t8 25.5l15 50t16 49q9 29 9 39q0 3 2 9q4 14 10 42q2 7 5.5 22t4.5 23q2 7 -1 12q0 2 -1.5 6t-2.5 6q-7 11 -17 12
q-6 1 -20 4t-22 4q-6 0 -11 5q-6 4 -2 11q4 2 6 2q6 1 18 1q32 -1 96 -1h11h14h12h12q11 -2 18 -10q4 -4 -1 -9q-8 -4 -12 -4q-14 -2 -21 -2q-10 -2 -21 -6q-7 -3 -8 -9q-1 -5 -4.5 -14.5t-4.5 -11.5q-4 -9 -5 -17q-5 -16 -13 -48q-2 -9 -7 -25t-6 -22t-5 -19l-6 -20
l-18 -68q-1 -9 -7 -27q-23 -79 -31 -103l-18 -59q-4 -12 -9 -19q-1 -3 -7 -5h-3q-21 -1 -62 -1q-13 0 -20 12q-12 17 -16 33q-10 37 -29 75q-14 28 -30 74q-5 13 -8 23q-11 35 -20 55q0 2 -2 2t-4 -3q-1 -2 -2.5 -6t-1.5 -6q-2 -8 -26 -76l-10.5 -31.5t-11.5 -35.5
q-5 -12 -12.5 -36t-8.5 -28q-12 -33 -15 -40q0 -1 -6 -7q-4 -4 -8 -4q-2 0 -6 -0.5t-7 -0.5q-12 1 -36 1q-11 0 -27 6q-3 0 -5 4q-2 3 -6 11q-2 6 -7.5 19.5t-7.5 20.5q-3 9 -7 17q-8 14 -20 41l-15 34q-1 3 -12 32q-19 57 -25 73q-10 25 -13 41q-2 12 -13 41q-4 9 -10 29
q-1 3 -3 8.5t-3 8.5q-7 14 -11 26q-3 13 -21 44q-5 9 -12 13q-10 9 -23 10q-1 0 -5 2q-2 2 -2.5 5.5t1.5 5.5q4 3 8 4h22q9 0 37 0.5t43 1.5z" />
    <glyph glyph-name="x" unicode="x" horiz-adv-x="555" 
d="M142 503q8 0 24 0.5t24 1.5q31 0 46 -2q4 0 9 -3q5 -6 0 -11q-1 -1 -2.5 -2t-2.5 -1q-1 -1 -4 -2.5t-4 -2.5q-3 -1 -3 -8q1 -1 1 -3l52 -91l27 -49q1 -4 5 -8t8 0q1 1 3.5 3t3.5 3l28 36q1 2 4 5t4 5q42 67 44 71q1 3 5 8.5t6 9.5q0 6 -3 9q-15 7 -26 8q-12 2 -15 4
q-6 2 -8 4q-6 6 1 11q6 3 12 3q15 2 31 0q10 -2 31 -2q13 0 39.5 -0.5t40.5 -0.5q2 -1 5 -1t4 -1q3 -1 3 -5t-2 -5q-3 -4 -10 -6q-4 -1 -12.5 -1t-12.5 -1q-4 0 -20 -7q-3 -1 -4 -4q-28 -38 -41 -58q-29 -42 -34 -48q-4 -5 -11.5 -16.5t-10.5 -16.5q-14 -17 -22 -29
q-7 -9 -13 -22q-2 -5 -1 -9q13 -30 30 -57q26 -44 38 -67q1 -2 4.5 -8.5l5.5 -10.5l5.5 -8.5t4.5 -7.5t8.5 -16t12.5 -21q4 -6 11.5 -18.5t11.5 -18.5q10 -15 27 -19l2 -1q2 -1 4 -5q0 -2 -1 -3q-3 -3 -5 -3t-7 -0.5t-8 -0.5h-89q-33 0 -50 -2q-10 -1 -30 -1q-4 0 -6 2
q-4 1 -6 6q-2 3 3 8q3 1 8 1.5t7 1.5q4 2 6 6q2 8 -1 15l-3 6q-6 9 -25 45q-14 26 -21 38l-20 38q-1 3 -5 3.5t-6 -1.5q-19 -19 -30 -35q-1 -1 -3 -5q-10 -11 -63 -80q-2 -3 -6.5 -7.5t-5.5 -6.5q-2 -4 3 -8q4 -2 8 -2q10 -1 28 -3q6 0 11 -5q1 -1 1 -3q3 -5 -2 -7
q-4 -2 -6 -2q-5 0 -15 -0.5t-15 -0.5q-3 0 -10.5 -0.5t-11.5 -1.5q-18 -3 -55 -1q-13 2 -40 2q-6 0 -9 1q-1 1 -2.5 2t-2.5 2q-2 5 4 8q23 7 30 7q6 1 18 5q20 9 29 22q3 3 10 9t10 10q5 7 15 19l27 35q12 16 19 24q37 49 44 63q1 5 0 9l-8.5 16.5t-9.5 19l-8 16.5
q-14 26 -19 32q0 1 -1 2l-3 6l-46 80l-15 24l-24 42l-3 6q-4 5 -12 10q-14 6 -23 6q-1 0 -4 1t-5 1q-6 2 -7 6q-6 6 1 11q1 0 3 1q4 2 6 2q2 1 6 1.5t6 0.5q28 0 43 -1h38z" />
    <glyph glyph-name="y" unicode="y" horiz-adv-x="554" 
d="M77 48q-3 9 -4 11q-4 8 -4 21v61q2 180 2 268v25q-3 28 -27 43q-3 1 -9.5 4t-9.5 5q-6 3 -4 11q0 2 1 3t5 3q1 1 6 1h147q7 0 10 -1q6 0 11 -5t8 -13q1 -1 1 -6q0 -3 0.5 -8t0.5 -7q-1 -30 -1 -89q0 -23 -2 -34q-1 -6 -1 -19q0 -15 -0.5 -45.5t-0.5 -46.5t0.5 -46.5
t0.5 -45.5v-3q2 -20 2 -28q1 -9 1 -28q0 -1 0.5 -3t0.5 -3q1 -6 7 -10q14 -8 22 -9q2 0 8.5 -2t9.5 -2q24 -2 40 2l15 3q16 2 35 13q6 3 28 18q6 5 11 11q4 2 5 8q2 12 2 18q1 13 1 40q2 120 2 182v70v16q0 5 -3 8q-9 15 -21 27q-7 8 -19 15q-7 3 -10 11q-2 3 1 7t7 4
q2 0 5 0.5t4 0.5h145h12q13 0 15 -14v-9l1 -39q0 -38 -1 -38q-1 -63 -1 -188q0 -199 -1 -299v-30q-1 -16 -5 -46q0 -2 -2 -6q-12 -17 -29 -36q-4 -4 -10 -7q-5 -3 -22 -12q-26 -14 -49 -15q-6 0 -16 -2q-7 -2 -33 -2q-9 1 -18 6l-1 2l-3 3q-2 5 1 8l2 2q7 4 19 16q6 8 8 13
q4 9 10 29q2 12 2 18q0 25 1 37q0 29 2 43q1 7 1 22v37q-1 9 0 26.5t1 22.5q0 4 -1 6q-2 4 -5 1q-1 0 -8 -5q-8 -7 -24 -23q-18 -17 -42 -31q-7 -4 -19 -10q-16 -9 -29 -10q-1 0 -3 -1t-3 -1q-11 -3 -25 -1q-5 1 -30 4q-8 0 -24 4q-3 1 -6.5 2t-8 2t-6.5 2q-21 6 -35 19
q-11 11 -23 20q-14 12 -21 24z" />
    <glyph glyph-name="z" unicode="z" horiz-adv-x="471" 
d="M289 0h-15q-32 0 -49 1q-20 0 -30 2q-3 1 -10 1q-49 2 -73 0h-23h-26h-22q-6 0 -9 1q-2 0 -6 2q-3 1 -5 6t0 7q1 2 2.5 6t2.5 6q28 52 44 77q1 3 6 11.5t7 13.5l15 30q6 14 15 27q14 24 24 46q6 15 15 31l46 80l59 104q8 11 12 22q2 4 -5 6q-41 0 -61 -3q-14 -2 -22 -2
q-10 -1 -30 -1q-15 0 -29 -11q-18 -14 -40 -42q-1 -1 -2.5 -4t-2.5 -4l-8 -16.5t-8 -19.5q-1 -5 -9 -23l-3 -6q-6 -6 -8 -2q-1 1 -3 4q-1 1 -1 3q-2 47 4 86q1 3 1 9.5t1 9.5q0 20 1 31q0 8 9 10q12 4 18 4h25h80q7 0 25 -2q15 -1 46 -1h150h22q1 0 3 -0.5t3 -0.5q4 -2 5 -3
q1 -2 1 -6q-12 -26 -20 -38q-16 -26 -27 -49q-1 -4 -4 -8q-5 -8 -14.5 -25t-15.5 -25q-3 -4 -4 -8q-17 -35 -47 -80q-4 -6 -22 -40q-10 -18 -16 -27q-12 -17 -24 -43q-8 -14 -22 -44l-25 -46q-6 -10 -8 -16q0 -4 3 -4q2 -1 5 -1t4 -1h31q15 0 22 -2q15 -4 33 -1q16 2 25 -1
q20 0 30 3q6 2 9 2q12 4 25 12q8 6 11 10q3 3 8 9.5t8 9.5q14 15 25 46q2 6 6 20q3 7 9 13q1 1 5 3q9 2 9 -6q1 -2 1 -6v-33q0 -13 -2 -37v-10q-1 -6 -4 -36q0 -4 -2 -12q0 -2 -2 -6q-3 -5 -10 -7q-3 0 -10 -0.5t-11 -0.5q-35 -3 -37 -3q-6 -1 -19 -1h-30q-30 0 -35 -1z" />
    <glyph glyph-name="braceleft" unicode="{" horiz-adv-x="301" 
d="M208 755q6 1 17.5 2.5t16.5 3.5q9 2 26 2q1 0 3 -0.5t4 -0.5q9 -2 5 -10q-2 -6 -6 -7l-15 -6q-15 -6 -18 -9t-11 -7q-16 -9 -25 -25q-3 -3 -7 -11q-5 -7 -7 -18q-1 -30 0 -59q2 -16 4 -26q1 -4 3 -13.5t4 -14.5q1 -3 2 -9t1 -7q0 -10 3 -19q4 -15 1 -33l-6 -22
q-8 -26 -25 -45q-17 -20 -40 -38q-24 -18 -52 -27q-1 0 -4 -2t-5 -2q-1 -2 -1 -5t1 -4q1 0 3 -2l15 -6q24 -9 47 -28q3 -2 8 -6.5t7 -6.5q12 -8 27 -28q8 -10 18 -34q1 -1 1.5 -3.5t0.5 -3.5q4 -16 5 -25q3 -12 0 -23q0 -1 -1 -3q-2 -4 -2 -6q-1 -16 -12 -61q-2 -10 -2 -16
q-3 -29 -1 -65q1 -6 5 -16q10 -21 29 -35q26 -18 42 -23q5 -1 9 -4q2 -1 4 -5q2 -6 -3 -8l-6 -3h-6q-20 2 -30 2q-23 1 -46 13q-36 17 -62 48q-3 3 -7 11l-15 36q-1 3 -6 22q-4 12 -6 25q0 9 -1 13q-3 10 -3.5 23t0 23t-0.5 22q0 1 0.5 3.5t0.5 3.5q1 5 4 42q0 28 -5 42
q0 1 -1 4t-1 5q-3 17 -15 29q-6 7 -15 12q-6 4 -20 10q-6 4 -9 5q-4 4 -6 11q-1 10 0 20q2 9 9 13l24 12q3 1 13 9q1 1 2.5 2t2.5 2q12 18 14 29q1 1 1.5 3.5t0.5 3.5q6 29 5 48q-3 35 -4 42q-1 3 -1 10v32q0 9 1 13l3 21l3 21q4 21 14 44q2 4 5.5 12t4.5 12q6 12 15 21
q17 20 46 35q20 10 28 13z" />
    <glyph glyph-name="bar" unicode="|" horiz-adv-x="99" 
d="M75 -78q-16 -8 -25 -9q-4 -1 -10 -2t-10 -2q-6 0 -8 5q0 1 -0.5 3t-0.5 4v26v697q0 17 -0.5 51t-0.5 52q0 2 0.5 8t0.5 9q2 7 6 11q2 4 5 4q4 1 18 3.5t21 3.5q7 0 7 -6v-1q1 -1 1 -2v-10q-1 -150 -1 -450q0 -61 0.5 -184.5t0.5 -185.5v-16q0 -3 -2 -7q0 -2 -2 -2z" />
    <glyph glyph-name="braceright" unicode="}" horiz-adv-x="301" 
d="M91 -56q-5 -1 -16 -2t-16 -2q-9 -3 -26 -3q-1 0 -3 0.5t-3 0.5q-6 2 -6 8q0 4 4 8q1 0 1 1l2 1q2 0 3 1l10.5 3.5t10.5 4.5l9.5 6.5t10.5 6.5q10 6 21 19q2 2 12 20q4 4 4 12q3 36 0 72q0 3 -2 9q-1 8 -8 32q-2 10 -2 16q-2 17 -5 25q-2 8 0 23l2.5 10t1.5 9q5 28 27 55
q16 19 41 37q27 20 49 26q7 2 11 6q4 5 0 9q-1 0 -3 2q-2 0 -6 2t-6 2q-26 9 -53 31q-8 8 -12 11q-11 8 -27 28q-8 11 -18 35q-2 4 -2 6q-4 15 -5 25q-3 12 0 23q3 9 3 10q0 9 10 54q3 9 5 29q2 29 0 58q-2 11 -5 16q-11 23 -29 35q-28 20 -43 23q-3 0 -5 3q-6 2 -7 7
q-3 6 3 8q4 2 6 2h7q5 -1 14.5 -1.5t14.5 -0.5q19 -1 44 -12q35 -16 64 -49q3 -3 7 -11q18 -43 21 -58q4 -8 6 -25q0 -9 1 -13q4 -12 4 -45q0 -30 -3 -39q-2 -36 -2 -52q0 -4 2 -10q1 -8 5 -22q1 -9 9 -21q7 -12 21 -20q3 -2 6.5 -3.5t7.5 -3.5l6 -3l5 -2.5t4 -2.5
q4 -3 5 -8q3 -10 1 -23q-2 -9 -9 -13q-14 -6 -21 -10q-28 -15 -36 -47q-1 -2 -1 -7q-7 -17 -5 -42q2 -35 4 -42q1 -4 1 -13v-32q0 -9 -1 -13q-1 -6 -2 -13t-2 -15.5t-2 -13.5q0 -1 -3 -10q-5 -20 -21 -58q-6 -12 -15 -21q-22 -24 -61 -43z" />
    <glyph glyph-name="asciitilde" unicode="~" horiz-adv-x="619" 
d="M170 345q22 0 41 -5q28 -3 59 -16q6 -3 17.5 -7t13.5 -5q3 -1 14.5 -4t16.5 -6q51 -15 90 -31q18 -6 28 -8q3 -1 9 -2t9 -2q8 -3 25 -3q21 -1 40 14q12 10 22 24q1 1 6 7.5t8 9.5q4 8 13 3q2 -1 5.5 -2.5t4.5 -1.5q7 -4 7 -12q0 -5 -2 -11q-10 -27 -27 -52
q-20 -28 -55 -46q-3 -2 -21 -7q-25 -7 -54 -2q-12 3 -25 3q-15 0 -50 11l-20.5 8.5t-19.5 8.5q-13 4 -37 16l-37 16q-4 2 -28 9q-12 3 -28 9q-7 2 -21 4q-10 1 -29 1q-17 2 -32 -6q-8 -3 -10 -4q-11 -4 -21 -14q-16 -17 -25 -40q0 -3 -1 -4q-5 -15 -20 -10q-8 3 -10 4
q-5 2 -5 8q-2 28 14 64q1 0 1 1t1 2q29 45 60 63q10 6 16 7q8 2 11 3q13 5 32 5h14z" />
    <glyph glyph-name="exclamdown" unicode="&#xa1;" horiz-adv-x="219" 
d="M115 302h-12q-16 1 -28 12q-1 2 -4 5q-6 6 -9 15q-2 14 -1 18l1 1v2q4 26 28 42l2 2q2 0 6 2q20 2 30 0q4 0 6 -1l14 -8q11 -7 14 -22q1 -4 1 -12q0 -3 -0.5 -9t-0.5 -9q-1 -9 -9 -23l-4 -4q-11 -11 -25 -11h-9zM21 -164q0 34 11 72q14 51 15 55q8 27 10 38q0 2 6 28
q2 7 5.5 23.5t6.5 25.5q1 1 1 4q1 7 4.5 28t3.5 32q1 22 9 64q0 9 12 11q2 1 7 1h4q6 0 11 -5t6 -10q0 -1 0.5 -3.5t1.5 -3.5q0 -4 0.5 -11t0.5 -11q0 -22 5 -50q1 -3 1.5 -8.5t1.5 -8.5q2 -7 5.5 -25.5t6.5 -27.5q1 -2 2 -6.5t2 -8t2 -6.5q6 -18 8 -27q8 -35 8 -42l3 -18
q3 -10 3 -21q6 -45 6 -47q1 -3 1.5 -6.5t1 -8t0.5 -6.5q2 -26 4 -32q3 -13 0 -25q-1 -7 -2.5 -21.5t-2.5 -21.5q0 -8 -6 -20q-7 -17 -27 -22q-18 -4 -32 -1q-6 2 -17.5 4l-17.5 3l-24 6q-8 2 -18 12l-6 9q-16 26 -18 47q0 1 -0.5 3t-0.5 4q-4 8 -4 32v2z" />
    <glyph glyph-name="cent" unicode="&#xa2;" horiz-adv-x="459" 
d="M428 89q6 -1 9 -8t1 -12q0 -3 -3 -5q-3 -5 -9 -8q-30 -22 -53 -31l-11 -5q-11 -6 -43 -17v-77v-12q0 -2 -2 -6q0 -2 -3 -2q-18 -6 -29 -7l-23 -3q-6 0 -10 4q0 1 -0.5 2.5t-0.5 3.5v20v73q-3 0 -7 0.5t-7 0.5q-15 0 -18 1q-24 5 -56 19q-34 18 -40 22q-2 2 -16 10
q-23 14 -40 33q-16 16 -25 34l-9 17q-6 16 -7 24q0 6 -1 9q-5 13 -5 33v59q0 15 4 27q2 8 2 12q7 36 24 73q8 14 13 21l15 19l3.5 3.5t4 4.5t3.5 3q18 14 26 22q7 5 16 10q24 12 44 20q7 3 45 13l12 3t12 2l7 2q0 11 -0.5 33t-0.5 34q0 2 0.5 6.5t0.5 6.5q1 5 7 9q2 3 6 3
q44 6 46 6q8 0 8 -5q0 -1 0.5 -1t0.5 -1v-8q0 -53 -1 -80l25 -9q19 -6 35 -19l18 -12q12 -9 23 -20q10 -10 13 -24q0 -8 -3 -12q-1 -3 -4 -4q-10 -6 -17 1l-9 9q-8 10 -20 18q-19 15 -45 24l-16 2v-232v-152h3h3q32 -1 63 9q20 6 29 10q5 3 12 1zM231 106q10 -8 20 -14v358
q-1 0 -8 -2t-11 -4q-14 -7 -18 -11l-17 -18q-10 -11 -17 -29q-2 -4 -12 -35q-6 -22 -6 -33q0 -10 -4 -24q-3 -6 -3 -19v-21q0 -8 3 -15l3 -9q1 -5 3.5 -14.5t3.5 -12.5q11 -31 29 -54q10 -12 19 -28q6 -7 13 -13z" />
    <glyph glyph-name="sterling" unicode="&#xa3;" horiz-adv-x="515" 
d="M281 325q-7 -3 -7 -11t2 -24q3 -48 -1 -89q-2 -16 -5 -24q-5 -17 -7 -22q-4 -8 4 -12l1 -1q2 0 2 -1q12 -6 18 -10q16 -9 36 -12q2 0 6 -1q2 -2 4 -2q3 -1 10 -1q24 -2 41 3q6 2 10 2q23 1 45 22q32 32 38 40l5 5q4 2 6 1q4 -2 5 -5q0 -1 0.5 -3t0.5 -3v-31q0 -8 -3 -17
q-10 -26 -18 -58q-8 -13 -24 -35q-17 -20 -43 -33q-7 -4 -16 -6q-18 -3 -31 -2q-29 0 -48 6q-4 1 -14.5 2.5t-15.5 3.5q-12 6 -26 9q-5 2 -15 8q-11 5 -19 14q-3 3 -7.5 8t-8.5 9t-8 7q-4 4 -10 -1l-21 -27q-11 -14 -24 -24q-5 -3 -25 -12q-2 -1 -6 -1q-4 -1 -11 -1t-10 -1
q-17 0 -30 8q-6 3 -11 8q-1 1 -4 5t-5 5q-7 8 -11 17q-1 2 -3.5 8t-3.5 8q-2 4 -2 6q-2 19 2 31q6 20 10 29q6 12 14 20q13 13 24 18q20 10 36 10h14q9 0 17 -3q10 -3 20 -3q7 0 7 6q2 18 -4 34q-18 59 -22 68q-1 5 -4 13.5t-4 12.5q-3 10 -8 23q-3 4 -8 6h-11q-5 1 -16.5 1
h-17.5q-7 0 -10 1q-4 0 -7.5 4t-3.5 8v10q0 5 8 10q4 1 11 1q4 0 17 0.5t20 1.5q5 0 7 7q1 1 1 3q-3 7 -5 23.5t-4 23.5v10q0 46 4 62q0 1 0.5 5t0.5 5q1 25 11 50q0 3 2 7q8 34 37 68q18 22 36 33q26 19 31 21q15 9 29 11q3 1 8 3t8 2q10 2 14 2h20q33 3 67 -12l6 -4
q6 -3 9 -5q23 -19 33 -35q1 -2 11 -17q3 -5 3 -10q0 -3 -3 -6q-2 -1 -6 -1q-1 1 -4 2.5l-5 2.5q-10 6 -14 10q-16 15 -48 26q-6 2 -20 6q-1 0 -3 0.5t-4 0.5q-19 2 -37 0q-8 0 -20 -6q-18 -6 -28 -28q-8 -14 -9 -30q0 -1 -1 -7t-2 -10q-2 -8 0 -23q0 -4 1 -12t1 -12
q2 -23 6 -34q1 -2 2 -7t1 -6q0 -9 3 -17q2 -5 3 -14.5t2 -12.5l2.5 -7.5t2.5 -8.5t1 -8q1 -12 9 -36q0 -3 4 -9q3 -6 8 -6q12 -2 17 -2h48h24q12 0 13 -13v-3v-4v-3q0 -7 -8 -10q-5 -1 -14 -1h-55q-14 0 -20 -1zM110 109q-7 0 -12 -1q-4 0 -12 -6q-2 -2 -6 -8q-6 -9 -6 -23
t7 -22q1 -1 2 -3t2 -3q7 -6 16 -6q2 1 5.5 1t4.5 1q14 5 24 13q14 12 19 20q8 9 10 18q0 2 -1 3q-1 2 -4 5q-23 10 -43 10q-2 1 -6 1z" />
    <glyph glyph-name="currency" unicode="&#xa4;" horiz-adv-x="584" 
d="M502 527q-2 -2 -6 -5.5t-6 -5.5q15 -17 26 -40q8 -18 9 -29q0 -3 0.5 -9.5t0.5 -9.5q4 -52 10 -77q3 -8 0 -18q-4 -15 -5 -20q-17 -58 -27 -79q-6 -14 -17 -28l-7 -7l12 -12h-1l50 -52q4 -6 7 -8q3 -5 -4 -14q-8 -8 -26 -24q-2 -3 -7 -4q-5 -3 -10 -1q-2 1 -6 5l-64 68
q-31 -20 -66 -29q-5 -2 -15 -4l-23 -6q-13 -4 -32 -4q-6 -1 -18 -1q-48 1 -104 18q-29 11 -32 12l-2 -2l-15 -15v1l-52 -50q-6 -4 -8 -7q-5 -3 -14 4q-4 4 -24 26q-2 2 -4 7q-3 5 -1 10q1 2 5 6l60 57q-21 23 -30 52q-19 57 -22.5 81.5t0.5 74.5q0 1 1 3.5t2 3.5q3 8 9 26
q5 15 18 35q15 23 27 37l-68 72q-1 1 -1 2q-6 6 3 16q11 14 31 30q2 1 5.5 2t4.5 0q3 -4 41 -45q10 -10 15 -16q3 -4 11 -12q2 2 4.5 4t3.5 3q39 24 64 33q27 10 52 10h50l72 -3q10 -1 27 -9q21 -12 34 -23l72 69l2 1q5 4 16 -3q16 -12 31 -32q2 -2 2 -5t-1 -4
q-7 -5 -14.5 -12l-16.5 -16l-14 -14q-5 -4 -15 -14zM341 211l16 5.5t11 4.5q29 12 47 36q5 5 17 25l2 2q13 23 16 48q2 30 2 48q-2 20 -6 31q-9 26 -26 48q-32 40 -84 53q-21 5 -43 6q-11 0 -35 -2q-11 -1 -22 -6q-24 -10 -36 -16q-18 -8 -36 -23q-1 -1 -2 -2.5t-2.5 -2.5
t-2.5 -2q-20 -20 -33 -46q-9 -21 -10 -24q-18 -49 -1 -92l3 -9l3 -6q13 -33 40 -53q37 -29 75 -29h4h54h26h4l5 1q10 4 14 5z" />
    <glyph glyph-name="yen" unicode="&#xa5;" horiz-adv-x="708" 
d="M681 702q2 -2 6 -4q2 -7 -5 -10q-4 -4 -8 -4l-24 -6q-11 -3 -22 -9q-19 -9 -32 -24q-10 -10 -14 -16l-40 -50q-5 -7 -10 -16q-8 -13 -10 -15l-36 -57q-1 -2 -19 -35q-8 -14 -12 -18q-9 -12 -16 -29q-3 -7 3 -7q3 0 9 -0.5t9 -0.5q35 0 52 -1h6q7 0 9 -8q2 -4 2 -12
q-2 -10 -9 -11q-8 -3 -15 -3q-8 0 -23.5 -0.5t-22.5 -0.5q-14 0 -21 -1q-3 0 -8 -5v-6v-9q5 -5 7 -5q3 0 9 -0.5t9 -0.5h34q11 0 31 -4q6 0 8 -8t-1 -15q-2 -7 -8 -7q-5 -1 -13 -1q-20 -1 -61 -1q-6 0 -9 -1q-6 0 -6 -5q-2 -10 -4 -28q-1 -1 -1 -3q0 -49 1 -58q1 -6 1.5 -17
t0.5 -17q0 -65 1 -98v-18q1 -10 9 -16q24 -14 39 -16q2 0 6 -2q10 -4 7 -15q-2 -6 -6 -6q-1 0 -3 -0.5t-4 -0.5h-227h-15q-9 2 -5 10q2 5 3 5q5 9 15 10t26 7q11 5 16 14q4 10 4 14v16q-3 49 -1 110q0 33 -1 49v6q-2 20 -2 28v12t-1 12t-4 5q0 2 -2 2q-7 1 -43 1
q-7 0 -21.5 0.5t-21.5 0.5q-8 0 -11 10q-1 7 2 14q3 5 7 6q6 1 19 1q18 1 55 1q6 0 9 1q6 3 4 7v3q-1 2 -2 4.5t-2.5 5.5t-2.5 4q-4 4 -8 4q-9 1 -28 1q-22 0 -33 1q-1 0 -4 0.5t-5 0.5q-4 1 -8 5q-7 11 0 20q6 6 11 6q2 0 7 1t8 1h15t15 1t4 4q-2 6 -4 9l-10 17.5t-10 19.5
q-1 5 -5 8q-7 8 -17.5 26t-12.5 20l-49 85l-38 59q-5 6 -9 9q-7 7 -23 16q-4 2 -8 2l-30 6q-1 0 -3 0.5t-3 0.5q-3 1 -5 5t0 8q3 5 7 6q12 4 21 4h76q11 0 16 -1q25 -4 76 -4q18 0 52.5 0.5t51.5 0.5q2 0 6 -0.5t7 -0.5q2 0 5 -3t1 -8q-3 -5 -7 -6q-1 0 -3 -0.5t-3 -0.5
q-10 0 -30 -8q-6 -1 -9 -8q-1 -1 -3 -5t-3 -5q-5 -11 0 -21q13 -33 20 -45q20 -35 22 -37l25 -46l9 -15q12 -20 18 -29q2 -3 6 -8.5t6 -8.5q5 2 6 3q2 2 6 7l33 44l9 12l21 30q1 2 3 4.5t3 3.5q3 6 32 48q9 12 23 36q3 6 3 12q0 7 -4 12q-4 7 -12 13q-2 0 -5 2t-4 2
q-40 8 -48 8q-6 0 -18 2q-4 0 -8 4q-3 2 -3 5q-1 2 1 4t4 2q1 1 3 1q4 0 21.5 2.5t27.5 1.5q12 0 18 -1q12 -3 24 -3q68 -2 101 0h55z" />
    <glyph glyph-name="brokenbar" unicode="&#xa6;" horiz-adv-x="102" 
d="M80 722q0 -11 -4 -33q-4 -31 2 -49q1 -4 1 -12q0 -12 1.5 -43t0.5 -46q-1 -16 -1 -48v-47q1 -5 -1 -13t-4 -14q-3 -4 -10 -6q-1 -1 -2 -1t-1 1h-22q-4 -1 -8 2.5t-5 8.5q0 3 -1 13.5t0 16.5q0 8 -1 41t0 39q-2 8 -4 10v46v7q4 11 2 38q2 26 2 37v62q0 2 0.5 5t0.5 4
q0 7 12 12q22 2 33 2q10 -2 10 -11q0 -15 -1 -22zM80 262q0 -11 -4 -33q-4 -31 2 -49q1 -4 1 -12q0 -12 1.5 -43t0.5 -46q-1 -16 -1 -48v-47q1 -5 -1 -13t-4 -14q-3 -4 -10 -6q-1 -1 -2 -1t-1 1h-22q-4 -1 -8 2.5t-5 8.5q0 3 -1 13.5t0 16.5q0 8 -1 41t0 39q-2 8 -4 10v46v7
q4 11 2 38q2 26 2 37v62q0 2 0.5 5t0.5 4q0 7 12 12q22 2 33 2q10 -2 10 -11q0 -15 -1 -22z" />
    <glyph glyph-name="section" unicode="&#xa7;" horiz-adv-x="501" 
d="M40 -324q-2 3 -4 11l-3 12q0 4 -0.5 12t-0.5 12q0 16 -3 31l-3 27q0 19 -3 28q-3 15 -2 27v6q1 1 2 2.5t2 2.5t4 0.5t4 -1.5q2 -2 4 -6q1 -3 3.5 -12t3.5 -14q6 -19 20 -41q17 -26 43 -48q4 -5 14 -11q10 -7 25 -13q7 -4 17 -6h3q16 -4 24 -5q9 -1 28 -1l18 1q18 0 18 -1
q16 0 37 7q1 0 2 1l6 3l4 4q2 1 5 4q19 17 26 41q0 2 1.5 5.5t2.5 5.5q2 8 2 12q1 12 -1 34q-5 24 -19 41q-36 41 -85 65q-41 22 -43 23q-31 16 -56 33q-18 11 -37 27q-4 3 -10 11q-21 23 -29 40q-1 1 -2.5 4t-2.5 4q-11 14 -18 42q-4 12 -4 27q-3 24 -1 55q0 15 5 33
q3 12 8 29q4 10 7 14q17 30 37 49q1 1 3.5 3t3.5 3q3 4 27 20q4 4 0 8q-3 4 -7 6q-25 16 -45 46q-6 8 -21 34q-3 4 -6 12.5t-3 9.5q-5 11 -6 21q-1 1 -1 3t-1 3q-4 47 0 80q0 4 1 6t4.5 19t7.5 25q1 6 5 11q15 28 34 47q3 2 8.5 7t7.5 8q8 8 26 15q3 0 9 2t9 2q7 1 21 5
t21 5q2 0 4.5 1t5 1.5t5.5 0.5q4 0 12 0.5t12 0.5h74q26 0 39 -2q2 0 34 -6q5 -2 16.5 -6t17.5 -7q8 -3 16 -8q7 -3 8 -9q5 -13 5 -24q3 -71 2 -86q0 -18 -3 -36q0 -2 -2 -6q-1 -2 -1 -3q-2 -2 -6 -2t-5 2l-2 2q0 1 -1.5 3.5t-1.5 4.5q-1 4 -3 10.5t-3.5 12t-2.5 10.5
q-2 15 -13 34q-5 11 -10 19q-13 26 -39 43q-11 8 -24 12q-5 2 -15 4.5t-15 4.5q-2 1 -9 1h-24h-22q-6 -1 -18 -5q-4 0 -6 -1q-1 0 -2 -1l-6 -3q-16 -8 -28 -27q0 -1 -1 -1l-1 -2q-14 -34 -14 -53q-2 -11 0 -21q0 -13 7 -23q2 -5 8 -13q13 -15 28 -28q30 -26 72 -53l75 -48
q7 -4 19 -14q35 -26 57 -47q19 -17 31 -42q14 -33 15 -37q6 -16 7 -26q1 -4 1 -25v-6q2 -17 -10 -47q-1 -3 -3 -7.5t-3 -6.5q-9 -26 -31 -53q-22 -28 -28 -33q-13 -13 -28 -22l-5 -5q-2 -2 0 -5q4 -4 12 -10q11 -7 48 -42q12 -12 22 -30q15 -32 19 -45l2.5 -7.5t2.5 -8.5
t1 -8q1 -8 1 -24v-6q2 -18 -10 -48q-1 -3 -3.5 -8t-2.5 -6q-11 -27 -38 -62q-13 -17 -37 -37q-4 -4 -10 -7q-3 -2 -19 -10l-9 -3q-6 0 -17.5 -3.5t-18.5 -4.5h-6q-18 -6 -45 -6q-66 0 -98 -1q-15 0 -43 2q-2 0 -5 1t-5.5 1.5t-4.5 0.5q-4 1 -13.5 2.5t-13.5 3.5l-29 12l-8 4
q-3 3 -4 5zM160 215v-15q0 -11 7 -23q13 -20 33 -37q7 -5 23 -19q3 -2 7 -6q49 -34 70 -45l2 -1q4 -1 6 1q6 3 10 7q11 15 21 51q1 0 1 3q2 29 -6 51q-3 14 -13 24q-9 10 -27 28q-43 31 -54 36q-27 13 -46 24q-3 2 -8 -3q-10 -9 -12 -17q-5 -12 -10 -26q-2 -3 -2 -9
q-3 -13 -2 -24z" />
    <glyph glyph-name="dieresis" unicode="&#xa8;" horiz-adv-x="329" 
d="M144 619q0 -2 -0.5 -6t-0.5 -6q0 -5 -1 -6q-7 -16 -15 -23q-3 -4 -8 -5q-5 -3 -25 -10q-9 -4 -22 -2q-3 0 -8.5 1.5t-8.5 2.5q-10 2 -21 13q-18 21 -11 49q7 17 16 29q5 7 11 10q17 10 32 9h6q15 0 29 -8q11 -5 16 -14q3 -3 5 -8q5 -7 5 -14q0 -8 1 -12zM245 675
q19 0 34 -6q16 -8 23 -24q7 -13 6 -23v-9q0 -7 -3 -15q-1 -2 -3 -5.5t-3 -5.5q-7 -10 -16 -14q-16 -8 -31 -12q-9 -1 -18 0q-2 1 -6 2t-6 2q-20 4 -32 26q-4 6 -4 11v19q0 3 2 9q8 18 15 27q5 7 14 11q12 7 23 7h2h3z" />
    <glyph glyph-name="copyright" unicode="&#xa9;" horiz-adv-x="564" 
d="M543 382q3 -39 -5 -81q-14 -74 -73 -130t-135 -69q-83 -13 -152 17q-71 31 -109 90q-28 45 -41 95q-7 25 -7 55q-2 60 21 105q17 36 37 60q50 60 113 83q74 27 154 8q68 -16 119.5 -61.5t67.5 -110.5q7 -26 10 -61zM509 304q6 27 4 72q-1 26 -8 54q-15 58 -61.5 99
t-106.5 55q-73 17 -136 -7q-59 -22 -101 -75q-20 -23 -34 -52q-20 -41 -18 -95q0 -23 6 -49q13 -47 37 -84q33 -52 97 -80q62 -27 136 -16q67 11 120 61.5t65 116.5zM284 215h17q4 0 12 2q4 0 10 2q3 1 8 1q1 0 3 0.5t3 0.5v1q16 4 34 15q0 2 2 2q1 1 4 7q1 2 1 7v28v8
q2 3 2 8q-2 6 -7 9h-1l-2 1q-4 0 -6 -2q-4 -3 -7 -7q-1 -2 -3 -8q0 -1 -2 -5q0 -2 -1 -3q0 -1 -1 -2v-1q-1 -5 -5 -13l-4 -6q-2 -1 -5 -4l-5 -5q-6 -4 -9 -5q-6 -2 -7 -2q-2 0 -5.5 -1t-5.5 -2h-1h-2h-6h-12q-1 1 -3 1q-5 1 -13 1l-2 1q-11 3 -20 9l-2 2q-4 3 -6 8
q-3 6 -11 18q0 1 -2 4t-2 5q-2 2 -2 5t-2 9v4q-1 4 -3 10q0 3 -1 4q-1 5 -1 13v4v16v11q2 10 2 17q0 11 2 17v2l3 12l1 2q3 9 9 22l1 1q1 2 5 6q4 7 12 13l3 3q0 1 2 1v1l15 9q9 4 15 4h6h9q6 0 12 -2l1 -1q1 -1 2 -1q3 -1 6 -1q5 -1 6 -3q2 -2 3 -2l9 -6q4 -4 6 -7
q4 -6 6 -10q0 -2 2 -4q2 -4 5 -13q0 -3 1 -4l2 -4v-2h1q2 -6 9 -6h3l2 1q6 5 6 10q0 6 -2 18q0 1 -0.5 3t-0.5 3v2l-1 2v3q-1 3 -1 11v3q0 1 -1 3v2q0 2 -0.5 5t-0.5 4q-2 3 -7 8q-8 6 -19 8h-1l-2 1h-2q-10 2 -11 2q-6 0 -10 1h-7h-9h-2h-8q-1 1 -3 1h-2h-6q-9 0 -12 -1h-4
q-1 0 -3.5 -0.5t-3.5 -1.5q-2 0 -4 -1t-4 -1h-3l-2 -1q-1 0 -2 -1h-2h-4l-2 -1h-1q-3 -2 -9 -5q-6 -4 -10 -5l-9 -6q-4 -1 -10 -6q-1 0 -3 -2q-2 -1 -5 -4l-9 -9q-3 -3 -5 -4q-1 -1 -2.5 -3.5t-2.5 -3.5q0 -1 -1 -2l-2 -2q-2 -2 -10 -16q-1 -2 -2 -5.5t-2 -5.5h-1
q0 -2 -1 -4t-1 -3t-2 -5v-4l-1 -2q-2 -8 -2 -14q0 -1 -0.5 -3t-0.5 -3q-1 -5 -1 -12v-23q1 -3 1.5 -8t0.5 -8q1 -1 1 -3.5t1 -3.5t1 -3l3 -9q2 -4 2 -5q1 -3 5 -9l1 -2q1 -2 1 -3q4 -6 5 -9q1 -1 2.5 -4t2.5 -4q6 -6 9 -12q2 -2 3 -4q14 -18 36 -28q1 -1 3.5 -2t3.5 -2l5 -2
h1h1h2q6 -3 14 -3h7q8 -2 27 -2z" />
    <glyph glyph-name="ordfeminine" unicode="&#xaa;" horiz-adv-x="217" 
d="M181 598l-1 -25q0 -25 1 -25q2 -17 10 -25q3 -3 5 -7q1 -2 -1 -6q-3 -9 -10 -10q-12 -4 -31 -2q-12 0 -19 8q-3 2 -9 8q-5 3 -9 2q-19 -10 -34 -14q-11 -3 -21 -3q-4 0 -6 1q-21 6 -32 26q-2 6 -2 9q-2 9 0 28q0 6 4 14q4 15 19 27q3 4 8 5q11 5 24 6q10 0 30 2q2 0 5 3
t3 5v3q-1 4 -1 11t-1 10q-1 11 -9 20q-5 6 -15 8q-11 1 -18 -3q-10 -5 -15 -11q-3 -4 -10 -11q-2 -3 -6 -2t-6 5q-2 3 0 9q3 8 9 16l6 6q7 5 16 10q24 8 26 9q9 3 18 3q31 -2 53 -22q5 -3 8 -8q10 -13 11 -25q1 -28 0 -55zM108 548q5 5 5 7q1 9 1 25q0 8 -7 10h-14
q-4 0 -6 -1q-15 -3 -17 -19v-6v-3q2 -12 14 -14q8 -1 24 1z" />
    <glyph glyph-name="guillemotleft" unicode="&#xab;" horiz-adv-x="325" 
d="M184 465q-1 -6 -5 -11q-2 -3 -6 -7l-58 -68q-7 -8 -21 -26q-5 -5 1 -11q1 0 2.5 -2t2.5 -2q3 -4 9.5 -10.5l9.5 -9.5l43 -43q10 -8 26 -26q4 -6 -1 -11q-18 -18 -22 -21q-1 -2 -3.5 -3.5t-3.5 -2.5t-4.5 -0.5t-4.5 1.5q-4 2 -5 3q-8 6 -17 18q-12 16 -39 43l-30 31
l-28 28q-2 2 -4.5 5t-3.5 4q-2 2 -2 6t2 6q17 25 22 29q2 1 4 5q9 11 27 30.5t26 29.5l6 6q5 4 27 26l12 9q5 3 12 -1q1 0 2.5 -1.5t2.5 -1.5l5.5 -5.5t6.5 -6t5 -5.5q2 -1 4 -5zM298 464q0 -1 -1 -3t-1 -3q-7 -11 -25 -31q-9 -9 -26 -30t-26 -30q-7 -7 -11 -15q-2 -5 1 -8
l32.5 -33.5t37.5 -36.5t23 -24q4 -7 1 -12l-24 -24q-1 -1 -5 -1q-23 8 -37 26q-13 17 -31 35q-12 11 -34 35l-16 15.5t-16 16.5q-4 3 -5 8q-1 3 0 6q30 39 53 63q1 2 5.5 6.5t6.5 7.5q8 11 26 28.5l21 20.5q2 3 15 10q9 5 14 -2q3 -3 6 -6.5t7 -7t6 -5.5q1 0 1 -1t1 -2
q0 -2 1 -3z" />
    <glyph glyph-name="logicalnot" unicode="&#xac;" horiz-adv-x="358" 
d="M28 361q-5 3 -5 7q-1 5 -1 16q-2 10 -2 15q0 3 3 7t6 4q2 1 6 1q3 1 9 1t9 1q21 3 43 0q20 -2 30 0q9 2 27 2h4q91 0 137 -1q18 0 36 -5q3 0 5 -4q1 -2 1 -6q0 -6 0.5 -19.5t0.5 -20.5q0 -101 1 -122q0 -8 -1 -12q0 -9 -10 -11q-11 -1 -33 1q-8 0 -11 10q0 1 -0.5 4
t-0.5 5v58q0 8 -0.5 26t-0.5 26q0 1 -0.5 3t-0.5 3q0 2 -3 5t-5 3q-1 0 -3 0.5t-3 0.5h-52h-3q-16 -3 -65 -3h-76q-26 0 -42 5z" />
    <glyph glyph-name="registered" unicode="&#xae;" horiz-adv-x="564" 
d="M322 214h3h13h13q13 1 39 1h19h3q8 0 11 7v8q-3 6 -7 6q-1 1 -10 4q-3 0 -5 1q-2 0 -4 1q-1 0 -2.5 1.5t-2.5 1.5q0 1 -1 2.5t-2 2.5q-3 3 -5 7q-2 2 -2 4l-2 2l-3 6q-5 5 -7 11q-1 2 -3 5.5t-3 4.5q-1 2 -3 4l-1 1v2q-2 2 -4 6q-1 1 -4.5 6l-5.5 8q-1 2 -4 6.5t-4 6.5
l-6 9q-1 1 -2.5 4t-2.5 4q5 1 7 4q2 0 3 1q2 2 5 2q3 3 9 7q1 1 5 3q1 1 4.5 4t5.5 5t4 5q1 1 1 2q5 5 8 12q1 1 2 3.5t1 3.5q3 10 3 15v15v3q0 2 -0.5 4t-1 3.5t-1.5 3.5t-1 3l-3 6q-2 4 -6 10l-2 2l-1 2l-11 11q-3 2 -4 3l-1 1q-1 1 -2 1t-2.5 1t-2.5 2q-10 8 -20 9
q-9 3 -15 3h-2h-3q-6 1 -16 1h-4h-23h-57h-27h-10q-7 0 -12 -6q-2 -2 -2 -8q1 -4 5 -6t11 -2l9 -3v-8v-11q1 -7 1 -22v-2v-6v-15v-4v-4v-18v-1q-1 -16 -1 -49v-44v-14v-15q0 -6 -1 -9q0 -6 -1 -9l-2 -2q-6 -2 -8 -2q-6 -2 -8 -2q-2 -2 -4 -2t-3 -1q0 -1 -1 -1q-6 -3 -4 -10
q1 -7 8 -7q3 -1 6 -1h3h3q13 0 39.5 0.5t40.5 0.5h10h5q5 0 9 3q5 5 4 9q-1 7 -5 7q-5 2 -11 4h-2l-4 2l-3 1l-1 1v2v1v41v25q1 6 1 18v1q2 1 5 1h3l1 -1q4 -5 10 -15q1 -1 2.5 -3.5t2.5 -3.5q1 -2 8 -14l1 -2q1 -2 5 -8l6 -9q0 -1 1 -2.5t2 -2.5t1 -2q2 -2 4 -6q3 -2 5 -7
q4 -4 6 -10q0 -1 2 -3q0 -2 1 -2q1 -1 1 -3q-6 0 -12 -3q-2 0 -5 -3q-4 -9 4 -15q4 -2 7 -2h1h9zM253 358h-2v1v3q-1 23 -1 70q0 8 1 12v3v15v5v2q1 1 1 2q6 2 14 2h4h2h1q5 0 7 -2h1h1q3 0 15 -7l2 -2q2 -4 4 -6l1 -1v-2l1 -1q2 -10 2 -12v-1q1 -4 1 -13q2 0 0 -4
q0 -11 -1 -16v-3q-1 -1 -1 -3v-1v-3l-1 -1q-2 -2 -2 -4t-2 -4q-4 -8 -7 -12q-14 -11 -17 -13q-4 -2 -6 -2h-4h-1l-2 -1h-1h-5q-2 -1 -5 -1zM543 382q3 -39 -5 -81q-14 -74 -73 -130t-135 -69q-83 -13 -152 17q-71 31 -109 90q-28 45 -41 95q-7 25 -7 55q-2 60 21 105
q17 36 37 60q50 60 113 83q74 27 154 8q68 -16 119.5 -61.5t67.5 -110.5q7 -26 10 -61zM509 304q6 27 4 72q-2 29 -9 54q-14 58 -60 99t-107 55q-72 16 -137 -7q-59 -23 -100 -75q-20 -23 -34 -52q-19 -39 -19 -95q0 -19 7 -49q13 -47 37 -84q33 -52 97 -80q62 -27 136 -16
q67 11 120 61.5t65 116.5z" />
    <glyph glyph-name="degree" unicode="&#xb0;" horiz-adv-x="260" 
d="M21 617q0 1 1.5 6t2.5 8q2 6 8 16q9 15 24 32q3 5 9 9q18 11 26 14q12 4 24 6q33 0 49 -1q5 0 15 -4q5 -2 10 -5.5l11 -8t10 -6.5l6 -6q7 -9 12 -18q4 -10 5 -15q2 -24 5 -36q1 -6 0 -12q-6 -28 -12 -41q-2 -5 -8 -13q-21 -27 -52 -36q-5 -2 -15 -4q-8 -3 -15 -3
q-21 -1 -52 6q-16 5 -28 12q-3 2 -9 8q-11 9 -17 25q-11 33 -10 67zM144 555q4 1 9 3t7 3q10 5 14 12q1 1 7 10q4 8 4 14q1 6 1 19q0 3 -2 9q-4 10 -9 15q-12 14 -29 17q-12 3 -27 1q-2 0 -6 -2t-14 -6q-16 -9 -24 -26q-2 -3 -4 -9q-5 -17 1 -30q0 -1 2 -5q5 -12 13 -17
q14 -9 26 -9q10 1 31 1z" />
    <glyph glyph-name="plusminus" unicode="&#xb1;" horiz-adv-x="387" 
d="M290 321h49h10q11 -2 13 -11q5 -15 5 -27q-1 -2 -1 -6q0 -5 -4 -8.5t-8 -3.5q-37 0 -55 4q-26 5 -49 -1l-21 -3q-1 0 -3.5 -2.5t-2.5 -3.5t-0.5 -3t-0.5 -3q0 -61 -1 -92q0 -14 -1 -21q0 -4 -3 -9t-9 -7q-21 -2 -31 1q-2 0 -5 3q-2 3 -4 11q-2 24 -2 34q0 13 -2 80
q0 4 -1 6l-4 4q-3 1 -9 1q-14 0 -41.5 0.5t-41.5 1.5h-25q-2 0 -5 1t-4 1q-12 4 -12 16q-1 10 0 21q1 1 1 3t1 3q5 8 13 8q10 1 30 1q43 0 64 2h13t12 1q9 2 9 11v1q1 1 1 2q0 11 0.5 35t0.5 35v40q0 15 17 19q4 1 12 1q9 1 18 0q8 -3 8 -8v-3q0 -35 -2 -53q0 -4 -2 -12
q-1 -12 0 -24q1 -6 4 -36q0 -8 8 -8q10 0 30.5 -0.5t30.5 -1.5zM331 5q-22 2 -33 4q-26 5 -49 -1q-8 -2 -12 -2q-10 0 -41 -1t-48 0q-64 0 -95 1h-13q-3 1 -14 5q-4 3 -6 10v3v22q0 4 3.5 8t7.5 5q5 0 15.5 0.5t15.5 0.5q14 0 40 1t40 1q6 0 9 1q10 2 46 2h6q10 -3 39 -3
q7 0 19 -0.5t18 -0.5h62q6 0 9 -1q4 0 7.5 -4t4.5 -8q3 -14 1 -34q0 -9 -10 -9h-22z" />
    <glyph glyph-name="twosuperior" unicode="&#xb2;" horiz-adv-x="260" 
d="M239 437v-12q1 -6 0 -12v-15v-4q0 -2 -0.5 -4t-0.5 -3v-2q0 -6 -4.5 -10.5t-10.5 -5.5h-17h-5h-3h-6h-18q-12 0 -30 -2q-5 -1 -18 -1h-12h-1q-2 0 -4.5 0.5t-3.5 0.5l-1 1h-5h-4h-1q-7 -2 -18 -2h-5h-5h-4q-4 0 -7 1q-2 1 -6 1.5t-6 0.5h-6q-11 2 -14 11v1q-2 4 -2 8v7
q-2 11 0 23q0 7 4 19q1 1 3 5q7 7 10 8l12 6l3 1q2 2 5.5 5t5.5 4q2 2 7.5 6t6.5 5q1 0 2 2q2 3 6 8.5t5 7.5l1 1q9 12 10 13q2 2 3 6q2 4 13 32q2 8 2 10q2 10 4 16q2 8 2 10v3q1 1 1 4q1 2 1 5v9v4v8v2q0 12 -2 23v1l-1 1q-1 6 -5 6q-4 2 -5 2h-4h-2q-8 0 -15 -4
q-6 -2 -8 -4q-2 0 -4.5 -1t-3.5 -2l-3 -3q-1 0 -2 -1q-10 -7 -14 -17l-1 -1v-1v-2q0 -1 -1 -3.5t-1 -4.5q-1 -4 -6 -12q-5 -5 -12 -5q-8 0 -13 7q-3 4 -5 13q0 9 1 14q3 13 9 23q2 4 4 6l1 2q7 7 10 11q14 15 27 22q2 2 3 2q1 1 2 1l1 1l1 1q1 0 2.5 0.5t2.5 0.5q5 2 13 4
q7 3 14 3h8q8 0 20 -2q5 -1 20 -5q1 -1 6 -2.5t8 -3.5q2 0 3 -1q8 -3 10 -4t5.5 -4t4.5 -3l3 -3l2 -1l1 -1q10 -7 17 -21q1 -3 3 -7l2 -5l1 -1q0 -4 1 -6q2 -6 2 -10q1 -2 1 -6l1 -2q1 -10 0 -19q0 -2 -0.5 -5.5t-1.5 -5.5q0 -6 -2 -12q-1 -2 -1 -6q-1 -4 -3 -6v-1l-3 -6
q-1 -2 -3 -8q-7 -15 -21 -31q-2 -1 -4 -3l-2 -2q-12 -12 -16 -18t-12 -14q-6 -5 -18 -17q-1 -2 -3 -3.5t-4.5 -4l-3.5 -3.5l-3 -3h8h1h50h1q8 0 12 1q2 6 2 8q0 6 1 9q2 9 7 14t11 5q1 0 4 -1q7 -2 10 -9q2 -4 2 -7q0 -8 1 -12v-14v-3z" />
    <glyph glyph-name="threesuperior" unicode="&#xb3;" horiz-adv-x="259" 
d="M237 482v-1q3 -13 1 -32q0 -1 -1 -4t-1 -4v-5l-1 -1q-2 -6 -9 -18l-2 -4q-1 -1 -3 -4q-13 -13 -27 -24q-2 -1 -5.5 -2.5t-5.5 -2.5q-3 -1 -7 -2.5t-9 -3t-8 -2.5h-3h-1q-12 -4 -29 -4h-9q-5 1 -16 1h-4q-9 0 -15 3q-3 0 -5 1q-3 0 -7 2q-3 0 -17 6q-8 6 -11 9l-1 2
q-1 2 -2 2q-1 1 -3 3.5t-3 3.5q-3 3 -5 8q-7 11 -7 25v3v12q0 4 2 6q5 9 15 9h3q10 -1 14 -11l3 -9v-4l1 -2q3 -14 14 -29q3 -3 6 -3q4 0 10 -2q3 -1 11 -1h1q15 0 27 3l6 3q2 2 4 6q0 1 2 4t2 4t1 1v3q1 2 1.5 5t0.5 5v16q-2 10 -2 14q0 2 -2 10q0 1 -0.5 2t-0.5 2v1l-1 1
l-1 1q0 2 -1 2q-1 3 -3 7q0 2 -2 4q-2 5 -6 7q-4 4 -10 6q-4 1 -11 1q-5 0 -7 1h-2q-7 0 -12 5t-5 12q-2 4 0 9q2 14 14 19q3 1 8 2t7 2h1l4 2q7 3 11 9q2 2 4 6q2 6 3 8q3 14 3 26v1v8q0 4 -2 16q-1 2 -1 6q-1 0 -1 1v1q-1 1 -1 2q-2 4 -7 9l-3 3q-4 2 -7 5h-1l-1 1
q-3 0 -7 0.5t-5 0.5q-5 0 -11 -2h-1h-1q-5 -2 -13 -9q-6 -4 -10 -13q0 -3 -2 -7q-1 -3 -1 -8q-2 -17 -19 -15q-11 0 -16 10q-2 8 -1 12q2 16 10 30q3 6 4 7h1q1 2 6 7l2 1q16 12 25 16q12 6 20 7q8 2 14 2h2h1h5h3h5q13 0 25 -3q10 -2 15 -4q8 -2 12 -6q11 -5 19 -12
q10 -8 13 -12l4 -4q11 -17 16 -34q2 -6 2 -9v-24q0 -8 -4 -14q-5 -10 -12 -21q-5 -6 -15 -13l-2 -2l-4 -2q6 -4 9 -7q6 -5 21 -21q6 -7 14 -25q2 -4 2 -6q0 -3 1 -3z" />
    <glyph glyph-name="acute" unicode="&#xb4;" horiz-adv-x="230" 
d="M39 548q-2 0 -4 0.5t-3 0.5q-9 2 -11 13q-2 14 8 22q51 40 53 41q12 8 18 13q8 4 14 11q17 13 55 33q2 1 6 1q7 1 14 -5q1 -1 2 -2.5t1 -2.5q11 -19 13 -34q2 -6 4 -18q1 -3 1 -9q-2 -8 -9 -12q-4 -2 -6 -2q-15 -4 -37 -13q-19 -7 -54.5 -18.5t-49.5 -16.5q-5 -2 -15 -2z
" />
    <glyph glyph-name="mu" unicode="&#xb5;" horiz-adv-x="574" 
d="M551 12q3 -3 2 -6q0 -2 -3 -4h-1q-1 -1 -2 -1h-6h-142q-12 0 -18 1q-4 0 -8 4t-4 8q-1 8 -1 25v15v15l-1 2q0 1 -1 1q-3 2 -5 0l-3 -2q-3 -4 -34 -32q-7 -6 -35 -25q-11 -7 -28 -12q-12 -5 -17 -6h-28q-8 0 -12 1l-9 2v-234q0 -16 -6 -22q-5 -5 -12 -6t-21.5 0t-20.5 1
h-43q-10 0 -16 4.5t-8 13.5t-2 16.5t1 19.5t1 16q-2 93 0 278q0 3 -1 5q-1 3 -1 9v50l2 74v0v12q0 78 1 117q0 37 2 55q1 9 1 28q-2 19 -13 30q-6 6 -10 8q-3 2 -8.5 4t-8.5 3l-8 4q-4 3 -4 8q0 2 2 6q5 7 12 8h28l105 -2q10 0 20 -5q7 -5 9 -12q1 -3 1 -10q1 -8 1 -24
q0 -19 -0.5 -56t-0.5 -55q-1 -117 0 -234q0 -8 1 -12q2 -14 14 -19q4 -1 20 -7q3 -1 10 -1q14 -2 43 0q6 2 9 2l11 4q10 1 20 8q4 2 32 20q6 3 11 10q2 4 2 6q1 3 1 9v65q0 12 1 18q2 13 2 40t0.5 80t0.5 80q0 16 1 25q0 19 -14 33l-5 4q-18 8 -22 10l-5 3q-5 5 -3 9
q0 4 5 7q2 0 6 2h6h123q13 0 24 -4q7 -3 8 -9q5 -15 5 -27q0 -84 -1 -126v-12q-2 -9 -2 -37v-56v-18q2 -9 2 -43q0 -66 2 -99v-15q0 -9 6 -27q3 -7 11 -10q6 -2 9 -2q5 -1 15 -5q1 0 5 -2z" />
    <glyph glyph-name="paragraph" unicode="&#xb6;" horiz-adv-x="358" 
d="M334 305q0 -212 1 -319q0 -26 2 -39q0 -19 -1 -22q0 -8 -8 -8q-18 -1 -37 0q-7 0 -7 8q0 1 -0.5 4t-0.5 5v25v644v61v15q0 14 -16 15q-17 0 -32 -6q-4 -1 -6 -7q0 -2 -0.5 -6t-0.5 -6v-80q0 -432 1 -647q0 -12 -1 -18q-2 -4 -4 -5l-1 -1h-2q-12 -1 -37 -1q-8 3 -8 8
q0 1 -0.5 3t-0.5 3v28v506q0 23 -1 27q0 4 -6 7h-6h-16q-28 0 -42 4q-1 1 -4 1t-5 1q-5 0 -15 4q-2 1 -7.5 3.5t-8.5 4.5q-4 2 -10 8q-13 11 -23 32q-4 13 -5 18q0 2 -1 6t-1 6q-3 10 -3 30q-1 24 11 47q2 6 4 8q15 28 45 39q6 3 12 3q8 1 22 1h119q5 0 20 0.5t23 1.5
q10 2 19 0l30 -3q11 -2 11 -13v-6q-2 -9 -2 -28q0 -11 -0.5 -35t-0.5 -35v-292z" />
    <glyph glyph-name="periodcentered" unicode="&#xb7;" horiz-adv-x="144" 
d="M74 302h-9q-18 2 -31 13q-4 4 -6 7q-8 8 -8 19q0 12 1 18q0 7 4 11q1 2 3 5.5t3 5.5q7 10 18 16q8 4 11 4q6 1 19 1q12 0 25 -8q12 -9 16 -22q5 -11 2 -23l-3 -15q-1 -3 -6 -14q-10 -17 -27 -17q-4 -1 -12 -1z" />
    <glyph glyph-name="cedilla" unicode="&#xb8;" horiz-adv-x="189" 
d="M168 -104l-3 -12q-5 -13 -13 -20q-15 -15 -36 -23q-18 -5 -33 -5q-20 0 -36 14q-14 13 -23 29q-6 13 -1 27q5 11 16 14q2 1 8 -2q8 -6 10 -8q1 -1 3.5 -3l4.5 -3.5t4 -2.5l6 -3q8 -2 12 6q2 3 2 9q-3 12 -9 19q-6 6 -10 8q-3 2 -8.5 5t-7.5 4q-8 6 -6 16q1 9 7 27
q2 6 4 18q1 12 8 23q1 5 6 6q1 1 4 1t5 1q13 5 24 -1l4 -1q3 -1 5 -2q4 -1 6 -7q1 -2 1 -9q-2 -16 -4 -24q-3 -9 6 -15q2 -1 5.5 -3t4.5 -3q6 -3 15 -12q10 -10 15 -26q0 -1 0.5 -3t0.5 -3q4 -9 4 -21q-1 -5 -1 -15z" />
    <glyph glyph-name="onesuperior" unicode="&#xb9;" horiz-adv-x="230" 
d="M193 409q9 -2 13 -8q6 -8 3 -15q-2 -12 -16 -14h-1h-10h-4q-10 0 -15 -1h-10q-5 0 -8 -1h-10h-3q-7 -1 -21 -1q-36 0 -56 -1h-7h-8q-16 0 -19 18q-2 6 4 12q5 7 11 7q3 1 8 1h2q6 0 13 3q6 1 11 5q1 2 1 5q0 14 1 21v11v1l1 2v21q0 23 1 37v10v1v14v11q0 17 -1 28v25v2
q-1 -1 -3 -2t-3 -2q-6 -4 -13 -3q-9 0 -14 8q-3 6 -1 14q1 0 1 2t1 2q1 2 3 4l1 1q1 1 1 2q6 9 7 11l7 14l1 1q1 1 1 2t2 3.5t2 3.5q4 4 7 6q2 2 4 2q8 6 14 8q1 0 2.5 1t2.5 2q2 1 5.5 2t5.5 2q4 1 23 11q7 4 16 3q12 -2 13 -12q1 -1 1 -4q0 -1 0.5 -3t0.5 -3v-6
q0 -12 1 -17v-1v-1q0 -6 1 -9v-21v-66v-26v-26v-81q0 -2 0.5 -5.5t0.5 -5.5q1 0 1 -1q6 -2 11 -4h1h1h5h10z" />
    <glyph glyph-name="ordmasculine" unicode="&#xba;" horiz-adv-x="236" 
d="M119 499h-15q-3 0 -9 2q-20 6 -34 19q-6 6 -10 8q-13 10 -21 26q-2 2 -4 8v1q-1 1 -1 2q0 3 -2.5 13.5t-1.5 16.5q0 6 5 36q0 2 2 6q5 13 10 22q11 19 26 30q10 8 24 13q12 5 24 5q18 0 27 -3l12 -3q15 -3 26 -14q2 -2 4.5 -4t5 -5t3.5 -4q2 -2 10 -15q1 -2 3 -5.5
t3 -5.5q14 -27 8 -59q-3 -23 -14 -43q-2 -3 -6 -8t-5 -7q-16 -19 -40 -28q-12 -4 -18 -4h-12zM120 526q1 0 3 1t3 1q6 1 9 8q5 15 7 36q0 21 3 42q3 13 1 30q0 4 -1 6q-1 6 -5 18q-1 4 -6 11q-3 3 -4 3q-8 4 -18 1q-5 -2 -7 -5q-2 -1 -4 -5q-5 -11 -14 -49q-2 -48 5 -67
q0 -1 1 -4t1 -5q5 -16 21 -20q1 0 2.5 -0.5t2.5 -1.5z" />
    <glyph glyph-name="guillemotright" unicode="&#xbb;" horiz-adv-x="326" 
d="M51 213q-3 0 -5 2l-24 24q-3 3 -1 8q12 14 28 29l41 41q12 14 26 26q4 6 1 9q-1 2 -23 29l-58 67q-6 8 -8 13t1 8q13 13 20 19q8 8 19 0q1 -1 3.5 -2.5t3.5 -2.5t2 -2.5t2.5 -2.5t2.5 -2q5 -5 15.5 -14.5t14.5 -15.5l27 -29q2 -2 6 -6.5t6 -7.5q9 -12 18 -21q6 -6 20 -27
q1 -2 1 -6l-3 -6q-1 -2 -4 -5l-30 -30q-9 -10 -28 -29q-21 -19 -39 -42q-2 -3 -6 -7q-19 -14 -23 -16q-1 -1 -6 -1zM174 492q3 0 3 -1q8 -3 15 -10q11 -10 31 -30l33 -36q2 -3 10.5 -13t13.5 -15l13.5 -17t10.5 -14q4 -4 0 -9q-4 -6 -5 -7l-20 -20q-11 -11 -16 -18
q-3 -3 -8.5 -9t-8.5 -9q-16 -14 -44 -46q-10 -11 -23 -21q-1 0 -2.5 -0.5t-2.5 -1.5q-6 -4 -12 0q-3 2 -8.5 7.5l-7.5 7.5q-3 2 -9 8q-3 3 -1 8q1 1 2 3l2 2q12 14 26 26l37 37l27 29q2 1 2.5 5t-1.5 6q-1 0 -1 1t-1 2l-4 4q-2 3 -20 24l-27 32q-17 19 -32 38q-1 1 -3 5
q-1 2 -1 4.5t2 3.5l19 19q7 4 9 5h2z" />
    <glyph glyph-name="onequarter" unicode="&#xbc;" horiz-adv-x="691" 
d="M233 -9q-14 0 -19 1q-9 1 -14 9q-4 4 -2 7l8.5 29t8.5 28q2 5 9 24t10 29l12 36q2 9 8 27q1 4 6 16.5t7 19.5q3 13 11 37q2 6 5.5 18.5t5.5 18.5l6.5 23t7.5 24q11 30 25 73q3 8 6 17.5l6.5 21.5t5.5 18q7 18 19 56l22 74q9 32 21 63q4 10 14 28q5 11 19 14q16 3 35 1
q3 0 4 -1l6 -3q4 -6 3 -10q-7 -15 -13 -32l-15 -40q-3 -9 -3 -10l-6 -23.5l-6 -23.5q-9 -33 -11 -44q-5 -20 -16 -50q-1 -3 -5.5 -18t-6.5 -23q-26 -77 -31 -89q-12 -26 -22 -62l-9 -27q-22 -64 -32 -97q-1 -5 -15 -46q-2 -5 -5.5 -17.5l-5.5 -19.5q-3 -7 -6.5 -20t-4.5 -17
q-4 -10 -10 -30q-3 -8 -10 -8q-9 -2 -23 -2zM193 410q9 -2 13 -8q6 -8 3 -15q-2 -12 -16 -14h-1h-10h-4q-10 0 -15 -1h-10q-5 0 -8 -1h-10h-3q-7 -1 -21 -1q-36 0 -56 -1h-7h-8q-16 0 -19 18q-2 6 4 12q5 7 11 7q3 1 8 1h2q6 0 13 3q6 1 11 5q1 2 1 5q0 14 1 21v11v1
q1 1 1 2v21q0 23 1 37v10v1v14v11q0 17 -1 28v25v2q-1 0 -3 -2t-3 -2q-6 -4 -13 -3q-9 0 -14 8q-3 6 -1 14q1 1 1 2q0 2 1 2q1 2 3 4q0 1 1 1l1 2q6 9 7 11q1 1 2.5 4t2.5 5.5t2 4.5q0 1 1 1l1 2q0 1 2 3.5t2 3.5q4 4 7 6q2 2 4 2q8 6 14 8q1 1 2.5 2t2.5 1q2 0 5.5 2t5.5 2
l23 11q7 4 16 3q12 -2 13 -12q1 -1 1 -4q0 -1 0.5 -3t0.5 -3v-6q0 -12 1 -17v-1v-1q0 -6 1 -9v-21v-66v-26v-26v-81q0 -2 0.5 -5.5t0.5 -5.5q1 0 1 -1q6 -2 11 -4h1h1h5h10zM671 142q-3 -13 -17 -15q-12 -2 -17 -2v-5v-7q1 -20 1 -60v-6v-3q0 -1 1 -2q6 -2 7 -2h6l1 -1
q15 -2 13 -19l-2 -4q-1 -3 -3 -5q-4 -4 -9 -5h-9h-34h-27q-2 0 -8 -0.5t-8 -0.5h-16h-15q-12 2 -15 12q-2 9 4 15l2 3l3 1q2 0 5.5 1t5.5 2q2 0 3 1q0 1 0.5 3.5t0.5 3.5v25q1 5 1 13v15q0 12 2 18v6h-6h-36h-35h-14h-11h-3q-13 0 -15 13q-3 11 3 20l1 2l6.5 9.5t7.5 9.5
l17 23l2 3l1 1q6 8 9 11l1 1q4 7 10 13l4 4q1 2 3.5 6t4.5 6l4 4q10 15 19 24q2 2 5 5.5t4 5.5q12 14 18 20q8 10 11 13t9 11q1 1 2 2.5t2 2.5q7 5 16 7h1h3q4 0 6 -1q5 -1 16 -1h3q5 0 8 -1q11 -3 12 -13q1 -1 1 -5v-10q0 -22 -1 -34v-8v-56q0 -6 -0.5 -18t-0.5 -17
q0 -2 0.5 -6t0.5 -6h2h7q2 0 4 -0.5t3 -0.5q14 0 19 -15v-7zM514 163q7 1 21 1h12q0 6 0.5 16.5t0.5 15.5v5v6v10v15q-1 -1 -7 -8.5t-10 -11.5l-3 -3l-2 -2v-1l-1 -2l-3 -3q-2 -2 -5 -5.5t-4 -5.5q-8 -8 -14 -17q-7 -7 -10 -11h21q2 0 4 1z" />
    <glyph glyph-name="onehalf" unicode="&#xbd;" horiz-adv-x="732" 
d="M233 -9q-14 0 -19 1q-9 1 -14 9q-4 4 -2 7l8.5 29t8.5 28q2 5 9 24t10 29l12 36q2 9 8 27q1 4 6 16.5t7 19.5q3 13 11 37q2 6 5.5 18.5t5.5 18.5l6.5 23t7.5 24q11 30 25 73q3 8 6 17.5l6.5 21.5t5.5 18q7 18 19 56l22 74q9 32 21 63q4 10 14 28q5 11 19 14q16 3 35 1
q3 0 4 -1l6 -3q4 -6 3 -10q-7 -15 -13 -32l-15 -40q-3 -9 -3 -10l-6 -23.5l-6 -23.5q-9 -33 -11 -44q-5 -20 -16 -50q-1 -3 -5.5 -18t-6.5 -23q-26 -77 -31 -89q-12 -26 -22 -62l-9 -27q-22 -64 -32 -97q-1 -5 -15 -46q-2 -5 -5.5 -17.5l-5.5 -19.5q-3 -7 -6.5 -20t-4.5 -17
q-4 -10 -10 -30q-3 -8 -10 -8q-9 -2 -23 -2zM193 410q9 -2 13 -8q6 -8 3 -15q-2 -12 -16 -14h-1h-10h-4q-10 0 -15 -1h-10q-5 0 -8 -1h-10h-3q-7 -1 -21 -1q-36 0 -56 -1h-7h-8q-16 0 -19 18q-2 6 4 12q5 7 11 7q3 1 8 1h2q6 0 13 3q6 1 11 5q1 2 1 5q0 14 1 21v11v1
q1 1 1 2v21q0 23 1 37v10v1v14v11q0 17 -1 28v25v2q-1 0 -3 -2t-3 -2q-6 -4 -13 -3q-9 0 -14 8q-3 6 -1 14q1 1 1 2q0 2 1 2q1 2 3 4q0 1 1 1l1 2q6 9 7 11q1 1 2.5 4t2.5 5.5t2 4.5q0 1 1 1l1 2q0 1 2 3.5t2 3.5q4 4 7 6q2 2 4 2q8 6 14 8q1 1 2.5 2t2.5 1q2 0 5.5 2t5.5 2
l23 11q7 4 16 3q12 -2 13 -12q1 -1 1 -4q0 -1 0.5 -3t0.5 -3v-6q0 -12 1 -17v-1v-1q0 -6 1 -9v-21v-66v-26v-26v-81q0 -2 0.5 -5.5t0.5 -5.5q1 0 1 -1q6 -2 11 -4h1h1h5h10zM711 70v-12q1 -6 0 -12v-15v-4q0 -2 -0.5 -4t-0.5 -3v-2q0 -6 -4.5 -10.5t-10.5 -5.5h-17h-5h-3h-6
h-18q-12 0 -30 -2q-5 -1 -18 -1h-12h-1q-2 0 -4.5 0.5t-3.5 0.5l-1 1h-5h-4h-1q-7 -2 -18 -2h-5h-5h-4q-4 0 -7 1q-2 1 -6 1.5t-6 0.5h-6q-11 2 -14 11v1q-2 4 -2 8v7q-2 11 0 23q0 7 4 19q1 1 3 5q7 7 10 8l12 6l3 1q2 2 5.5 5t5.5 4q2 2 7.5 6t6.5 5q1 0 2 2q2 3 6 8.5
t5 7.5l1 1q9 12 10 13q2 1 3 6q2 4 13 32q2 8 2 10q2 10 4 16q2 8 2 10v3q1 1 1 4q1 2 1 5v9v4v8v2q0 12 -2 23q0 1 -0.5 1t-0.5 1q-1 6 -5 6q-4 2 -5 2h-4h-2q-8 0 -15 -4q-6 -2 -8 -4q-1 -1 -3.5 -2t-4.5 -1l-3 -3q-1 0 -2 -1q-10 -7 -14 -17q0 -1 -0.5 -1t-0.5 -1v-2
q0 -2 -1 -4t-1 -4q-1 -4 -6 -12q-5 -5 -12 -5q-8 0 -13 7q-3 3 -5 13q0 9 1 14q3 13 9 23q2 4 4 6l1 2q7 7 10 11q14 15 27 22q2 2 3 2q1 1 2 1l1 1l1 1q1 0 2.5 0.5t2.5 0.5q5 2 13 4q7 3 14 3h8q8 0 20 -2q5 -1 20 -5q1 -1 6 -2.5t8 -3.5q2 0 3 -1q8 -3 10 -4t5.5 -4
t4.5 -3l3 -3l2 -1l1 -1q10 -7 17 -21q1 -3 3 -7l2 -5l1 -1q0 -4 1 -6q2 -6 2 -10q1 -2 1 -6l1 -2q1 -10 0 -19q0 -2 -0.5 -5.5t-1.5 -5.5q0 -6 -2 -12q-1 -2 -1 -6q-1 -5 -3 -6v-1l-3 -6q-1 -2 -3 -8q-7 -15 -21 -31q-2 -1 -4 -3l-2 -2q-12 -12 -16 -18t-12 -14
q-6 -5 -18 -17l-11 -11l-3 -3h8h1h50h1q8 0 12 1q2 6 2 8q0 6 1 9q2 9 7 14t11 5h2l2 -1q7 -2 10 -9q2 -4 2 -7q0 -8 1 -12v-14v-3z" />
    <glyph glyph-name="threequarters" unicode="&#xbe;" horiz-adv-x="691" 
d="M233 -9q-14 0 -19 1q-9 1 -14 9q-4 4 -2 7l8.5 29t8.5 28q2 5 9 24t10 29l12 36q2 9 8 27q1 4 6 16.5t7 19.5q3 13 11 37q2 6 5.5 18.5t5.5 18.5l6.5 23t7.5 24q11 30 25 73q3 8 6 17.5l6.5 21.5t5.5 18q7 18 19 56l22 74q9 32 21 63q4 10 14 28q5 11 19 14q16 3 35 1
q3 0 4 -1l6 -3q4 -6 3 -10q-7 -15 -13 -32l-15 -40q-3 -9 -3 -10l-6 -23.5l-6 -23.5q-9 -33 -11 -44q-5 -20 -16 -50q-1 -3 -5.5 -18t-6.5 -23q-26 -77 -31 -89q-12 -26 -22 -62l-9 -27q-22 -64 -32 -97q-1 -5 -15 -46q-2 -5 -5.5 -17.5l-5.5 -19.5q-3 -7 -6.5 -20t-4.5 -17
q-4 -10 -10 -30q-3 -8 -10 -8q-9 -2 -23 -2zM671 142q-3 -13 -17 -15q-12 -2 -17 -2v-5v-7q1 -20 1 -60v-6v-3q0 -1 1 -2q6 -2 7 -2h6l1 -1q15 -2 13 -19l-2 -4q-1 -3 -3 -5q-4 -4 -9 -5h-9h-34h-27q-2 0 -8 -0.5t-8 -0.5h-16h-15q-12 2 -15 12q-2 9 4 15l2 3l3 1q2 0 5.5 1
t5.5 2q2 0 3 1q0 1 0.5 3.5t0.5 3.5v25q1 5 1 13v15q0 12 2 18v6h-6h-36h-35h-14h-11h-3q-13 0 -15 13q-3 11 3 20l1 2l6.5 9.5t7.5 9.5l17 23l2 3l1 1q6 8 9 11l1 1q4 7 10 13l4 4q1 2 3.5 6t4.5 6l4 4q10 15 19 24q2 2 5 5.5t4 5.5q12 14 18 20q8 10 11 13t9 11q1 1 2 2.5
t2 2.5q7 5 16 7h1h3q4 0 6 -1q5 -1 16 -1h3q5 0 8 -1q11 -3 12 -13q1 -1 1 -5v-10q0 -22 -1 -34v-8v-56q0 -6 -0.5 -18t-0.5 -17q0 -2 0.5 -6t0.5 -6h2h7q2 0 4 -0.5t3 -0.5q14 0 19 -15v-7zM514 163q7 1 21 1h12q0 6 0.5 16.5t0.5 15.5v5v6v10v15q-1 -1 -7 -8.5t-10 -11.5
l-3 -3l-2 -2v-1l-1 -2l-3 -3q-2 -2 -5 -5.5t-4 -5.5q-8 -8 -14 -17q-7 -7 -10 -11h21q2 0 4 1zM237 473v-1q3 -13 1 -32q0 -2 -1 -4.5t-1 -3.5v-5l-1 -1q-2 -6 -9 -18l-2 -4q-1 -1 -3 -4q-13 -14 -27 -24q-2 -1 -5.5 -2.5t-5.5 -2.5q-3 -1 -7 -2.5t-9 -3t-8 -2.5h-3h-1
q-12 -4 -29 -4h-9q-5 1 -16 1h-4q-9 0 -15 3q-3 0 -5 1q-3 0 -7 2q-3 0 -17 6q-8 6 -11 9q0 1 -1 2l-2 2t-3 3.5t-3 3.5q-3 4 -5 8q-7 11 -7 25v3v12q0 4 2 6q5 9 15 9h3q10 -1 14 -11l3 -9v-4l1 -2q3 -14 14 -29q3 -3 6 -3q4 0 10 -2q3 -1 11 -1h1q15 0 27 3q4 1 6 3t4 6
q0 2 2 4.5t2 3.5t1 1v3q1 2 1.5 5t0.5 5v16q-2 10 -2 14q0 2 -2 10l-1 2v2v1l-1 1q-1 0 -1 1t-1 2q-1 3 -3 7q0 2 -2 4q-2 4 -6 7q-4 4 -10 6q-4 1 -11 1q-5 0 -7 1h-2q-7 0 -12 5t-5 12q-2 4 0 9q2 14 14 19q3 0 8 2t7 2h1l4 2q7 3 11 9q2 2 4 6q2 6 3 8q3 13 3 26v1v8
q0 4 -2 16q-1 2 -1 6q-1 0 -1 1v1l-1 2q-2 4 -7 9l-3 3q-4 2 -7 5h-1l-1 1q-3 0 -7 0.5t-5 0.5q-5 0 -11 -2h-1h-1q-5 -2 -13 -9q-6 -4 -10 -13q0 -3 -2 -7q-1 -3 -1 -8q-2 -17 -19 -15q-11 0 -16 10q-2 8 -1 12q2 16 10 30q3 6 4 7h1q1 2 6 7l2 1q16 12 25 16q12 6 20 7
q8 2 14 2h2h1h5h3h5q13 0 25 -3q10 -2 15 -4q8 -2 12 -6q11 -5 19 -12q10 -8 13 -12l4 -4q11 -17 16 -34q2 -6 2 -9v-24q0 -8 -4 -14q-5 -11 -12 -21q-5 -6 -15 -13l-2 -2l-4 -2q6 -4 9 -7q6 -5 21 -21q6 -7 14 -25q2 -4 2 -6q0 -3 1 -3z" />
    <glyph glyph-name="questiondown" unicode="&#xbf;" horiz-adv-x="445" 
d="M244 302h-9q-17 1 -30 14q-7 7 -9 12q-8 14 -3 29q6 26 30 41q3 3 8 3q7 1 21 1q12 0 18 -5q1 -1 5 -3t5 -3q4 -2 5 -4q9 -13 9 -25t-1 -18q-1 -14 -9 -26q-1 -4 -6 -7q-10 -9 -25 -9h-9zM267 150q-1 -9 -1 -17q0 -11 -7 -46q-4 -15 -12 -31q-15 -29 -30 -53l-20 -35
q-10 -21 -15 -44q-2 -6 -2 -11q0 -26 1 -39q5 -36 25 -64q11 -14 25 -25q6 -4 10 -4q8 -1 29 -5q2 -1 14 -1q4 1 12.5 2t12.5 2q20 3 36 16q19 17 36 36q12 15 16 32q1 2 2.5 6.5t2.5 6.5q6 8 13 4q11 -6 9 -18q-6 -35 -28 -70q-4 -8 -11 -14q-15 -16 -30 -26
q-32 -18 -48 -25q-14 -4 -21 -5t-20 -2.5t-20 -2.5q-15 -3 -36 1q-6 1 -18 2.5t-18 2.5q-16 3 -17 3q-18 5 -44 16q-6 3 -17.5 9.5t-14.5 8.5q-9 7 -18 17q-28 33 -36 67q-5 25 -5 32q0 4 -0.5 12.5t-0.5 12.5q-3 35 23 71q27 36 65 62l18 12q5 2 21 14q9 8 29 22
q22 11 36 34q10 14 18 32q9 18 9 38q0 18 1 22q2 4 8 7q6 1 12 -3.5t7 -9.5v-11q0 -22 -1 -41z" />
    <glyph glyph-name="Agrave" unicode="&#xc0;" 
d="M84 31q8 5 12 10q7 7 8 12q2 5 10 29l47 142q3 11 7 20q2 6 2 9q2 9 11 38l12 40q1 4 3.5 10.5t4 12t1.5 10.5q0 1 0.5 3t0.5 3q10 29 26 87q5 18 17 52q9 29 11 38l6 27q2 5 4.5 14.5t3.5 11.5q2 5 4 14.5t4 14.5q0 3 1 7.5t1.5 8.5t0.5 8v10q-2 10 -12 12h-27
q-13 0 -19 1q-1 0 -4 3q-4 4 1 9q3 3 4 3q1 1 4 1t5 1q13 0 37 2q10 0 15 2q7 2 21 2q9 0 27.5 -0.5t27.5 -0.5q10 0 15 -1q2 0 43 -3h9q15 -3 24 -18q2 -3 5 -11.5t6 -12.5q3 -6 7.5 -16.5t6.5 -14.5q8 -18 11 -28q4 -13 13 -37l12 -32q4 -7 5 -14q5 -14 17 -42
q13 -28 31 -86l12 -41q1 -1 1 -3q11 -25 12 -28q2 -6 6.5 -16.5t5.5 -14.5q8 -18 13 -27q10 -21 28 -65q1 -4 5 -14q8 -16 12 -31q9 -31 30 -83q2 -6 3 -8q7 -13 18 -17q17 -6 20 -6q2 0 23 -6q4 -1 6 -5t0 -7q-4 -11 -13 -11h-9q-50 -1 -150 -1l-54 -3q-22 -3 -49 -1
q-8 4 -10 7q-3 3 -1.5 8.5t6.5 6.5q1 0 3 0.5t3 0.5l18 3l18 3q4 1 16 8q1 1 6 8q2 4 1 8q-3 7 -7.5 21t-6.5 19q-6 17 -9 33q-2 8 -3 11q-4 12 -12 32.5t-11 30.5t-11 22q-4 6 -13 6h-6q-9 -2 -28 -2q-1 0 -121 -3q-13 0 -19 -2q-22 -3 -45 -3q-26 0 -40 -2q-3 0 -8 -3
q-3 -1 -4 -4q-2 -4 -3 -11.5t-2 -9.5q-4 -7 -8 -23l-3.5 -10l-3.5 -10q-1 -4 -3.5 -13t-3.5 -13q-2 -11 -8 -33q-3 -7 -3 -21q0 -13 13 -23q1 0 2 -1l6 -3q4 -2 12 -4t11 -3q2 -1 4.5 -1.5t5.5 -1t5 -0.5h24h6t6 -1q8 -2 24 -3.5t19 -1.5q4 0 7 -5q2 -2 0.5 -5.5t-4.5 -4.5
q-1 0 -2.5 -0.5t-2.5 -0.5q-3 0 -11 -0.5t-11 -0.5h-243h-25q-1 0 -3 0.5t-3 0.5q-3 1 -4 4q-2 3 2 5q5 5 13 7q2 0 8.5 0.5t9.5 1.5q41 10 50 13zM317 247q11 0 24.5 0.5t30.5 1.5t27 1q8 0 12 1q19 3 39 3h18q6 2 4 7q-1 2 -3 5.5t-3 5.5q-15 35 -21 56q-4 12 -6 17
q-2 4 -8 17.5t-9 21.5q-19 41 -22 50q-1 3 -3.5 7t-3.5 7t-4.5 10.5l-5.5 11.5q-12 24 -17 36q-7 19 -11 34q-1 5 -4 14t-4 13q-2 8 -8 22q0 1 -1 2.5l-2 3t-1 2.5q-3 4 -5 2q-4 -2 -4 -4q-2 -5 -3.5 -10.5t-3 -12l-2.5 -10.5q-3 -14 -8 -23q-4 -7 -5 -14q-2 -6 -6 -20
q-1 -4 -4 -15t-6 -17t-27 -77q-11 -36 -17 -62q-13 -50 -23 -72q-1 -2 -1 -9q-1 -2 3 -4q3 -2 9 -2h85zM430 748q-10 0 -15 2q-14 5 -49.5 16.5t-54.5 18.5q-23 9 -37 13q-2 0 -6 2q-8 4 -9 12q0 6 1 9q2 12 4 18q2 15 13 34q1 1 2 2.5t1 2.5q6 6 14 5q4 0 6 -1
q38 -20 55 -33q7 -7 14 -11q6 -5 18 -13q2 -1 53 -41q10 -8 8 -22q-2 -11 -11 -13q-1 0 -3 -0.5t-4 -0.5z" />
    <glyph glyph-name="Aacute" unicode="&#xc1;" 
d="M84 31q8 5 12 10q7 7 8 12q2 5 10 29l47 142q3 11 7 20q2 6 2 9q2 9 11 38l12 40q1 4 3.5 10.5t4 12t1.5 10.5q0 1 0.5 3t0.5 3q10 29 26 87q5 18 17 52q9 29 11 38l6 27q2 5 4.5 14.5t3.5 11.5q2 5 4 14.5t4 14.5q0 3 1 7.5t1.5 8.5t0.5 8v10q-2 10 -12 12h-27
q-13 0 -19 1q-1 0 -4 3q-4 4 1 9q3 3 4 3q1 1 4 1t5 1q13 0 37 2q10 0 15 2q7 2 21 2q9 0 27.5 -0.5t27.5 -0.5q10 0 15 -1q2 0 43 -3h9q15 -3 24 -18q2 -3 5 -11.5t6 -12.5q3 -6 7.5 -16.5t6.5 -14.5q8 -18 11 -28q4 -13 13 -37l12 -32q4 -7 5 -14q5 -14 17 -42
q13 -28 31 -86l12 -41q1 -1 1 -3q11 -25 12 -28q2 -6 6.5 -16.5t5.5 -14.5q8 -18 13 -27q10 -21 28 -65q1 -4 5 -14q8 -16 12 -31q9 -31 30 -83q2 -6 3 -8q7 -13 18 -17q17 -6 20 -6q2 0 23 -6q4 -1 6 -5t0 -7q-4 -11 -13 -11h-9q-50 -1 -150 -1l-54 -3q-22 -3 -49 -1
q-8 4 -10 7q-3 3 -1.5 8.5t6.5 6.5q1 0 3 0.5t3 0.5l18 3l18 3q4 1 16 8q1 1 6 8q2 4 1 8q-3 7 -7.5 21t-6.5 19q-6 17 -9 33q-2 8 -3 11q-4 12 -12 32.5t-11 30.5t-11 22q-4 6 -13 6h-6q-9 -2 -28 -2q-1 0 -121 -3q-13 0 -19 -2q-22 -3 -45 -3q-26 0 -40 -2q-3 0 -8 -3
q-3 -1 -4 -4q-2 -4 -3 -11.5t-2 -9.5q-4 -7 -8 -23l-3.5 -10l-3.5 -10q-1 -4 -3.5 -13t-3.5 -13q-2 -11 -8 -33q-3 -7 -3 -21q0 -13 13 -23q1 0 2 -1l6 -3q4 -2 12 -4t11 -3q2 -1 4.5 -1.5t5.5 -1t5 -0.5h24h6t6 -1q8 -2 24 -3.5t19 -1.5q4 0 7 -5q2 -2 0.5 -5.5t-4.5 -4.5
q-1 0 -2.5 -0.5t-2.5 -0.5q-3 0 -11 -0.5t-11 -0.5h-243h-25q-1 0 -3 0.5t-3 0.5q-3 1 -4 4q-2 3 2 5q5 5 13 7q2 0 8.5 0.5t9.5 1.5q41 10 50 13zM317 247q11 0 24.5 0.5t30.5 1.5t27 1q8 0 12 1q19 3 39 3h18q6 2 4 7q-1 2 -3 5.5t-3 5.5q-15 35 -21 56q-4 12 -6 17
q-2 4 -8 17.5t-9 21.5q-19 41 -22 50q-1 3 -3.5 7t-3.5 7t-4.5 10.5l-5.5 11.5q-12 24 -17 36q-7 19 -11 34q-1 5 -4 14t-4 13q-2 8 -8 22q0 1 -1 2.5l-2 3t-1 2.5q-3 4 -5 2q-4 -2 -4 -4q-2 -5 -3.5 -10.5t-3 -12l-2.5 -10.5q-3 -14 -8 -23q-4 -7 -5 -14q-2 -6 -6 -20
q-1 -4 -4 -15t-6 -17t-27 -77q-11 -36 -17 -62q-13 -50 -23 -72q-1 -2 -1 -9q-1 -2 3 -4q3 -2 9 -2h85zM278 748q-2 0 -4 0.5t-3 0.5q-9 2 -11 13q-2 14 8 22q51 40 53 41q12 8 18 13q7 4 14 11q17 13 55 33q2 1 6 1q7 1 14 -5q0 -1 1 -2.5t2 -2.5q11 -19 13 -34q2 -6 4 -18
q1 -3 1 -9q-1 -8 -9 -12q-4 -2 -6 -2q-15 -4 -37 -13q-19 -7 -54.5 -18.5t-49.5 -16.5q-5 -2 -15 -2z" />
    <glyph glyph-name="Acircumflex" unicode="&#xc2;" 
d="M84 31q8 5 12 10q7 7 8 12q2 5 10 29l47 142q3 11 7 20q2 6 2 9q2 9 11 38l12 40q1 4 3.5 10.5t4 12t1.5 10.5q0 1 0.5 3t0.5 3q10 29 26 87q5 18 17 52q9 29 11 38l6 27q2 5 4.5 14.5t3.5 11.5q2 5 4 14.5t4 14.5q0 3 1 7.5t1.5 8.5t0.5 8v10q-2 10 -12 12h-27
q-13 0 -19 1q-1 0 -4 3q-4 4 1 9q3 3 4 3q1 1 4 1t5 1q13 0 37 2q10 0 15 2q7 2 21 2q9 0 27.5 -0.5t27.5 -0.5q10 0 15 -1q2 0 43 -3h9q15 -3 24 -18q2 -3 5 -11.5t6 -12.5q3 -6 7.5 -16.5t6.5 -14.5q8 -18 11 -28q4 -13 13 -37l12 -32q4 -7 5 -14q5 -14 17 -42
q13 -28 31 -86l12 -41q1 -1 1 -3q11 -25 12 -28q2 -6 6.5 -16.5t5.5 -14.5q8 -18 13 -27q10 -21 28 -65q1 -4 5 -14q8 -16 12 -31q9 -31 30 -83q2 -6 3 -8q7 -13 18 -17q17 -6 20 -6q2 0 23 -6q4 -1 6 -5t0 -7q-4 -11 -13 -11h-9q-50 -1 -150 -1l-54 -3q-22 -3 -49 -1
q-8 4 -10 7q-3 3 -1.5 8.5t6.5 6.5q1 0 3 0.5t3 0.5l18 3l18 3q4 1 16 8q1 1 6 8q2 4 1 8q-3 7 -7.5 21t-6.5 19q-6 17 -9 33q-2 8 -3 11q-4 12 -12 32.5t-11 30.5t-11 22q-4 6 -13 6h-6q-9 -2 -28 -2q-1 0 -121 -3q-13 0 -19 -2q-22 -3 -45 -3q-26 0 -40 -2q-3 0 -8 -3
q-3 -1 -4 -4q-2 -4 -3 -11.5t-2 -9.5q-4 -7 -8 -23l-3.5 -10l-3.5 -10q-1 -4 -3.5 -13t-3.5 -13q-2 -11 -8 -33q-3 -7 -3 -21q0 -13 13 -23q1 0 2 -1l6 -3q4 -2 12 -4t11 -3q2 -1 4.5 -1.5t5.5 -1t5 -0.5h24h6t6 -1q8 -2 24 -3.5t19 -1.5q4 0 7 -5q2 -2 0.5 -5.5t-4.5 -4.5
q-1 0 -2.5 -0.5t-2.5 -0.5q-3 0 -11 -0.5t-11 -0.5h-243h-25q-1 0 -3 0.5t-3 0.5q-3 1 -4 4q-2 3 2 5q5 5 13 7q2 0 8.5 0.5t9.5 1.5q41 10 50 13zM317 247q11 0 24.5 0.5t30.5 1.5t27 1q8 0 12 1q19 3 39 3h18q6 2 4 7q-1 2 -3 5.5t-3 5.5q-15 35 -21 56q-4 12 -6 17
q-2 4 -8 17.5t-9 21.5q-19 41 -22 50q-1 3 -3.5 7t-3.5 7t-4.5 10.5l-5.5 11.5q-12 24 -17 36q-7 19 -11 34q-1 5 -4 14t-4 13q-2 8 -8 22q0 1 -1 2.5l-2 3t-1 2.5q-3 4 -5 2q-4 -2 -4 -4q-2 -5 -3.5 -10.5t-3 -12l-2.5 -10.5q-3 -14 -8 -23q-4 -7 -5 -14q-2 -6 -6 -20
q-1 -4 -4 -15t-6 -17t-27 -77q-11 -36 -17 -62q-13 -50 -23 -72q-1 -2 -1 -9q-1 -2 3 -4q3 -2 9 -2h85zM226 780q0 3 3 9l2 2q26 28 41 41q4 4 9.5 9l12 11t10.5 9q14 14 41 32q6 5 14 0q5 -1 11 -6q19 -13 40 -33l12 -11.5t15 -13.5l2 -2l39 -39q2 -2 4 -8v-3
q-4 -12 -9 -16q-4 -5 -13 -7q-10 0 -15 2q-35 16 -66 39q-16 12 -25 17q-3 3 -8 1q-10 -5 -11 -6q-17 -10 -31 -20q-15 -12 -35 -24q-8 -4 -11 -5q-6 -4 -15 -2q-8 2 -11 5q-6 3 -6 10v9z" />
    <glyph glyph-name="Atilde" unicode="&#xc3;" 
d="M84 31q8 5 12 10q7 7 8 12q2 5 10 29l47 142q3 11 7 20q2 6 2 9q2 9 11 38l12 40q1 4 3.5 10.5t4 12t1.5 10.5q0 1 0.5 3t0.5 3q10 29 26 87q5 18 17 52q9 29 11 38l6 27q2 5 4.5 14.5t3.5 11.5q2 5 4 14.5t4 14.5q0 3 1 7.5t1.5 8.5t0.5 8v10q-2 10 -12 12h-27
q-13 0 -19 1q-1 0 -4 3q-4 4 1 9q3 3 4 3q1 1 4 1t5 1q13 0 37 2q10 0 15 2q7 2 21 2q9 0 27.5 -0.5t27.5 -0.5q10 0 15 -1q2 0 43 -3h9q15 -3 24 -18q2 -3 5 -11.5t6 -12.5q3 -6 7.5 -16.5t6.5 -14.5q8 -18 11 -28q4 -13 13 -37l12 -32q4 -7 5 -14q5 -14 17 -42
q13 -28 31 -86l12 -41q1 -1 1 -3q11 -25 12 -28q2 -6 6.5 -16.5t5.5 -14.5q8 -18 13 -27q10 -21 28 -65q1 -4 5 -14q8 -16 12 -31q9 -31 30 -83q2 -6 3 -8q7 -13 18 -17q17 -6 20 -6q2 0 23 -6q4 -1 6 -5t0 -7q-4 -11 -13 -11h-9q-50 -1 -150 -1l-54 -3q-22 -3 -49 -1
q-8 4 -10 7q-3 3 -1.5 8.5t6.5 6.5q1 0 3 0.5t3 0.5l18 3l18 3q4 1 16 8q1 1 6 8q2 4 1 8q-3 7 -7.5 21t-6.5 19q-6 17 -9 33q-2 8 -3 11q-4 12 -12 32.5t-11 30.5t-11 22q-4 6 -13 6h-6q-9 -2 -28 -2q-1 0 -121 -3q-13 0 -19 -2q-22 -3 -45 -3q-26 0 -40 -2q-3 0 -8 -3
q-3 -1 -4 -4q-2 -4 -3 -11.5t-2 -9.5q-4 -7 -8 -23l-3.5 -10l-3.5 -10q-1 -4 -3.5 -13t-3.5 -13q-2 -11 -8 -33q-3 -7 -3 -21q0 -13 13 -23q1 0 2 -1l6 -3q4 -2 12 -4t11 -3q2 -1 4.5 -1.5t5.5 -1t5 -0.5h24h6t6 -1q8 -2 24 -3.5t19 -1.5q4 0 7 -5q2 -2 0.5 -5.5t-4.5 -4.5
q-1 0 -2.5 -0.5t-2.5 -0.5q-3 0 -11 -0.5t-11 -0.5h-243h-25q-1 0 -3 0.5t-3 0.5q-3 1 -4 4q-2 3 2 5q5 5 13 7q2 0 8.5 0.5t9.5 1.5q41 10 50 13zM317 247q11 0 24.5 0.5t30.5 1.5t27 1q8 0 12 1q19 3 39 3h18q6 2 4 7q-1 2 -3 5.5t-3 5.5q-15 35 -21 56q-4 12 -6 17
q-2 4 -8 17.5t-9 21.5q-19 41 -22 50q-1 3 -3.5 7t-3.5 7t-4.5 10.5l-5.5 11.5q-12 24 -17 36q-7 19 -11 34q-1 5 -4 14t-4 13q-2 8 -8 22q0 1 -1 2.5l-2 3t-1 2.5q-3 4 -5 2q-4 -2 -4 -4q-2 -5 -3.5 -10.5t-3 -12l-2.5 -10.5q-3 -14 -8 -23q-4 -7 -5 -14q-2 -6 -6 -20
q-1 -4 -4 -15t-6 -17t-27 -77q-11 -36 -17 -62q-13 -50 -23 -72q-1 -2 -1 -9q-1 -2 3 -4q3 -2 9 -2h85zM435 857q20 -4 36 -17q4 -3 4 -8q0 -7 -1 -9q-4 -13 -14 -28q-2 -3 -6 -6q-5 -5 -17 -13q-4 -3 -14 -7q-16 -4 -24 -5q-5 -2 -12 0l-27 3q-10 0 -15 2q-14 5 -42 5
q-14 -1 -25 -12q-3 -3 -5 -7q-1 -1 -3 -3.5t-3 -3.5q-5 -4 -12 -3q-3 1 -8.5 2t-8.5 2q-10 4 -13 8l-9 9q-4 6 -2 11q4 14 12 28q5 8 12 14l21 18q4 3 14 5h6q21 3 40 -3q6 -2 19 -4t19 -4h16l21 3q13 1 24 11l9 9q6 2 8 3z" />
    <glyph glyph-name="Adieresis" unicode="&#xc4;" 
d="M84 31q8 5 12 10q7 7 8 12q2 5 10 29l47 142q3 11 7 20q2 6 2 9q2 9 11 38l12 40q1 4 3.5 10.5t4 12t1.5 10.5q0 1 0.5 3t0.5 3q10 29 26 87q5 18 17 52q9 29 11 38l6 27q2 5 4.5 14.5t3.5 11.5q2 5 4 14.5t4 14.5q0 3 1 7.5t1.5 8.5t0.5 8v10q-2 10 -12 12h-27
q-13 0 -19 1q-1 0 -4 3q-4 4 1 9q3 3 4 3q1 1 4 1t5 1q13 0 37 2q10 0 15 2q7 2 21 2q9 0 27.5 -0.5t27.5 -0.5q10 0 15 -1q2 0 43 -3h9q15 -3 24 -18q2 -3 5 -11.5t6 -12.5q3 -6 7.5 -16.5t6.5 -14.5q8 -18 11 -28q4 -13 13 -37l12 -32q4 -7 5 -14q5 -14 17 -42
q13 -28 31 -86l12 -41q1 -1 1 -3q11 -25 12 -28q2 -6 6.5 -16.5t5.5 -14.5q8 -18 13 -27q10 -21 28 -65q1 -4 5 -14q8 -16 12 -31q9 -31 30 -83q2 -6 3 -8q7 -13 18 -17q17 -6 20 -6q2 0 23 -6q4 -1 6 -5t0 -7q-4 -11 -13 -11h-9q-50 -1 -150 -1l-54 -3q-22 -3 -49 -1
q-8 4 -10 7q-3 3 -1.5 8.5t6.5 6.5q1 0 3 0.5t3 0.5l18 3l18 3q4 1 16 8q1 1 6 8q2 4 1 8q-3 7 -7.5 21t-6.5 19q-6 17 -9 33q-2 8 -3 11q-4 12 -12 32.5t-11 30.5t-11 22q-4 6 -13 6h-6q-9 -2 -28 -2q-1 0 -121 -3q-13 0 -19 -2q-22 -3 -45 -3q-26 0 -40 -2q-3 0 -8 -3
q-3 -1 -4 -4q-2 -4 -3 -11.5t-2 -9.5q-4 -7 -8 -23l-3.5 -10l-3.5 -10q-1 -4 -3.5 -13t-3.5 -13q-2 -11 -8 -33q-3 -7 -3 -21q0 -13 13 -23q1 0 2 -1l6 -3q4 -2 12 -4t11 -3q2 -1 4.5 -1.5t5.5 -1t5 -0.5h24h6t6 -1q8 -2 24 -3.5t19 -1.5q4 0 7 -5q2 -2 0.5 -5.5t-4.5 -4.5
q-1 0 -2.5 -0.5t-2.5 -0.5q-3 0 -11 -0.5t-11 -0.5h-243h-25q-1 0 -3 0.5t-3 0.5q-3 1 -4 4q-2 3 2 5q5 5 13 7q2 0 8.5 0.5t9.5 1.5q41 10 50 13zM317 247q11 0 24.5 0.5t30.5 1.5t27 1q8 0 12 1q19 3 39 3h18q6 2 4 7q-1 2 -3 5.5t-3 5.5q-15 35 -21 56q-4 12 -6 17
q-2 4 -8 17.5t-9 21.5q-19 41 -22 50q-1 3 -3.5 7t-3.5 7t-4.5 10.5l-5.5 11.5q-12 24 -17 36q-7 19 -11 34q-1 5 -4 14t-4 13q-2 8 -8 22q0 1 -1 2.5l-2 3t-1 2.5q-3 4 -5 2q-4 -2 -4 -4q-2 -5 -3.5 -10.5t-3 -12l-2.5 -10.5q-3 -14 -8 -23q-4 -7 -5 -14q-2 -6 -6 -20
q-1 -4 -4 -15t-6 -17t-27 -77q-11 -36 -17 -62q-13 -50 -23 -72q-1 -2 -1 -9q-1 -2 3 -4q3 -2 9 -2h85zM334 819q0 -2 -0.5 -6t-0.5 -6q0 -5 -1 -6q-7 -16 -15 -23q-3 -4 -8 -5q-5 -3 -25 -10q-9 -4 -22 -2q-3 1 -8.5 2t-8.5 2q-10 2 -21 13q-18 21 -11 49q7 17 16 29
q5 7 11 10q17 10 32 9h6q15 0 29 -8q11 -5 16 -14q3 -3 5 -8q5 -7 5 -14q0 -8 1 -12zM435 875q19 0 34 -6q16 -8 23 -24q7 -13 6 -23v-9q0 -7 -3 -15q-1 -2 -3 -5.5t-3 -5.5q-7 -10 -16 -14q-16 -8 -31 -12q-9 -1 -18 0q-2 1 -6 2t-6 2q-20 4 -32 26q-4 6 -4 11v19q0 3 2 9
q8 18 15 27q5 7 14 11q12 7 23 7h2h3z" />
    <glyph glyph-name="Aring" unicode="&#xc5;" 
d="M84 31q8 5 12 10q7 7 8 12q2 5 10 29l47 142q3 11 7 20q2 6 2 9q2 9 11 38l12 40q1 4 3.5 10.5t4 12t1.5 10.5q0 1 0.5 3t0.5 3q10 29 26 87q5 18 17 52q9 29 11 38l6 27q2 5 4.5 14.5t3.5 11.5q2 5 4 14.5t4 14.5q0 3 1 7.5t1.5 8.5t0.5 8v10q-2 10 -12 12h-27
q-13 0 -19 1q-1 0 -4 3q-4 4 1 9q3 3 4 3q1 1 4 1t5 1q13 0 37 2q10 0 15 2q7 2 21 2q9 0 27.5 -0.5t27.5 -0.5q10 0 15 -1q2 0 43 -3h9q15 -3 24 -18q2 -3 5 -11.5t6 -12.5q3 -6 7.5 -16.5t6.5 -14.5q8 -18 11 -28q4 -13 13 -37l12 -32q4 -7 5 -14q5 -14 17 -42
q13 -28 31 -86l12 -41q1 -1 1 -3q11 -25 12 -28q2 -6 6.5 -16.5t5.5 -14.5q8 -18 13 -27q10 -21 28 -65q1 -4 5 -14q8 -16 12 -31q9 -31 30 -83q2 -6 3 -8q7 -13 18 -17q17 -6 20 -6q2 0 23 -6q4 -1 6 -5t0 -7q-4 -11 -13 -11h-9q-50 -1 -150 -1l-54 -3q-22 -3 -49 -1
q-8 4 -10 7q-3 3 -1.5 8.5t6.5 6.5q1 0 3 0.5t3 0.5l18 3l18 3q4 1 16 8q1 1 6 8q2 4 1 8q-3 7 -7.5 21t-6.5 19q-6 17 -9 33q-2 8 -3 11q-4 12 -12 32.5t-11 30.5t-11 22q-4 6 -13 6h-6q-9 -2 -28 -2q-1 0 -121 -3q-13 0 -19 -2q-22 -3 -45 -3q-26 0 -40 -2q-3 0 -8 -3
q-3 -1 -4 -4q-2 -4 -3 -11.5t-2 -9.5q-4 -7 -8 -23l-3.5 -10l-3.5 -10q-1 -4 -3.5 -13t-3.5 -13q-2 -11 -8 -33q-3 -7 -3 -21q0 -13 13 -23q1 0 2 -1l6 -3q4 -2 12 -4t11 -3q2 -1 4.5 -1.5t5.5 -1t5 -0.5h24h6t6 -1q8 -2 24 -3.5t19 -1.5q4 0 7 -5q2 -2 0.5 -5.5t-4.5 -4.5
q-1 0 -2.5 -0.5t-2.5 -0.5q-3 0 -11 -0.5t-11 -0.5h-243h-25q-1 0 -3 0.5t-3 0.5q-3 1 -4 4q-2 3 2 5q5 5 13 7q2 0 8.5 0.5t9.5 1.5q41 10 50 13zM317 247q11 0 24.5 0.5t30.5 1.5t27 1q8 0 12 1q19 3 39 3h18q6 2 4 7q-1 2 -3 5.5t-3 5.5q-15 35 -21 56q-4 12 -6 17
q-2 4 -8 17.5t-9 21.5q-19 41 -22 50q-1 3 -3.5 7t-3.5 7t-4.5 10.5l-5.5 11.5q-12 24 -17 36q-7 19 -11 34q-1 5 -4 14t-4 13q-2 8 -8 22q0 1 -1 2.5l-2 3t-1 2.5q-3 4 -5 2q-4 -2 -4 -4q-2 -5 -3.5 -10.5t-3 -12l-2.5 -10.5q-3 -14 -8 -23q-4 -7 -5 -14q-2 -6 -6 -20
q-1 -4 -4 -15t-6 -17t-27 -77q-11 -36 -17 -62q-13 -50 -23 -72q-1 -2 -1 -9q-1 -2 3 -4q3 -2 9 -2h85zM436 817v-12q1 -13 -8 -30q-3 -6 -11 -18q-7 -11 -21 -17q-12 -6 -20 -7q-23 -5 -27 -5t-27 4q-7 2 -26 10q-4 2 -7 5q-13 10 -23 21q-6 6 -11 18q-4 12 -4 18v21
q0 21 11 41q6 8 8 13q12 19 38 30q2 1 7 2.5t7 2.5q1 0 3 1t3 1q22 2 33 0l15 -3q24 -8 38 -25q8 -10 11 -15q1 -2 9 -23q0 -2 1 -6t1 -6v-21zM390 824q0 1 -3 16q-3 10 -12 17q-2 2 -3 2q-26 15 -52 4q-16 -8 -20 -22l-3 -12q-1 -2 -1 -6q-2 -22 14 -35q10 -6 16 -8
q18 -7 39 3q18 10 22 27q2 10 3 14z" />
    <glyph glyph-name="AE" unicode="&#xc6;" horiz-adv-x="1038" 
d="M901 667q-3 0 -8 1.5t-7 2.5q-3 1 -6 1.5t-6.5 1t-5.5 0.5h-16h-147q-6 0 -9 -1q-6 -2 -9 -7q-4 -7 -4 -15v-21q2 -53 2 -160q0 -47 -1 -70q0 -2 0.5 -7t0.5 -8q5 -5 8 -5q1 0 4 -0.5t5 -0.5h89q4 0 13.5 0.5t14.5 0.5q10 1 22 8q1 1 4 3t4 3q5 4 8 9q10 25 12 41
q0 7 6 21q1 3 6 6q2 2 5.5 0.5t4.5 -4.5q2 -4 2 -5q0 -31 -3 -46q-1 -3 -1.5 -6t-1 -6.5t-0.5 -5.5q0 -6 -0.5 -17.5t-0.5 -16.5q-2 -31 1 -74l3 -18q1 -3 1 -9q0 -4 -2 -8q-6 -9 -14 -1q-1 1 -3 5q-6 12 -9 26q-2 9 -10 32q-3 7 -10 11q-8 6 -13 8q-13 8 -26 8h-34h-67
q-8 0 -12 -1q-7 0 -7 -5q-5 -40 -5 -49q-2 -78 -2 -116v-93q0 -6 0.5 -18t0.5 -18q0 -4 4 -8q4 -6 10 -6q5 -1 13 -1q18 0 53.5 0.5t53.5 0.5h22l33 3q6 2 18 2q6 0 12 1.5t13 4t11 3.5q7 3 14 7l12 9q8 5 13 13l2 2q26 44 33 76l3 15q2 6 7 9q4 2 7.5 0.5t4.5 -5.5
q0 -1 0.5 -3t0.5 -3v-15q-6 -65 -6 -67q-2 -20 -2 -28l-6 -39q-2 -14 -17 -16h-9q-6 -1 -18 -1h-49q-54 1 -160 0.5t-159 -0.5h-114q-12 0 -15 1q-1 0 -2.5 1.5t-2.5 1.5q-1 1 -1 3q-2 7 4 10q15 7 27 8q10 1 28 11q7 3 10 11q0 1 1 3.5t1.5 4.5t0.5 4q2 14 2 21v59
q0 30 3 45t1 31q0 8 -8 8q-2 0 -6 0.5t-6 0.5h-64q-14 0 -22 1q-8 2 -15 2h-58q-5 0 -16.5 -0.5t-17.5 -0.5h-3q-10 -2 -12 -8q-11 -17 -21 -38q-8 -19 -18 -35q-2 -3 -5 -9t-4 -7q-15 -38 -39 -73q-1 -2 -2.5 -4t-2.5 -4q-5 -9 5 -13l1 -1h2q2 0 17.5 -4t23.5 -5
q21 -3 41 -12q3 -1 3.5 -5t-1.5 -5l-2 -2q-6 -3 -15 -5h-18h-160h-76q-6 0 -9 1q-4 1 -6 7q-4 11 7 15q10 4 15 4q31 2 55 7q6 0 36 8q5 1 9 7q4 5 20 28q3 3 5 7q6 14 19 32l9 15.5t8 13.5q14 19 34 61l15 27q5 6 8 13q13 20 58 101q4 8 17 30t19 34q5 9 10 16q9 15 29 43
q1 2 4 6.5t5 8t3 6.5l15 27l44 74q1 1 2.5 4t2.5 4q12 24 27 48q1 1 3 5q3 7 1 15q-2 6 -5 7q-3 2 -9 4q-3 1 -9.5 2t-11.5 2t-9 2q-2 1 -7 1t-8 1q-8 1 -13 7q-3 5 -1.5 9.5t6.5 5.5q4 2 6 2h18h104h31q33 3 74 1h153q45 -1 135 -1q14 0 21 -1q10 0 11 -9l3 -12q1 -5 1 -15
v-34q0 -51 2 -76v-16l-1 -2q-1 -2 -1 -3q-1 -3 -5 -3t-5 3q-5 7 -7 17q-2 20 -17 45q-12 20 -22 33q-19 25 -34 35zM536 268q1 4 1.5 14t2.5 16q3 9 0 18q-2 12 -2 37q0 32 -1.5 97.5t-1.5 98.5q0 17 -3 33v1q-1 1 -1 2q-2 4 -5 1l-4 -4q-16 -28 -18 -32l-3 -6
q-3 -10 -18 -35q-8 -17 -9 -19q-13 -26 -25 -46q-23 -38 -26 -44q-2 -4 -28 -44l-53 -79q-2 -6 3 -8q3 -1 9 -1q18 0 28 -1q16 -4 48 -4q82 0 98 1q4 0 8 4z" />
    <glyph glyph-name="Ccedilla" unicode="&#xc7;" horiz-adv-x="609" 
d="M582 191q5 -2 5 -7q0 -10 -2 -15q-4 -11 -4 -27v-73v-12q-2 -6 -5 -8l-5 -4q-42 -27 -82 -39q-9 -3 -11 -3q-6 -1 -22.5 -4t-25.5 -4q-20 -4 -30 -5q-5 0 -15.5 -0.5t-16.5 -0.5q-2 -12 -4 -20q-3 -9 6 -15l10 -6q6 -3 15 -12q10 -10 15 -26q0 -1 0.5 -3t0.5 -3
q4 -9 4 -21q-1 -5 -1 -15l-3 -12q-5 -13 -13 -20q-15 -15 -36 -23q-18 -5 -33 -5q-20 0 -36 14q-14 13 -23 29q-6 13 -1 27q5 11 16 14q2 1 8 -2l10 -8l12 -9l6 -3q8 -2 12 6q2 3 2 9q-3 12 -9 19q-6 6 -10 8l-16 9q-8 6 -6 16q1 9 7 27q2 6 4 18q2 8 2 10q-5 0 -17 2
q-14 2 -21 2q-22 2 -33 5q-6 2 -8 2l-28 13q-49 22 -89 69l-7 10q-14 22 -23 32q-5 7 -11 18l-21 37q-6 9 -9 19q-14 35 -14 37l-7 24q-4 26 -4 39q-3 25 -1 58q0 18 2 27l3 18q0 13 6 39q1 3 3.5 12t3.5 14l4 12q10 23 13 28q12 26 23 39q4 4 10.5 13t10.5 13l35 34
q2 4 9 8q29 19 34 21l50 28l22 11q1 0 3.5 1t4.5 1.5t4 0.5l12 3t12 2q11 1 23 6q4 1 13 2t14 2q16 4 49 2h3q8 -3 30 -3q14 -1 43 -1q16 0 24 -1q12 0 24 -3q2 -1 4.5 -1.5t5.5 -1t5 -0.5q27 -7 41 -19q7 -4 12 -13q3 -7 3 -15q1 -7 1 -21q2 -28 4 -34q2 -8 2 -15l3 -18
q4 -19 4 -42q0 -7 -6 -10q-6 -4 -11 3q0 1 -1 2.5t-1 2.5l-7 20q-5 20 -14 37l-21 37q-10 14 -21 23l-30 21q-8 6 -22 9q-4 1 -11.5 4t-11.5 4q-19 5 -36 7q-7 1 -39 1q-21 -2 -47 -13q-21 -9 -43 -28l-12 -9q-18 -12 -36 -37l-17 -23q-9 -16 -27 -63q-8 -24 -8 -36
q-1 -1 -1 -3q-4 -12 -6 -48q0 -28 -3 -43q-2 -10 -2 -30v-52q0 -17 5 -39q6 -23 7 -32q1 -6 4 -17t3 -16q0 -7 6 -21q8 -18 14 -27q17 -26 25 -45q7 -13 21 -26q4 -4 7 -5q25 -17 57 -28q3 -1 9 -1l43 -4q22 -3 52 -1h6l29 6q14 4 21 7q12 5 29 16q17 13 27 25q8 10 14 20
q6 11 17 42l7 23q3 8 8 17q3 8 9 12q7 2 9 1z" />
    <glyph glyph-name="Egrave" unicode="&#xc8;" horiz-adv-x="600" 
d="M284 -1h-3q-17 -2 -79 -2q-28 0 -83 0.5t-82 0.5q-8 0 -12 2q-5 2 -5 7t3 8q10 7 20 8q16 2 23 5q10 4 14 7q10 4 12 17q2 20 2 30v43q0 29 3 39q1 6 1 18q1 13 1 40q3 48 4 58q2 26 1 39q-1 26 -1 79q0 21 -2 31q-1 6 -1 18q-1 10 -1.5 29t-0.5 29v128q0 12 -1 18
q0 7 -5 10q-7 7 -13 8q-4 1 -15.5 3.5t-17.5 3.5q-6 0 -13 7q-2 4 -2 6q0 8 7 8q25 2 45 -1q36 -5 61 0q14 2 21 2q27 0 40 1q7 1 21 1q50 0 149.5 -1t149.5 -1q10 0 15 -1q8 -3 8 -8q0 -2 3 -28v-45q0 -11 2 -31q2 -15 2 -45q0 -1 -0.5 -3t-0.5 -3q0 -2 -3 -4t-4 -1
q-3 0 -5 2q-3 1 -3 5q-2 6 -2 9t-8 26q0 2 -2 6q-10 18 -15 26q-20 32 -43 52q-1 1 -5 3q-2 2 -8 4q-3 1 -12.5 2t-14.5 3q-4 1 -12 1h-37h-115q-8 0 -12 -1q-8 -2 -8 -9v-9q0 -10 0.5 -30.5t0.5 -30.5q0 -6 1 -9q2 -11 2 -49v-64q0 -20 -2 -30v-24v-28q0 -6 8 -8h3h101
q3 0 8 0.5t7 0.5q17 0 34 11q10 7 13 16q7 20 8 26q1 14 6 27q0 1 5 8q1 1 4 2t4 0l4 -4q1 -2 1 -6v-22q-1 -6 -2 -26t-3 -31q-1 -3 -1.5 -9.5t-0.5 -8.5q-1 -24 0 -46q0 -12 3 -24t3 -24v-9q-2 -8 -8 -8q-5 0 -8 4q-2 4 -3 5q-3 7 -7 21q-5 20 -12 37q-1 6 -8 9l-2 2
q-1 1 -4 2.5t-4 2.5q-16 9 -35 9q-65 0 -97 1q-6 0 -12 -2q-2 0 -4 -2t-2 -4q-1 -3 -1 -9q-1 -7 -1 -21.5t-1 -21.5q0 -10 -1 -15q-3 -20 -3 -61v-128q0 -6 0.5 -18t0.5 -18q0 -2 2 -6q0 -2 7 -6h9h112q11 0 16 1q14 3 42 3q16 1 48 9q10 3 19 9q5 2 13 8q7 6 13 13
q8 12 11 18q2 5 5.5 12.5t4.5 9.5q6 10 9 23q1 1 6 23q0 3 2 9q3 7 9 7q4 1 7.5 -1t3.5 -6q2 -30 -3 -49l-3 -39q0 -12 -3 -24q0 -2 -1 -7t-1 -8q0 -4 -1 -12t-1 -12q-2 -7 -6 -11q-10 -6 -17 -6q-8 -1 -25 -1h-204h-30zM372 751q-10 0 -15 2q-14 5 -49.5 16.5t-54.5 18.5
q-22 9 -37 13q-2 0 -6 2q-8 5 -9 12q0 6 1 9q2 12 4 18q2 15 13 34q1 1 2 2.5t1 2.5q6 7 14 5q4 0 6 -1q38 -20 55 -33q7 -6 14 -11q6 -5 18 -13q2 -1 53 -41q10 -8 8 -22q-2 -11 -11 -13q-1 0 -3 -0.5t-4 -0.5z" />
    <glyph glyph-name="Eacute" unicode="&#xc9;" horiz-adv-x="600" 
d="M284 -1h-3q-17 -2 -79 -2q-28 0 -83 0.5t-82 0.5q-8 0 -12 2q-5 2 -5 7t3 8q10 7 20 8q16 2 23 5q10 4 14 7q10 4 12 17q2 20 2 30v43q0 29 3 39q1 6 1 18q1 13 1 40q3 48 4 58q2 26 1 39q-1 26 -1 79q0 21 -2 31q-1 6 -1 18q-1 10 -1.5 29t-0.5 29v128q0 12 -1 18
q0 7 -5 10q-7 7 -13 8q-4 1 -15.5 3.5t-17.5 3.5q-6 0 -13 7q-2 4 -2 6q0 8 7 8q25 2 45 -1q36 -5 61 0q14 2 21 2q27 0 40 1q7 1 21 1q50 0 149.5 -1t149.5 -1q10 0 15 -1q8 -3 8 -8q0 -2 3 -28v-45q0 -11 2 -31q2 -15 2 -45q0 -1 -0.5 -3t-0.5 -3q0 -2 -3 -4t-4 -1
q-3 0 -5 2q-3 1 -3 5q-2 6 -2 9t-8 26q0 2 -2 6q-10 18 -15 26q-20 32 -43 52q-1 1 -5 3q-2 2 -8 4q-3 1 -12.5 2t-14.5 3q-4 1 -12 1h-37h-115q-8 0 -12 -1q-8 -2 -8 -9v-9q0 -10 0.5 -30.5t0.5 -30.5q0 -6 1 -9q2 -11 2 -49v-64q0 -20 -2 -30v-24v-28q0 -6 8 -8h3h101
q3 0 8 0.5t7 0.5q17 0 34 11q10 7 13 16q7 20 8 26q1 14 6 27q0 1 5 8q1 1 4 2t4 0l4 -4q1 -2 1 -6v-22q-1 -6 -2 -26t-3 -31q-1 -3 -1.5 -9.5t-0.5 -8.5q-1 -24 0 -46q0 -12 3 -24t3 -24v-9q-2 -8 -8 -8q-5 0 -8 4q-2 4 -3 5q-3 7 -7 21q-5 20 -12 37q-1 6 -8 9l-2 2
q-1 1 -4 2.5t-4 2.5q-16 9 -35 9q-65 0 -97 1q-6 0 -12 -2q-2 0 -4 -2t-2 -4q-1 -3 -1 -9q-1 -7 -1 -21.5t-1 -21.5q0 -10 -1 -15q-3 -20 -3 -61v-128q0 -6 0.5 -18t0.5 -18q0 -2 2 -6q0 -2 7 -6h9h112q11 0 16 1q14 3 42 3q16 1 48 9q10 3 19 9q5 2 13 8q7 6 13 13
q8 12 11 18q2 5 5.5 12.5t4.5 9.5q6 10 9 23q1 1 6 23q0 3 2 9q3 7 9 7q4 1 7.5 -1t3.5 -6q2 -30 -3 -49l-3 -39q0 -12 -3 -24q0 -2 -1 -7t-1 -8q0 -4 -1 -12t-1 -12q-2 -7 -6 -11q-10 -6 -17 -6q-8 -1 -25 -1h-204h-30zM224 748q-2 0 -4 0.5t-3 0.5q-9 2 -11 13q-2 14 8 22
q51 40 53 41q12 8 18 13q8 4 14 11q17 13 55 33q2 1 6 1q8 1 14 -5q0 -1 1 -2.5t2 -2.5q11 -19 13 -34q2 -6 4 -18q1 -3 1 -9q-1 -8 -9 -12q-4 -2 -6 -2q-15 -4 -37 -13q-19 -7 -54.5 -18.5t-49.5 -16.5q-5 -2 -15 -2z" />
    <glyph glyph-name="Ecircumflex" unicode="&#xca;" horiz-adv-x="600" 
d="M284 -1h-3q-17 -2 -79 -2q-28 0 -83 0.5t-82 0.5q-8 0 -12 2q-5 2 -5 7t3 8q10 7 20 8q16 2 23 5q10 4 14 7q10 4 12 17q2 20 2 30v43q0 29 3 39q1 6 1 18q1 13 1 40q3 48 4 58q2 26 1 39q-1 26 -1 79q0 21 -2 31q-1 6 -1 18q-1 10 -1.5 29t-0.5 29v128q0 12 -1 18
q0 7 -5 10q-7 7 -13 8q-4 1 -15.5 3.5t-17.5 3.5q-6 0 -13 7q-2 4 -2 6q0 8 7 8q25 2 45 -1q36 -5 61 0q14 2 21 2q27 0 40 1q7 1 21 1q50 0 149.5 -1t149.5 -1q10 0 15 -1q8 -3 8 -8q0 -2 3 -28v-45q0 -11 2 -31q2 -15 2 -45q0 -1 -0.5 -3t-0.5 -3q0 -2 -3 -4t-4 -1
q-3 0 -5 2q-3 1 -3 5q-2 6 -2 9t-8 26q0 2 -2 6q-10 18 -15 26q-20 32 -43 52q-1 1 -5 3q-2 2 -8 4q-3 1 -12.5 2t-14.5 3q-4 1 -12 1h-37h-115q-8 0 -12 -1q-8 -2 -8 -9v-9q0 -10 0.5 -30.5t0.5 -30.5q0 -6 1 -9q2 -11 2 -49v-64q0 -20 -2 -30v-24v-28q0 -6 8 -8h3h101
q3 0 8 0.5t7 0.5q17 0 34 11q10 7 13 16q7 20 8 26q1 14 6 27q0 1 5 8q1 1 4 2t4 0l4 -4q1 -2 1 -6v-22q-1 -6 -2 -26t-3 -31q-1 -3 -1.5 -9.5t-0.5 -8.5q-1 -24 0 -46q0 -12 3 -24t3 -24v-9q-2 -8 -8 -8q-5 0 -8 4q-2 4 -3 5q-3 7 -7 21q-5 20 -12 37q-1 6 -8 9l-2 2
q-1 1 -4 2.5t-4 2.5q-16 9 -35 9q-65 0 -97 1q-6 0 -12 -2q-2 0 -4 -2t-2 -4q-1 -3 -1 -9q-1 -7 -1 -21.5t-1 -21.5q0 -10 -1 -15q-3 -20 -3 -61v-128q0 -6 0.5 -18t0.5 -18q0 -2 2 -6q0 -2 7 -6h9h112q11 0 16 1q14 3 42 3q16 1 48 9q10 3 19 9q5 2 13 8q7 6 13 13
q8 12 11 18q2 5 5.5 12.5t4.5 9.5q6 10 9 23q1 1 6 23q0 3 2 9q3 7 9 7q4 1 7.5 -1t3.5 -6q2 -30 -3 -49l-3 -39q0 -12 -3 -24q0 -2 -1 -7t-1 -8q0 -4 -1 -12t-1 -12q-2 -7 -6 -11q-10 -6 -17 -6q-8 -1 -25 -1h-204h-30zM172 780q0 3 3 9l2 2q26 28 41 41q4 4 9.5 9l12 11
t10.5 9q14 14 41 32q6 5 14 0q5 -1 11 -6q19 -13 40 -33l12 -11.5t15 -13.5l2 -2l39 -39q2 -2 4 -8v-3q-4 -12 -9 -16q-4 -5 -13 -7q-10 0 -15 2q-35 16 -66 39q-16 12 -25 17q-3 3 -8 1q-10 -5 -11 -6q-17 -10 -31 -20q-15 -12 -35 -24q-8 -4 -11 -5q-6 -4 -15 -2
q-8 2 -11 5q-6 3 -6 10v9z" />
    <glyph glyph-name="Edieresis" unicode="&#xcb;" horiz-adv-x="600" 
d="M284 -1h-3q-17 -2 -79 -2q-28 0 -83 0.5t-82 0.5q-8 0 -12 2q-5 2 -5 7t3 8q10 7 20 8q16 2 23 5q10 4 14 7q10 4 12 17q2 20 2 30v43q0 29 3 39q1 6 1 18q1 13 1 40q3 48 4 58q2 26 1 39q-1 26 -1 79q0 21 -2 31q-1 6 -1 18q-1 10 -1.5 29t-0.5 29v128q0 12 -1 18
q0 7 -5 10q-7 7 -13 8q-4 1 -15.5 3.5t-17.5 3.5q-6 0 -13 7q-2 4 -2 6q0 8 7 8q25 2 45 -1q36 -5 61 0q14 2 21 2q27 0 40 1q7 1 21 1q50 0 149.5 -1t149.5 -1q10 0 15 -1q8 -3 8 -8q0 -2 3 -28v-45q0 -11 2 -31q2 -15 2 -45q0 -1 -0.5 -3t-0.5 -3q0 -2 -3 -4t-4 -1
q-3 0 -5 2q-3 1 -3 5q-2 6 -2 9t-8 26q0 2 -2 6q-10 18 -15 26q-20 32 -43 52q-1 1 -5 3q-2 2 -8 4q-3 1 -12.5 2t-14.5 3q-4 1 -12 1h-37h-115q-8 0 -12 -1q-8 -2 -8 -9v-9q0 -10 0.5 -30.5t0.5 -30.5q0 -6 1 -9q2 -11 2 -49v-64q0 -20 -2 -30v-24v-28q0 -6 8 -8h3h101
q3 0 8 0.5t7 0.5q17 0 34 11q10 7 13 16q7 20 8 26q1 14 6 27q0 1 5 8q1 1 4 2t4 0l4 -4q1 -2 1 -6v-22q-1 -6 -2 -26t-3 -31q-1 -3 -1.5 -9.5t-0.5 -8.5q-1 -24 0 -46q0 -12 3 -24t3 -24v-9q-2 -8 -8 -8q-5 0 -8 4q-2 4 -3 5q-3 7 -7 21q-5 20 -12 37q-1 6 -8 9l-2 2
q-1 1 -4 2.5t-4 2.5q-16 9 -35 9q-65 0 -97 1q-6 0 -12 -2q-2 0 -4 -2t-2 -4q-1 -3 -1 -9q-1 -7 -1 -21.5t-1 -21.5q0 -10 -1 -15q-3 -20 -3 -61v-128q0 -6 0.5 -18t0.5 -18q0 -2 2 -6q0 -2 7 -6h9h112q11 0 16 1q14 3 42 3q16 1 48 9q10 3 19 9q5 2 13 8q7 6 13 13
q8 12 11 18q2 5 5.5 12.5t4.5 9.5q6 10 9 23q1 1 6 23q0 3 2 9q3 7 9 7q4 1 7.5 -1t3.5 -6q2 -30 -3 -49l-3 -39q0 -12 -3 -24q0 -2 -1 -7t-1 -8q0 -4 -1 -12t-1 -12q-2 -7 -6 -11q-10 -6 -17 -6q-8 -1 -25 -1h-204h-30zM280 819q0 -2 -0.5 -6t-0.5 -6q0 -5 -1 -6
q-7 -16 -15 -23q-3 -4 -8 -5q-5 -3 -25 -10q-9 -4 -22 -2q-3 1 -8.5 2t-8.5 2q-10 2 -21 13q-18 21 -11 49q7 17 16 29q5 7 11 10q17 10 32 9h6q15 0 29 -8q11 -5 16 -14q3 -3 5 -8q5 -7 5 -14q0 -8 1 -12zM381 875q19 0 34 -6q16 -8 23 -24q7 -13 6 -23v-9q0 -7 -3 -15
q-1 -2 -3 -5.5t-3 -5.5q-7 -10 -16 -14q-16 -8 -31 -12q-9 -1 -18 0q-2 1 -6 2t-6 2q-20 4 -32 26q-4 6 -4 11v19q0 3 2 9q8 18 15 27q5 7 14 11q12 7 23 7h2h3z" />
    <glyph glyph-name="Igrave" unicode="&#xcc;" horiz-adv-x="343" 
d="M252 302q1 -40 -1 -142v-106v-6q1 -6 6 -11q10 -9 27 -14q18 -6 29 -7h1l2 -1q4 -3 5 -8q3 -3 -5 -7h-1q-1 -1 -2 -1t-4 -0.5t-5 -0.5h-27h-104q-16 0 -24 -2q-6 -2 -18 -2h-95q-2 0 -5 0.5t-4 0.5q-7 2 -7 8q0 3 3 5q23 11 46 15q11 3 22 10q6 4 7 10q5 18 7 54
q1 48 1 129.5v129.5v49q0 10 1 15q1 6 1 40q2 28 0 57q0 29 -1 43q-1 6 -1 40v48q0 1 -0.5 3t-0.5 3q0 10 -10 14q-19 7 -33 8q-4 0 -12 2q-4 1 -8 4q-3 1 -1 5q5 9 17 11h9h226q10 0 15 -1q5 0 11 -4l1 -1q0 -2 1 -2q3 -5 -2 -7q-15 -5 -26 -8q-8 -2 -11 -3q-12 -3 -20 -14
q-5 -5 -5 -11q-1 -9 -1 -27l-3 -27q-2 -9 -2 -28q0 -104 1 -125v-27v-111zM247 748q-10 0 -15 2q-14 5 -49.5 16.5t-54.5 18.5q-23 9 -37 13q-2 0 -6 2q-7 4 -9 12q0 6 1 9q2 12 4 18q2 15 13 34q0 1 1 2.5t2 2.5q7 6 14 5q4 0 6 -1q38 -20 55 -33q6 -7 14 -11q6 -5 18 -13
q2 -1 53 -41q10 -8 8 -22q-2 -11 -11 -13q-1 0 -3 -0.5t-4 -0.5z" />
    <glyph glyph-name="Iacute" unicode="&#xcd;" horiz-adv-x="343" 
d="M252 302q1 -40 -1 -142v-106v-6q1 -6 6 -11q10 -9 27 -14q18 -6 29 -7h1l2 -1q4 -3 5 -8q3 -3 -5 -7h-1q-1 -1 -2 -1t-4 -0.5t-5 -0.5h-27h-104q-16 0 -24 -2q-6 -2 -18 -2h-95q-2 0 -5 0.5t-4 0.5q-7 2 -7 8q0 3 3 5q23 11 46 15q11 3 22 10q6 4 7 10q5 18 7 54
q1 48 1 129.5v129.5v49q0 10 1 15q1 6 1 40q2 28 0 57q0 29 -1 43q-1 6 -1 40v48q0 1 -0.5 3t-0.5 3q0 10 -10 14q-19 7 -33 8q-4 0 -12 2q-4 1 -8 4q-3 1 -1 5q5 9 17 11h9h226q10 0 15 -1q5 0 11 -4l1 -1q0 -2 1 -2q3 -5 -2 -7q-15 -5 -26 -8q-8 -2 -11 -3q-12 -3 -20 -14
q-5 -5 -5 -11q-1 -9 -1 -27l-3 -27q-2 -9 -2 -28q0 -104 1 -125v-27v-111zM95 748q-2 0 -4 0.5t-3 0.5q-9 2 -11 13q-2 14 8 22q51 40 53 41q12 8 18 13q8 4 14 11q17 13 55 33q2 1 6 1q7 1 14 -5q1 -1 2 -2.5t1 -2.5q11 -19 13 -34q2 -6 4 -18q1 -3 1 -9q-2 -8 -9 -12
q-4 -2 -6 -2q-15 -4 -37 -13q-19 -7 -54.5 -18.5t-49.5 -16.5q-5 -2 -15 -2z" />
    <glyph glyph-name="Icircumflex" unicode="&#xce;" horiz-adv-x="343" 
d="M252 302q1 -40 -1 -142v-106v-6q1 -6 6 -11q10 -9 27 -14q18 -6 29 -7h1l2 -1q4 -3 5 -8q3 -3 -5 -7h-1q-1 -1 -2 -1t-4 -0.5t-5 -0.5h-27h-104q-16 0 -24 -2q-6 -2 -18 -2h-95q-2 0 -5 0.5t-4 0.5q-7 2 -7 8q0 3 3 5q23 11 46 15q11 3 22 10q6 4 7 10q5 18 7 54
q1 48 1 129.5v129.5v49q0 10 1 15q1 6 1 40q2 28 0 57q0 29 -1 43q-1 6 -1 40v48q0 1 -0.5 3t-0.5 3q0 10 -10 14q-19 7 -33 8q-4 0 -12 2q-4 1 -8 4q-3 1 -1 5q5 9 17 11h9h226q10 0 15 -1q5 0 11 -4l1 -1q0 -2 1 -2q3 -5 -2 -7q-15 -5 -26 -8q-8 -2 -11 -3q-12 -3 -20 -14
q-5 -5 -5 -11q-1 -9 -1 -27l-3 -27q-2 -9 -2 -28q0 -104 1 -125v-27v-111zM44 780q0 3 3 9l2 2q26 28 41 41q4 4 9.5 9l12 11t10.5 9q14 14 41 32q6 5 14 0q5 -1 11 -6q19 -13 40 -33l12 -11.5t15 -13.5l2 -2l39 -39q2 -2 4 -8v-3q-4 -12 -9 -16q-4 -5 -13 -7q-10 0 -15 2
q-35 16 -66 39q-16 12 -25 17q-3 3 -8 1q-10 -5 -11 -6q-17 -10 -31 -20q-15 -12 -35 -24q-8 -4 -11 -5q-6 -4 -15 -2q-8 2 -11 5q-6 3 -6 10v9z" />
    <glyph glyph-name="Idieresis" unicode="&#xcf;" horiz-adv-x="343" 
d="M252 302q1 -40 -1 -142v-106v-6q1 -6 6 -11q10 -9 27 -14q18 -6 29 -7h1l2 -1q4 -3 5 -8q3 -3 -5 -7h-1q-1 -1 -2 -1t-4 -0.5t-5 -0.5h-27h-104q-16 0 -24 -2q-6 -2 -18 -2h-95q-2 0 -5 0.5t-4 0.5q-7 2 -7 8q0 3 3 5q23 11 46 15q11 3 22 10q6 4 7 10q5 18 7 54
q1 48 1 129.5v129.5v49q0 10 1 15q1 6 1 40q2 28 0 57q0 29 -1 43q-1 6 -1 40v48q0 1 -0.5 3t-0.5 3q0 10 -10 14q-19 7 -33 8q-4 0 -12 2q-4 1 -8 4q-3 1 -1 5q5 9 17 11h9h226q10 0 15 -1q5 0 11 -4l1 -1q0 -2 1 -2q3 -5 -2 -7q-15 -5 -26 -8q-8 -2 -11 -3q-12 -3 -20 -14
q-5 -5 -5 -11q-1 -9 -1 -27l-3 -27q-2 -9 -2 -28q0 -104 1 -125v-27v-111zM152 819q0 -2 -0.5 -6t-0.5 -6q0 -5 -1 -6q-7 -16 -15 -23q-3 -4 -8 -5q-5 -3 -25 -10q-9 -4 -22 -2q-3 1 -8.5 2t-8.5 2q-10 2 -21 13q-18 21 -11 49q7 17 16 29q5 7 11 10q17 10 32 9h6
q15 0 29 -8q11 -5 16 -14q3 -3 5 -8q5 -7 5 -14q0 -8 1 -12zM253 875q19 0 34 -6q16 -8 23 -24q7 -13 6 -23v-9q0 -7 -3 -15q-1 -2 -3 -5.5t-3 -5.5q-7 -10 -16 -14q-16 -8 -31 -12q-9 -1 -18 0q-2 1 -6 2t-6 2q-20 4 -32 26q-4 6 -4 11v19q0 3 2 9q8 18 15 27q5 7 14 11
q12 7 23 7h2h3z" />
    <glyph glyph-name="Eth" unicode="&#xd0;" horiz-adv-x="701" 
d="M681 398q1 -2 1 -9v-45q0 -16 -2 -24t-2 -12q-1 -23 -6 -46l-2 -21l-4.5 -18.5t-6.5 -22.5q-2 -5 -5 -14.5t-5 -14.5q-2 -3 -9 -16.5t-12 -20.5l-8 -13l-7 -9q-46 -48 -95 -71l-28 -11q-5 -2 -14 -6.5t-14 -6.5q-1 -1 -14 -6l-23 -6q-4 -2 -11 -2.5t-10 -1.5
q-10 -3 -28.5 -5t-22.5 -3q-24 -2 -37 -2q-29 0 -86.5 0.5t-86.5 0.5q-18 0 -28 1q-14 2 -21 2q-10 0 -30 0.5t-31 0.5q-3 0 -9 2q-2 0 -2 2.5t1 4.5q3 5 9 7l6 2q2 0 6 0.5t6 0.5q15 0 36 7q4 0 6 6q2 3 4 11v9q0 17 0.5 50.5t0.5 50.5v100v73v1h-39h-13q-3 1 -14 5
q-4 3 -6 10v3v22q0 4 3.5 8t7.5 5q5 0 15.5 0.5t15.5 0.5t15 0.5t15 0.5q0 47 1 69q1 21 1 125q0 5 -0.5 15t-0.5 16q0 5 -2 15l-5 33q-1 9 -12 16q-5 3 -14 5q-17 0 -25 1q-2 0 -5 0.5t-4 0.5q-8 3 -4 10q0 2 3 5q5 3 11 4h22h185h22q6 0 18 2q47 5 88 2q16 0 24 -3l48 -9
q8 -3 23.5 -6t23.5 -5q25 -8 43 -23l45 -36l21 -18q3 -3 7 -9l15 -23q10 -14 18 -32q2 -7 9 -25.5t10 -29.5q1 -5 4 -15.5t4 -16.5q0 -3 2 -9q3 -6 4.5 -19.5t3.5 -19.5zM536 346v39q0 15 -2 21q-1 6 -4 40q-2 28 -12 53l-6 14l-29 70q-1 3 -8 17l-3 5q-22 29 -31 37
q-15 14 -37 20l-39 6q-5 0 -15 2q-15 3 -43 1q-9 -2 -24.5 -3t-20.5 -2q-2 0 -6 -2q-5 -3 -6 -7v-6q-1 -5 -1 -15v-98q0 -20 -1 -24q-3 -16 -3 -33l-3 -36q-2 -18 -2 -25v-41h7q7 0 19 -0.5t18 -0.5h62q6 0 9 -1q4 0 7.5 -4t4.5 -8q3 -14 1 -34q0 -9 -10 -9h-22q-22 2 -33 4
q-26 5 -49 -1q-8 -2 -12 -2h-2v-15v-92q-2 -110 -2 -167v-12v-6q0 -8 8 -8q18 -1 54 -1q33 0 49 3q5 1 15 1q6 1 18 1q3 0 9 2q6 1 18 5q19 7 30 19l5 5q25 25 35 49q8 18 18 32l3 8q8 16 9 19q3 8 7 24q1 2 2.5 8t3.5 9l3 12q0 2 0.5 5t1 5.5t1.5 4.5l3 18q0 18 2 27
q1 4 1.5 9t1 11.5t0.5 9.5v37z" />
    <glyph glyph-name="Ntilde" unicode="&#xd1;" horiz-adv-x="695" 
d="M147 313q-1 -89 -1 -219q0 -9 0.5 -27.5t0.5 -27.5q2 -16 17 -19q8 -2 12 -2q6 0 39 -8q6 -1 9 -8q2 -7 -3 -7q-4 -2 -6 -2h-25h-152q-2 0 -6 0.5t-6 0.5l-4 4q-2 2 0 6q1 4 6 7q12 6 20 7q6 0 23 5q13 5 15 18q1 6 1 18v296q0 48 -1 73q-2 96 -1 143q1 15 -2 33l-3 21
q-3 16 -13 24q-10 11 -21 17q-3 1 -8 6q-4 4 0 11l4 4q10 7 20 7q2 1 6 1q64 1 128 0q4 0 6 -1q5 0 11 -4q6 -6 9 -8q3 -4 7 -7.5t8.5 -8l6.5 -6.5q14 -14 21 -22q3 -3 8.5 -10l8.5 -11l27 -33q7 -8 21 -22q2 -2 5.5 -6t4.5 -6q4 -6 11.5 -15.5t8.5 -10.5t8.5 -10t11.5 -13
l17 -20l17 -20l18 -24q21 -31 42 -56q14 -18 28 -40q9 -13 29 -39q4 -5 11 -4q4 0 4 3q2 2 2 3v21q1 78 1 232v73q0 14 -1 21q0 8 -5 18q-4 10 -16 13q-6 1 -18 1h-24q-1 0 -4 0.5t-5 0.5q-1 0 -3.5 2.5t-2.5 4.5q-2 6 6 9h6q61 1 183 1q4 0 6 -1q4 0 4 -3t-1 -3
q-3 -5 -7 -5q-25 -7 -42 -7q-14 0 -24 -12q-8 -8 -9 -19v-6q0 -23 0.5 -71t0.5 -72q0 -10 1 -15q2 -10 2 -46v-39q0 -84 2 -250q1 -43 1 -128q0 -2 -0.5 -5t-0.5 -4q-2 -8 -7 -9q-4 -2 -12 -4q-10 -2 -23 5l-2 2q-19 17 -38 44q-30 48 -63 93q-3 5 -11 15q-11 13 -31 41
q-17 27 -66 95q-9 11 -25 35q-12 18 -20 27q-9 10 -25 34q-15 26 -29 43q-1 1 -5 6.5t-6 7.5q-27 28 -62 72q-8 12 -18 20q-1 0 -3 1t-3 1q-2 -4 -3 -5v-3v-7q0 -160 1 -216zM439 857q20 -4 36 -17q4 -3 4 -8q0 -7 -1 -9q-4 -13 -14 -28q-2 -3 -6 -6q-5 -5 -17 -13
q-4 -3 -14 -7q-16 -4 -24 -5q-5 -2 -12 0q-4 1 -8.5 1.5t-10 1t-8.5 0.5q-10 0 -15 2q-14 5 -42 5q-14 -1 -25 -12q-3 -3 -5 -7q-1 -1 -3 -3.5t-3 -3.5q-5 -4 -12 -3q-3 1 -8.5 2t-8.5 2q-10 4 -13 8l-9 9q-4 6 -2 11q4 14 12 28q5 8 12 14l21 18q4 3 14 5h6q21 3 40 -3
q6 -2 19 -4t19 -4h16l21 3q13 1 24 11l9 9q6 2 8 3z" />
    <glyph glyph-name="Ograve" unicode="&#xd2;" horiz-adv-x="725" 
d="M377 698h27q16 0 24 -2t25 -2q21 0 41 -11q3 -2 10 -5.5t11 -4.5q19 -11 36 -24l34 -30q24 -22 33 -35q28 -37 34 -47q29 -43 41 -91q6 -20 6 -30q1 -2 1 -6t1 -6q3 -9 3 -27v-17v-20.5v-17.5q0 -12 -2 -18q-3 -9 -3 -18l-1 -8q0 -9 -2 -13q-8 -37 -9 -38l-9 -24.5
l-9 -24.5q-8 -16 -10 -19q-15 -25 -38 -51q-23 -28 -48 -46l-17 -13q-18 -15 -36 -23q-6 -2 -16 -8q-5 -3 -26 -10q-1 0 -17 -4t-24 -5q-20 -2 -30 -4q-6 -1 -19 -1q-13 -1 -39 -1q-28 3 -33 4q-8 2 -12 2q-5 1 -18 5l-48 20q-4 1 -8 4q-29 16 -52 31q-18 14 -26 21
q-11 12 -30 26q-4 2 -9.5 7t-6.5 6l-21 22q-13 13 -21 30q-17 33 -19 42q-1 2 -2 4.5t-2 3.5q-7 13 -8 26q-10 47 -11 63q-2 12 -2 18q0 36 3 70q1 13 7 39q2 4 2 6q7 34 26 67q7 14 8 17l18 35q4 6 12.5 17.5t12.5 17.5q5 7 17 21q21 19 46 35q4 3 8 5q6 2 17 8t16 8
q20 10 46 15q1 0 4 0.5t5 0.5q4 2 24 4q18 0 36 3q5 1 15 1h34zM181 313v-37q0 -4 2 -12t4 -24q0 -9 3 -18l3 -9q0 -6 3 -18t3 -15q0 -5 3 -11l11.5 -26.5l11.5 -26.5q5 -10 10 -15q27 -28 52 -47q6 -4 13 -8l23 -9q1 0 11 -3t15 -3q33 -3 55 -1q4 0 12 2l29 9q19 7 31 24
q8 10 14 20q11 17 22 40q15 26 22 62l9 36q9 37 10 63q0 22 2 33q1 7 1 61v6l-6 33q-1 4 -2.5 13t-2.5 14l-3 15t-4 15q0 2 -2 11.5t-4 14.5q-11 37 -20 58q-7 16 -11 21q-6 11 -20 31q-10 15 -32 27q-15 9 -30 15q-15 7 -32 9l-27 3q-6 2 -9 2q-12 2 -21 -1q-2 -1 -5 -1
t-4 -1q-17 -5 -30 -15q-7 -7 -11 -10q-18 -12 -30 -30q-1 -2 -4 -5q-9 -9 -16 -25q-17 -39 -21 -57q-9 -25 -12 -47q-1 -5 -2.5 -16.5t-3.5 -16.5q-1 -5 -4 -30q-2 -43 -5 -55v-12q-1 -11 -1 -33zM438 748q-10 0 -15 2q-14 5 -49.5 16.5t-54.5 18.5q-23 9 -37 13q-2 0 -6 2
q-8 4 -9 12q0 6 1 9q2 12 4 18q2 15 13 34q1 1 2 2.5t1 2.5q6 6 14 5q4 0 6 -1q38 -20 55 -33q7 -7 14 -11q6 -5 18 -13q2 -1 53 -41q10 -8 8 -22q-2 -11 -11 -13q-1 0 -3 -0.5t-4 -0.5z" />
    <glyph glyph-name="Oacute" unicode="&#xd3;" horiz-adv-x="725" 
d="M377 698h27q16 0 24 -2t25 -2q21 0 41 -11q3 -2 10 -5.5t11 -4.5q19 -11 36 -24l34 -30q24 -22 33 -35q28 -37 34 -47q29 -43 41 -91q6 -20 6 -30q1 -2 1 -6t1 -6q3 -9 3 -27v-17v-20.5v-17.5q0 -12 -2 -18q-3 -9 -3 -18l-1 -8q0 -9 -2 -13q-8 -37 -9 -38l-9 -24.5
l-9 -24.5q-8 -16 -10 -19q-15 -25 -38 -51q-23 -28 -48 -46l-17 -13q-18 -15 -36 -23q-6 -2 -16 -8q-5 -3 -26 -10q-1 0 -17 -4t-24 -5q-20 -2 -30 -4q-6 -1 -19 -1q-13 -1 -39 -1q-28 3 -33 4q-8 2 -12 2q-5 1 -18 5l-48 20q-4 1 -8 4q-29 16 -52 31q-18 14 -26 21
q-11 12 -30 26q-4 2 -9.5 7t-6.5 6l-21 22q-13 13 -21 30q-17 33 -19 42q-1 2 -2 4.5t-2 3.5q-7 13 -8 26q-10 47 -11 63q-2 12 -2 18q0 36 3 70q1 13 7 39q2 4 2 6q7 34 26 67q7 14 8 17l18 35q4 6 12.5 17.5t12.5 17.5q5 7 17 21q21 19 46 35q4 3 8 5q6 2 17 8t16 8
q20 10 46 15q1 0 4 0.5t5 0.5q4 2 24 4q18 0 36 3q5 1 15 1h34zM181 313v-37q0 -4 2 -12t4 -24q0 -9 3 -18l3 -9q0 -6 3 -18t3 -15q0 -5 3 -11l11.5 -26.5l11.5 -26.5q5 -10 10 -15q27 -28 52 -47q6 -4 13 -8l23 -9q1 0 11 -3t15 -3q33 -3 55 -1q4 0 12 2l29 9q19 7 31 24
q8 10 14 20q11 17 22 40q15 26 22 62l9 36q9 37 10 63q0 22 2 33q1 7 1 61v6l-6 33q-1 4 -2.5 13t-2.5 14l-3 15t-4 15q0 2 -2 11.5t-4 14.5q-11 37 -20 58q-7 16 -11 21q-6 11 -20 31q-10 15 -32 27q-15 9 -30 15q-15 7 -32 9l-27 3q-6 2 -9 2q-12 2 -21 -1q-2 -1 -5 -1
t-4 -1q-17 -5 -30 -15q-7 -7 -11 -10q-18 -12 -30 -30q-1 -2 -4 -5q-9 -9 -16 -25q-17 -39 -21 -57q-9 -25 -12 -47q-1 -5 -2.5 -16.5t-3.5 -16.5q-1 -5 -4 -30q-2 -43 -5 -55v-12q-1 -11 -1 -33zM286 748q-2 0 -4 0.5t-3 0.5q-9 2 -11 13q-2 14 8 22q51 40 53 41
q12 8 18 13q7 4 14 11q17 13 55 33q2 1 6 1q8 1 14 -5q0 -1 1 -2.5t2 -2.5q11 -19 13 -34q2 -6 4 -18q1 -3 1 -9q-1 -8 -9 -12q-4 -2 -6 -2q-14 -4 -37 -13q-19 -7 -54.5 -18.5t-49.5 -16.5q-5 -2 -15 -2z" />
    <glyph glyph-name="Ocircumflex" unicode="&#xd4;" horiz-adv-x="725" 
d="M377 698h27q16 0 24 -2t25 -2q21 0 41 -11q3 -2 10 -5.5t11 -4.5q19 -11 36 -24l34 -30q24 -22 33 -35q28 -37 34 -47q29 -43 41 -91q6 -20 6 -30q1 -2 1 -6t1 -6q3 -9 3 -27v-17v-20.5v-17.5q0 -12 -2 -18q-3 -9 -3 -18l-1 -8q0 -9 -2 -13q-8 -37 -9 -38l-9 -24.5
l-9 -24.5q-8 -16 -10 -19q-15 -25 -38 -51q-23 -28 -48 -46l-17 -13q-18 -15 -36 -23q-6 -2 -16 -8q-5 -3 -26 -10q-1 0 -17 -4t-24 -5q-20 -2 -30 -4q-6 -1 -19 -1q-13 -1 -39 -1q-28 3 -33 4q-8 2 -12 2q-5 1 -18 5l-48 20q-4 1 -8 4q-29 16 -52 31q-18 14 -26 21
q-11 12 -30 26q-4 2 -9.5 7t-6.5 6l-21 22q-13 13 -21 30q-17 33 -19 42q-1 2 -2 4.5t-2 3.5q-7 13 -8 26q-10 47 -11 63q-2 12 -2 18q0 36 3 70q1 13 7 39q2 4 2 6q7 34 26 67q7 14 8 17l18 35q4 6 12.5 17.5t12.5 17.5q5 7 17 21q21 19 46 35q4 3 8 5q6 2 17 8t16 8
q20 10 46 15q1 0 4 0.5t5 0.5q4 2 24 4q18 0 36 3q5 1 15 1h34zM181 313v-37q0 -4 2 -12t4 -24q0 -9 3 -18l3 -9q0 -6 3 -18t3 -15q0 -5 3 -11l11.5 -26.5l11.5 -26.5q5 -10 10 -15q27 -28 52 -47q6 -4 13 -8l23 -9q1 0 11 -3t15 -3q33 -3 55 -1q4 0 12 2l29 9q19 7 31 24
q8 10 14 20q11 17 22 40q15 26 22 62l9 36q9 37 10 63q0 22 2 33q1 7 1 61v6l-6 33q-1 4 -2.5 13t-2.5 14l-3 15t-4 15q0 2 -2 11.5t-4 14.5q-11 37 -20 58q-7 16 -11 21q-6 11 -20 31q-10 15 -32 27q-15 9 -30 15q-15 7 -32 9l-27 3q-6 2 -9 2q-12 2 -21 -1q-2 -1 -5 -1
t-4 -1q-17 -5 -30 -15q-7 -7 -11 -10q-18 -12 -30 -30q-1 -2 -4 -5q-9 -9 -16 -25q-17 -39 -21 -57q-9 -25 -12 -47q-1 -5 -2.5 -16.5t-3.5 -16.5q-1 -5 -4 -30q-2 -43 -5 -55v-12q-1 -11 -1 -33zM235 780q0 3 3 9l2 2q26 28 41 41q4 4 9.5 9l12 11t10.5 9q14 14 41 32
q6 5 14 0q4 -1 11 -6q19 -13 40 -33l12 -11.5t15 -13.5l2 -2l39 -39q2 -2 4 -8v-3q-4 -12 -9 -16q-4 -5 -13 -7q-10 0 -15 2q-34 16 -66 39q-16 12 -25 17q-3 3 -8 1q-10 -5 -11 -6q-17 -10 -31 -20q-15 -12 -35 -24q-8 -4 -11 -5q-6 -4 -15 -2q-8 2 -11 5q-6 3 -6 10v9z
" />
    <glyph glyph-name="Otilde" unicode="&#xd5;" horiz-adv-x="725" 
d="M377 698h27q16 0 24 -2t25 -2q21 0 41 -11q3 -2 10 -5.5t11 -4.5q19 -11 36 -24l34 -30q24 -22 33 -35q28 -37 34 -47q29 -43 41 -91q6 -20 6 -30q1 -2 1 -6t1 -6q3 -9 3 -27v-17v-20.5v-17.5q0 -12 -2 -18q-3 -9 -3 -18l-1 -8q0 -9 -2 -13q-8 -37 -9 -38l-9 -24.5
l-9 -24.5q-8 -16 -10 -19q-15 -25 -38 -51q-23 -28 -48 -46l-17 -13q-18 -15 -36 -23q-6 -2 -16 -8q-5 -3 -26 -10q-1 0 -17 -4t-24 -5q-20 -2 -30 -4q-6 -1 -19 -1q-13 -1 -39 -1q-28 3 -33 4q-8 2 -12 2q-5 1 -18 5l-48 20q-4 1 -8 4q-29 16 -52 31q-18 14 -26 21
q-11 12 -30 26q-4 2 -9.5 7t-6.5 6l-21 22q-13 13 -21 30q-17 33 -19 42q-1 2 -2 4.5t-2 3.5q-7 13 -8 26q-10 47 -11 63q-2 12 -2 18q0 36 3 70q1 13 7 39q2 4 2 6q7 34 26 67q7 14 8 17l18 35q4 6 12.5 17.5t12.5 17.5q5 7 17 21q21 19 46 35q4 3 8 5q6 2 17 8t16 8
q20 10 46 15q1 0 4 0.5t5 0.5q4 2 24 4q18 0 36 3q5 1 15 1h34zM181 313v-37q0 -4 2 -12t4 -24q0 -9 3 -18l3 -9q0 -6 3 -18t3 -15q0 -5 3 -11l11.5 -26.5l11.5 -26.5q5 -10 10 -15q27 -28 52 -47q6 -4 13 -8l23 -9q1 0 11 -3t15 -3q33 -3 55 -1q4 0 12 2l29 9q19 7 31 24
q8 10 14 20q11 17 22 40q15 26 22 62l9 36q9 37 10 63q0 22 2 33q1 7 1 61v6l-6 33q-1 4 -2.5 13t-2.5 14l-3 15t-4 15q0 2 -2 11.5t-4 14.5q-11 37 -20 58q-7 16 -11 21q-6 11 -20 31q-10 15 -32 27q-15 9 -30 15q-15 7 -32 9l-27 3q-6 2 -9 2q-12 2 -21 -1q-2 -1 -5 -1
t-4 -1q-17 -5 -30 -15q-7 -7 -11 -10q-18 -12 -30 -30q-1 -2 -4 -5q-9 -9 -16 -25q-17 -39 -21 -57q-9 -25 -12 -47q-1 -5 -2.5 -16.5t-3.5 -16.5q-1 -5 -4 -30q-2 -43 -5 -55v-12q-1 -11 -1 -33zM435 857q20 -4 36 -17q4 -3 4 -8q0 -7 -1 -9q-4 -13 -14 -28q-2 -3 -6 -6
q-5 -5 -17 -13q-4 -3 -14 -7q-16 -4 -24 -5q-5 -2 -12 0l-27 3q-10 0 -15 2q-14 5 -42 5q-14 -1 -25 -12q-3 -3 -5 -7q-1 -1 -3 -3.5t-3 -3.5q-5 -4 -12 -3q-3 1 -8.5 2t-8.5 2q-10 4 -13 8l-9 9q-4 6 -2 11q4 14 12 28q5 8 12 14l21 18q4 3 14 5h6q21 3 40 -3q6 -2 19 -4
t19 -4h16l21 3q13 1 24 11l9 9q6 2 8 3z" />
    <glyph glyph-name="Odieresis" unicode="&#xd6;" horiz-adv-x="725" 
d="M377 698h27q16 0 24 -2t25 -2q21 0 41 -11q3 -2 10 -5.5t11 -4.5q19 -11 36 -24l34 -30q24 -22 33 -35q28 -37 34 -47q29 -43 41 -91q6 -20 6 -30q1 -2 1 -6t1 -6q3 -9 3 -27v-17v-20.5v-17.5q0 -12 -2 -18q-3 -9 -3 -18l-1 -8q0 -9 -2 -13q-8 -37 -9 -38l-9 -24.5
l-9 -24.5q-8 -16 -10 -19q-15 -25 -38 -51q-23 -28 -48 -46l-17 -13q-18 -15 -36 -23q-6 -2 -16 -8q-5 -3 -26 -10q-1 0 -17 -4t-24 -5q-20 -2 -30 -4q-6 -1 -19 -1q-13 -1 -39 -1q-28 3 -33 4q-8 2 -12 2q-5 1 -18 5l-48 20q-4 1 -8 4q-29 16 -52 31q-18 14 -26 21
q-11 12 -30 26q-4 2 -9.5 7t-6.5 6l-21 22q-13 13 -21 30q-17 33 -19 42q-1 2 -2 4.5t-2 3.5q-7 13 -8 26q-10 47 -11 63q-2 12 -2 18q0 36 3 70q1 13 7 39q2 4 2 6q7 34 26 67q7 14 8 17l18 35q4 6 12.5 17.5t12.5 17.5q5 7 17 21q21 19 46 35q4 3 8 5q6 2 17 8t16 8
q20 10 46 15q1 0 4 0.5t5 0.5q4 2 24 4q18 0 36 3q5 1 15 1h34zM181 313v-37q0 -4 2 -12t4 -24q0 -9 3 -18l3 -9q0 -6 3 -18t3 -15q0 -5 3 -11l11.5 -26.5l11.5 -26.5q5 -10 10 -15q27 -28 52 -47q6 -4 13 -8l23 -9q1 0 11 -3t15 -3q33 -3 55 -1q4 0 12 2l29 9q19 7 31 24
q8 10 14 20q11 17 22 40q15 26 22 62l9 36q9 37 10 63q0 22 2 33q1 7 1 61v6l-6 33q-1 4 -2.5 13t-2.5 14l-3 15t-4 15q0 2 -2 11.5t-4 14.5q-11 37 -20 58q-7 16 -11 21q-6 11 -20 31q-10 15 -32 27q-15 9 -30 15q-15 7 -32 9l-27 3q-6 2 -9 2q-12 2 -21 -1q-2 -1 -5 -1
t-4 -1q-17 -5 -30 -15q-7 -7 -11 -10q-18 -12 -30 -30q-1 -2 -4 -5q-9 -9 -16 -25q-17 -39 -21 -57q-9 -25 -12 -47q-1 -5 -2.5 -16.5t-3.5 -16.5q-1 -5 -4 -30q-2 -43 -5 -55v-12q-1 -11 -1 -33zM343 819q0 -2 -0.5 -6t-0.5 -6q0 -5 -1 -6q-7 -16 -15 -23q-3 -4 -8 -5
q-5 -3 -25 -10q-9 -4 -22 -2q-3 1 -8.5 2t-8.5 2q-10 2 -21 13q-18 21 -11 49q7 17 16 29q5 7 11 10q17 10 32 9h6q15 0 29 -8q11 -5 16 -14q4 -3 5 -8q5 -7 5 -14q0 -8 1 -12zM444 875q19 0 34 -6q16 -8 23 -24q7 -13 6 -23v-9q0 -7 -3 -15q-1 -2 -3 -5.5t-3 -5.5
q-7 -10 -16 -14q-16 -8 -31 -12q-9 -1 -18 0q-2 1 -6 2t-6 2q-20 4 -32 26q-4 6 -4 11v19q0 3 2 9q8 18 15 27q5 7 14 11q12 7 23 7h2h3z" />
    <glyph glyph-name="multiply" unicode="&#xd7;" horiz-adv-x="373" 
d="M349 178q2 -2 1.5 -7.5t-2.5 -7.5q-15 -15 -19 -18q-2 -2 -7.5 -2t-6.5 2q-1 1 -2.5 2t-2.5 2l-124 132l-2 2l-1 -2l-124 -132l-2 -2q-2 -1 -3 -2q-2 -2 -7 -2t-7 2q-3 3 -19 18q-2 2 -2.5 7.5t1.5 7.5l3 5q2 2 11 12.5t14 15.5l33 36q2 3 7 8.5t7 7.5q1 1 4 4.5t4 5.5
q5 9 19 23q9 11 18 16l8 7l1 1l-100 105q-14 15 -27 26q-3 1 -3 6t3 7q14 14 23 20q11 7 19 -3q4 -1 7 -6l75 -77q13 -13 18 -16q7 -6 20 -19q3 3 10 9.5t11 9.5q5 3 18 16l75 77q3 5 7 6q8 10 19 3q9 -6 23 -20q3 -2 3 -7t-3 -6q-13 -11 -27 -26l-100 -105l1 -1l8 -7
q9 -5 18 -16q14 -14 19 -23q1 -2 4 -5.5t4 -4.5q2 -2 7 -7.5t7 -8.5q4 -4 10.5 -11.5l12 -13.5l10.5 -11t14 -15.5t11 -12.5z" />
    <glyph glyph-name="Oslash" unicode="&#xd8;" horiz-adv-x="725" 
d="M704 378v-55q0 -12 -2 -18q-3 -9 -3 -18l-3 -21q-8 -37 -9 -38l-9 -24.5l-9 -24.5q-8 -16 -10 -19q-15 -25 -38 -51q-23 -28 -48 -46l-17 -13q-18 -15 -36 -23q-6 -2 -16 -8q-5 -3 -26 -10q-1 0 -17 -4t-24 -5q-20 -2 -30 -4q-6 -1 -19 -1q-13 -1 -39 -1q-28 3 -33 4
q-8 2 -12 2q-1 0 -3 1t-3 1q-3 -16 -7 -25q-9 -27 -11 -35q-4 -9 -12 -9q-10 -2 -26 -2q-17 0 -22 1q-12 1 -16 10q-5 4 -3 8q3 9 9.5 31t10.5 34l6 16l-49 29l-26 21q-11 12 -30 26q-4 2 -9.5 7.5t-6.5 5.5l-21 22q-13 14 -21 30q-17 33 -19 42l-4 8q-7 13 -8 26
q-10 47 -11 63q-2 12 -2 18q0 35 3 70q1 13 7 39q2 4 2 6q7 34 26 67q7 14 8 17l18 35l25 35q5 7 17 21q21 19 46 35q4 4 8 5l33 16q20 10 46 15q1 0 4 0.5t5 0.5q4 1 24 4q18 0 36 3q5 1 15 1h34h27q16 0 24 -2q4 -1 14 -1l1 2q5 12 17 32q5 13 22 16q17 4 40 2q3 0 5 -2
l6 -3q6 -6 4 -11q-3 -8 -8.5 -21t-6.5 -16q-2 -3 -4.5 -10l-3.5 -10l1 -1q19 -10 36 -24l34 -30q24 -22 33 -35q28 -37 34 -47q29 -43 41 -91q6 -20 6 -30l2 -12q3 -9 3 -27zM202 170l11.5 -26.5l11.5 -26.5q5 -10 10 -15l12 -12q1 3 10 27q3 16 9 31q2 7 7.5 21t7.5 21
q3 13 13 42l12 42l16 54q14 36 29 84q3 7 21 65l22 64q14 45 25 85q3 11 8 26q-2 0 -4.5 1t-3.5 2q-15 7 -32 9l-27 3q-6 2 -9 2q-12 2 -21 -1l-9 -2q-17 -4 -30 -15l-11 -10q-18 -12 -30 -30l-4 -5q-9 -9 -16 -25q-17 -39 -21 -57q-9 -24 -12 -47q-1 -5 -2.5 -16.5
t-3.5 -16.5q-1 -5 -4 -30q-2 -43 -5 -55v-12q-1 -11 -1 -33v-37q0 -4 2 -12t4 -24q0 -9 3 -18l3 -9q0 -6 3 -18t3 -15q0 -5 3 -11zM555 320q1 7 1 61v6q-1 4 -2 10.5t-2 12l-2 10.5l-5 27l-3 15t-4 15q0 2 -2 11.5t-4 14.5q-11 37 -20 58q-7 16 -11 21q-1 2 -10 17
q-2 -5 -4 -15q-1 -6 -4 -16t-5 -18.5t-3 -16.5q-7 -25 -19 -57q-2 -8 -7 -23.5t-7 -23.5q-28 -87 -35 -102q-14 -28 -26 -71l-10 -31q-28 -79 -37 -111l-17 -53l-6 -18l12 -5q1 0 11 -3t15 -3q33 -3 55 -1q4 0 12 2l29 9q19 7 31 24q8 10 14 20q11 17 22 40q15 26 22 62
l9 36q9 37 10 63q0 22 2 33z" />
    <glyph glyph-name="Ugrave" unicode="&#xd9;" horiz-adv-x="739" 
d="M245 148q8 -11 20 -29q27 -39 73 -64q2 -1 6.5 -3t6.5 -3q16 -6 40 -6q5 0 16 -0.5t17 -0.5q28 0 42 4q2 0 6 0.5t7 0.5q14 1 34 12q10 6 32 23q6 6 8 9l17 20q11 26 19 53q1 6 1.5 17.5t0.5 15.5q0 1 1 15.5t2 21.5q2 8 2 24q0 13 -0.5 39.5t-0.5 39.5v9q0 1 -3 43
q0 10 -0.5 30t-0.5 31q-2 124 -2 185v13q0 9 -9 14q-3 2 -9 4q-3 2 -11 4q-3 0 -8.5 0.5t-10 1t-8.5 1.5t-12 1q-9 1 -25 1q-1 0 -3 0.5t-3 0.5q-7 2 -5 10q0 4 6 6q1 1 5 1q19 3 40 1q22 -1 46 0q19 1 57 1q47 3 49 3q12 2 21 -1q2 0 6 -2q1 -1 3 -5t-5 -7q-1 0 -3 -0.5
t-3 -0.5q-26 -2 -33 -5q-4 -1 -12 -1q-9 -1 -23 -9q-6 -4 -7 -9q-3 -9 -3 -18q0 -42 2 -55q1 -5 1 -18q0 -6 1 -18t1 -18q0 -13 1 -18q3 -13 3 -37v-33v-204v-22q1 -16 -6 -63q-9 -37 -16 -49l-5.5 -11l-5.5 -11q-9 -17 -24 -27l-24 -18q-8 -5 -24 -13q-4 -1 -11 -3.5
t-9 -3.5q-27 -7 -33 -7q-2 0 -3 -1l-42 -6q-8 0 -12 -1q-6 -1 -33 -4q-31 0 -46 -1q-36 0 -61 5q-5 1 -14 1t-13 1q-14 2 -21 4t-19.5 8t-19.5 8q-3 1 -11 6q-24 18 -35 29l-8 8t-7 8q-11 11 -21 29q0 1 -1 2.5t-2 2.5q-17 31 -21 57q-6 17 -6 42q0 11 0.5 35t0.5 35v70
q0 63 1 95q0 85 -1 128v73q0 2 -0.5 6t-0.5 6q-2 4 -3 5q-8 6 -13 8q-24 6 -36 7q-1 0 -3 0.5t-3 0.5q-6 3 -6 7q1 1 3 5q2 2 8 4q4 1 12 1h76h155q2 0 7 -0.5t8 -0.5t6 -3q1 -1 0.5 -4t-1.5 -4q-10 -6 -17 -6q-16 -4 -24 -7q-11 -4 -17 -15q-5 -8 -5 -15q0 -6 -0.5 -18
t-0.5 -18q0 -8 -2 -28q-1 -6 -1 -18v-48v-186q0 -31 2 -40q1 -5 1 -15v-36q0 -29 8 -61l3.5 -11t3.5 -13zM445 748q-10 0 -15 2q-14 5 -49.5 16.5t-54.5 18.5q-23 9 -37 13q-2 0 -6 2q-7 4 -9 12q0 6 1 9q2 12 4 18q2 15 13 34q0 1 1 2.5t2 2.5q6 6 14 5q4 0 6 -1
q38 -20 55 -33q6 -7 14 -11q6 -5 18 -13q2 -1 53 -41q10 -8 8 -22q-2 -11 -11 -13q-1 0 -3 -0.5t-4 -0.5z" />
    <glyph glyph-name="Uacute" unicode="&#xda;" horiz-adv-x="739" 
d="M245 148q8 -11 20 -29q27 -39 73 -64q2 -1 6.5 -3t6.5 -3q16 -6 40 -6q5 0 16 -0.5t17 -0.5q28 0 42 4q2 0 6 0.5t7 0.5q14 1 34 12q10 6 32 23q6 6 8 9l17 20q11 26 19 53q1 6 1.5 17.5t0.5 15.5q0 1 1 15.5t2 21.5q2 8 2 24q0 13 -0.5 39.5t-0.5 39.5v9q0 1 -3 43
q0 10 -0.5 30t-0.5 31q-2 124 -2 185v13q0 9 -9 14q-3 2 -9 4q-3 2 -11 4q-3 0 -8.5 0.5t-10 1t-8.5 1.5t-12 1q-9 1 -25 1q-1 0 -3 0.5t-3 0.5q-7 2 -5 10q0 4 6 6q1 1 5 1q19 3 40 1q22 -1 46 0q19 1 57 1q47 3 49 3q12 2 21 -1q2 0 6 -2q1 -1 3 -5t-5 -7q-1 0 -3 -0.5
t-3 -0.5q-26 -2 -33 -5q-4 -1 -12 -1q-9 -1 -23 -9q-6 -4 -7 -9q-3 -9 -3 -18q0 -42 2 -55q1 -5 1 -18q0 -6 1 -18t1 -18q0 -13 1 -18q3 -13 3 -37v-33v-204v-22q1 -16 -6 -63q-9 -37 -16 -49l-5.5 -11l-5.5 -11q-9 -17 -24 -27l-24 -18q-8 -5 -24 -13q-4 -1 -11 -3.5
t-9 -3.5q-27 -7 -33 -7q-2 0 -3 -1l-42 -6q-8 0 -12 -1q-6 -1 -33 -4q-31 0 -46 -1q-36 0 -61 5q-5 1 -14 1t-13 1q-14 2 -21 4t-19.5 8t-19.5 8q-3 1 -11 6q-24 18 -35 29l-8 8t-7 8q-11 11 -21 29q0 1 -1 2.5t-2 2.5q-17 31 -21 57q-6 17 -6 42q0 11 0.5 35t0.5 35v70
q0 63 1 95q0 85 -1 128v73q0 2 -0.5 6t-0.5 6q-2 4 -3 5q-8 6 -13 8q-24 6 -36 7q-1 0 -3 0.5t-3 0.5q-6 3 -6 7q1 1 3 5q2 2 8 4q4 1 12 1h76h155q2 0 7 -0.5t8 -0.5t6 -3q1 -1 0.5 -4t-1.5 -4q-10 -6 -17 -6q-16 -4 -24 -7q-11 -4 -17 -15q-5 -8 -5 -15q0 -6 -0.5 -18
t-0.5 -18q0 -8 -2 -28q-1 -6 -1 -18v-48v-186q0 -31 2 -40q1 -5 1 -15v-36q0 -29 8 -61l3.5 -11t3.5 -13zM293 748q-2 0 -4 0.5t-3 0.5q-9 2 -11 13q-2 14 8 22q51 40 53 41q12 8 18 13q7 4 14 11q17 13 55 33q2 1 6 1q7 1 14 -5q1 -1 2 -2.5t1 -2.5q11 -19 13 -34
q2 -6 4 -18q1 -3 1 -9q-2 -8 -9 -12q-4 -2 -6 -2q-15 -4 -37 -13q-19 -7 -54.5 -18.5t-49.5 -16.5q-5 -2 -15 -2z" />
    <glyph glyph-name="Ucircumflex" unicode="&#xdb;" horiz-adv-x="739" 
d="M245 148q8 -11 20 -29q27 -39 73 -64q2 -1 6.5 -3t6.5 -3q16 -6 40 -6q5 0 16 -0.5t17 -0.5q28 0 42 4q2 0 6 0.5t7 0.5q14 1 34 12q10 6 32 23q6 6 8 9l17 20q11 26 19 53q1 6 1.5 17.5t0.5 15.5q0 1 1 15.5t2 21.5q2 8 2 24q0 13 -0.5 39.5t-0.5 39.5v9q0 1 -3 43
q0 10 -0.5 30t-0.5 31q-2 124 -2 185v13q0 9 -9 14q-3 2 -9 4q-3 2 -11 4q-3 0 -8.5 0.5t-10 1t-8.5 1.5t-12 1q-9 1 -25 1q-1 0 -3 0.5t-3 0.5q-7 2 -5 10q0 4 6 6q1 1 5 1q19 3 40 1q22 -1 46 0q19 1 57 1q47 3 49 3q12 2 21 -1q2 0 6 -2q1 -1 3 -5t-5 -7q-1 0 -3 -0.5
t-3 -0.5q-26 -2 -33 -5q-4 -1 -12 -1q-9 -1 -23 -9q-6 -4 -7 -9q-3 -9 -3 -18q0 -42 2 -55q1 -5 1 -18q0 -6 1 -18t1 -18q0 -13 1 -18q3 -13 3 -37v-33v-204v-22q1 -16 -6 -63q-9 -37 -16 -49l-5.5 -11l-5.5 -11q-9 -17 -24 -27l-24 -18q-8 -5 -24 -13q-4 -1 -11 -3.5
t-9 -3.5q-27 -7 -33 -7q-2 0 -3 -1l-42 -6q-8 0 -12 -1q-6 -1 -33 -4q-31 0 -46 -1q-36 0 -61 5q-5 1 -14 1t-13 1q-14 2 -21 4t-19.5 8t-19.5 8q-3 1 -11 6q-24 18 -35 29l-8 8t-7 8q-11 11 -21 29q0 1 -1 2.5t-2 2.5q-17 31 -21 57q-6 17 -6 42q0 11 0.5 35t0.5 35v70
q0 63 1 95q0 85 -1 128v73q0 2 -0.5 6t-0.5 6q-2 4 -3 5q-8 6 -13 8q-24 6 -36 7q-1 0 -3 0.5t-3 0.5q-6 3 -6 7q1 1 3 5q2 2 8 4q4 1 12 1h76h155q2 0 7 -0.5t8 -0.5t6 -3q1 -1 0.5 -4t-1.5 -4q-10 -6 -17 -6q-16 -4 -24 -7q-11 -4 -17 -15q-5 -8 -5 -15q0 -6 -0.5 -18
t-0.5 -18q0 -8 -2 -28q-1 -6 -1 -18v-48v-186q0 -31 2 -40q1 -5 1 -15v-36q0 -29 8 -61l3.5 -11t3.5 -13zM242 780q0 3 3 9l2 2q26 28 41 41q4 4 9.5 9l12 11t10.5 9q14 14 41 32q6 5 14 0q5 -1 11 -6q19 -13 40 -33l12 -11.5t15 -13.5l2 -2l39 -39q2 -2 4 -8v-3
q-4 -12 -9 -16q-4 -5 -13 -7q-10 0 -15 2q-35 16 -66 39q-16 12 -25 17q-3 3 -8 1q-10 -5 -11 -6q-17 -10 -31 -20q-15 -12 -35 -24q-8 -4 -11 -5q-6 -4 -15 -2q-8 2 -11 5q-6 3 -6 10v9z" />
    <glyph glyph-name="Udieresis" unicode="&#xdc;" horiz-adv-x="739" 
d="M245 148q8 -11 20 -29q27 -39 73 -64q2 -1 6.5 -3t6.5 -3q16 -6 40 -6q5 0 16 -0.5t17 -0.5q28 0 42 4q2 0 6 0.5t7 0.5q14 1 34 12q10 6 32 23q6 6 8 9l17 20q11 26 19 53q1 6 1.5 17.5t0.5 15.5q0 1 1 15.5t2 21.5q2 8 2 24q0 13 -0.5 39.5t-0.5 39.5v9q0 1 -3 43
q0 10 -0.5 30t-0.5 31q-2 124 -2 185v13q0 9 -9 14q-3 2 -9 4q-3 2 -11 4q-3 0 -8.5 0.5t-10 1t-8.5 1.5t-12 1q-9 1 -25 1q-1 0 -3 0.5t-3 0.5q-7 2 -5 10q0 4 6 6q1 1 5 1q19 3 40 1q22 -1 46 0q19 1 57 1q47 3 49 3q12 2 21 -1q2 0 6 -2q1 -1 3 -5t-5 -7q-1 0 -3 -0.5
t-3 -0.5q-26 -2 -33 -5q-4 -1 -12 -1q-9 -1 -23 -9q-6 -4 -7 -9q-3 -9 -3 -18q0 -42 2 -55q1 -5 1 -18q0 -6 1 -18t1 -18q0 -13 1 -18q3 -13 3 -37v-33v-204v-22q1 -16 -6 -63q-9 -37 -16 -49l-5.5 -11l-5.5 -11q-9 -17 -24 -27l-24 -18q-8 -5 -24 -13q-4 -1 -11 -3.5
t-9 -3.5q-27 -7 -33 -7q-2 0 -3 -1l-42 -6q-8 0 -12 -1q-6 -1 -33 -4q-31 0 -46 -1q-36 0 -61 5q-5 1 -14 1t-13 1q-14 2 -21 4t-19.5 8t-19.5 8q-3 1 -11 6q-24 18 -35 29l-8 8t-7 8q-11 11 -21 29q0 1 -1 2.5t-2 2.5q-17 31 -21 57q-6 17 -6 42q0 11 0.5 35t0.5 35v70
q0 63 1 95q0 85 -1 128v73q0 2 -0.5 6t-0.5 6q-2 4 -3 5q-8 6 -13 8q-24 6 -36 7q-1 0 -3 0.5t-3 0.5q-6 3 -6 7q1 1 3 5q2 2 8 4q4 1 12 1h76h155q2 0 7 -0.5t8 -0.5t6 -3q1 -1 0.5 -4t-1.5 -4q-10 -6 -17 -6q-16 -4 -24 -7q-11 -4 -17 -15q-5 -8 -5 -15q0 -6 -0.5 -18
t-0.5 -18q0 -8 -2 -28q-1 -6 -1 -18v-48v-186q0 -31 2 -40q1 -5 1 -15v-36q0 -29 8 -61l3.5 -11t3.5 -13zM350 819q0 -2 -0.5 -6t-0.5 -6q0 -5 -1 -6q-7 -16 -15 -23q-3 -4 -8 -5q-5 -3 -25 -10q-9 -4 -22 -2q-3 1 -8.5 2t-8.5 2q-10 2 -21 13q-18 21 -11 49q7 17 16 29
q5 7 11 10q17 10 32 9h6q15 0 29 -8q11 -5 16 -14q3 -3 5 -8q5 -7 5 -14q0 -8 1 -12zM451 875q19 0 34 -6q16 -8 23 -24q7 -13 6 -23v-9q0 -7 -3 -15q-1 -2 -3 -5.5t-3 -5.5q-7 -10 -16 -14q-16 -8 -31 -12q-9 -1 -18 0q-2 1 -6 2t-6 2q-20 4 -32 26q-4 6 -4 11v19q0 3 2 9
q8 18 15 27q5 7 14 11q12 7 23 7h2h3z" />
    <glyph glyph-name="Yacute" unicode="&#xdd;" horiz-adv-x="669" 
d="M262 337q-31 59 -33 62q-3 4 -8.5 14.5t-8.5 14.5l-2 2q-3 7 -25 42q-8 12 -22 36q-18 33 -41 71l-36 57q-12 17 -26 26q-7 6 -19 9q-11 3 -33 5q-5 2 -6 5q-3 6 1 12q4 4 11 6q2 0 5 0.5t4 0.5q83 0 100 -1q10 0 28 -2q15 -4 36 -2q41 0 61 1h58q5 0 8 -3q8 -4 2 -10
q-2 -3 -7 -5q-2 0 -6 -1t-6 -1q-8 0 -18 -5q-10 -3 -15 -13q-3 -4 -4 -8q-4 -8 -1 -18q1 -3 5.5 -14t6.5 -17l3 -6q4 -6 12 -21t14 -23q2 -3 5 -9t4 -7q19 -37 35 -61q3 -5 9.5 -14l9.5 -13q4 -5 8 -1q1 0 2.5 2t2.5 2l36 49q37 52 41 60q2 3 11 15q26 38 32 48q0 1 2 3.5
t2 4.5q8 15 -4 29q-7 7 -12 9q-2 1 -8 3q-20 5 -36 5q-11 1 -33 7q-2 0 -3.5 3t-0.5 4q4 6 6 7q6 2 9 2q7 0 21 0.5t22 0.5q18 0 27 -2q3 -1 6.5 -1.5t8 -1t6.5 -0.5q46 -2 91 0q28 1 55 0q2 0 6 -2q3 -2 1 -5q-1 -1 -3 -5q-10 -6 -17 -7q-25 -3 -53 -20q-8 -6 -12 -10
q-11 -11 -20 -23l-31 -38q-20 -27 -24 -35q-2 -4 -5 -7q-2 -4 -7 -10.5t-7 -9.5t-23 -40l-5.5 -11t-5.5 -10q-10 -19 -20 -31q-6 -8 -8 -13q-1 -1 -3 -5t-3 -5q-9 -15 -9.5 -18t-0.5 -23v-54q-1 -5 -1 -14.5v-13.5q-3 -34 -1 -76q0 -23 0.5 -70t0.5 -70q0 -2 0.5 -6t0.5 -6
q0 -12 11 -18q21 -13 42 -17q2 0 5 -3q6 -6 1 -14q-2 -5 -7 -5h-6q-71 -1 -213 -1q-16 0 -24 1h-1q-1 1 -2 1t-3 5q-2 12 11 17l24 6q6 2 8 3q12 5 17 17q2 2 2 5v19q-1 37 -1 112q0 16 -0.5 47.5t-0.5 47.5v6q-2 9 -3.5 26t-2.5 25zM258 748q-2 0 -4 0.5t-3 0.5
q-9 2 -11 13q-2 14 8 22q51 40 53 41q12 8 18 13q7 4 14 11q17 13 55 33q2 1 6 1q7 1 14 -5q0 -1 1 -2.5t2 -2.5q11 -19 13 -34q2 -6 4 -18q1 -3 1 -9q-1 -8 -9 -12q-4 -2 -6 -2q-14 -4 -37 -13q-19 -7 -54.5 -18.5t-49.5 -16.5q-5 -2 -15 -2z" />
    <glyph glyph-name="Thorn" unicode="&#xde;" horiz-adv-x="621" 
d="M258 628q13 0 20 -1h98q8 0 23.5 -0.5t22.5 -0.5q13 0 33 -6q4 -3 13.5 -5.5t12.5 -4.5q10 -3 22 -11l30 -21q7 -6 13 -13q8 -10 28 -32q10 -11 14 -24q7 -23 7 -30q2 -8 3 -11q2 -10 2 -16v-18q0 -22 -1 -27q-9 -34 -14 -44l-12 -25q-5 -10 -19 -28q-2 -2 -5 -4t-4 -4
q-20 -24 -53 -42q-28 -16 -53 -21q-5 -1 -14.5 -2.5t-17 -3t-13.5 -3.5q-5 -2 -16 -2q-16 -2 -24 -4q-6 -2 -9 -2q-11 0 -33 -2.5t-34 -2.5q-10 0 -21 -3q-4 -2 -5 -4q0 -1 -0.5 -3t-0.5 -3v-25v-17v-20.5v-17.5q0 -43 1 -64q0 -5 4 -15q4 -6 8 -8q3 -2 9 -4q7 -4 17 -6
q3 -1 9 -2t9 -2q4 0 8 -4q2 -4 1 -6q0 -3 -3 -5q-15 -5 -29 -5q-154 -2 -230 -2h-25q-1 0 -3 0.5t-3 0.5q-2 1 -4 5q0 4 2 5q3 5 7 6q8 2 23.5 7t23.5 7q8 1 16 9q5 5 6 10q6 30 6 46v49q0 45 0.5 136t1.5 136q0 111 -1 166v74q0 2 -0.5 5t-0.5 4q0 2 -3 5q-4 5 -12 9
q-11 5 -21 6q-4 0 -12 2q-6 0 -6 6q0 9 6 9q4 2 6 2q7 1 21 1h153q11 0 13 -11v-3q2 -33 1 -49q0 -4 1 -6q0 -7 7 -10zM317 589h-16q-21 0 -36 -5q-7 -3 -10 -11q-2 -4 -2 -15q-3 -42 -3 -85q1 -69 1 -208q0 -8 1 -12q0 -2 1 -3l4 -4q4 0 13.5 0.5t14.5 -0.5q18 0 33 4
q12 2 34 12q8 4 22 12q3 3 5 4q28 28 34 39q17 24 35 67q5 12 7 26q0 6 2 16q3 15 0 30l-3 18q0 4 -5 21q-10 32 -34 61q-13 16 -30 20q-21 8 -35 10l-18 3h-15z" />
    <glyph glyph-name="germandbls" unicode="&#xdf;" horiz-adv-x="598" 
d="M343 672l-6 3q-3 1 -4 2q-4 2 -6 2l-36 6q-20 2 -34 -2l-15 -3q-4 -4 -5 -8v-21v-98q0 -14 -2 -22t-2 -15q0 -4 -0.5 -13t-0.5 -14q0 -13 -2 -19q-3 -15 -3 -45v-138v-16v-64q0 -10 -0.5 -28t-0.5 -27q0 -39 -1 -59v-24v-111q0 -3 -0.5 -8t-0.5 -7q0 -1 -2.5 -3.5
t-4.5 -2.5h-6h-168q-11 0 -16 1q-7 2 -7 9q3 6 7 6q8 2 12 2q14 1 29 8q10 5 10 14q1 6 1 16v52q0 6 0.5 19.5t0.5 20.5v25v29.5v25.5v193q0 51 1 77q0 17 1 21q3 18 3 37q0 14 0.5 42.5t0.5 42.5q0 25 -1 37q0 8 -1 12q-3 8 -5 40q-2 8 -9 11q-19 7 -33 7q-5 0 -9 3
q-3 2 -3 5q2 5 3 5q4 3 14 5h10h95q9 0 27 -2q41 -2 61 1q5 1 16 1q34 2 67 0q10 0 15 -1q9 -2 28 -2q12 -1 37 -1q7 0 20 -3.5t16 -3.5l37 -20q13 -11 20 -15q28 -21 47 -56q7 -12 9 -26q0 -8 1 -12q0 -45 -2 -68q-1 -13 -10 -29q-1 -2 -4 -6t-4 -7q-8 -16 -26 -29
q-15 -11 -26 -16q-10 -6 -32 -18q-4 -2 -13 -5t-13 -5q-11 -6 -13 -7q-1 0 -3 -2q0 -3 3 -3q12 -4 34 -14q6 -3 34 -16q26 -11 48 -26q19 -15 31 -30q3 -3 5 -7q11 -21 18 -52q2 -6 2 -19q1 0 1 -15l-1 -15q1 -34 -14 -75q-5 -14 -11 -22q-1 -2 -5.5 -8t-6.5 -9
q-9 -13 -22 -22q-30 -18 -66 -31q-3 0 -9 -2l-12.5 -2.5t-11.5 -1.5q-10 -3 -22 -1q-6 2 -9 7q-1 2 -7 17q-1 4 -1 12q0 6 3 9q2 4 3 5q8 9 17 22t18 39q2 6 2 9q2 10 4 15q2 10 2 15v58q0 16 -8 42l-9 23q-1 2 -3 5.5t-3 5.5q-2 4 -6.5 11l-6.5 10q-7 13 -23 28
q-18 16 -32 18q-4 2 -11.5 3t-9.5 2q-13 2 -8 17q3 7 9 8q4 3 11 3q20 3 41 14q10 6 16 10q8 5 11 14q8 18 11 35q2 8 2 12v55q0 10 -3 21q-1 5 -3 14t-3 13q-8 27 -9 29q-12 25 -19.5 36.5t-29.5 34.5z" />
    <glyph glyph-name="agrave" unicode="&#xe0;" horiz-adv-x="465" 
d="M50 190l6.5 6.5l8 8l6.5 6.5q5 5 17 13q30 20 55 27q20 6 30 7l9 3q12 2 18 2q30 2 61 0q8 0 8 8q4 32 3 49q0 12 -1 19q-2 12 -2 18q0 3 -0.5 7.5t-1 8.5t-1.5 8q0 3 -2 10t-3 11q-1 2 -2 6t-2 6q-4 11 -15 19q-15 13 -31 19q-3 2 -9 2h-25q-13 0 -24 -4q-19 -5 -33 -16
q-24 -15 -40 -46l-11 -22l-2 -2q-9 -6 -17 0q-3 2 -5 8q0 12 4 18l12 21q8 15 25 31q10 10 16 14q26 16 42 19q12 5 55 19q17 5 30 5q11 0 16 -1q4 0 13.5 -0.5t14.5 -0.5q22 -7 31 -11q6 -3 18 -7l8 -4q25 -16 39 -30q1 -1 3.5 -4t5 -5t4.5 -4q15 -17 22 -33q4 -9 7 -20
q5 -23 5 -43v-74q0 -10 -0.5 -29t-0.5 -29q-1 -2 -1 -6.5v-6.5q-2 -9 -2 -43v-77q0 -9 3 -18q8 -14 17 -17q2 -2 8 -4q6 -5 4 -14q-3 -8 -11 -11q-22 -10 -50 -13q-13 0 -19 1q-8 1 -24 5q-12 4 -17 5q-1 1 -4 2t-5 2q-9 6 -23 20q-3 3 -5 8q-2 2 -4.5 6.5t-3.5 6.5h-3
q-10 -8 -15 -11q-28 -16 -32 -18q-7 -4 -21 -9t-16 -6q-6 -1 -16.5 -3.5t-13.5 -3.5q-10 -2 -15 -2h-22q-19 0 -48 9q-24 9 -40 32q-16 28 -16 53v18q0 5 2 15q1 5 3.5 13.5t3.5 13.5q9 21 13 28q1 1 2.5 3t3 4.5t2.5 3.5zM272 158v42v9q-3 9 -8 9q-1 0 -3 0.5t-3 0.5
q-8 1 -25 1q-38 0 -43 -1q-8 -2 -35 -11q-14 -3 -20 -17q-4 -8 -5 -11q0 -1 -1 -3q-2 -4 -2 -6q-2 -29 4 -43q2 -9 13 -24q4 -5 12 -10q16 -8 32 -8q6 0 9 1q9 2 23.5 3t19.5 2l12 3q6 2 16 8q5 3 5 8q1 5 1 30q0 3 -0.5 9t-1.5 8zM308 548q-10 0 -15 2q-14 5 -49.5 16.5
t-54.5 18.5q-22 9 -37 13q-2 0 -6 2q-8 4 -9 12q0 6 1 9q2 12 4 18q2 15 13 34q1 1 2 2.5t1 2.5q7 6 14 5q4 0 6 -1q38 -20 55 -33q6 -7 14 -11q6 -5 18 -13q2 -1 53 -41q10 -8 8 -22q-2 -11 -11 -13q-1 0 -3 -0.5t-4 -0.5z" />
    <glyph glyph-name="aacute" unicode="&#xe1;" horiz-adv-x="465" 
d="M50 190l6.5 6.5l8 8l6.5 6.5q5 5 17 13q30 20 55 27q20 6 30 7l9 3q12 2 18 2q30 2 61 0q8 0 8 8q4 32 3 49q0 12 -1 19q-2 12 -2 18q0 3 -0.5 7.5t-1 8.5t-1.5 8q0 3 -2 10t-3 11q-1 2 -2 6t-2 6q-4 11 -15 19q-15 13 -31 19q-3 2 -9 2h-25q-13 0 -24 -4q-19 -5 -33 -16
q-24 -15 -40 -46l-11 -22l-2 -2q-9 -6 -17 0q-3 2 -5 8q0 12 4 18l12 21q8 15 25 31q10 10 16 14q26 16 42 19q12 5 55 19q17 5 30 5q11 0 16 -1q4 0 13.5 -0.5t14.5 -0.5q22 -7 31 -11q6 -3 18 -7l8 -4q25 -16 39 -30q1 -1 3.5 -4t5 -5t4.5 -4q15 -17 22 -33q4 -9 7 -20
q5 -23 5 -43v-74q0 -10 -0.5 -29t-0.5 -29q-1 -2 -1 -6.5v-6.5q-2 -9 -2 -43v-77q0 -9 3 -18q8 -14 17 -17q2 -2 8 -4q6 -5 4 -14q-3 -8 -11 -11q-22 -10 -50 -13q-13 0 -19 1q-8 1 -24 5q-12 4 -17 5q-1 1 -4 2t-5 2q-9 6 -23 20q-3 3 -5 8q-2 2 -4.5 6.5t-3.5 6.5h-3
q-10 -8 -15 -11q-28 -16 -32 -18q-7 -4 -21 -9t-16 -6q-6 -1 -16.5 -3.5t-13.5 -3.5q-10 -2 -15 -2h-22q-19 0 -48 9q-24 9 -40 32q-16 28 -16 53v18q0 5 2 15q1 5 3.5 13.5t3.5 13.5q9 21 13 28q1 1 2.5 3t3 4.5t2.5 3.5zM272 158v42v9q-3 9 -8 9q-1 0 -3 0.5t-3 0.5
q-8 1 -25 1q-38 0 -43 -1q-8 -2 -35 -11q-14 -3 -20 -17q-4 -8 -5 -11q0 -1 -1 -3q-2 -4 -2 -6q-2 -29 4 -43q2 -9 13 -24q4 -5 12 -10q16 -8 32 -8q6 0 9 1q9 2 23.5 3t19.5 2l12 3q6 2 16 8q5 3 5 8q1 5 1 30q0 3 -0.5 9t-1.5 8zM156 548q-2 0 -4 0.5t-3 0.5q-9 2 -11 13
q-2 14 8 22q51 40 53 41q12 8 18 13q7 4 14 11q17 13 55 33q2 1 6 1q8 1 14 -5q0 -1 1 -2.5t2 -2.5q11 -19 13 -34q2 -6 4 -18q1 -3 1 -9q-1 -8 -9 -12q-4 -2 -6 -2q-14 -4 -37 -13q-19 -7 -54.5 -18.5t-49.5 -16.5q-5 -2 -15 -2z" />
    </font>
</defs>
</svg>
