<?xml version="1.0" encoding="utf-8"?>
<!-- Generator: Adobe Illustrator 17.0.0, SVG Export Plug-In . SVG Version: 6.00 Build 0)  -->
<!DOCTYPE svg PUBLIC "-//W3C//DTD SVG 1.1//EN" "http://www.w3.org/Graphics/SVG/1.1/DTD/svg11.dtd">
<svg version="1.1" id="Layer_1" xmlns="http://www.w3.org/2000/svg" xmlns:xlink="http://www.w3.org/1999/xlink" x="0px" y="0px"
	 width="1920px" height="1080px" viewBox="0 0 1920 1080" enable-background="new 0 0 1920 1080" xml:space="preserve">
<g opacity="0.85">
	<path d="M732.596,438.111c-6.668,0-12.299,2.324-16.892,6.973c-4.593,4.593-6.89,10.266-6.89,17.017
		c0,7.083,2.379,12.908,7.139,17.473c4.731,4.565,10.196,6.848,16.394,6.848c6.724,0,12.396-2.324,17.017-6.973
		c4.621-4.704,6.931-10.431,6.931-17.183c0-6.834-2.283-12.562-6.848-17.183C744.909,440.436,739.292,438.111,732.596,438.111z"/>
	<path d="M817.306,439H814v20h3.721c8.882,0,13.323-3.332,13.323-10.166C831.043,442.221,826.464,439,817.306,439z"/>
	<path d="M876.822,449.168c0-6.558-4.455-10.168-13.364-10.168H860v21h3.084C872.243,460,876.822,456.168,876.822,449.168z"/>
	<path d="M990.045,439H986v46h4.045c4.344,0,7.955-0.347,10.832-1.26c2.878-0.968,5.479-2.449,7.803-4.552
		c4.76-4.344,7.139-9.975,7.139-16.948c0-7.028-2.352-12.871-7.055-17.243C1004.529,441.095,998.29,439,990.045,439z"/>
	<path d="M1256.5,438.111c-6.67,0-12.301,2.324-16.893,6.973c-4.594,4.593-6.889,10.266-6.889,17.017
		c0,7.083,2.379,12.908,7.139,17.473c4.73,4.565,10.195,6.848,16.393,6.848c6.725,0,12.396-2.324,17.018-6.973
		c4.619-4.704,6.932-10.431,6.932-17.183c0-6.834-2.283-12.562-6.85-17.183C1268.812,440.436,1263.195,438.111,1256.5,438.111z"/>
	<path d="M606.507,439H602v46h4.507c4.344,0,7.955-0.347,10.833-1.26c2.877-0.968,5.479-2.449,7.803-4.552
		c4.759-4.344,7.139-9.975,7.139-16.948c0-7.028-2.352-12.871-7.056-17.243C620.992,441.095,614.752,439,606.507,439z"/>
	<path d="M-1,0v1080h1920V0H-1z M530.68,498.896L502.582,430h10.583l17.722,44.409L548.858,430h10.583L530.68,498.896z M577,494h-10
		v-64h10V494z M631.7,486.173c-3.459,3.044-7.083,5.007-10.874,6.196c-3.542,1.19-8.564,1.631-15.066,1.631H592v-64h13.926
		c6.447,0,11.538,0.75,15.273,2.022c4.012,1.245,7.65,3.418,10.916,6.406c6.613,6.032,9.919,13.988,9.919,23.81
		C642.035,472.089,638.59,480.086,631.7,486.173z M690,439h-26v16h25v9h-25v21h26v9h-36v-64h36V439z M756.17,485.799
		c-6.613,6.447-14.596,9.67-23.948,9.67c-8.273,0-15.703-2.864-22.288-8.591c-7.25-6.336-10.874-14.637-10.874-24.902
		c0-9.02,3.306-16.768,9.919-23.242c6.585-6.475,14.499-9.712,23.74-9.712c9.131,0,16.961,3.265,23.491,9.795
		c6.558,6.53,9.836,14.375,9.836,23.533C766.048,471.563,762.755,479.38,756.17,485.799z M834.488,462.996
		c-3.929,3.431-9.228,5.004-15.896,5.004H814v26h-10v-64h11.396c5.368,0,9.421,0.486,12.161,1.233
		c2.767,0.747,5.202,2.215,7.305,4.29c3.68,3.597,5.52,8.092,5.52,13.57C840.382,454.96,838.417,459.565,834.488,462.996z
		 M880.06,494l-18.303-26H860v26h-10v-64h11.673c8.467,0,14.582,1.704,18.345,4.886c4.15,3.542,6.226,8.274,6.226,14.085
		c0,4.538-1.301,8.468-3.901,11.732c-2.601,3.265-6.032,5.214-10.293,6.127L891.888,494H880.06z M953.978,485.799
		c-6.613,6.447-14.596,9.67-23.948,9.67c-8.273,0-15.703-2.864-22.288-8.591c-7.25-6.336-10.874-14.637-10.874-24.902
		c0-9.02,3.306-16.768,9.919-23.242c6.585-6.475,14.499-9.712,23.74-9.712c9.131,0,16.961,3.265,23.491,9.795
		c6.558,6.53,9.836,14.375,9.836,23.533C963.855,471.563,960.563,479.38,953.978,485.799z M1015.238,486.173
		c-3.459,3.044-7.084,5.007-10.875,6.196c-3.541,1.19-8.563,1.631-15.065,1.631H976v-64h13.464c6.446,0,11.538,0.75,15.273,2.022
		c4.012,1.245,7.65,3.418,10.915,6.406c6.613,6.032,9.92,13.988,9.92,23.81C1025.572,472.089,1022.127,480.086,1015.238,486.173z
		 M1085,471.48c0,6.751-2.018,12.313-6.223,16.685c-4.731,4.87-10.499,7.305-17.389,7.305s-12.531-2.435-17.235-7.305
		c-4.205-4.372-6.153-9.933-6.153-16.685V430h9v38.824c0,5.506,1.101,9.532,2.9,12.078c2.684,3.68,6.561,5.52,11.431,5.52
		c4.897,0,8.987-1.84,11.672-5.52c1.798-2.462,2.998-6.488,2.998-12.078V430h9V471.48z M1148,445.125
		c-6-4.676-11.431-7.014-17.407-7.014c-6.585,0-12.162,2.366-16.671,7.097c-4.538,4.704-6.821,10.459-6.821,17.266
		c0,6.724,2.261,12.396,6.799,17.017c4.537,4.621,10.096,6.931,16.681,6.931c3.403,0,6.292-0.553,8.673-1.66
		c1.328-0.553,2.76-1.3,4.186-2.241c1.425-0.94,2.561-2.075,4.561-3.403v11.663c-6,3.127-11.403,4.69-17.489,4.69
		c-9.159,0-17.004-3.196-23.479-9.587c-6.447-6.447-9.685-14.222-9.685-23.325c0-8.162,2.691-15.439,8.087-21.831
		c6.641-7.83,15.286-11.746,25.828-11.746c5.756,0,11.74,1.563,16.74,4.69V445.125z M1192,439h-14v55h-10v-55h-15v-9h39V439z
		 M1211,494h-10v-64h10V494z M1280.074,485.799c-6.613,6.447-14.596,9.67-23.947,9.67c-8.275,0-15.703-2.864-22.289-8.591
		c-7.25-6.336-10.873-14.637-10.873-24.902c0-9.02,3.305-16.768,9.92-23.242c6.584-6.475,14.498-9.712,23.74-9.712
		c9.131,0,16.959,3.265,23.49,9.795c6.559,6.53,9.836,14.375,9.836,23.533C1289.951,471.563,1286.658,479.38,1280.074,485.799z
		 M1359,498.209l-47-48.767V494h-10v-68.132l47,48.892V430h10V498.209z M1405.873,489.659c-3.957,3.874-8.869,5.811-14.734,5.811
		c-5.561,0-10.154-1.646-13.779-4.939c-3.568-3.292-5.797-7.927-6.682-13.904l9.795-2.158c0.441,3.763,1.217,6.364,2.324,7.803
		c1.992,2.767,4.896,4.15,8.715,4.15c3.016,0,5.521-1.01,7.514-3.03c1.992-2.02,2.988-4.579,2.988-7.678
		c0-1.245-0.174-2.387-0.52-3.424c-0.346-1.038-0.887-1.992-1.619-2.864c-0.732-0.871-1.68-1.687-2.842-2.448
		c-1.162-0.761-2.547-1.487-4.15-2.179l-6.186-2.573c-8.771-3.708-13.156-9.131-13.156-16.27c0-4.814,1.84-8.84,5.52-12.078
		c3.68-3.265,8.26-4.897,13.738-4.897c7.389,0,13.156,3.597,17.307,10.791l-7.844,4.648c-1.467-2.545-2.863-4.206-4.191-4.98
		c-1.385-0.885-3.17-1.328-5.354-1.328c-2.686,0-4.912,0.761-6.684,2.283c-1.771,1.494-2.656,3.376-2.656,5.645
		c0,3.127,2.324,5.645,6.973,7.554l6.393,2.615c5.201,2.103,9.006,4.669,11.414,7.699c2.406,3.029,3.609,6.744,3.609,11.144
		C1411.766,480.943,1409.801,485.813,1405.873,489.659z"/>
	<path d="M930.404,438.111c-6.668,0-12.299,2.324-16.892,6.973c-4.593,4.593-6.89,10.266-6.89,17.017
		c0,7.083,2.379,12.908,7.139,17.473c4.731,4.565,10.196,6.848,16.394,6.848c6.724,0,12.396-2.324,17.017-6.973
		c4.621-4.704,6.931-10.431,6.931-17.183c0-6.834-2.283-12.562-6.848-17.183C942.716,440.436,937.1,438.111,930.404,438.111z"/>
</g>
</svg>
