<svg class="svg-mask" x="0px" y="0px" width="4000px" height="3000px" viewBox="0 0 4000 3000">
							<title>Video productions</title>
							<path id="video-mask" stroke="none" stroke-width="1" fill="#000000" fill-rule="evenodd" d="M0,0 L0,3000 L4000,3000 L4000,0 L0,0 L0,0 Z M1724.97263,1474.90923 L1716.39084,1503.56368 L1707.73633,1474.90923 L1698.35454,1475.41832 L1711.80904,1516 L1720.89992,1516 L1734.35442,1475.41832 L1724.97263,1474.90923 Z M1750.58177,1474.98196 L1741.49089,1475.41832 L1741.49089,1516 L1750.58177,1516 L1750.58177,1474.98196 Z M1762.00907,1516 L1775.09994,1516 C1782.29991,1516 1792.4817,1511.4182 1792.4817,1496.0728 C1792.4817,1481.60012 1783.89991,1474.90923 1775.97266,1474.90923 C1771.24541,1475.12741 1766.6636,1475.34559 1762.00907,1475.6365 L1762.00907,1516 Z M1771.02722,1506.98185 L1771.02722,1484.14556 C1772.48176,1484.00011 1773.71812,1484.00011 1775.17266,1483.92738 C1780.62719,1483.92738 1783.31809,1489.45464 1783.31809,1496.3637 C1783.31809,1502.61823 1780.48174,1506.98185 1774.95448,1506.98185 L1771.02722,1506.98185 Z M1828.12717,1483.7092 L1828.12717,1475.20014 L1802.09089,1475.27287 L1802.09089,1516 L1828.12717,1516 L1828.12717,1507.49094 L1811.03632,1507.49094 L1811.03632,1500.36369 L1822.81809,1500.36369 L1822.81809,1491.85463 L1811.03632,1491.85463 L1811.03632,1483.7092 L1828.12717,1483.7092 Z M1853.73629,1516.36364 C1862.97262,1516.36364 1871.11805,1509.52729 1871.11805,1496.21825 L1871.11805,1495.05462 C1871.11805,1481.74557 1862.97262,1474.90923 1853.73629,1474.90923 C1844.49996,1474.90923 1836.42726,1481.74557 1836.42726,1495.05462 L1836.42726,1496.21825 C1836.42726,1509.52729 1844.49996,1516.36364 1853.73629,1516.36364 L1853.73629,1516.36364 Z M1853.73629,1508.00003 C1849.4454,1508.00003 1845.37268,1505.09095 1845.37268,1496.21825 L1845.37268,1495.05462 C1845.37268,1486.18192 1849.4454,1483.27284 1853.73629,1483.27284 C1858.02719,1483.27284 1862.17263,1486.18192 1862.17263,1495.05462 L1862.17263,1496.21825 C1862.17263,1505.09095 1858.02719,1508.00003 1853.73629,1508.00003 L1853.73629,1508.00003 Z M1914.48175,1474.90923 C1909.89995,1475.12741 1905.53633,1475.34559 1900.95453,1475.6365 L1900.95453,1516 L1909.97268,1516 L1909.97268,1504.36368 L1915.28175,1504.36368 C1923.06354,1504.21822 1928.66352,1498.18188 1928.66352,1489.81827 C1928.66352,1479.78194 1921.31809,1474.90923 1914.48175,1474.90923 L1914.48175,1474.90923 Z M1909.97268,1496.21825 L1909.97268,1484.07284 C1911.35449,1484.00011 1912.4454,1483.92738 1913.82721,1483.92738 C1917.68174,1483.92738 1919.57265,1486.4001 1919.57265,1490.32736 C1919.57265,1494.03644 1916.66357,1496.21825 1913.97267,1496.21825 L1909.97268,1496.21825 Z M1965.9817,1516 L1958.27264,1502.18187 C1962.05444,1499.70915 1964.38171,1495.2728 1964.38171,1489.74554 C1964.38171,1479.78194 1956.96355,1474.90923 1950.19994,1474.90923 C1945.61813,1475.12741 1941.25451,1475.34559 1936.67271,1475.6365 L1936.67271,1516 L1945.69086,1516 L1945.69086,1504.36368 L1949.10903,1504.36368 L1955.58174,1516 L1965.9817,1516 Z M1945.69086,1484.14556 C1947.07267,1484.00011 1948.16358,1484.00011 1949.54539,1483.92738 C1953.39993,1483.92738 1955.29083,1486.4001 1955.29083,1490.25463 C1955.29083,1494.10917 1952.38175,1496.21825 1949.69085,1496.21825 L1945.69086,1496.21825 L1945.69086,1484.14556 Z M1990.13629,1516.36364 C1999.37262,1516.36364 2007.51805,1509.52729 2007.51805,1496.21825 L2007.51805,1495.05462 C2007.51805,1481.74557 1999.37262,1474.90923 1990.13629,1474.90923 C1980.89996,1474.90923 1972.82726,1481.74557 1972.82726,1495.05462 L1972.82726,1496.21825 C1972.82726,1509.52729 1980.89996,1516.36364 1990.13629,1516.36364 L1990.13629,1516.36364 Z M1990.13629,1508.00003 C1985.8454,1508.00003 1981.77268,1505.09095 1981.77268,1496.21825 L1981.77268,1495.05462 C1981.77268,1486.18192 1985.8454,1483.27284 1990.13629,1483.27284 C1994.42719,1483.27284 1998.57263,1486.18192 1998.57263,1495.05462 L1998.57263,1496.21825 C1998.57263,1505.09095 1994.42719,1508.00003 1990.13629,1508.00003 L1990.13629,1508.00003 Z M2017.12726,1516 L2030.21812,1516 C2037.4181,1516 2047.59988,1511.4182 2047.59988,1496.0728 C2047.59988,1481.60012 2039.01809,1474.90923 2031.09084,1474.90923 C2026.36359,1475.12741 2021.78178,1475.34559 2017.12726,1475.6365 L2017.12726,1516 Z M2026.14541,1506.98185 L2026.14541,1484.14556 C2027.59995,1484.00011 2028.83631,1484.00011 2030.29085,1483.92738 C2035.74537,1483.92738 2038.43627,1489.45464 2038.43627,1496.3637 C2038.43627,1502.61823 2035.59992,1506.98185 2030.07267,1506.98185 L2026.14541,1506.98185 Z M2072.04539,1516.21818 C2080.84536,1516.21818 2087.75442,1510.47275 2087.75442,1499.8546 L2087.60897,1475.27287 L2078.59082,1475.27287 L2078.73627,1499.12733 C2078.73627,1504.36368 2076.1181,1507.27276 2072.04539,1507.27276 C2068.26358,1507.27276 2065.28177,1504.50913 2065.3545,1499.12733 L2065.28177,1475.20014 L2056.26362,1475.70923 L2056.33635,1499.8546 C2056.40908,1510.47275 2063.31814,1516.21818 2072.04539,1516.21818 L2072.04539,1516.21818 Z M2113.58175,1516.36364 C2120.27263,1516.36364 2126.3817,1512.80001 2128.92715,1505.2364 L2120.709,1501.89096 C2119.61809,1505.52731 2116.56356,1507.41821 2113.58175,1507.41821 C2109.43631,1507.41821 2104.99996,1504.50913 2104.99996,1496.21825 L2104.99996,1495.05462 C2104.99996,1486.76374 2109.43631,1483.85466 2113.58175,1483.85466 C2116.4181,1483.85466 2119.25446,1485.52738 2120.56354,1488.80009 L2128.70897,1485.52738 C2126.0908,1478.76376 2120.05445,1474.90923 2113.58175,1474.90923 C2104.41814,1474.90923 2096.05453,1481.74557 2096.05453,1495.05462 L2096.05453,1496.21825 C2096.05453,1509.52729 2104.41814,1516.36364 2113.58175,1516.36364 L2113.58175,1516.36364 Z M2161.51809,1475.27287 L2134.1,1475.27287 L2134.1,1484.07284 L2143.19087,1484.07284 L2143.19087,1516 L2152.28175,1516 L2152.28175,1484.07284 L2161.51809,1484.07284 L2161.51809,1475.27287 Z M2177.96359,1474.98196 L2168.87271,1475.41832 L2168.87271,1516 L2177.96359,1516 L2177.96359,1474.98196 Z M2205.09993,1516.36364 C2214.33626,1516.36364 2222.48169,1509.52729 2222.48169,1496.21825 L2222.48169,1495.05462 C2222.48169,1481.74557 2214.33626,1474.90923 2205.09993,1474.90923 C2195.8636,1474.90923 2187.7909,1481.74557 2187.7909,1495.05462 L2187.7909,1496.21825 C2187.7909,1509.52729 2195.8636,1516.36364 2205.09993,1516.36364 L2205.09993,1516.36364 Z M2205.09993,1508.00003 C2200.80903,1508.00003 2196.73632,1505.09095 2196.73632,1496.21825 L2196.73632,1495.05462 C2196.73632,1486.18192 2200.80903,1483.27284 2205.09993,1483.27284 C2209.39082,1483.27284 2213.53626,1486.18192 2213.53626,1495.05462 L2213.53626,1496.21825 C2213.53626,1505.09095 2209.39082,1508.00003 2205.09993,1508.00003 L2205.09993,1508.00003 Z M2254.78172,1475.27287 L2254.78172,1499.41824 L2240.30905,1475.05469 L2232.09089,1475.56377 L2232.09089,1516 L2241.18177,1516 L2241.18177,1492.07281 L2255.65445,1516 L2263.8726,1516 L2263.8726,1475.27287 L2254.78172,1475.27287 Z M2287.00903,1516.36364 C2294.79082,1516.36364 2300.31808,1511.12729 2300.31808,1503.92731 C2300.31808,1490.54554 2284.24541,1492.36372 2283.44541,1487.27283 C2283.1545,1485.45465 2284.68177,1483.85466 2287.08176,1483.85466 C2289.04539,1483.85466 2291.15447,1485.09101 2292.0272,1487.85464 L2300.24535,1485.67283 C2299.44535,1479.70921 2293.55447,1474.90923 2286.49994,1474.90923 C2279.15451,1474.90923 2273.33635,1480.14558 2273.33635,1486.76374 C2273.33635,1499.12733 2290.4272,1497.67279 2290.64538,1503.49095 C2290.71811,1505.81822 2288.97266,1507.1273 2286.71812,1507.1273 C2284.46359,1507.1273 2282.49996,1505.38185 2282.0636,1502.76368 L2273.26363,1505.16367 C2274.49998,1511.92729 2280.17269,1516.36364 2287.00903,1516.36364 L2287.00903,1516.36364 Z"></path>
						</svg>